<svg width="68" height="68" viewBox="0 0 68 68" fill="none" xmlns="http://www.w3.org/2000/svg">
<g id="Group">
<path id="Vector" d="M30.7271 43.3938H10.7538V45.6984H30.7271V43.3938ZM31.4953 48.3871H9.98562C9.13753 48.3871 8.44922 47.6988 8.44922 46.8507V42.2415C8.44922 41.3934 9.13753 40.7051 9.98562 40.7051H31.4953C32.3434 40.7051 33.0317 41.3934 33.0317 42.2415V46.8507C33.0317 47.6988 32.3434 48.3871 31.4953 48.3871Z" fill="#656565"/>
<path id="Vector_2" d="M30.7271 32.6399H10.7538V34.9445H30.7271V32.6399ZM31.4953 37.6332H9.98562C9.13753 37.6332 8.44922 36.9449 8.44922 36.0968V31.4876C8.44922 30.6395 9.13753 29.9512 9.98562 29.9512H31.4953C32.3434 29.9512 33.0317 30.6395 33.0317 31.4876V36.0968C33.0317 36.9449 32.3434 37.6332 31.4953 37.6332Z" fill="#656565"/>
<path id="Vector_3" d="M30.7271 21.886H10.7538V24.1906H30.7271V21.886ZM31.4953 26.8793H9.98562C9.13753 26.8793 8.44922 26.191 8.44922 25.3429V20.7337C8.44922 19.8856 9.13753 19.1973 9.98562 19.1973H31.4953C32.3434 19.1973 33.0317 19.8856 33.0317 20.7337V25.3429C33.0317 26.191 32.3434 26.8793 31.4953 26.8793Z" fill="#656565"/>
<path id="Vector_4" d="M59.1461 32.2564H56.8415V21.5014H52.2318V32.2564H43.0123V21.5014H38.4026V46.084H43.0123V35.3293H59.145V47.6192C59.145 48.4677 58.4569 49.1558 57.6087 49.1558H49.9266V41.474H52.2312V46.0837H56.841V38.4019H45.318V49.1566H37.6362C36.7877 49.1566 36.0996 48.4685 36.0996 47.62V19.9643C36.0996 19.1158 36.7877 18.4277 37.6362 18.4277H43.7817C44.6302 18.4277 45.318 19.1158 45.318 19.9643V29.1838H49.9277V19.9643C49.9277 19.1158 50.6155 18.4277 51.464 18.4277H57.6098C58.458 18.4277 59.1461 19.1158 59.1461 19.9643V32.2564Z" fill="#656565"/>
<path id="Vector_5" d="M34 67.9973C15.2215 67.9973 0 52.775 0 33.9986C0 15.2212 15.2229 0 34 0C52.7785 0 68 15.2222 68 33.9986C68 52.7764 52.7771 68 34 68V67.9973ZM34 64.909C51.0436 64.909 64.9113 51.0438 64.9113 33.9989C64.9113 16.956 51.0447 3.08883 34 3.08883C16.9564 3.08883 3.08868 16.9541 3.08868 33.9989C3.08868 51.0418 16.9553 64.909 34 64.909" fill="#656565"/>
</g>
</svg>
