<svg width="35" height="47" viewBox="0 0 35 47" fill="none" xmlns="http://www.w3.org/2000/svg">
<path fill-rule="evenodd" clip-rule="evenodd" d="M26.8086 3.22888L27.1426 0H29.9609L30.293 3.22888C30.3105 3.45374 30.2871 3.67859 30.2227 3.89185C30.1484 4.13098 30.0254 4.35559 29.8496 4.54956C29.7461 4.67834 29.623 4.77087 29.4824 4.85266L29.293 4.953V22.0134H33V25.0217L32.5918 25.2424C32.5176 25.2788 32.4492 25.3212 32.3848 25.3689C32.2988 25.4316 32.2227 25.5037 32.1562 25.5835C32.1172 25.6285 32.082 25.676 32.0508 25.7257C32.0117 25.7902 31.9766 25.8584 31.9473 25.9297C31.8848 26.0798 31.8516 26.2438 31.8516 26.4161C31.8516 26.5996 31.8887 26.7736 31.959 26.9315C32.002 27.0298 32.0566 27.1219 32.1211 27.2063C32.1816 27.2837 32.25 27.3545 32.3262 27.4175C32.4082 27.4843 32.4961 27.5422 32.5918 27.59L33 27.8107V41.0918C33 43.5133 30.998 45.4945 28.5508 45.4945C26.1035 45.4945 24.1016 43.5133 24.1016 41.0918V27.8107L24.5098 27.59C24.9922 27.3698 25.25 26.9298 25.25 26.4161C25.25 25.9025 24.9551 25.4625 24.5098 25.2424L24.1016 25.0217V22.0134H27.8086V4.953C27.7012 4.89929 27.6016 4.84558 27.5117 4.78333C27.416 4.71814 27.3301 4.64343 27.2539 4.54956C27.123 4.40759 27.0215 4.24902 26.9492 4.08032L26.8906 3.93054C26.8477 3.80066 26.8203 3.66626 26.8086 3.52991C26.8008 3.4303 26.8008 3.32959 26.8086 3.22888ZM5.00586 1.35718L5.19141 1.24756H6.48828V9.57568C8.56445 11.1533 11.457 11.1533 13.5332 9.57568V1.24756H14.832L15.0176 1.32068C18.0938 3.08179 20.0234 6.38391 20.0234 9.90601C20.0234 10.0529 20.0234 10.2365 19.9492 10.4198V10.6033C19.9277 10.665 19.918 10.7151 19.9141 10.7666L19.9102 10.8337V10.8964C19.9102 10.9331 19.9004 10.97 19.8906 11.0067L19.8848 11.025C19.8789 11.0557 19.873 11.0864 19.873 11.1171C19.873 11.1467 19.8672 11.1823 19.8613 11.219L19.8555 11.2454C19.8477 11.2911 19.8379 11.3369 19.8379 11.3737L19.8359 11.4056L19.8281 11.4631L19.8145 11.5383C19.8066 11.5706 19.8008 11.6003 19.8008 11.6301C19.8008 11.7035 19.7637 11.7775 19.7637 11.8508C19.7461 11.8864 19.7363 11.9305 19.7285 11.975L19.7109 12.0487C19.7051 12.0697 19.6992 12.0896 19.6895 12.1074C19.6895 12.1808 19.6523 12.254 19.6523 12.3274C19.6152 12.4008 19.6152 12.5112 19.5781 12.5846C19.5781 12.658 19.5781 12.6947 19.541 12.7681C19.541 12.855 19.5176 12.9187 19.4902 12.9957L19.4668 13.0612C19.4297 13.0979 19.4297 13.1714 19.3926 13.208L19.334 13.3552L19.2812 13.5018C19.2812 13.5386 19.2441 13.5748 19.2441 13.6115C19.207 13.7216 19.1328 13.8318 19.0957 13.9419C19.0957 13.9785 19.0586 13.9783 19.0586 14.0149C19.041 14.0852 19.0156 14.1556 18.9844 14.222L18.9355 14.3164L18.873 14.4191C18.5137 15.1034 18.084 15.735 17.584 16.3141C17.3613 16.5734 17.123 16.8221 16.8711 17.0604L16.4258 17.5377C15.0176 18.9685 14.0527 22.7104 14.0527 25.1686V41.4587C14.0527 43.6968 12.2363 45.4945 9.97461 45.4945C7.71289 45.4945 5.89648 43.6968 5.89648 41.4587V25.1321C5.89648 22.6738 4.93164 18.9313 3.52344 17.5004L3.07812 17.0239C2.26172 16.2534 1.59375 15.3724 1.07617 14.3818L1.04688 14.325L0.984375 14.1802C0.957031 14.116 0.927734 14.0518 0.890625 13.9784C0.890625 13.9619 0.882812 13.9529 0.875 13.9447C0.865234 13.9346 0.853516 13.9255 0.853516 13.9053C0.835938 13.8503 0.808594 13.7953 0.78125 13.7402C0.751953 13.6852 0.724609 13.63 0.705078 13.575C0.705078 13.5566 0.697266 13.5383 0.6875 13.5199C0.677734 13.5015 0.667969 13.483 0.667969 13.4646C0.630859 13.3912 0.59375 13.2816 0.556641 13.1715C0.539062 13.1532 0.529297 13.1257 0.519531 13.0981C0.509766 13.0706 0.5 13.043 0.482422 13.0247C0.482422 12.9375 0.458984 12.873 0.431641 12.7954L0.408203 12.7308C0.408203 12.6941 0.398438 12.6666 0.390625 12.6392C0.380859 12.6116 0.371094 12.584 0.371094 12.5474C0.333984 12.474 0.333984 12.3643 0.296875 12.2909C0.296875 12.2174 0.259766 12.1443 0.259766 12.0708C0.222656 11.9974 0.185547 11.887 0.185547 11.8136L0.179688 11.7623L0.173828 11.7219L0.167969 11.7036L0.158203 11.6661C0.152344 11.642 0.148438 11.6178 0.148438 11.5936C0.148438 11.533 0.136719 11.4835 0.126953 11.4392C0.119141 11.403 0.111328 11.37 0.111328 11.337C0.111328 11.3074 0.105469 11.2719 0.0996094 11.2351L0.09375 11.2085C0.0839844 11.1625 0.0742188 11.1165 0.0742188 11.0798C0.0371094 11.0065 0.0371094 10.9332 0.0371094 10.8599C0 10.7498 0 10.6768 0 10.5668V10.3833V9.90601C0 6.38391 1.92773 3.08154 5.00586 1.35718ZM28.4766 1.46753H28.625L28.8086 3.37512L28.8066 3.4176L28.8008 3.46155L28.7852 3.51709L28.7715 3.54712L28.7363 3.59583C28.6992 3.63245 28.6621 3.66882 28.5508 3.66882C28.4395 3.66882 28.3652 3.63245 28.3652 3.59583C28.3652 3.55908 28.291 3.48511 28.291 3.37512L28.4766 1.46753ZM5.00586 10.2365V3.08203C2.81641 4.65967 1.48242 7.19104 1.48242 9.90601L1.48438 10.1722C1.48828 10.2396 1.49219 10.3063 1.5 10.3712L1.50781 10.4312L1.52344 10.5139C1.53125 10.557 1.54297 10.5991 1.55664 10.6399V10.6764L1.66797 11.4102V11.484C1.70117 11.5996 1.72852 11.7152 1.75391 11.8275L1.79688 12.0177C1.8125 12.0869 1.83203 12.1539 1.85352 12.2178V12.2543C1.9043 12.4294 1.95508 12.6046 2.01758 12.7682C2.04688 12.8444 2.07812 12.9181 2.11328 12.988V13.0247C2.51953 14.0153 3.11328 14.9327 3.85547 15.7032L4.18945 16.0328C5.70898 17.4637 7.74805 18.3446 10.0098 18.3446C12.2715 18.3446 14.3125 17.4644 15.8691 16.0701L16.2031 15.7397C16.9434 14.9326 17.5371 14.0518 17.9453 13.0612V13.0247L18.041 12.7896L18.1094 12.5941L18.2051 12.2909V12.2543C18.2793 11.9974 18.3535 11.7773 18.3906 11.5205V11.4468C18.4277 11.2266 18.4648 10.9697 18.502 10.7129V10.6764C18.5391 10.4196 18.5391 10.1628 18.5391 9.90601C18.5391 7.19104 17.2031 4.65967 15.0156 3.08203V10.2729L14.7578 10.4929C13.3848 11.6302 11.7168 12.2178 10.0098 12.2178C8.30469 12.2178 6.63672 11.6305 5.26367 10.4564L5.00586 10.2365ZM8.25586 19.6646C8.82422 19.7629 9.41016 19.8121 10.0098 19.8121C11.3828 19.8121 12.6797 19.5554 13.8672 19.0417C13.0137 21.0963 12.6055 23.6276 12.6055 25.1686V41.4586C12.6055 42.8895 11.457 44.0269 10.0098 44.0269C8.56445 44.0269 7.41602 42.8895 7.41602 41.4586V25.1686C7.41602 23.5909 7.00781 21.0963 6.1543 19.0417C6.41211 19.1538 6.67578 19.2537 6.94531 19.3413C7.37109 19.4795 7.80664 19.5873 8.25586 19.6646ZM31.5156 24.1783V23.4811H25.584V24.1783C26.2891 24.692 26.7324 25.499 26.7324 26.4163C26.7324 27.2968 26.2891 28.1405 25.584 28.6541V40.358H31.5156V28.6541C30.8125 28.1405 30.3672 27.3335 30.3672 26.4163C30.3672 25.5356 30.8125 24.692 31.5156 24.1783ZM10.0117 40.358C9.39648 40.358 8.89844 40.8508 8.89844 41.4587C8.89844 41.6338 8.93945 41.7992 9.01367 41.946C9.05078 42.0216 9.0957 42.0923 9.15039 42.1567C9.35352 42.4025 9.66406 42.5593 10.0117 42.5593C10.625 42.5593 11.123 42.0667 11.123 41.4587C11.123 41.2603 11.0703 41.0741 10.9766 40.9132C10.9512 40.8677 10.9219 40.8242 10.8887 40.7831C10.6855 40.5244 10.3672 40.358 10.0117 40.358ZM31.4434 41.8256H25.6953C26.0293 43.073 27.1777 44.0269 28.5508 44.0269C29.9219 44.0269 31.0723 43.073 31.4434 41.8256Z" transform="translate(1 1)" fill="#307CE0" stroke="#307CE0" stroke-width="0.4"/>
</svg>
