<svg width="43" height="47" viewBox="0 0 43 47" fill="none" xmlns="http://www.w3.org/2000/svg">
<path fill-rule="evenodd" clip-rule="evenodd" d="M26.3906 13.1335C26.3906 20.3752 20.4707 26.2665 13.1953 26.2665C5.91992 26.2665 0 20.3752 0 13.1335C0 5.89178 5.91992 0 13.1953 0C20.4707 0 26.3906 5.89178 26.3906 13.1335ZM24.4766 13.1335C24.4766 6.94141 19.416 1.90399 13.1953 1.90399C6.97266 1.90399 1.91211 6.94141 1.91211 13.1335C1.91211 19.3253 6.97266 24.3626 13.1953 24.3626C19.416 24.3626 24.4766 19.3251 24.4766 13.1335Z" transform="translate(8.30469 8.29474)" fill="#307CE0"/>
<path d="M0.956471 1.90399C4.92784 1.90399 8.15891 5.11973 8.15891 9.07268C8.15891 9.59838 8.58717 10.0247 9.11544 10.0247C9.64371 10.0247 10.072 9.59838 10.072 9.07268C10.072 4.07012 5.98295 0 0.956533 0C0.428327 0 0 0.426233 0 0.951994C-6.19597e-05 1.47776 0.428265 1.90399 0.956471 1.90399Z" transform="translate(20.543 12.3556)" fill="#307CE0"/>
<path fill-rule="evenodd" clip-rule="evenodd" d="M1.25781 0.0483398C4.3418 1.0636 7.69727 1.0636 10.7812 0.0483398C11.0723 -0.0478516 11.3926 0.000976562 11.6406 0.18042C11.8906 0.359497 12.0371 0.64624 12.0371 0.952026V4.58618C12.0371 7.8894 9.33789 10.5765 6.01953 10.5765C2.69922 10.5765 0 7.88928 0 4.58618V0.952026C0 0.810425 0.03125 0.672852 0.0898438 0.548218C0.158203 0.403687 0.261719 0.276489 0.396484 0.18042C0.644531 0.00146484 0.964844 -0.0478516 1.25781 0.0483398ZM6.01758 8.67249C8.2832 8.67249 10.123 6.83923 10.123 4.58606V2.21777C7.4375 2.88159 4.59961 2.88159 1.91211 2.21777V4.58606C1.91211 6.83923 3.75391 8.67249 6.01758 8.67249Z" transform="translate(15.4805 35.735)" fill="#307CE0"/>
<path d="M1.91307 5.57667V0.951994C1.91307 0.426233 1.4848 0 0.956533 0C0.428265 0 0 0.426233 0 0.951994V5.57667C0 6.10237 0.428327 6.52866 0.956533 6.52866C1.48474 6.52866 1.91307 6.10237 1.91307 5.57667Z" transform="translate(20.543 0.0610962)" fill="#307CE0"/>
<path d="M3.28051 5.90926C3.4426 5.90926 3.60698 5.86838 3.75785 5.78192C4.21511 5.5188 4.37206 4.93686 4.10768 4.48133L1.78456 0.476335C1.52117 0.0212431 0.93596 -0.135388 0.478264 0.127678C0.0210021 0.390805 -0.135942 0.972744 0.12844 1.42827L2.45156 5.43333C2.62802 5.73863 2.94983 5.90926 3.28051 5.90926Z" transform="translate(10.2871 2.79596)" fill="#307CE0"/>
<path d="M5.80872 3.74071C6.0731 3.28562 5.91615 2.70318 5.45889 2.44012L1.43474 0.127596C0.977535 -0.135038 0.391831 0.0206677 0.12844 0.476192C-0.135942 0.931284 0.0210021 1.51372 0.478264 1.77678L4.50236 4.08937C4.65323 4.17582 4.81761 4.21671 4.9797 4.21671C5.31037 4.21671 5.63213 4.04608 5.80872 3.74071Z" transform="translate(2.7793 10.2683)" fill="#307CE0"/>
<path d="M5.60326 0H0.956533C0.428265 0 0 0.426294 0 0.951994C0 1.47769 0.428265 1.90399 0.956533 1.90399H5.60326C6.13103 1.90399 6.55979 1.47769 6.55979 0.951994C6.55979 0.426294 6.13103 0 5.60326 0Z" transform="translate(0.03125 20.4763)" fill="#307CE0"/>
<path d="M5.60326 0H0.956533C0.428327 0 0 0.426294 0 0.951994C0 1.47769 0.428265 1.90399 0.956533 1.90399H5.60326C6.13147 1.90399 6.55979 1.47769 6.55979 0.951994C6.55979 0.426294 6.13147 0 5.60326 0Z" transform="translate(36.4102 20.4763)" fill="#307CE0"/>
<path d="M0.957656 4.2167C1.12018 4.2167 1.28462 4.17582 1.43499 4.08936L5.45865 1.77684C5.91585 1.51371 6.0728 0.931282 5.80848 0.476251C5.54459 0.0206656 4.95938 -0.13504 4.50212 0.127594L0.478522 2.44012C0.0207641 2.70324 -0.135684 3.28568 0.128202 3.74077C0.305717 4.04614 0.626977 4.2167 0.957656 4.2167Z" transform="translate(34.2832 10.2687)" fill="#307CE0"/>
<path d="M0.955786 5.90875C1.28646 5.90875 1.60779 5.73812 1.7853 5.43275L4.10749 1.42819C4.37181 0.972662 4.21486 0.390661 3.75766 0.127596C3.29997 -0.135038 2.71519 0.0206677 2.45131 0.476192L0.128191 4.48076C-0.135695 4.93628 0.0208147 5.51828 0.478449 5.78135C0.628887 5.86786 0.793266 5.90875 0.955786 5.90875Z" transform="translate(28.4766 2.79645)" fill="#307CE0"/>
</svg>
