<svg width="42" height="42" viewBox="0 0 42 42" fill="none" xmlns="http://www.w3.org/2000/svg">
<mask id="path-2-outside-1" maskUnits="userSpaceOnUse" x="-1" y="-1" width="42" height="42" fill="black">
<rect fill="white" x="-1" y="-1" width="42" height="42"/>
<path fill-rule="evenodd" clip-rule="evenodd" d="M32.8965 8.37207V12.4031H40V40H0V12.4031H7.23633V8.37207H4.57227V4.474H7.23633V0H9.98828V4.474H14.873V0H17.625V4.474H22.5078V0H25.2617V4.474H30.1445V0H32.8965V4.474H35.5605V8.37207H32.8965ZM32.0078 0.885986H31.0312V4.474H32.0078V0.885986ZM23.3965 0.885986H24.373V4.474H23.3965V0.885986ZM16.7363 0.885986H15.7598V4.474H16.7363V0.885986ZM8.125 0.885986H9.10156V4.474H8.125V0.885986ZM7.23633 5.35986H5.46094V7.48608H34.6738V5.35986H32.8965H30.1445H25.2617H22.5078H17.625H14.873H9.98828H7.23633ZM8.125 8.37207H32.0098V12.4031H8.125V8.37207ZM23.75 13.2891H16.3809V39.1141H23.75V13.2891ZM15.4941 39.0698H8.125V13.2891H15.4941V39.0698ZM32.0078 13.2891H24.6387V39.1141H32.0078V13.2891ZM0.888672 13.2891H7.28125V39.1141H0.888672V13.2891ZM32.8965 39.0698H39.1113V13.2891H32.8965V39.0698Z"/>
</mask>
<path fill-rule="evenodd" clip-rule="evenodd" d="M32.8965 8.37207V12.4031H40V40H0V12.4031H7.23633V8.37207H4.57227V4.474H7.23633V0H9.98828V4.474H14.873V0H17.625V4.474H22.5078V0H25.2617V4.474H30.1445V0H32.8965V4.474H35.5605V8.37207H32.8965ZM32.0078 0.885986H31.0312V4.474H32.0078V0.885986ZM23.3965 0.885986H24.373V4.474H23.3965V0.885986ZM16.7363 0.885986H15.7598V4.474H16.7363V0.885986ZM8.125 0.885986H9.10156V4.474H8.125V0.885986ZM7.23633 5.35986H5.46094V7.48608H34.6738V5.35986H32.8965H30.1445H25.2617H22.5078H17.625H14.873H9.98828H7.23633ZM8.125 8.37207H32.0098V12.4031H8.125V8.37207ZM23.75 13.2891H16.3809V39.1141H23.75V13.2891ZM15.4941 39.0698H8.125V13.2891H15.4941V39.0698ZM32.0078 13.2891H24.6387V39.1141H32.0078V13.2891ZM0.888672 13.2891H7.28125V39.1141H0.888672V13.2891ZM32.8965 39.0698H39.1113V13.2891H32.8965V39.0698Z" transform="translate(1 1)" fill="#307CE0"/>
<path d="M32.8965 12.4031H32.3965V12.9031H32.8965V12.4031ZM32.8965 8.37207V7.87207H32.3965V8.37207H32.8965ZM40 12.4031H40.5V11.9031H40V12.4031ZM40 40V40.5H40.5V40H40ZM0 40H-0.5V40.5H0V40ZM0 12.4031V11.9031H-0.5V12.4031H0ZM7.23633 12.4031V12.9031H7.73633V12.4031H7.23633ZM7.23633 8.37207H7.73633V7.87207H7.23633V8.37207ZM4.57227 8.37207H4.07227V8.87207H4.57227V8.37207ZM4.57227 4.474V3.974H4.07227V4.474H4.57227ZM7.23633 4.474V4.974H7.73633V4.474H7.23633ZM7.23633 0V-0.5H6.73633V0H7.23633ZM9.98828 0H10.4883V-0.5H9.98828V0ZM9.98828 4.474H9.48828V4.974H9.98828V4.474ZM14.873 4.474V4.974H15.373V4.474H14.873ZM14.873 0V-0.5H14.373V0H14.873ZM17.625 0H18.125V-0.5H17.625V0ZM17.625 4.474H17.125V4.974H17.625V4.474ZM22.5078 4.474V4.974H23.0078V4.474H22.5078ZM22.5078 0V-0.5H22.0078V0H22.5078ZM25.2617 0H25.7617V-0.5H25.2617V0ZM25.2617 4.474H24.7617V4.974H25.2617V4.474ZM30.1445 4.474V4.974H30.6445V4.474H30.1445ZM30.1445 0V-0.5H29.6445V0H30.1445ZM32.8965 0H33.3965V-0.5H32.8965V0ZM32.8965 4.474H32.3965V4.974H32.8965V4.474ZM35.5605 4.474H36.0605V3.974H35.5605V4.474ZM35.5605 8.37207V8.87207H36.0605V8.37207H35.5605ZM31.0312 0.885986V0.385986H30.5312V0.885986H31.0312ZM32.0078 0.885986H32.5078V0.385986H32.0078V0.885986ZM31.0312 4.474H30.5312V4.974H31.0312V4.474ZM32.0078 4.474V4.974H32.5078V4.474H32.0078ZM24.373 0.885986H24.873V0.385986H24.373V0.885986ZM23.3965 0.885986V0.385986H22.8965V0.885986H23.3965ZM24.373 4.474V4.974H24.873V4.474H24.373ZM23.3965 4.474H22.8965V4.974H23.3965V4.474ZM15.7598 0.885986V0.385986H15.2598V0.885986H15.7598ZM16.7363 0.885986H17.2363V0.385986H16.7363V0.885986ZM15.7598 4.474H15.2598V4.974H15.7598V4.474ZM16.7363 4.474V4.974H17.2363V4.474H16.7363ZM9.10156 0.885986H9.60156V0.385986H9.10156V0.885986ZM8.125 0.885986V0.385986H7.625V0.885986H8.125ZM9.10156 4.474V4.974H9.60156V4.474H9.10156ZM8.125 4.474H7.625V4.974H8.125V4.474ZM5.46094 5.35986V4.85986H4.96094V5.35986H5.46094ZM5.46094 7.48608H4.96094V7.98608H5.46094V7.48608ZM34.6738 7.48608V7.98608H35.1738V7.48608H34.6738ZM34.6738 5.35986H35.1738V4.85986H34.6738V5.35986ZM32.0098 8.37207H32.5098V7.87207H32.0098V8.37207ZM8.125 8.37207V7.87207H7.625V8.37207H8.125ZM32.0098 12.4031V12.9031H32.5098V12.4031H32.0098ZM8.125 12.4031H7.625V12.9031H8.125V12.4031ZM16.3809 13.2891V12.7891H15.8809V13.2891H16.3809ZM23.75 13.2891H24.25V12.7891H23.75V13.2891ZM16.3809 39.1141H15.8809V39.6141H16.3809V39.1141ZM23.75 39.1141V39.6141H24.25V39.1141H23.75ZM8.125 39.0698H7.625V39.5698H8.125V39.0698ZM15.4941 39.0698V39.5698H15.9941V39.0698H15.4941ZM8.125 13.2891V12.7891H7.625V13.2891H8.125ZM15.4941 13.2891H15.9941V12.7891H15.4941V13.2891ZM24.6387 13.2891V12.7891H24.1387V13.2891H24.6387ZM32.0078 13.2891H32.5078V12.7891H32.0078V13.2891ZM24.6387 39.1141H24.1387V39.6141H24.6387V39.1141ZM32.0078 39.1141V39.6141H32.5078V39.1141H32.0078ZM7.28125 13.2891H7.78125V12.7891H7.28125V13.2891ZM0.888672 13.2891V12.7891H0.388672V13.2891H0.888672ZM7.28125 39.1141V39.6141H7.78125V39.1141H7.28125ZM0.888672 39.1141H0.388672V39.6141H0.888672V39.1141ZM39.1113 39.0698V39.5698H39.6113V39.0698H39.1113ZM32.8965 39.0698H32.3965V39.5698H32.8965V39.0698ZM39.1113 13.2891H39.6113V12.7891H39.1113V13.2891ZM32.8965 13.2891V12.7891H32.3965V13.2891H32.8965ZM33.3965 12.4031V8.37207H32.3965V12.4031H33.3965ZM40 11.9031H32.8965V12.9031H40V11.9031ZM40.5 40V12.4031H39.5V40H40.5ZM0 40.5H40V39.5H0V40.5ZM-0.5 12.4031V40H0.5V12.4031H-0.5ZM7.23633 11.9031H0V12.9031H7.23633V11.9031ZM6.73633 8.37207V12.4031H7.73633V8.37207H6.73633ZM4.57227 8.87207H7.23633V7.87207H4.57227V8.87207ZM4.07227 4.474V8.37207H5.07227V4.474H4.07227ZM7.23633 3.974H4.57227V4.974H7.23633V3.974ZM6.73633 0V4.474H7.73633V0H6.73633ZM9.98828 -0.5H7.23633V0.5H9.98828V-0.5ZM10.4883 4.474V0H9.48828V4.474H10.4883ZM14.873 3.974H9.98828V4.974H14.873V3.974ZM14.373 0V4.474H15.373V0H14.373ZM17.625 -0.5H14.873V0.5H17.625V-0.5ZM18.125 4.474V0H17.125V4.474H18.125ZM22.5078 3.974H17.625V4.974H22.5078V3.974ZM22.0078 0V4.474H23.0078V0H22.0078ZM25.2617 -0.5H22.5078V0.5H25.2617V-0.5ZM25.7617 4.474V0H24.7617V4.474H25.7617ZM30.1445 3.974H25.2617V4.974H30.1445V3.974ZM29.6445 0V4.474H30.6445V0H29.6445ZM32.8965 -0.5H30.1445V0.5H32.8965V-0.5ZM33.3965 4.474V0H32.3965V4.474H33.3965ZM35.5605 3.974H32.8965V4.974H35.5605V3.974ZM36.0605 8.37207V4.474H35.0605V8.37207H36.0605ZM32.8965 8.87207H35.5605V7.87207H32.8965V8.87207ZM31.0312 1.38599H32.0078V0.385986H31.0312V1.38599ZM31.5312 4.474V0.885986H30.5312V4.474H31.5312ZM32.0078 3.974H31.0312V4.974H32.0078V3.974ZM31.5078 0.885986V4.474H32.5078V0.885986H31.5078ZM24.373 0.385986H23.3965V1.38599H24.373V0.385986ZM24.873 4.474V0.885986H23.873V4.474H24.873ZM23.3965 4.974H24.373V3.974H23.3965V4.974ZM22.8965 0.885986V4.474H23.8965V0.885986H22.8965ZM15.7598 1.38599H16.7363V0.385986H15.7598V1.38599ZM16.2598 4.474V0.885986H15.2598V4.474H16.2598ZM16.7363 3.974H15.7598V4.974H16.7363V3.974ZM16.2363 0.885986V4.474H17.2363V0.885986H16.2363ZM9.10156 0.385986H8.125V1.38599H9.10156V0.385986ZM9.60156 4.474V0.885986H8.60156V4.474H9.60156ZM8.125 4.974H9.10156V3.974H8.125V4.974ZM7.625 0.885986V4.474H8.625V0.885986H7.625ZM5.46094 5.85986H7.23633V4.85986H5.46094V5.85986ZM5.96094 7.48608V5.35986H4.96094V7.48608H5.96094ZM34.6738 6.98608H5.46094V7.98608H34.6738V6.98608ZM34.1738 5.35986V7.48608H35.1738V5.35986H34.1738ZM32.8965 5.85986H34.6738V4.85986H32.8965V5.85986ZM30.1445 5.85986H32.8965V4.85986H30.1445V5.85986ZM25.2617 5.85986H30.1445V4.85986H25.2617V5.85986ZM22.5078 5.85986H25.2617V4.85986H22.5078V5.85986ZM17.625 5.85986H22.5078V4.85986H17.625V5.85986ZM14.873 5.85986H17.625V4.85986H14.873V5.85986ZM9.98828 5.85986H14.873V4.85986H9.98828V5.85986ZM7.23633 5.85986H9.98828V4.85986H7.23633V5.85986ZM32.0098 7.87207H8.125V8.87207H32.0098V7.87207ZM32.5098 12.4031V8.37207H31.5098V12.4031H32.5098ZM8.125 12.9031H32.0098V11.9031H8.125V12.9031ZM7.625 8.37207V12.4031H8.625V8.37207H7.625ZM16.3809 13.7891H23.75V12.7891H16.3809V13.7891ZM16.8809 39.1141V13.2891H15.8809V39.1141H16.8809ZM23.75 38.6141H16.3809V39.6141H23.75V38.6141ZM23.25 13.2891V39.1141H24.25V13.2891H23.25ZM8.125 39.5698H15.4941V38.5698H8.125V39.5698ZM7.625 13.2891V39.0698H8.625V13.2891H7.625ZM15.4941 12.7891H8.125V13.7891H15.4941V12.7891ZM15.9941 39.0698V13.2891H14.9941V39.0698H15.9941ZM24.6387 13.7891H32.0078V12.7891H24.6387V13.7891ZM25.1387 39.1141V13.2891H24.1387V39.1141H25.1387ZM32.0078 38.6141H24.6387V39.6141H32.0078V38.6141ZM31.5078 13.2891V39.1141H32.5078V13.2891H31.5078ZM7.28125 12.7891H0.888672V13.7891H7.28125V12.7891ZM7.78125 39.1141V13.2891H6.78125V39.1141H7.78125ZM0.888672 39.6141H7.28125V38.6141H0.888672V39.6141ZM0.388672 13.2891V39.1141H1.38867V13.2891H0.388672ZM39.1113 38.5698H32.8965V39.5698H39.1113V38.5698ZM38.6113 13.2891V39.0698H39.6113V13.2891H38.6113ZM32.8965 13.7891H39.1113V12.7891H32.8965V13.7891ZM33.3965 39.0698V13.2891H32.3965V39.0698H33.3965Z" transform="translate(1 1)" fill="#307CE0" mask="url(#path-2-outside-1)"/>
</svg>
