<svg width="47" height="43" viewBox="0 0 47 43" fill="none" xmlns="http://www.w3.org/2000/svg">
<path fill-rule="evenodd" clip-rule="evenodd" d="M42.8711 23.3339C43.1895 22.5117 42.998 21.5632 42.3633 20.9309L25.0234 3.60437L21.4043 0L13.1465 8.22058H6.73242C5.08203 8.22058 3.74805 9.54858 3.74805 11.1926C3.74805 12.8368 5.08203 14.1647 6.73242 14.1647H7.30469L1.20703 20.2354C0.445312 20.9941 0 22.0691 0 23.1442C0 24.2191 0.445312 25.2941 1.20703 26.053L14.5449 39.3324C15.3711 40.1544 16.3867 40.5338 17.4668 40.5338C18.5469 40.5338 19.5625 40.1544 20.3887 39.3324L28.4531 31.3015L28.7715 30.9854L34.4238 25.3573C34.8691 24.9147 35.377 24.725 36.0117 24.725H40.8398C41.7285 24.6617 42.5547 24.1559 42.8711 23.3339ZM23.0566 4.30005L14.9902 12.2677H11.8145L21.4043 2.71912L23.0566 4.30005ZM5.65234 11.1926C5.65234 11.7618 6.16016 12.2677 6.73242 12.2677H9.14648L11.3047 10.1177H6.73242C6.53125 10.1177 6.33984 10.1793 6.17578 10.2838C6.07812 10.3455 5.99023 10.4219 5.91602 10.5093C5.75391 10.6985 5.65234 10.9393 5.65234 11.1926ZM19.0547 38.0044C18.1641 38.8896 16.7676 38.8896 15.9414 38.0044L2.60352 24.725C2.16016 24.2823 1.96875 23.7765 1.96875 23.144C1.96875 22.8557 2.0332 22.5674 2.14844 22.2955C2.25977 22.0308 2.41602 21.7816 2.60352 21.5632L9.9707 14.1647H13.1465C12.7656 14.6705 12.5117 15.3029 12.5117 15.9353C12.5117 16.7573 12.8301 17.4529 13.4004 18.022C13.6875 18.3074 14.0215 18.5291 14.3809 18.6793C14.7383 18.8287 15.1172 18.9073 15.498 18.9073C16.3223 18.9073 17.0215 18.5912 17.6562 18.022C18.1641 17.5161 18.9277 17.5161 19.4355 18.022C19.9434 18.528 19.9434 19.2867 19.4355 19.7926L13.8457 25.3573C13.2109 25.9896 12.8301 26.8118 12.8301 27.7603C12.8301 28.7087 13.2109 29.5309 13.8457 30.1632C14.4805 30.7955 15.3066 31.1749 16.2598 31.1749C16.8496 31.1749 17.3906 31.0294 17.8672 30.7682C18.1602 30.6078 18.4297 30.4038 18.6719 30.1632L22.9922 25.8632C23.2461 25.6102 23.7539 25.6102 24.0078 25.8632C24.127 25.981 24.1895 26.1538 24.1973 26.3303C24.207 26.5326 24.1426 26.7399 24.0078 26.875C22.8008 28.0764 22.8008 30.0367 24.0078 31.2382L24.0723 31.3014C24.3887 31.6176 24.7695 31.8706 25.1504 31.9971L19.0547 38.0044ZM27.1211 29.9735L33.0918 24.0294C33.8535 23.2074 34.9336 22.7646 36.0117 22.7014H40.8398C40.9941 22.7014 41.0664 22.6167 41.1211 22.5513L41.1562 22.5117C41.2207 22.4485 41.2207 22.322 41.0938 22.1956L24.3887 5.5647L17.7207 12.2043H26.5488L26.6133 12.1411C26.7676 11.9878 26.9492 11.8757 27.1426 11.8051C27.668 11.6133 28.291 11.7253 28.709 12.1411C29.2793 12.7103 29.2793 13.6588 28.709 14.2279C28.1367 14.797 27.1836 14.797 26.6133 14.2279L26.5488 14.1647H15.8145L14.7363 15.2397C14.5449 15.4294 14.418 15.6824 14.418 15.9985C14.418 16.3147 14.5449 16.5676 14.7363 16.7573C15.1797 17.1367 15.8789 17.1367 16.2598 16.7573C17.5293 15.4927 19.5625 15.4927 20.7695 16.7573C21.9766 18.0221 21.9766 20.0455 20.7695 21.2471L15.1797 26.8118C14.8633 27.0647 14.7363 27.4441 14.7363 27.8235C14.7363 28.2029 14.9258 28.5824 15.1797 28.8353C15.752 29.4044 16.7051 29.4044 17.2754 28.8353L21.5957 24.5353C22.6113 23.5236 24.2617 23.5236 25.2793 24.5353C26.2949 25.547 26.2949 27.1912 25.2793 28.2029C24.834 28.7089 24.834 29.4677 25.2793 29.9103L25.3418 29.9735C25.7871 30.4794 26.6133 30.4794 27.1211 29.9735Z" transform="translate(0.253906 0.379395)" fill="#307CE0"/>
<path fill-rule="evenodd" clip-rule="evenodd" d="M6.88281 7.16833L7.05078 7.46179L7.0918 7.53735C7.64453 8.51172 8.06445 9.25928 8.00195 10.3074C8.00195 12.5206 6.22461 14.2911 4.00195 14.2911C1.7793 14.2911 0 12.5206 0 10.3074C0 9.34021 0.412109 8.57788 0.910156 7.65198L1.08008 7.33533C1.65039 6.26025 2.34961 4.93237 3.11133 2.78235L4.06445 0L4.95312 2.78235C5.58594 4.90271 6.32422 6.19214 6.88281 7.16833ZM1.96875 10.3074C1.96875 11.4456 2.92188 12.394 4.06445 12.394C5.20703 12.394 6.16016 11.4456 6.22461 10.3074C6.22461 9.80151 5.9707 9.29553 5.46289 8.41028C5.01758 7.71472 4.57227 6.89258 4.06445 5.75439C3.80664 6.34082 3.54883 6.86353 3.30273 7.32251C3.125 7.6554 2.95508 7.95471 2.79492 8.22058C2.22266 9.2323 1.96875 9.73816 1.96875 10.3074Z" transform="translate(38.6797 28.2662)" fill="#307CE0"/>
</svg>
