<svg width="50" height="32" viewBox="0 0 50 32" fill="none" xmlns="http://www.w3.org/2000/svg">
<path fill-rule="evenodd" clip-rule="evenodd" d="M50 21.8182V5.45459C50 3.45459 48.3633 1.81824 46.3633 1.81824H40H14.5449C14.5449 0.818237 13.7266 0 12.7266 0H11.8184C10.8184 0 10 0.818237 10 1.81824H7.27344L3.63672 3.63635V9.09094H0V10.9091V16.3636V18.1818H3.63672V23.6364L7.27344 25.4546H10C10 26.4546 10.8184 27.2727 11.8184 27.2727H12.7266C13.7266 27.2727 14.5449 26.4546 14.5449 25.4546H18.1816L17.2734 27.2727H15.4551V31.8182H37.2734V27.2727H35.4551L34.5449 25.4546H40H46.3633C48.3633 25.4546 50 23.8182 50 21.8182ZM18.1816 7.27283H34.5469C35.0488 7.27283 35.4551 6.86646 35.4551 6.36365C35.4551 5.86096 35.0488 5.45459 34.5469 5.45459H18.1816C17.6816 5.45459 17.2734 5.86096 17.2734 6.36365C17.2734 6.86646 17.6816 7.27283 18.1816 7.27283ZM17.2734 17.2727C17.2734 17.03 17.3691 16.8098 17.5234 16.647C17.6895 16.4724 17.9238 16.3636 18.1816 16.3636H34.5469C35.0488 16.3636 35.4551 16.77 35.4551 17.2727C35.4551 17.7755 35.0488 18.1819 34.5469 18.1819H18.1816C17.6816 18.1819 17.2734 17.7755 17.2734 17.2727ZM34.5469 14.5455H18.1816C17.6816 14.5455 17.2734 14.1392 17.2734 13.6364C17.2734 13.1337 17.6816 12.7273 18.1816 12.7273H34.5469C34.8438 12.7273 35.1074 12.8691 35.2715 13.0889L35.3164 13.1533L35.3457 13.2089L35.3711 13.256L35.4023 13.334L35.4375 13.4553L35.4531 13.5555L35.4551 13.6364C35.4551 14.1392 35.0488 14.5455 34.5469 14.5455ZM18.1816 10.9092H34.5469C34.8672 10.9092 35.1484 10.7434 35.3105 10.4927C35.3516 10.428 35.3848 10.3577 35.4102 10.2831C35.4395 10.1941 35.4551 10.0989 35.4551 10C35.4551 9.49731 35.0488 9.09094 34.5469 9.09094H18.1816C17.9531 9.09094 17.7441 9.17554 17.584 9.31543C17.4551 9.42798 17.3594 9.57654 17.3086 9.74524L17.2852 9.85059L17.2754 9.92798L17.2734 10C17.2734 10.5028 17.6816 10.9092 18.1816 10.9092ZM3.63672 10.9091H1.81836V16.3636H3.63672V10.9091ZM7.70312 3.63635H10V23.6364H7.39844L5.45508 22.5127V18.1818V9.09094V4.76001L7.70312 3.63635ZM12.7266 1.81824H11.8184V25.4546H12.7266V1.81824ZM32.7285 21.8182V25.4546L34.0918 29.0909H35.4551V30H17.2734V29.0909H18.6367L20 25.4546V21.8182H32.7285ZM38.1816 3.63635H14.5449V23.6364H18.1816V21.8181V20H20H32.7266H34.5449V21.8181V23.6364H38.1816V3.63635ZM46.3633 3.63635C47.3672 3.63635 48.1816 4.45178 48.1816 5.45459V21.8181C48.1816 22.8209 47.3672 23.6364 46.3633 23.6364H45.4551H40V3.63635H46.3633Z" fill="#307CE0"/>
</svg>
