<svg width="225" height="189" viewBox="0 0 225 189" fill="none" xmlns="http://www.w3.org/2000/svg">
<path d="M44.9409 141.495C44.3852 141.495 43.8295 141.495 43.2738 141.495C34.9073 141.586 26.6964 139.227 19.6491 134.706C12.6019 130.185 7.02512 123.699 3.6036 116.046C0.182083 108.392 -0.935242 99.9034 0.388828 91.6221C1.7129 83.3409 5.42072 75.6274 11.057 69.429C16.6933 63.2305 24.0127 58.8169 32.1165 56.73C40.2202 54.6431 48.7556 54.9738 56.6745 57.6815C64.5933 60.3892 71.551 65.356 76.6932 71.9721C81.8353 78.5882 84.9381 86.5655 85.6205 94.9245L127.078 47.8528C119.121 34.6294 108.169 23.4707 95.109 15.2804C82.0486 7.09019 67.2474 2.0988 51.9042 0.710599C36.5609 -0.677603 21.1073 1.57642 6.79496 7.29007C-7.51735 13.0037 -20.2858 22.0163 -30.476 33.5978C-40.6663 45.1793 -47.9918 59.004 -51.8591 73.9519C-55.7264 88.8999 -56.0268 104.551 -52.736 119.637C-49.4451 134.723 -42.6555 148.82 -32.9172 160.786C-23.179 172.751 -10.7658 182.25 3.31665 188.511L44.9409 141.495Z" fill="#DFE0E1"/>
<path d="M166.843 0.3125L125.46 47.2967C125.961 47.2967 126.406 47.2967 126.962 47.2967C135.317 47.2524 143.503 49.648 150.521 54.1906C157.538 58.7332 163.083 65.2262 166.477 72.8756C169.871 80.5251 170.968 88.9998 169.633 97.2636C168.298 105.528 164.589 113.223 158.959 119.408C153.33 125.594 146.024 130.002 137.935 132.095C129.845 134.187 121.323 133.872 113.409 131.189C105.495 128.505 98.5329 123.57 93.3733 116.986C88.2137 110.401 85.0803 102.454 84.3561 94.1136L42.918 141.209C50.9109 154.395 61.8868 165.512 74.9589 173.662C88.0311 181.812 102.833 186.768 118.169 188.128C133.505 189.488 148.946 187.214 163.243 181.491C177.541 175.768 190.295 166.756 200.474 155.182C210.654 143.608 217.975 129.797 221.844 114.865C225.714 99.9326 226.025 84.2978 222.751 69.2232C219.478 54.1486 212.712 40.0568 202.999 28.0861C193.287 16.1154 180.902 6.60134 166.843 0.3125Z" fill="#DFE0E1"/>
</svg>
