<svg width="497" height="340" fill="none" xmlns="http://www.w3.org/2000/svg"><mask id="a" maskUnits="userSpaceOnUse" x="0" y="0" width="497" height="340"><path d="M158.01 247.494c1.496 4.923 1.353 26.066 5.272 33.736h43.271c6.628 0 17.66.428 20.956 2.212l2.397 6.71 6.71 3.355 4.793 10.066h16.776l14.858-11.983c1.782-6.332-.695-15.818 1.657-19.457 2.352-3.638 15.326.151 21.829-1.632h24.444l1.438 10.065 10.066 5.273.958 17.734 31.635.958 3.834-11.024c6.681 2.141 20.71.03 27.124 2.17 8.017 2.675 5.948 12.131 5.948 17.482 0 5.351 6.71.959 23.486 22.048 4.475 5.626 14.964 3.277 20.131 4.793l1.917-4.793 1.165-33.109v-71.701l-15.5-15.518 2.352-19.629c5.434-3.656 6.711-6.71 14.379-5.752 4.508.564 11.597-7.259 17.743-13.68 6.147-6.421 13.802-15.367 23.957-21.788 8.124-5.137 3.213-22.624-.172-29.848l-14.207-15.686-28.758-.959c-5.167.268-1.918-7.985-1.918-8.627 0-.642-13.376.48-13.376-2.017 4.009-5.173-.906-13.321 1.873-13.321s3.449-14.68-2.876-22.527c-.891 1.872-3.273 4.17-9.687 11.234-6.414 7.063-8.37 2.943-7.568 0V48.103c-2.405-7.312-17.255-11.503-28.279-8.627-19.433 5.07 1.373 11.425 1.373 16.776 0 4.28-.432 14.222 4.379 17.255l-13.421 12.462-11.982 3.355-12.649 7.569h-32.603c-7.216 0-17.354-.38-23.768-.38 1.247-5.44 2.314-22.69-4.314-22.048-8.284.803-11.982 5.376-28.758-3.834-6.628-3.639-1.241-9.5 1.52-12.8l-7.272-6.372c-3.563 3.388-10.954 1.022-15.443 1.022-4.49 0-3.674-6.778-4.208-10.167l1.917-20.868c-6.681-5.083-11.541-23.413-15.817-21.273-4.276 2.14-19.995 19.49-18.214 21.273l-4.793 18.51h-16.296c-6.592 1.515-31.355 1.716-34.989 2.358-4.544.803-7.533 14.294-15.817 17.772-6.628 2.782-.845 8.537 1.917 12.193 0 9.096-13.421 21.358-16.098 24.614-2.888 3.513-33.672 23.544-39.819 27.289-6.146 3.746 0 16.32 0 20.869 0 3.638-12.115 1.516-18.172 0l-9.087 13.644c-4.543 4.816-14.698 16.267-18.974 23.544-4.276 7.277 1.782 7.313 5.345 6.421h25.388c4.543 4.281 1.87 7.331 1.87 10.969 0 3.639-16.978 2.61-21.521 3.769l-1.194 32.593c-7.839-.624-24.96-.54-30.733.958C7.19 238.822 3.47 247.26.798 251.808c-2.138 3.639 10.065 10.426 13.607 19.172l30.733 1.153v-9.899l29.952-4.674c3.029 3.388 1.638 5.468 5.272 9.106 4.544 4.549 18.943 5.467 23.486 5.467 4.544 0 12.004.642 21.09-7.384 4.488-3.965 9.722-11.446 14.379-14.858 4.77-3.496 10.444-2.397 18.693-2.397z" fill="#C4C4C4"/></mask><g mask="url(#a)" stroke="#5B88B8" stroke-width="1.5"><circle cx="4.632" cy="11.676" r="2.605"/><circle cx="280.712" cy="11.676" r="2.605"/><circle cx="4.632" cy="149.715" r="2.605"/><circle cx="280.712" cy="149.715" r="2.605"/><circle cx="4.632" cy="80.696" r="2.605"/><circle cx="280.712" cy="80.696" r="2.605"/><circle cx="4.632" cy="218.736" r="2.605"/><circle cx="280.712" cy="218.736" r="2.605"/><circle cx="4.632" cy="287.757" r="2.605"/><circle cx="280.712" cy="287.757" r="2.605"/><circle cx="4.632" cy="46.186" r="2.605"/><circle cx="280.712" cy="46.186" r="2.605"/><circle cx="4.632" cy="184.226" r="2.605"/><circle cx="280.712" cy="184.226" r="2.605"/><circle cx="4.632" cy="115.206" r="2.605"/><circle cx="280.712" cy="115.206" r="2.605"/><circle cx="4.632" cy="253.246" r="2.605"/><circle cx="280.712" cy="253.246" r="2.605"/><circle cx="4.632" cy="322.266" r="2.605"/><circle cx="280.712" cy="322.266" r="2.605"/><circle cx="4.632" cy="23.179" r="2.605"/><circle cx="280.712" cy="23.179" r="2.605"/><circle cx="4.632" cy="161.219" r="2.605"/><circle cx="280.712" cy="161.219" r="2.605"/><circle cx="4.632" cy="92.2" r="2.605"/><circle cx="280.712" cy="92.2" r="2.605"/><circle cx="4.632" cy="230.24" r="2.605"/><circle cx="280.712" cy="230.24" r="2.605"/><circle cx="4.632" cy="299.259" r="2.605"/><circle cx="280.712" cy="299.259" r="2.605"/><circle cx="4.632" cy="57.69" r="2.605"/><circle cx="280.712" cy="57.69" r="2.605"/><circle cx="4.632" cy="195.729" r="2.605"/><circle cx="280.712" cy="195.729" r="2.605"/><circle cx="4.632" cy="126.71" r="2.605"/><circle cx="280.712" cy="126.71" r="2.605"/><circle cx="4.632" cy="264.75" r="2.605"/><circle cx="280.712" cy="264.75" r="2.605"/><circle cx="4.632" cy="333.769" r="2.605"/><circle cx="280.712" cy="333.769" r="2.605"/><circle cx="4.632" cy="34.682" r="2.605"/><circle cx="280.712" cy="34.682" r="2.605"/><circle cx="4.632" cy="172.722" r="2.605"/><circle cx="280.712" cy="172.722" r="2.605"/><circle cx="4.632" cy="103.703" r="2.605"/><circle cx="280.712" cy="103.703" r="2.605"/><circle cx="280.712" cy="241.744" r="2.605"/><circle cx="4.632" cy="310.763" r="2.605"/><circle cx="280.712" cy="310.763" r="2.605"/><circle cx="4.632" cy="69.193" r="2.605"/><circle cx="280.712" cy="69.193" r="2.605"/><circle cx="4.632" cy="207.232" r="2.605"/><circle cx="280.712" cy="207.232" r="2.605"/><circle cx="4.632" cy="138.213" r="2.605"/><circle cx="280.712" cy="138.213" r="2.605"/><circle cx="4.632" cy="276.254" r="2.605"/><circle cx="280.712" cy="276.254" r="2.605"/><circle cx="142.672" cy="11.676" r="2.605"/><circle cx="418.752" cy="11.676" r="2.605"/><circle cx="142.672" cy="149.715" r="2.605"/><circle cx="418.752" cy="149.715" r="2.605"/><circle cx="142.672" cy="80.696" r="2.605"/><circle cx="418.752" cy="80.696" r="2.605"/><circle cx="142.672" cy="218.736" r="2.605"/><circle cx="418.752" cy="218.736" r="2.605"/><circle cx="142.672" cy="287.757" r="2.605"/><circle cx="418.752" cy="287.757" r="2.605"/><circle cx="418.94" cy="287.985" r="2.872"/><circle cx="142.672" cy="46.186" r="2.605"/><circle cx="418.752" cy="46.186" r="2.605"/><circle cx="142.672" cy="184.226" r="2.605"/><circle cx="418.752" cy="184.226" r="2.605"/><circle cx="142.672" cy="115.206" r="2.605"/><circle cx="418.752" cy="115.206" r="2.605"/><circle cx="142.672" cy="253.246" r="2.605"/><circle cx="418.752" cy="253.246" r="2.605"/><circle cx="142.672" cy="322.266" r="2.605"/><circle cx="418.752" cy="322.266" r="2.605"/><circle cx="142.672" cy="23.179" r="2.605"/><circle cx="418.752" cy="23.179" r="2.605"/><circle cx="142.672" cy="161.219" r="2.605"/><circle cx="418.752" cy="161.219" r="2.605"/><circle cx="142.672" cy="92.2" r="2.605"/><circle cx="418.752" cy="92.2" r="2.605"/><circle cx="142.672" cy="230.24" r="2.605"/><circle cx="418.752" cy="230.24" r="2.605"/><circle cx="142.672" cy="299.259" r="2.605"/><circle cx="418.752" cy="299.259" r="2.605"/><circle cx="418.752" cy="57.69" r="2.605"/><circle cx="142.672" cy="195.729" r="2.605"/><circle cx="418.752" cy="195.729" r="2.605"/><circle cx="142.672" cy="126.71" r="2.605"/><circle cx="418.752" cy="126.71" r="2.605"/><circle cx="142.672" cy="264.75" r="2.605"/><circle cx="418.752" cy="264.75" r="2.605"/><circle cx="142.672" cy="333.769" r="2.605"/><circle cx="418.752" cy="333.769" r="2.605"/><circle cx="142.672" cy="34.682" r="2.605"/><circle cx="418.752" cy="34.682" r="2.605"/><circle cx="142.672" cy="172.722" r="2.605"/><circle cx="418.752" cy="172.722" r="2.605"/><circle cx="142.672" cy="103.703" r="2.605"/><circle cx="418.752" cy="103.703" r="2.605"/><circle cx="142.672" cy="241.744" r="2.605"/><circle cx="418.752" cy="241.744" r="2.605"/><circle cx="142.672" cy="310.763" r="2.605"/><circle cx="418.752" cy="310.763" r="2.605"/><circle cx="142.672" cy="69.193" r="2.605"/><circle cx="418.752" cy="69.193" r="2.605"/><circle cx="142.672" cy="207.232" r="2.605"/><circle cx="418.752" cy="207.232" r="2.605"/><circle cx="142.672" cy="138.213" r="2.605"/><circle cx="418.752" cy="138.213" r="2.605"/><circle cx="142.672" cy="276.254" r="2.605"/><circle cx="418.752" cy="276.254" r="2.605"/><circle cx="50.645" cy="11.676" r="2.605"/><circle cx="326.725" cy="11.676" r="2.605"/><circle cx="50.645" cy="149.715" r="2.605"/><circle cx="326.725" cy="149.715" r="2.605"/><circle cx="50.645" cy="80.696" r="2.605"/><circle cx="326.725" cy="80.696" r="2.605"/><circle cx="50.645" cy="218.736" r="2.605"/><circle cx="326.725" cy="218.736" r="2.605"/><circle cx="50.645" cy="287.757" r="2.605"/><circle cx="326.725" cy="287.757" r="2.605"/><circle cx="50.645" cy="46.186" r="2.605"/><circle cx="326.725" cy="46.186" r="2.605"/><circle cx="50.645" cy="184.226" r="2.605"/><circle cx="326.725" cy="184.226" r="2.605"/><circle cx="50.645" cy="115.206" r="2.605"/><circle cx="326.725" cy="115.206" r="2.605"/><circle cx="50.645" cy="253.246" r="2.605"/><circle cx="326.725" cy="253.246" r="2.605"/><circle cx="50.645" cy="322.266" r="2.605"/><circle cx="326.725" cy="322.266" r="2.605"/><circle cx="50.645" cy="23.179" r="2.605"/><circle cx="326.725" cy="23.179" r="2.605"/><circle cx="326.725" cy="161.219" r="2.605"/><circle cx="50.645" cy="92.2" r="2.605"/><circle cx="326.725" cy="92.2" r="2.605"/><circle cx="50.645" cy="230.24" r="2.605"/><circle cx="326.725" cy="230.24" r="2.605"/><circle cx="50.645" cy="299.259" r="2.605"/><circle cx="326.725" cy="299.259" r="2.605"/><circle cx="50.645" cy="57.69" r="2.605"/><circle cx="326.725" cy="57.69" r="2.605"/><circle cx="50.645" cy="195.729" r="2.605"/><circle cx="326.725" cy="195.729" r="2.605"/><circle cx="50.645" cy="126.71" r="2.605"/><circle cx="326.725" cy="126.71" r="2.605"/><circle cx="50.645" cy="264.75" r="2.605"/><circle cx="326.725" cy="264.75" r="2.605"/><circle cx="50.645" cy="333.769" r="2.605"/><circle cx="326.725" cy="333.769" r="2.605"/><circle cx="50.645" cy="34.682" r="2.605"/><circle cx="326.725" cy="34.682" r="2.605"/><circle cx="50.645" cy="172.722" r="2.605"/><circle cx="326.725" cy="172.722" r="2.605"/><circle cx="50.645" cy="103.703" r="2.605"/><circle cx="326.725" cy="103.703" r="2.605"/><circle cx="50.645" cy="241.744" r="2.605"/><circle cx="326.725" cy="241.744" r="2.605"/><circle cx="50.645" cy="310.763" r="2.605"/><circle cx="326.725" cy="310.763" r="2.605"/><circle cx="50.645" cy="69.193" r="2.605"/><circle cx="326.725" cy="69.193" r="2.605"/><circle cx="50.645" cy="207.232" r="2.605"/><circle cx="326.725" cy="207.232" r="2.605"/><circle cx="50.645" cy="138.213" r="2.605"/><circle cx="326.725" cy="138.213" r="2.605"/><circle cx="50.645" cy="276.254" r="2.605"/><circle cx="326.725" cy="276.254" r="2.605"/><circle cx="188.685" cy="11.676" r="2.605"/><circle cx="464.765" cy="11.676" r="2.605"/><circle cx="188.685" cy="149.715" r="2.605"/><circle cx="464.765" cy="149.715" r="2.605"/><circle cx="188.685" cy="80.696" r="2.605"/><circle cx="464.765" cy="80.696" r="2.605"/><circle cx="188.685" cy="218.736" r="2.605"/><circle cx="464.765" cy="218.736" r="2.605"/><circle cx="188.685" cy="287.757" r="2.605"/><circle cx="464.765" cy="287.757" r="2.605"/><circle cx="188.685" cy="46.186" r="2.605"/><circle cx="464.765" cy="46.186" r="2.605"/><circle cx="188.685" cy="184.226" r="2.605"/><circle cx="464.765" cy="184.226" r="2.605"/><circle cx="188.685" cy="115.206" r="2.605"/><circle cx="464.765" cy="115.206" r="2.605"/><circle cx="188.685" cy="253.246" r="2.605"/><circle cx="464.765" cy="253.246" r="2.605"/><circle cx="188.685" cy="322.266" r="2.605"/><circle cx="464.765" cy="322.266" r="2.605"/><circle cx="188.685" cy="23.179" r="2.605"/><circle cx="464.765" cy="23.179" r="2.605"/><circle cx="188.685" cy="161.219" r="2.605"/><circle cx="464.765" cy="161.219" r="2.605"/><circle cx="188.685" cy="92.2" r="2.605"/><circle cx="464.765" cy="92.2" r="2.605"/><circle cx="188.685" cy="230.24" r="2.605"/><circle cx="464.765" cy="230.24" r="2.605"/><circle cx="188.685" cy="299.259" r="2.605"/><circle cx="464.765" cy="299.259" r="2.605"/><circle cx="188.685" cy="57.69" r="2.605"/><circle cx="464.765" cy="57.69" r="2.605"/><circle cx="188.685" cy="195.729" r="2.605"/><circle cx="464.765" cy="195.729" r="2.605"/><circle cx="188.685" cy="126.71" r="2.605"/><circle cx="464.765" cy="126.71" r="2.605"/><circle cx="188.685" cy="264.75" r="2.605"/><circle cx="464.765" cy="264.75" r="2.605"/><circle cx="188.685" cy="333.769" r="2.605"/><circle cx="464.765" cy="333.769" r="2.605"/><circle cx="188.685" cy="34.682" r="2.605"/><circle cx="464.765" cy="34.682" r="2.605"/><circle cx="188.685" cy="172.722" r="2.605"/><circle cx="464.765" cy="172.722" r="2.605"/><circle cx="188.685" cy="103.703" r="2.605"/><circle cx="464.765" cy="103.703" r="2.605"/><circle cx="188.685" cy="241.744" r="2.605"/><circle cx="464.765" cy="241.744" r="2.605"/><circle cx="188.685" cy="310.763" r="2.605"/><circle cx="464.765" cy="310.763" r="2.605"/><circle cx="188.685" cy="69.193" r="2.605"/><circle cx="464.765" cy="69.193" r="2.605"/><circle cx="188.685" cy="207.232" r="2.605"/><circle cx="464.765" cy="207.232" r="2.605"/><circle cx="188.685" cy="138.213" r="2.605"/><circle cx="464.765" cy="138.213" r="2.605"/><circle cx="188.685" cy="276.254" r="2.605"/><circle cx="464.765" cy="276.254" r="2.605"/><circle cx="96.659" cy="11.676" r="2.605"/><circle cx="372.738" cy="11.676" r="2.605"/><circle cx="96.659" cy="149.715" r="2.605"/><circle cx="372.738" cy="149.715" r="2.605"/><circle cx="96.659" cy="80.696" r="2.605"/><circle cx="372.738" cy="80.696" r="2.605"/><circle cx="96.659" cy="218.736" r="2.605"/><circle cx="372.738" cy="218.736" r="2.605"/><circle cx="96.659" cy="287.757" r="2.605"/><circle cx="372.738" cy="287.757" r="2.605"/><circle cx="96.659" cy="46.186" r="2.605"/><circle cx="372.738" cy="46.186" r="2.605"/><circle cx="96.659" cy="184.226" r="2.605"/><circle cx="372.738" cy="184.226" r="2.605"/><circle cx="372.738" cy="115.206" r="2.605"/><circle cx="96.659" cy="253.246" r="2.605"/><circle cx="372.738" cy="253.246" r="2.605"/><circle cx="96.659" cy="322.266" r="2.605"/><circle cx="372.738" cy="322.266" r="2.605"/><circle cx="96.659" cy="23.179" r="2.605"/><circle cx="372.738" cy="23.179" r="2.605"/><circle cx="96.659" cy="161.219" r="2.605"/><circle cx="372.738" cy="161.219" r="2.605"/><circle cx="96.659" cy="92.2" r="2.605"/><circle cx="372.738" cy="92.2" r="2.605"/><circle cx="96.659" cy="230.24" r="2.605"/><circle cx="372.738" cy="230.24" r="2.605"/><circle cx="96.659" cy="299.259" r="2.605"/><circle cx="372.738" cy="299.259" r="2.605"/><circle cx="96.659" cy="57.69" r="2.605"/><circle cx="372.738" cy="57.69" r="2.605"/><circle cx="96.659" cy="195.729" r="2.605"/><circle cx="372.738" cy="195.729" r="2.605"/><circle cx="96.659" cy="126.71" r="2.605"/><circle cx="372.738" cy="126.71" r="2.605"/><circle cx="96.659" cy="264.75" r="2.605"/><circle cx="372.738" cy="264.75" r="2.605"/><circle cx="96.659" cy="333.769" r="2.605"/><circle cx="372.738" cy="333.769" r="2.605"/><circle cx="96.659" cy="34.682" r="2.605"/><circle cx="372.738" cy="34.682" r="2.605"/><circle cx="96.659" cy="172.722" r="2.605"/><circle cx="372.738" cy="172.722" r="2.605"/><circle cx="96.659" cy="103.703" r="2.605"/><circle cx="372.738" cy="103.703" r="2.605"/><circle cx="96.659" cy="241.744" r="2.605"/><circle cx="372.738" cy="241.744" r="2.605"/><circle cx="96.659" cy="310.763" r="2.605"/><circle cx="372.738" cy="310.763" r="2.605"/><circle cx="96.659" cy="69.193" r="2.605"/><circle cx="372.738" cy="69.193" r="2.605"/><circle cx="96.659" cy="207.232" r="2.605"/><circle cx="372.738" cy="207.232" r="2.605"/><circle cx="96.659" cy="138.213" r="2.605"/><circle cx="372.738" cy="138.213" r="2.605"/><circle cx="96.659" cy="276.254" r="2.605"/><circle cx="372.738" cy="276.254" r="2.605"/><circle cx="234.699" cy="149.715" r="2.605"/><circle cx="234.699" cy="80.696" r="2.605"/><circle cx="234.699" cy="218.736" r="2.605"/><circle cx="234.699" cy="287.757" r="2.605"/><circle cx="234.699" cy="184.226" r="2.605"/><circle cx="234.699" cy="115.206" r="2.605"/><circle cx="234.699" cy="253.246" r="2.605"/><circle cx="234.699" cy="322.266" r="2.605"/><circle cx="234.699" cy="23.179" r="2.605"/><circle cx="234.699" cy="161.219" r="2.605"/><circle cx="234.699" cy="92.2" r="2.605"/><circle cx="234.699" cy="230.24" r="2.605"/><circle cx="234.699" cy="299.259" r="2.605"/><circle cx="234.699" cy="57.69" r="2.605"/><circle cx="234.699" cy="195.729" r="2.605"/><circle cx="234.699" cy="126.71" r="2.605"/><circle cx="234.699" cy="264.75" r="2.605"/><circle cx="234.699" cy="333.769" r="2.605"/><circle cx="234.699" cy="34.682" r="2.605"/><circle cx="234.699" cy="172.722" r="2.605"/><circle cx="234.699" cy="103.703" r="2.605"/><circle cx="234.699" cy="241.744" r="2.605"/><circle cx="234.699" cy="310.763" r="2.605"/><circle cx="234.699" cy="69.193" r="2.605"/><circle cx="234.699" cy="207.232" r="2.605"/><circle cx="234.699" cy="138.213" r="2.605"/><circle cx="234.699" cy="276.254" r="2.605"/><circle cx="27.639" cy="11.676" r="2.605"/><circle cx="303.719" cy="11.676" r="2.605"/><circle cx="27.639" cy="149.715" r="2.605"/><circle cx="303.719" cy="149.715" r="2.605"/><circle cx="27.639" cy="80.696" r="2.605"/><circle cx="303.719" cy="80.696" r="2.605"/><circle cx="27.639" cy="218.736" r="2.605"/><circle cx="303.719" cy="218.736" r="2.605"/><circle cx="27.639" cy="287.757" r="2.605"/><circle cx="303.719" cy="287.757" r="2.605"/><circle cx="27.639" cy="46.186" r="2.605"/><circle cx="303.719" cy="46.186" r="2.605"/><circle cx="27.639" cy="184.226" r="2.605"/><circle cx="303.719" cy="184.226" r="2.605"/><circle cx="27.639" cy="115.206" r="2.605"/><circle cx="303.719" cy="115.206" r="2.605"/><circle cx="27.639" cy="253.246" r="2.605"/><circle cx="303.719" cy="253.246" r="2.605"/><circle cx="27.639" cy="322.266" r="2.605"/><circle cx="303.719" cy="322.266" r="2.605"/><circle cx="27.639" cy="23.179" r="2.605"/><circle cx="303.719" cy="23.179" r="2.605"/><circle cx="27.639" cy="161.219" r="2.605"/><circle cx="303.719" cy="161.219" r="2.605"/><circle cx="27.639" cy="92.2" r="2.605"/><circle cx="303.719" cy="92.2" r="2.605"/><circle cx="27.639" cy="230.24" r="2.605"/><circle cx="303.719" cy="230.24" r="2.605"/><circle cx="27.639" cy="299.259" r="2.605"/><circle cx="303.719" cy="299.259" r="2.605"/><circle cx="27.639" cy="57.69" r="2.605"/><circle cx="303.719" cy="57.69" r="2.605"/><circle cx="27.639" cy="195.729" r="2.605"/><circle cx="303.719" cy="195.729" r="2.605"/><circle cx="27.639" cy="126.71" r="2.605"/><circle cx="303.719" cy="126.71" r="2.605"/><circle cx="27.639" cy="264.75" r="2.605"/><circle cx="303.719" cy="264.75" r="2.605"/><circle cx="27.639" cy="333.769" r="2.605"/><circle cx="303.719" cy="333.769" r="2.605"/><circle cx="27.639" cy="34.682" r="2.605"/><circle cx="303.719" cy="34.682" r="2.605"/><circle cx="27.639" cy="172.722" r="2.605"/><circle cx="303.719" cy="172.722" r="2.605"/><circle cx="27.639" cy="103.703" r="2.605"/><circle cx="303.719" cy="103.703" r="2.605"/><circle cx="27.639" cy="241.744" r="2.605"/><circle cx="303.719" cy="241.744" r="2.605"/><circle cx="27.639" cy="310.763" r="2.605"/><circle cx="303.719" cy="310.763" r="2.605"/><circle cx="27.639" cy="69.193" r="2.605"/><circle cx="303.719" cy="69.193" r="2.605"/><circle cx="27.639" cy="207.232" r="2.605"/><circle cx="303.719" cy="207.232" r="2.605"/><circle cx="27.639" cy="138.213" r="2.605"/><circle cx="303.719" cy="138.213" r="2.605"/><circle cx="27.639" cy="276.254" r="2.605"/><circle cx="303.719" cy="276.254" r="2.605"/><circle cx="165.679" cy="11.676" r="2.605"/><circle cx="441.758" cy="11.676" r="2.605"/><circle cx="165.679" cy="149.715" r="2.605"/><circle cx="441.758" cy="149.715" r="2.605"/><circle cx="165.679" cy="80.696" r="2.605"/><circle cx="441.758" cy="80.696" r="2.605"/><circle cx="165.679" cy="218.736" r="2.605"/><circle cx="441.758" cy="218.736" r="2.605"/><circle cx="165.679" cy="287.757" r="2.605"/><circle cx="441.758" cy="287.757" r="2.605"/><circle cx="165.679" cy="46.186" r="2.605"/><circle cx="441.758" cy="46.186" r="2.605"/><circle cx="165.679" cy="184.226" r="2.605"/><circle cx="441.758" cy="184.226" r="2.605"/><circle cx="165.679" cy="115.206" r="2.605"/><circle cx="441.758" cy="115.206" r="2.605"/><circle cx="165.679" cy="253.246" r="2.605"/><circle cx="441.758" cy="253.246" r="2.605"/><circle cx="165.679" cy="322.266" r="2.605"/><circle cx="441.758" cy="322.266" r="2.605"/><circle cx="165.679" cy="23.179" r="2.605"/><circle cx="441.758" cy="23.179" r="2.605"/><circle cx="165.679" cy="161.219" r="2.605"/><circle cx="441.758" cy="161.219" r="2.605"/><circle cx="165.679" cy="92.2" r="2.605"/><circle cx="441.758" cy="92.2" r="2.605"/><circle cx="165.679" cy="230.24" r="2.605"/><circle cx="441.758" cy="230.24" r="2.605"/><circle cx="165.679" cy="299.259" r="2.605"/><circle cx="441.758" cy="299.259" r="2.605"/><circle cx="165.679" cy="57.69" r="2.605"/><circle cx="441.758" cy="57.69" r="2.605"/><circle cx="165.679" cy="195.729" r="2.605"/><circle cx="441.758" cy="195.729" r="2.605"/><circle cx="165.679" cy="126.71" r="2.605"/><circle cx="441.758" cy="126.71" r="2.605"/><circle cx="165.679" cy="264.75" r="2.605"/><circle cx="441.758" cy="264.75" r="2.605"/><circle cx="165.679" cy="333.769" r="2.605"/><circle cx="441.758" cy="333.769" r="2.605"/><circle cx="165.679" cy="34.682" r="2.605"/><circle cx="441.758" cy="34.682" r="2.605"/><circle cx="165.679" cy="172.722" r="2.605"/><circle cx="441.758" cy="172.722" r="2.605"/><circle cx="165.679" cy="103.703" r="2.605"/><circle cx="441.758" cy="103.703" r="2.605"/><circle cx="165.679" cy="241.744" r="2.605"/><circle cx="441.758" cy="241.744" r="2.605"/><circle cx="165.679" cy="310.763" r="2.605"/><circle cx="441.758" cy="310.763" r="2.605"/><circle cx="165.679" cy="69.193" r="2.605"/><circle cx="441.758" cy="69.193" r="2.605"/><circle cx="165.679" cy="207.232" r="2.605"/><circle cx="441.758" cy="207.232" r="2.605"/><circle cx="165.679" cy="138.213" r="2.605"/><circle cx="441.758" cy="138.213" r="2.605"/><circle cx="165.679" cy="276.254" r="2.605"/><circle cx="441.758" cy="276.254" r="2.605"/><circle cx="73.652" cy="11.676" r="2.605"/><circle cx="349.732" cy="11.676" r="2.605"/><circle cx="73.652" cy="149.715" r="2.605"/><circle cx="349.732" cy="149.715" r="2.605"/><circle cx="73.652" cy="80.696" r="2.605"/><circle cx="349.732" cy="80.696" r="2.605"/><circle cx="73.652" cy="218.736" r="2.605"/><circle cx="349.732" cy="218.736" r="2.605"/><circle cx="73.652" cy="287.757" r="2.605"/><circle cx="349.732" cy="287.757" r="2.605"/><circle cx="73.652" cy="46.186" r="2.605"/><circle cx="349.732" cy="46.186" r="2.605"/><circle cx="73.652" cy="184.226" r="2.605"/><circle cx="349.732" cy="184.226" r="2.605"/><circle cx="73.652" cy="115.206" r="2.605"/><circle cx="349.732" cy="115.206" r="2.605"/><circle cx="73.652" cy="253.246" r="2.605"/><circle cx="349.732" cy="253.246" r="2.605"/><circle cx="73.652" cy="322.266" r="2.605"/><circle cx="349.732" cy="322.266" r="2.605"/><circle cx="73.652" cy="23.179" r="2.605"/><circle cx="349.732" cy="23.179" r="2.605"/><circle cx="73.652" cy="161.219" r="2.605"/><circle cx="349.732" cy="161.219" r="2.605"/><circle cx="73.652" cy="92.2" r="2.605"/><circle cx="349.732" cy="92.2" r="2.605"/><circle cx="73.652" cy="230.24" r="2.605"/><circle cx="349.732" cy="230.24" r="2.605"/><circle cx="73.652" cy="299.259" r="2.605"/><circle cx="349.732" cy="299.259" r="2.605"/><circle cx="73.652" cy="57.69" r="2.605"/><circle cx="349.732" cy="57.69" r="2.605"/><circle cx="73.652" cy="195.729" r="2.605"/><circle cx="349.732" cy="195.729" r="2.605"/><circle cx="73.652" cy="126.71" r="2.605"/><circle cx="349.732" cy="126.71" r="2.605"/><circle cx="73.652" cy="264.75" r="2.605"/><circle cx="349.732" cy="264.75" r="2.605"/><circle cx="73.652" cy="333.769" r="2.605"/><circle cx="349.732" cy="333.769" r="2.605"/><circle cx="73.652" cy="34.682" r="2.605"/><circle cx="349.732" cy="34.682" r="2.605"/><circle cx="73.652" cy="172.722" r="2.605"/><circle cx="349.732" cy="172.722" r="2.605"/><circle cx="73.652" cy="103.703" r="2.605"/><circle cx="349.732" cy="103.703" r="2.605"/><circle cx="73.652" cy="241.744" r="2.605"/><circle cx="349.732" cy="241.744" r="2.605"/><circle cx="73.652" cy="310.763" r="2.605"/><circle cx="349.732" cy="310.763" r="2.605"/><circle cx="73.652" cy="69.193" r="2.605"/><circle cx="349.732" cy="69.193" r="2.605"/><circle cx="73.652" cy="207.232" r="2.605"/><circle cx="349.732" cy="207.232" r="2.605"/><circle cx="73.652" cy="138.213" r="2.605"/><circle cx="349.732" cy="138.213" r="2.605"/><circle cx="73.652" cy="276.254" r="2.605"/><circle cx="349.732" cy="276.254" r="2.605"/><circle cx="487.771" cy="11.676" r="2.605"/><circle cx="211.692" cy="149.715" r="2.605"/><circle cx="487.771" cy="149.715" r="2.605"/><circle cx="211.692" cy="80.696" r="2.605"/><circle cx="487.771" cy="80.696" r="2.605"/><circle cx="211.692" cy="218.736" r="2.605"/><circle cx="487.771" cy="218.736" r="2.605"/><circle cx="211.692" cy="287.757" r="2.605"/><circle cx="487.771" cy="287.757" r="2.605"/><circle cx="211.692" cy="46.186" r="2.605"/><circle cx="487.771" cy="46.186" r="2.605"/><circle cx="211.692" cy="184.226" r="2.605"/><circle cx="487.771" cy="184.226" r="2.605"/><circle cx="211.692" cy="115.206" r="2.605"/><circle cx="487.771" cy="115.206" r="2.605"/><circle cx="211.692" cy="253.246" r="2.605"/><circle cx="487.771" cy="253.246" r="2.605"/><circle cx="211.692" cy="322.266" r="2.605"/><circle cx="487.771" cy="322.266" r="2.605"/><circle cx="211.692" cy="23.179" r="2.605"/><circle cx="487.771" cy="23.179" r="2.605"/><circle cx="211.692" cy="161.219" r="2.605"/><circle cx="487.771" cy="161.219" r="2.605"/><circle cx="211.692" cy="92.2" r="2.605"/><circle cx="487.771" cy="92.2" r="2.605"/><circle cx="211.692" cy="230.24" r="2.605"/><circle cx="487.771" cy="230.24" r="2.605"/><circle cx="211.692" cy="299.259" r="2.605"/><circle cx="487.771" cy="299.259" r="2.605"/><circle cx="211.692" cy="57.69" r="2.605"/><circle cx="487.771" cy="57.69" r="2.605"/><circle cx="211.692" cy="195.729" r="2.605"/><circle cx="487.771" cy="195.729" r="2.605"/><circle cx="211.692" cy="126.71" r="2.605"/><circle cx="487.771" cy="126.71" r="2.605"/><circle cx="211.692" cy="264.75" r="2.605"/><circle cx="487.771" cy="264.75" r="2.605"/><circle cx="211.692" cy="333.769" r="2.605"/><circle cx="487.771" cy="333.769" r="2.605"/><circle cx="211.692" cy="34.682" r="2.605"/><circle cx="487.771" cy="34.682" r="2.605"/><circle cx="211.692" cy="172.722" r="2.605"/><circle cx="487.771" cy="172.722" r="2.605"/><circle cx="211.692" cy="103.703" r="2.605"/><circle cx="487.771" cy="103.703" r="2.605"/><circle cx="211.692" cy="241.744" r="2.605"/><circle cx="487.771" cy="241.744" r="2.605"/><circle cx="211.692" cy="310.763" r="2.605"/><circle cx="487.771" cy="310.763" r="2.605"/><circle cx="211.692" cy="69.193" r="2.605"/><circle cx="487.771" cy="69.193" r="2.605"/><circle cx="211.692" cy="207.232" r="2.605"/><circle cx="487.771" cy="207.232" r="2.605"/><circle cx="211.692" cy="138.213" r="2.605"/><circle cx="487.771" cy="138.213" r="2.605"/><circle cx="211.692" cy="276.254" r="2.605"/><circle cx="487.771" cy="276.254" r="2.605"/><circle cx="119.665" cy="11.676" r="2.605"/><circle cx="395.745" cy="11.676" r="2.605"/><circle cx="119.665" cy="149.715" r="2.605"/><circle cx="395.745" cy="149.715" r="2.605"/><circle cx="119.665" cy="80.696" r="2.605"/><circle cx="395.745" cy="80.696" r="2.605"/><circle cx="119.665" cy="218.736" r="2.605"/><circle cx="395.745" cy="218.736" r="2.605"/><circle cx="119.665" cy="287.757" r="2.605"/><circle cx="395.745" cy="287.757" r="2.605"/><circle cx="119.665" cy="46.186" r="2.605"/><circle cx="395.745" cy="46.186" r="2.605"/><circle cx="119.665" cy="184.226" r="2.605"/><circle cx="395.745" cy="184.226" r="2.605"/><circle cx="119.665" cy="115.206" r="2.605"/><circle cx="395.745" cy="115.206" r="2.605"/><circle cx="119.665" cy="253.246" r="2.605"/><circle cx="395.745" cy="253.246" r="2.605"/><circle cx="119.665" cy="322.266" r="2.605"/><circle cx="395.745" cy="322.266" r="2.605"/><circle cx="119.665" cy="23.179" r="2.605"/><circle cx="395.745" cy="23.179" r="2.605"/><circle cx="119.665" cy="161.219" r="2.605"/><circle cx="395.745" cy="161.219" r="2.605"/><circle cx="119.665" cy="92.2" r="2.605"/><circle cx="395.745" cy="92.2" r="2.605"/><circle cx="119.665" cy="230.24" r="2.605"/><circle cx="395.745" cy="230.24" r="2.605"/><circle cx="119.665" cy="299.259" r="2.605"/><circle cx="395.745" cy="299.259" r="2.605"/><circle cx="119.665" cy="57.69" r="2.605"/><circle cx="395.745" cy="57.69" r="2.605"/><circle cx="119.665" cy="195.729" r="2.605"/><circle cx="395.745" cy="195.729" r="2.605"/><circle cx="119.665" cy="126.71" r="2.605"/><circle cx="395.745" cy="126.71" r="2.605"/><circle cx="119.665" cy="264.75" r="2.605"/><circle cx="395.745" cy="264.75" r="2.605"/><circle cx="119.665" cy="333.769" r="2.605"/><circle cx="395.745" cy="333.769" r="2.605"/><circle cx="119.665" cy="34.682" r="2.605"/><circle cx="395.745" cy="34.682" r="2.605"/><circle cx="119.665" cy="172.722" r="2.605"/><circle cx="395.745" cy="172.722" r="2.605"/><circle cx="119.665" cy="103.703" r="2.605"/><circle cx="395.745" cy="103.703" r="2.605"/><circle cx="119.665" cy="241.744" r="2.605"/><circle cx="395.745" cy="241.744" r="2.605"/><circle cx="119.665" cy="310.763" r="2.605"/><circle cx="395.745" cy="310.763" r="2.605"/><circle cx="119.665" cy="69.193" r="2.605"/><circle cx="395.745" cy="69.193" r="2.605"/><circle cx="119.665" cy="207.232" r="2.605"/><circle cx="395.745" cy="207.232" r="2.605"/><circle cx="119.665" cy="138.213" r="2.605"/><circle cx="395.745" cy="138.213" r="2.605"/><circle cx="119.665" cy="276.254" r="2.605"/><circle cx="395.745" cy="276.254" r="2.605"/><circle cx="257.705" cy="11.676" r="2.605"/><circle cx="257.705" cy="149.715" r="2.605"/><circle cx="257.705" cy="80.696" r="2.605"/><circle cx="257.705" cy="218.736" r="2.605"/><circle cx="257.705" cy="287.757" r="2.605"/><circle cx="257.705" cy="46.186" r="2.605"/><circle cx="257.705" cy="184.226" r="2.605"/><circle cx="257.705" cy="115.206" r="2.605"/><circle cx="257.705" cy="253.246" r="2.605"/><circle cx="257.705" cy="322.266" r="2.605"/><circle cx="257.705" cy="23.179" r="2.605"/><circle cx="257.705" cy="161.219" r="2.605"/><circle cx="257.705" cy="92.2" r="2.605"/><circle cx="257.705" cy="230.24" r="2.605"/><circle cx="257.705" cy="299.259" r="2.605"/><circle cx="257.705" cy="57.69" r="2.605"/><circle cx="257.705" cy="195.729" r="2.605"/><circle cx="257.705" cy="126.71" r="2.605"/><circle cx="257.705" cy="264.75" r="2.605"/><circle cx="257.705" cy="333.769" r="2.605"/><circle cx="257.705" cy="34.682" r="2.605"/><circle cx="257.705" cy="172.722" r="2.605"/><circle cx="257.705" cy="103.703" r="2.605"/><circle cx="257.705" cy="241.744" r="2.605"/><circle cx="257.705" cy="310.763" r="2.605"/><circle cx="257.705" cy="69.193" r="2.605"/><circle cx="257.705" cy="207.232" r="2.605"/><circle cx="257.705" cy="138.213" r="2.605"/><circle cx="257.705" cy="276.254" r="2.605"/><circle cx="16.136" cy="11.676" r="2.605"/><circle cx="292.215" cy="11.676" r="2.605"/><circle cx="16.136" cy="149.715" r="2.605"/><circle cx="292.215" cy="149.715" r="2.605"/><circle cx="16.136" cy="80.696" r="2.605"/><circle cx="292.215" cy="80.696" r="2.605"/><circle cx="16.136" cy="218.736" r="2.605"/><circle cx="292.215" cy="218.736" r="2.605"/><circle cx="16.136" cy="287.757" r="2.605"/><circle cx="292.215" cy="287.757" r="2.605"/><circle cx="16.136" cy="46.186" r="2.605"/><circle cx="292.215" cy="46.186" r="2.605"/><circle cx="16.136" cy="184.226" r="2.605"/><circle cx="292.215" cy="184.226" r="2.605"/><circle cx="16.136" cy="115.206" r="2.605"/><circle cx="292.215" cy="115.206" r="2.605"/><circle cx="16.136" cy="253.246" r="2.605"/><circle cx="292.215" cy="253.246" r="2.605"/><circle cx="16.136" cy="322.266" r="2.605"/><circle cx="292.215" cy="322.266" r="2.605"/><circle cx="16.136" cy="23.179" r="2.605"/><circle cx="292.215" cy="23.179" r="2.605"/><circle cx="16.136" cy="161.219" r="2.605"/><circle cx="292.215" cy="161.219" r="2.605"/><circle cx="16.136" cy="92.2" r="2.605"/><circle cx="292.215" cy="92.2" r="2.605"/><circle cx="16.136" cy="230.24" r="2.605"/><circle cx="292.215" cy="230.24" r="2.605"/><circle cx="16.136" cy="299.259" r="2.605"/><circle cx="292.215" cy="299.259" r="2.605"/><circle cx="16.136" cy="57.69" r="2.605"/><circle cx="292.215" cy="57.69" r="2.605"/><circle cx="16.136" cy="195.729" r="2.605"/><circle cx="292.215" cy="195.729" r="2.605"/><circle cx="16.136" cy="126.71" r="2.605"/><circle cx="292.215" cy="126.71" r="2.605"/><circle cx="16.136" cy="264.75" r="2.605"/><circle cx="292.215" cy="264.75" r="2.605"/><circle cx="16.136" cy="333.769" r="2.605"/><circle cx="292.215" cy="333.769" r="2.605"/><circle cx="16.136" cy="34.682" r="2.605"/><circle cx="292.215" cy="34.682" r="2.605"/><circle cx="16.136" cy="172.722" r="2.605"/><circle cx="292.215" cy="172.722" r="2.605"/><circle cx="16.136" cy="103.703" r="2.605"/><circle cx="292.215" cy="103.703" r="2.605"/><circle cx="16.136" cy="241.744" r="2.605"/><circle cx="292.215" cy="241.744" r="2.605"/><circle cx="16.136" cy="310.763" r="2.605"/><circle cx="292.215" cy="310.763" r="2.605"/><circle cx="16.136" cy="69.193" r="2.605"/><circle cx="292.215" cy="69.193" r="2.605"/><circle cx="16.136" cy="207.232" r="2.605"/><circle cx="292.215" cy="207.232" r="2.605"/><circle cx="16.136" cy="138.213" r="2.605"/><circle cx="292.215" cy="138.213" r="2.605"/><circle cx="16.136" cy="276.254" r="2.605"/><circle cx="292.215" cy="276.254" r="2.605"/><circle cx="154.176" cy="11.676" r="2.605"/><circle cx="430.255" cy="11.676" r="2.605"/><circle cx="154.176" cy="149.715" r="2.605"/><circle cx="430.255" cy="149.715" r="2.605"/><circle cx="154.176" cy="80.696" r="2.605"/><circle cx="430.255" cy="80.696" r="2.605"/><circle cx="154.176" cy="218.736" r="2.605"/><circle cx="430.255" cy="218.736" r="2.605"/><circle cx="154.176" cy="287.757" r="2.605"/><circle cx="430.255" cy="287.757" r="2.605"/><circle cx="154.176" cy="46.186" r="2.605"/><circle cx="430.255" cy="46.186" r="2.605"/><circle cx="154.176" cy="184.226" r="2.605"/><circle cx="430.255" cy="184.226" r="2.605"/><circle cx="154.176" cy="115.206" r="2.605"/><circle cx="430.255" cy="115.206" r="2.605"/><circle cx="154.176" cy="253.246" r="2.605"/><circle cx="430.255" cy="253.246" r="2.605"/><circle cx="154.176" cy="322.266" r="2.605"/><circle cx="430.255" cy="322.266" r="2.605"/><circle cx="154.176" cy="23.179" r="2.605"/><circle cx="430.255" cy="23.179" r="2.605"/><circle cx="154.176" cy="161.219" r="2.605"/><circle cx="430.255" cy="161.219" r="2.605"/><circle cx="154.176" cy="92.2" r="2.605"/><circle cx="430.255" cy="92.2" r="2.605"/><circle cx="154.176" cy="230.24" r="2.605"/><circle cx="430.255" cy="230.24" r="2.605"/><circle cx="154.176" cy="299.259" r="2.605"/><circle cx="430.255" cy="299.259" r="2.605"/><circle cx="154.176" cy="57.69" r="2.605"/><circle cx="430.255" cy="57.69" r="2.605"/><circle cx="154.176" cy="195.729" r="2.605"/><circle cx="430.255" cy="195.729" r="2.605"/><circle cx="154.176" cy="126.71" r="2.605"/><circle cx="430.255" cy="126.71" r="2.605"/><circle cx="154.176" cy="264.75" r="2.605"/><circle cx="430.255" cy="264.75" r="2.605"/><circle cx="154.176" cy="333.769" r="2.605"/><circle cx="430.255" cy="333.769" r="2.605"/><circle cx="154.176" cy="34.682" r="2.605"/><circle cx="430.255" cy="34.682" r="2.605"/><circle cx="154.176" cy="172.722" r="2.605"/><circle cx="430.255" cy="172.722" r="2.605"/><circle cx="154.176" cy="103.703" r="2.605"/><circle cx="430.255" cy="103.703" r="2.605"/><circle cx="154.176" cy="241.744" r="2.605"/><circle cx="430.255" cy="241.744" r="2.605"/><circle cx="154.176" cy="310.763" r="2.605"/><circle cx="430.255" cy="310.763" r="2.605"/><circle cx="154.176" cy="69.193" r="2.605"/><circle cx="430.255" cy="69.193" r="2.605"/><circle cx="154.176" cy="207.232" r="2.605"/><circle cx="430.255" cy="207.232" r="2.605"/><circle cx="154.176" cy="138.213" r="2.605"/><circle cx="430.255" cy="138.213" r="2.605"/><circle cx="154.176" cy="276.254" r="2.605"/><circle cx="430.255" cy="276.254" r="2.605"/><circle cx="62.149" cy="11.676" r="2.605"/><circle cx="338.228" cy="11.676" r="2.605"/><circle cx="338.228" cy="149.715" r="2.605"/><circle cx="62.149" cy="80.696" r="2.605"/><circle cx="338.228" cy="80.696" r="2.605"/><circle cx="62.149" cy="218.736" r="2.605"/><circle cx="338.228" cy="218.736" r="2.605"/><circle cx="62.149" cy="287.757" r="2.605"/><circle cx="338.228" cy="287.757" r="2.605"/><circle cx="62.149" cy="46.186" r="2.605"/><circle cx="338.228" cy="46.186" r="2.605"/><circle cx="62.149" cy="184.226" r="2.605"/><circle cx="338.228" cy="184.226" r="2.605"/><circle cx="62.149" cy="115.206" r="2.605"/><circle cx="338.228" cy="115.206" r="2.605"/><circle cx="62.149" cy="253.246" r="2.605"/><circle cx="338.228" cy="253.246" r="2.605"/><circle cx="62.149" cy="322.266" r="2.605"/><circle cx="338.228" cy="322.266" r="2.605"/><circle cx="62.149" cy="23.179" r="2.605"/><circle cx="338.228" cy="23.179" r="2.605"/><circle cx="62.149" cy="161.219" r="2.605"/><circle cx="338.228" cy="161.219" r="2.605"/><circle cx="62.149" cy="92.2" r="2.605"/><circle cx="338.228" cy="92.2" r="2.605"/><circle cx="62.149" cy="230.24" r="2.605"/><circle cx="338.228" cy="230.24" r="2.605"/><circle cx="62.149" cy="299.259" r="2.605"/><circle cx="338.228" cy="299.259" r="2.605"/><circle cx="62.149" cy="57.69" r="2.605"/><circle cx="338.228" cy="57.69" r="2.605"/><circle cx="62.149" cy="195.729" r="2.605"/><circle cx="338.228" cy="195.729" r="2.605"/><circle cx="62.149" cy="126.71" r="2.605"/><circle cx="338.228" cy="126.71" r="2.605"/><circle cx="62.149" cy="264.75" r="2.605"/><circle cx="338.228" cy="264.75" r="2.605"/><circle cx="62.149" cy="333.769" r="2.605"/><circle cx="338.228" cy="333.769" r="2.605"/><circle cx="62.149" cy="34.682" r="2.605"/><circle cx="338.228" cy="34.682" r="2.605"/><circle cx="62.149" cy="172.722" r="2.605"/><circle cx="338.228" cy="172.722" r="2.605"/><circle cx="62.149" cy="103.703" r="2.605"/><circle cx="338.228" cy="103.703" r="2.605"/><circle cx="62.149" cy="241.744" r="2.605"/><circle cx="338.228" cy="241.744" r="2.605"/><circle cx="62.149" cy="310.763" r="2.605"/><circle cx="338.228" cy="310.763" r="2.605"/><circle cx="62.149" cy="69.193" r="2.605"/><circle cx="338.228" cy="69.193" r="2.605"/><circle cx="62.149" cy="207.232" r="2.605"/><circle cx="338.228" cy="207.232" r="2.605"/><circle cx="62.149" cy="138.213" r="2.605"/><circle cx="338.228" cy="138.213" r="2.605"/><circle cx="62.149" cy="276.254" r="2.605"/><circle cx="338.228" cy="276.254" r="2.605"/><circle cx="200.189" cy="11.676" r="2.605"/><circle cx="476.268" cy="11.676" r="2.605"/><circle cx="200.189" cy="149.715" r="2.605"/><circle cx="476.268" cy="149.715" r="2.605"/><circle cx="200.189" cy="80.696" r="2.605"/><circle cx="476.268" cy="80.696" r="2.605"/><circle cx="200.189" cy="218.736" r="2.605"/><circle cx="476.268" cy="218.736" r="2.605"/><circle cx="200.189" cy="287.757" r="2.605"/><circle cx="476.268" cy="287.757" r="2.605"/><circle cx="200.189" cy="46.186" r="2.605"/><circle cx="476.268" cy="46.186" r="2.605"/><circle cx="200.189" cy="184.226" r="2.605"/><circle cx="476.268" cy="184.226" r="2.605"/><circle cx="200.189" cy="115.206" r="2.605"/><circle cx="476.268" cy="115.206" r="2.605"/><circle cx="200.189" cy="253.246" r="2.605"/><circle cx="476.268" cy="253.246" r="2.605"/><circle cx="200.189" cy="322.266" r="2.605"/><circle cx="476.268" cy="322.266" r="2.605"/><circle cx="200.189" cy="23.179" r="2.605"/><circle cx="476.268" cy="23.179" r="2.605"/><circle cx="200.189" cy="161.219" r="2.605"/><circle cx="476.268" cy="161.219" r="2.605"/><circle cx="200.189" cy="92.2" r="2.605"/><circle cx="476.268" cy="92.2" r="2.605"/><circle cx="200.189" cy="230.24" r="2.605"/><circle cx="476.268" cy="230.24" r="2.605"/><circle cx="200.189" cy="299.259" r="2.605"/><circle cx="476.268" cy="299.259" r="2.605"/><circle cx="200.189" cy="57.69" r="2.605"/><circle cx="476.268" cy="57.69" r="2.605"/><circle cx="200.189" cy="195.729" r="2.605"/><circle cx="476.268" cy="195.729" r="2.605"/><circle cx="200.189" cy="126.71" r="2.605"/><circle cx="476.268" cy="126.71" r="2.605"/><circle cx="200.189" cy="264.75" r="2.605"/><circle cx="476.268" cy="264.75" r="2.605"/><circle cx="200.189" cy="333.769" r="2.605"/><circle cx="476.268" cy="333.769" r="2.605"/><circle cx="200.189" cy="34.682" r="2.605"/><circle cx="476.268" cy="34.682" r="2.605"/><circle cx="200.189" cy="172.722" r="2.605"/><circle cx="476.268" cy="172.722" r="2.605"/><circle cx="200.189" cy="103.703" r="2.605"/><circle cx="476.268" cy="103.703" r="2.605"/><circle cx="200.189" cy="241.744" r="2.605"/><circle cx="476.268" cy="241.744" r="2.605"/><circle cx="200.189" cy="310.763" r="2.605"/><circle cx="476.268" cy="310.763" r="2.605"/><circle cx="200.189" cy="69.193" r="2.605"/><circle cx="476.268" cy="69.193" r="2.605"/><circle cx="200.189" cy="207.232" r="2.605"/><circle cx="476.268" cy="207.232" r="2.605"/><circle cx="200.189" cy="138.213" r="2.605"/><circle cx="476.268" cy="138.213" r="2.605"/><circle cx="200.189" cy="276.254" r="2.605"/><circle cx="476.268" cy="276.254" r="2.605"/><circle cx="108.162" cy="11.676" r="2.605"/><circle cx="384.242" cy="11.676" r="2.605"/><circle cx="108.162" cy="149.715" r="2.605"/><circle cx="384.242" cy="149.715" r="2.605"/><circle cx="108.162" cy="80.696" r="2.605"/><circle cx="108.162" cy="218.736" r="2.605"/><circle cx="384.242" cy="218.736" r="2.605"/><circle cx="108.162" cy="287.757" r="2.605"/><circle cx="384.242" cy="287.757" r="2.605"/><circle cx="108.162" cy="46.186" r="2.605"/><circle cx="108.162" cy="184.226" r="2.605"/><circle cx="384.242" cy="184.226" r="2.605"/><circle cx="108.162" cy="115.206" r="2.605"/><circle cx="384.242" cy="115.206" r="2.605"/><circle cx="108.162" cy="253.246" r="2.605"/><circle cx="384.242" cy="253.246" r="2.605"/><circle cx="108.162" cy="322.266" r="2.605"/><circle cx="384.242" cy="322.266" r="2.605"/><circle cx="108.162" cy="23.179" r="2.605"/><circle cx="384.242" cy="23.179" r="2.605"/><circle cx="108.162" cy="161.219" r="2.605"/><circle cx="384.242" cy="161.219" r="2.605"/><circle cx="108.162" cy="92.2" r="2.605"/><circle cx="384.242" cy="92.2" r="2.605"/><circle cx="108.162" cy="230.24" r="2.605"/><circle cx="384.242" cy="230.24" r="2.605"/><circle cx="108.162" cy="299.259" r="2.605"/><circle cx="384.242" cy="299.259" r="2.605"/><circle cx="108.162" cy="57.69" r="2.605"/><circle cx="384.242" cy="57.69" r="2.605"/><circle cx="108.162" cy="195.729" r="2.605"/><circle cx="384.242" cy="195.729" r="2.605"/><circle cx="108.162" cy="126.71" r="2.605"/><circle cx="384.242" cy="126.71" r="2.605"/><circle cx="108.162" cy="264.75" r="2.605"/><circle cx="384.242" cy="264.75" r="2.605"/><circle cx="108.162" cy="333.769" r="2.605"/><circle cx="384.242" cy="333.769" r="2.605"/><circle cx="108.162" cy="34.682" r="2.605"/><circle cx="384.242" cy="34.682" r="2.605"/><circle cx="108.162" cy="172.722" r="2.605"/><circle cx="384.242" cy="172.722" r="2.605"/><circle cx="384.242" cy="103.703" r="2.605"/><circle cx="108.162" cy="241.744" r="2.605"/><circle cx="384.242" cy="241.744" r="2.605"/><circle cx="108.162" cy="310.763" r="2.605"/><circle cx="384.242" cy="310.763" r="2.605"/><circle cx="108.162" cy="69.193" r="2.605"/><circle cx="384.242" cy="69.193" r="2.605"/><circle cx="108.162" cy="207.232" r="2.605"/><circle cx="384.242" cy="207.232" r="2.605"/><circle cx="108.162" cy="138.213" r="2.605"/><circle cx="384.242" cy="138.213" r="2.605"/><circle cx="108.162" cy="276.254" r="2.605"/><circle cx="384.242" cy="276.254" r="2.605"/><circle cx="246.202" cy="11.676" r="2.605"/><circle cx="246.202" cy="149.715" r="2.605"/><circle cx="246.202" cy="80.696" r="2.605"/><circle cx="246.202" cy="218.736" r="2.605"/><circle cx="246.202" cy="287.757" r="2.605"/><circle cx="246.202" cy="46.186" r="2.605"/><circle cx="246.202" cy="184.226" r="2.605"/><circle cx="246.202" cy="115.206" r="2.605"/><circle cx="246.202" cy="253.246" r="2.605"/><circle cx="246.202" cy="322.266" r="2.605"/><circle cx="246.202" cy="23.179" r="2.605"/><circle cx="246.202" cy="161.219" r="2.605"/><circle cx="246.202" cy="92.2" r="2.605"/><circle cx="246.202" cy="230.24" r="2.605"/><circle cx="246.202" cy="299.259" r="2.605"/><circle cx="246.202" cy="57.69" r="2.605"/><circle cx="246.202" cy="195.729" r="2.605"/><circle cx="246.202" cy="126.71" r="2.605"/><circle cx="246.202" cy="264.75" r="2.605"/><circle cx="246.202" cy="333.769" r="2.605"/><circle cx="246.202" cy="34.682" r="2.605"/><circle cx="246.202" cy="172.722" r="2.605"/><circle cx="246.202" cy="103.703" r="2.605"/><circle cx="246.202" cy="241.744" r="2.605"/><circle cx="246.202" cy="310.763" r="2.605"/><circle cx="246.202" cy="69.193" r="2.605"/><circle cx="246.202" cy="207.232" r="2.605"/><circle cx="246.202" cy="138.213" r="2.605"/><circle cx="246.202" cy="276.254" r="2.605"/><circle cx="39.142" cy="11.676" r="2.605"/><circle cx="315.222" cy="11.676" r="2.605"/><circle cx="39.142" cy="149.715" r="2.605"/><circle cx="315.222" cy="149.715" r="2.605"/><circle cx="39.142" cy="80.696" r="2.605"/><circle cx="315.222" cy="80.696" r="2.605"/><circle cx="39.142" cy="218.736" r="2.605"/><circle cx="315.222" cy="218.736" r="2.605"/><circle cx="39.142" cy="287.757" r="2.605"/><circle cx="315.222" cy="287.757" r="2.605"/><circle cx="39.142" cy="46.186" r="2.605"/><circle cx="315.222" cy="46.186" r="2.605"/><circle cx="39.142" cy="184.226" r="2.605"/><circle cx="315.222" cy="184.226" r="2.605"/><circle cx="39.142" cy="115.206" r="2.605"/><circle cx="315.222" cy="115.206" r="2.605"/><circle cx="39.142" cy="253.246" r="2.605"/><circle cx="315.222" cy="253.246" r="2.605"/><circle cx="39.142" cy="322.266" r="2.605"/><circle cx="315.222" cy="322.266" r="2.605"/><circle cx="39.142" cy="23.179" r="2.605"/><circle cx="315.222" cy="23.179" r="2.605"/><circle cx="39.142" cy="161.219" r="2.605"/><circle cx="315.222" cy="161.219" r="2.605"/><circle cx="39.142" cy="92.2" r="2.605"/><circle cx="315.222" cy="92.2" r="2.605"/><circle cx="39.142" cy="230.24" r="2.605"/><circle cx="315.222" cy="230.24" r="2.605"/><circle cx="39.142" cy="299.259" r="2.605"/><circle cx="315.222" cy="299.259" r="2.605"/><circle cx="39.142" cy="57.69" r="2.605"/><circle cx="315.222" cy="57.69" r="2.605"/><circle cx="39.142" cy="195.729" r="2.605"/><circle cx="315.222" cy="195.729" r="2.605"/><circle cx="39.142" cy="126.71" r="2.605"/><circle cx="315.222" cy="126.71" r="2.605"/><circle cx="39.142" cy="264.75" r="2.605"/><circle cx="315.222" cy="264.75" r="2.605"/><circle cx="39.142" cy="333.769" r="2.605"/><circle cx="315.222" cy="333.769" r="2.605"/><circle cx="39.142" cy="34.682" r="2.605"/><circle cx="315.222" cy="34.682" r="2.605"/><circle cx="315.222" cy="172.722" r="2.605"/><circle cx="39.142" cy="103.703" r="2.605"/><circle cx="315.222" cy="103.703" r="2.605"/><circle cx="39.142" cy="241.744" r="2.605"/><circle cx="315.222" cy="241.744" r="2.605"/><circle cx="39.142" cy="310.763" r="2.605"/><circle cx="315.222" cy="310.763" r="2.605"/><circle cx="39.142" cy="69.193" r="2.605"/><circle cx="315.222" cy="69.193" r="2.605"/><circle cx="39.142" cy="207.232" r="2.605"/><circle cx="315.222" cy="207.232" r="2.605"/><circle cx="39.142" cy="138.213" r="2.605"/><circle cx="315.222" cy="138.213" r="2.605"/><circle cx="39.142" cy="276.254" r="2.605"/><circle cx="315.222" cy="276.254" r="2.605"/><circle cx="177.182" cy="11.676" r="2.605"/><circle cx="453.262" cy="11.676" r="2.605"/><circle cx="177.182" cy="149.715" r="2.605"/><circle cx="453.262" cy="149.715" r="2.605"/><circle cx="177.182" cy="80.696" r="2.605"/><circle cx="453.262" cy="80.696" r="2.605"/><circle cx="177.182" cy="218.736" r="2.605"/><circle cx="453.262" cy="218.736" r="2.605"/><circle cx="177.182" cy="287.757" r="2.605"/><circle cx="453.262" cy="287.757" r="2.605"/><circle cx="177.182" cy="46.186" r="2.605"/><circle cx="453.262" cy="46.186" r="2.605"/><circle cx="177.182" cy="184.226" r="2.605"/><circle cx="453.262" cy="184.226" r="2.605"/><circle cx="177.182" cy="115.206" r="2.605"/><circle cx="453.262" cy="115.206" r="2.605"/><circle cx="177.182" cy="253.246" r="2.605"/><circle cx="453.262" cy="253.246" r="2.605"/><circle cx="177.182" cy="322.266" r="2.605"/><circle cx="453.262" cy="322.266" r="2.605"/><circle cx="177.182" cy="23.179" r="2.605"/><circle cx="453.262" cy="23.179" r="2.605"/><circle cx="177.182" cy="161.219" r="2.605"/><circle cx="453.262" cy="161.219" r="2.605"/><circle cx="177.182" cy="92.2" r="2.605"/><circle cx="453.262" cy="92.2" r="2.605"/><circle cx="177.182" cy="230.24" r="2.605"/><circle cx="453.262" cy="230.24" r="2.605"/><circle cx="177.182" cy="299.259" r="2.605"/><circle cx="453.262" cy="299.259" r="2.605"/><circle cx="177.182" cy="57.69" r="2.605"/><circle cx="453.262" cy="57.69" r="2.605"/><circle cx="177.182" cy="195.729" r="2.605"/><circle cx="453.262" cy="195.729" r="2.605"/><circle cx="177.182" cy="126.71" r="2.605"/><circle cx="453.262" cy="126.71" r="2.605"/><circle cx="177.182" cy="264.75" r="2.605"/><circle cx="453.262" cy="264.75" r="2.605"/><circle cx="177.182" cy="333.769" r="2.605"/><circle cx="453.262" cy="333.769" r="2.605"/><circle cx="177.182" cy="34.682" r="2.605"/><circle cx="453.262" cy="34.682" r="2.605"/><circle cx="177.182" cy="172.722" r="2.605"/><circle cx="453.262" cy="172.722" r="2.605"/><circle cx="177.182" cy="103.703" r="2.605"/><circle cx="453.262" cy="103.703" r="2.605"/><circle cx="177.182" cy="241.744" r="2.605"/><circle cx="453.262" cy="241.744" r="2.605"/><circle cx="177.182" cy="310.763" r="2.605"/><circle cx="453.262" cy="310.763" r="2.605"/><circle cx="177.182" cy="69.193" r="2.605"/><circle cx="453.262" cy="69.193" r="2.605"/><circle cx="177.182" cy="207.232" r="2.605"/><circle cx="453.262" cy="207.232" r="2.605"/><circle cx="177.182" cy="138.213" r="2.605"/><circle cx="453.262" cy="138.213" r="2.605"/><circle cx="177.182" cy="276.254" r="2.605"/><circle cx="453.262" cy="276.254" r="2.605"/><circle cx="85.156" cy="11.676" r="2.605"/><circle cx="361.235" cy="11.676" r="2.605"/><circle cx="85.156" cy="149.715" r="2.605"/><circle cx="361.235" cy="149.715" r="2.605"/><circle cx="85.156" cy="80.696" r="2.605"/><circle cx="361.235" cy="80.696" r="2.605"/><circle cx="85.156" cy="218.736" r="2.605"/><circle cx="361.235" cy="218.736" r="2.605"/><circle cx="85.156" cy="287.757" r="2.605"/><circle cx="361.235" cy="287.757" r="2.605"/><circle cx="85.156" cy="46.186" r="2.605"/><circle cx="361.235" cy="46.186" r="2.605"/><circle cx="85.156" cy="184.226" r="2.605"/><circle cx="361.235" cy="184.226" r="2.605"/><circle cx="85.156" cy="115.206" r="2.605"/><circle cx="361.235" cy="115.206" r="2.605"/><circle cx="85.156" cy="253.246" r="2.605"/><circle cx="361.235" cy="253.246" r="2.605"/><circle cx="85.156" cy="322.266" r="2.605"/><circle cx="361.235" cy="322.266" r="2.605"/><circle cx="85.156" cy="23.179" r="2.605"/><circle cx="361.235" cy="23.179" r="2.605"/><circle cx="85.156" cy="161.219" r="2.605"/><circle cx="361.235" cy="161.219" r="2.605"/><circle cx="85.156" cy="92.2" r="2.605"/><circle cx="85.156" cy="230.24" r="2.605"/><circle cx="361.235" cy="230.24" r="2.605"/><circle cx="85.156" cy="299.259" r="2.605"/><circle cx="361.235" cy="299.259" r="2.605"/><circle cx="85.156" cy="57.69" r="2.605"/><circle cx="361.235" cy="57.69" r="2.605"/><circle cx="85.156" cy="195.729" r="2.605"/><circle cx="361.235" cy="195.729" r="2.605"/><circle cx="85.156" cy="126.71" r="2.605"/><circle cx="361.235" cy="126.71" r="2.605"/><circle cx="85.156" cy="264.75" r="2.605"/><circle cx="361.235" cy="264.75" r="2.605"/><circle cx="85.156" cy="333.769" r="2.605"/><circle cx="361.235" cy="333.769" r="2.605"/><circle cx="85.156" cy="34.682" r="2.605"/><circle cx="361.235" cy="34.682" r="2.605"/><circle cx="85.156" cy="172.722" r="2.605"/><circle cx="361.235" cy="172.722" r="2.605"/><circle cx="85.156" cy="103.703" r="2.605"/><circle cx="361.235" cy="103.703" r="2.605"/><circle cx="85.156" cy="241.744" r="2.605"/><circle cx="361.235" cy="241.744" r="2.605"/><circle cx="85.156" cy="310.763" r="2.605"/><circle cx="361.235" cy="310.763" r="2.605"/><circle cx="85.156" cy="69.193" r="2.605"/><circle cx="361.235" cy="69.193" r="2.605"/><circle cx="85.156" cy="207.232" r="2.605"/><circle cx="361.235" cy="207.232" r="2.605"/><circle cx="85.156" cy="138.213" r="2.605"/><circle cx="361.235" cy="138.213" r="2.605"/><circle cx="85.156" cy="276.254" r="2.605"/><circle cx="361.235" cy="276.254" r="2.605"/><circle cx="223.195" cy="11.676" r="2.605"/><circle cx="499.275" cy="11.676" r="2.605"/><circle cx="223.195" cy="149.715" r="2.605"/><circle cx="499.275" cy="149.715" r="2.605"/><circle cx="223.195" cy="80.696" r="2.605"/><circle cx="499.275" cy="80.696" r="2.605"/><circle cx="223.195" cy="218.736" r="2.605"/><circle cx="499.275" cy="218.736" r="2.605"/><circle cx="223.195" cy="287.757" r="2.605"/><circle cx="499.275" cy="287.757" r="2.605"/><circle cx="223.195" cy="46.186" r="2.605"/><circle cx="234.699" cy="46.186" r="2.605"/><circle cx="499.275" cy="46.186" r="2.605"/><circle cx="223.195" cy="184.226" r="2.605"/><circle cx="499.275" cy="184.226" r="2.605"/><circle cx="223.195" cy="115.206" r="2.605"/><circle cx="499.275" cy="115.206" r="2.605"/><circle cx="223.195" cy="253.246" r="2.605"/><circle cx="499.275" cy="253.246" r="2.605"/><circle cx="223.195" cy="322.266" r="2.605"/><circle cx="499.275" cy="322.266" r="2.605"/><circle cx="223.195" cy="23.179" r="2.605"/><circle cx="499.275" cy="23.179" r="2.605"/><circle cx="223.195" cy="161.219" r="2.605"/><circle cx="499.275" cy="161.219" r="2.605"/><circle cx="223.195" cy="92.2" r="2.605"/><circle cx="499.275" cy="92.2" r="2.605"/><circle cx="223.195" cy="230.24" r="2.605"/><circle cx="499.275" cy="230.24" r="2.605"/><circle cx="223.195" cy="299.259" r="2.605"/><circle cx="499.275" cy="299.259" r="2.605"/><circle cx="223.195" cy="57.69" r="2.605"/><circle cx="499.275" cy="57.69" r="2.605"/><circle cx="223.195" cy="195.729" r="2.605"/><circle cx="499.275" cy="195.729" r="2.605"/><circle cx="223.195" cy="126.71" r="2.605"/><circle cx="499.275" cy="126.71" r="2.605"/><circle cx="223.195" cy="264.75" r="2.605"/><circle cx="499.275" cy="264.75" r="2.605"/><circle cx="223.195" cy="333.769" r="2.605"/><circle cx="499.275" cy="333.769" r="2.605"/><circle cx="223.195" cy="34.682" r="2.605"/><circle cx="499.275" cy="34.682" r="2.605"/><circle cx="223.195" cy="172.722" r="2.605"/><circle cx="499.275" cy="172.722" r="2.605"/><circle cx="223.195" cy="103.703" r="2.605"/><circle cx="499.275" cy="103.703" r="2.605"/><circle cx="223.195" cy="241.744" r="2.605"/><circle cx="499.275" cy="241.744" r="2.605"/><circle cx="223.195" cy="310.763" r="2.605"/><circle cx="499.275" cy="310.763" r="2.605"/><circle cx="223.195" cy="69.193" r="2.605"/><circle cx="499.275" cy="69.193" r="2.605"/><circle cx="223.195" cy="207.232" r="2.605"/><circle cx="499.275" cy="207.232" r="2.605"/><circle cx="223.195" cy="138.213" r="2.605"/><circle cx="499.275" cy="138.213" r="2.605"/><circle cx="223.195" cy="276.254" r="2.605"/><circle cx="499.275" cy="276.254" r="2.605"/><circle cx="131.169" cy="11.676" r="2.605"/><circle cx="407.248" cy="11.676" r="2.605"/><circle cx="131.169" cy="149.715" r="2.605"/><circle cx="407.248" cy="149.715" r="2.605"/><circle cx="407.248" cy="80.696" r="2.605"/><circle cx="131.169" cy="218.736" r="2.605"/><circle cx="407.248" cy="218.736" r="2.605"/><circle cx="131.169" cy="287.757" r="2.605"/><circle cx="407.248" cy="287.757" r="2.605"/><circle cx="131.169" cy="46.186" r="2.605"/><circle cx="407.248" cy="46.186" r="2.605"/><circle cx="131.169" cy="184.226" r="2.605"/><circle cx="407.248" cy="184.226" r="2.605"/><circle cx="131.169" cy="115.206" r="2.605"/><circle cx="407.248" cy="115.206" r="2.605"/><circle cx="131.169" cy="253.246" r="2.605"/><circle cx="407.248" cy="253.246" r="2.605"/><circle cx="131.169" cy="322.266" r="2.605"/><circle cx="407.248" cy="322.266" r="2.605"/><circle cx="131.169" cy="23.179" r="2.605"/><circle cx="407.248" cy="23.179" r="2.605"/><circle cx="131.169" cy="161.219" r="2.605"/><circle cx="407.248" cy="161.219" r="2.605"/><circle cx="131.169" cy="92.2" r="2.605"/><circle cx="407.248" cy="92.2" r="2.605"/><circle cx="131.169" cy="230.24" r="2.605"/><circle cx="407.248" cy="230.24" r="2.605"/><circle cx="131.169" cy="299.259" r="2.605"/><circle cx="407.248" cy="299.259" r="2.605"/><circle cx="131.169" cy="57.69" r="2.605"/><circle cx="407.248" cy="57.69" r="2.605"/><circle cx="131.169" cy="195.729" r="2.605"/><circle cx="407.248" cy="195.729" r="2.605"/><circle cx="131.169" cy="126.71" r="2.605"/><circle cx="407.248" cy="126.71" r="2.605"/><circle cx="131.169" cy="264.75" r="2.605"/><circle cx="407.248" cy="264.75" r="2.605"/><circle cx="131.169" cy="333.769" r="2.605"/><circle cx="407.248" cy="333.769" r="2.605"/><circle cx="131.169" cy="34.682" r="2.605"/><circle cx="407.248" cy="34.682" r="2.605"/><circle cx="131.169" cy="172.722" r="2.605"/><circle cx="407.248" cy="172.722" r="2.605"/><circle cx="131.169" cy="103.703" r="2.605"/><circle cx="407.248" cy="103.703" r="2.605"/><circle cx="131.169" cy="241.744" r="2.605"/><circle cx="407.248" cy="241.744" r="2.605"/><circle cx="131.169" cy="310.763" r="2.605"/><circle cx="407.248" cy="310.763" r="2.605"/><circle cx="131.169" cy="69.193" r="2.605"/><circle cx="407.248" cy="69.193" r="2.605"/><circle cx="131.169" cy="207.232" r="2.605"/><circle cx="407.248" cy="207.232" r="2.605"/><circle cx="131.169" cy="138.213" r="2.605"/><circle cx="407.248" cy="138.213" r="2.605"/><circle cx="131.169" cy="276.254" r="2.605"/><circle cx="407.248" cy="276.254" r="2.605"/><circle cx="269.208" cy="11.676" r="2.605"/><circle cx="269.208" cy="149.715" r="2.605"/><circle cx="269.208" cy="80.696" r="2.605"/><circle cx="269.208" cy="218.736" r="2.605"/><circle cx="269.208" cy="287.757" r="2.605"/><circle cx="269.208" cy="46.186" r="2.605"/><circle cx="269.208" cy="184.226" r="2.605"/><circle cx="269.208" cy="115.206" r="2.605"/><circle cx="269.208" cy="253.246" r="2.605"/><circle cx="269.208" cy="322.266" r="2.605"/><circle cx="269.208" cy="23.179" r="2.605"/><circle cx="269.208" cy="161.219" r="2.605"/><circle cx="269.208" cy="92.2" r="2.605"/><circle cx="269.208" cy="230.24" r="2.605"/><circle cx="269.208" cy="299.259" r="2.605"/><circle cx="269.208" cy="57.69" r="2.605"/><circle cx="269.208" cy="195.729" r="2.605"/><circle cx="269.208" cy="126.71" r="2.605"/><circle cx="269.208" cy="264.75" r="2.605"/><circle cx="269.208" cy="333.769" r="2.605"/><circle cx="269.208" cy="34.682" r="2.605"/><circle cx="269.208" cy="172.722" r="2.605"/><circle cx="269.208" cy="103.703" r="2.605"/><circle cx="269.208" cy="241.744" r="2.605"/><circle cx="269.208" cy="310.763" r="2.605"/><circle cx="269.208" cy="69.193" r="2.605"/><circle cx="269.208" cy="207.232" r="2.605"/><circle cx="269.208" cy="138.213" r="2.605"/><circle cx="269.208" cy="276.254" r="2.605"/></g><g filter="url(#filter0_d)"><circle cx="372.477" cy="207.161" r="3.623" fill="#fff"/><circle cx="372.477" cy="207.161" r="5.123" stroke="#fff" stroke-opacity=".18" stroke-width="3"/></g><g filter="url(#filter1_d)"><circle cx="200.02" cy="115.457" r="3.623" fill="#fff"/><circle cx="200.02" cy="115.457" r="5.123" stroke="#fff" stroke-opacity=".18" stroke-width="3"/></g><g filter="url(#filter2_d)"><circle cx="96.621" cy="207.161" r="3.623" fill="#fff"/><circle cx="96.621" cy="207.161" r="5.123" stroke="#fff" stroke-opacity=".18" stroke-width="3"/></g><g filter="url(#filter3_d)"><circle cx="234.549" cy="241.456" r="3.623" fill="#fff"/><circle cx="234.549" cy="241.456" r="5.123" stroke="#fff" stroke-opacity=".18" stroke-width="3"/></g><g filter="url(#filter4_d)"><circle cx="315.069" cy="138.57" r="3.623" fill="#fff"/><circle cx="315.069" cy="138.57" r="5.123" stroke="#fff" stroke-opacity=".18" stroke-width="3"/></g><g filter="url(#filter5_d)"><circle cx="407.519" cy="115.457" r="3.623" fill="#fff"/><circle cx="407.519" cy="115.457" r="5.123" stroke="#fff" stroke-opacity=".18" stroke-width="3"/></g><g filter="url(#filter6_d)"><circle cx="246.478" cy="172.865" r="3.623" fill="#fff"/><circle cx="246.478" cy="172.865" r="5.123" stroke="#fff" stroke-opacity=".18" stroke-width="3"/></g><g filter="url(#filter7_d)"><circle cx="223.623" cy="68.623" r="3.623" fill="#fff"/><circle cx="223.623" cy="68.623" r="5.123" stroke="#fff" stroke-opacity=".18" stroke-width="3"/></g><g filter="url(#filter8_d)"><circle cx="188.623" cy="196.623" r="3.623" fill="#fff"/><circle cx="188.623" cy="196.623" r="5.123" stroke="#fff" stroke-opacity=".18" stroke-width="3"/></g><g filter="url(#filter9_d)"><circle cx="142.623" cy="103.623" r="3.623" fill="#fff"/><circle cx="142.623" cy="103.623" r="5.123" stroke="#fff" stroke-opacity=".18" stroke-width="3"/></g><g filter="url(#filter10_d)"><circle cx="325.623" cy="240.623" r="3.623" fill="#fff"/><circle cx="325.623" cy="240.623" r="5.123" stroke="#fff" stroke-opacity=".18" stroke-width="3"/></g><g filter="url(#filter11_d)"><circle cx="360.623" cy="160.623" r="3.623" fill="#fff"/><circle cx="360.623" cy="160.623" r="5.123" stroke="#fff" stroke-opacity=".18" stroke-width="3"/></g><g filter="url(#filter12_d)"><circle cx="407.623" cy="263.623" r="3.623" fill="#fff"/><circle cx="407.623" cy="263.623" r="5.123" stroke="#fff" stroke-opacity=".18" stroke-width="3"/></g><g filter="url(#filter13_d)"><circle cx="142.846" cy="160.937" r="3.623" fill="#fff"/><circle cx="142.846" cy="160.937" r="5.123" stroke="#fff" stroke-opacity=".18" stroke-width="3"/></g><defs><filter id="filter0_d" x="348.854" y="183.538" width="47.247" height="47.247" filterUnits="userSpaceOnUse" color-interpolation-filters="sRGB"><feFlood flood-opacity="0" result="BackgroundImageFix"/><feColorMatrix in="SourceAlpha" values="0 0 0 0 0 0 0 0 0 0 0 0 0 0 0 0 0 0 127 0"/><feOffset/><feGaussianBlur stdDeviation="8.5"/><feColorMatrix values="0 0 0 0 1 0 0 0 0 1 0 0 0 0 1 0 0 0 1 0"/><feBlend in2="BackgroundImageFix" result="effect1_dropShadow"/><feBlend in="SourceGraphic" in2="effect1_dropShadow" result="shape"/></filter><filter id="filter1_d" x="176.397" y="91.834" width="47.247" height="47.247" filterUnits="userSpaceOnUse" color-interpolation-filters="sRGB"><feFlood flood-opacity="0" result="BackgroundImageFix"/><feColorMatrix in="SourceAlpha" values="0 0 0 0 0 0 0 0 0 0 0 0 0 0 0 0 0 0 127 0"/><feOffset/><feGaussianBlur stdDeviation="8.5"/><feColorMatrix values="0 0 0 0 1 0 0 0 0 1 0 0 0 0 1 0 0 0 1 0"/><feBlend in2="BackgroundImageFix" result="effect1_dropShadow"/><feBlend in="SourceGraphic" in2="effect1_dropShadow" result="shape"/></filter><filter id="filter2_d" x="72.997" y="183.538" width="47.247" height="47.247" filterUnits="userSpaceOnUse" color-interpolation-filters="sRGB"><feFlood flood-opacity="0" result="BackgroundImageFix"/><feColorMatrix in="SourceAlpha" values="0 0 0 0 0 0 0 0 0 0 0 0 0 0 0 0 0 0 127 0"/><feOffset/><feGaussianBlur stdDeviation="8.5"/><feColorMatrix values="0 0 0 0 1 0 0 0 0 1 0 0 0 0 1 0 0 0 1 0"/><feBlend in2="BackgroundImageFix" result="effect1_dropShadow"/><feBlend in="SourceGraphic" in2="effect1_dropShadow" result="shape"/></filter><filter id="filter3_d" x="210.926" y="217.833" width="47.247" height="47.247" filterUnits="userSpaceOnUse" color-interpolation-filters="sRGB"><feFlood flood-opacity="0" result="BackgroundImageFix"/><feColorMatrix in="SourceAlpha" values="0 0 0 0 0 0 0 0 0 0 0 0 0 0 0 0 0 0 127 0"/><feOffset/><feGaussianBlur stdDeviation="8.5"/><feColorMatrix values="0 0 0 0 1 0 0 0 0 1 0 0 0 0 1 0 0 0 1 0"/><feBlend in2="BackgroundImageFix" result="effect1_dropShadow"/><feBlend in="SourceGraphic" in2="effect1_dropShadow" result="shape"/></filter><filter id="filter4_d" x="291.446" y="114.946" width="47.247" height="47.247" filterUnits="userSpaceOnUse" color-interpolation-filters="sRGB"><feFlood flood-opacity="0" result="BackgroundImageFix"/><feColorMatrix in="SourceAlpha" values="0 0 0 0 0 0 0 0 0 0 0 0 0 0 0 0 0 0 127 0"/><feOffset/><feGaussianBlur stdDeviation="8.5"/><feColorMatrix values="0 0 0 0 1 0 0 0 0 1 0 0 0 0 1 0 0 0 1 0"/><feBlend in2="BackgroundImageFix" result="effect1_dropShadow"/><feBlend in="SourceGraphic" in2="effect1_dropShadow" result="shape"/></filter><filter id="filter5_d" x="383.895" y="91.834" width="47.247" height="47.247" filterUnits="userSpaceOnUse" color-interpolation-filters="sRGB"><feFlood flood-opacity="0" result="BackgroundImageFix"/><feColorMatrix in="SourceAlpha" values="0 0 0 0 0 0 0 0 0 0 0 0 0 0 0 0 0 0 127 0"/><feOffset/><feGaussianBlur stdDeviation="8.5"/><feColorMatrix values="0 0 0 0 1 0 0 0 0 1 0 0 0 0 1 0 0 0 1 0"/><feBlend in2="BackgroundImageFix" result="effect1_dropShadow"/><feBlend in="SourceGraphic" in2="effect1_dropShadow" result="shape"/></filter><filter id="filter6_d" x="222.855" y="149.241" width="47.247" height="47.247" filterUnits="userSpaceOnUse" color-interpolation-filters="sRGB"><feFlood flood-opacity="0" result="BackgroundImageFix"/><feColorMatrix in="SourceAlpha" values="0 0 0 0 0 0 0 0 0 0 0 0 0 0 0 0 0 0 127 0"/><feOffset/><feGaussianBlur stdDeviation="8.5"/><feColorMatrix values="0 0 0 0 1 0 0 0 0 1 0 0 0 0 1 0 0 0 1 0"/><feBlend in2="BackgroundImageFix" result="effect1_dropShadow"/><feBlend in="SourceGraphic" in2="effect1_dropShadow" result="shape"/></filter><filter id="filter7_d" x="200" y="45" width="47.247" height="47.247" filterUnits="userSpaceOnUse" color-interpolation-filters="sRGB"><feFlood flood-opacity="0" result="BackgroundImageFix"/><feColorMatrix in="SourceAlpha" values="0 0 0 0 0 0 0 0 0 0 0 0 0 0 0 0 0 0 127 0"/><feOffset/><feGaussianBlur stdDeviation="8.5"/><feColorMatrix values="0 0 0 0 1 0 0 0 0 1 0 0 0 0 1 0 0 0 1 0"/><feBlend in2="BackgroundImageFix" result="effect1_dropShadow"/><feBlend in="SourceGraphic" in2="effect1_dropShadow" result="shape"/></filter><filter id="filter8_d" x="165" y="173" width="47.247" height="47.247" filterUnits="userSpaceOnUse" color-interpolation-filters="sRGB"><feFlood flood-opacity="0" result="BackgroundImageFix"/><feColorMatrix in="SourceAlpha" values="0 0 0 0 0 0 0 0 0 0 0 0 0 0 0 0 0 0 127 0"/><feOffset/><feGaussianBlur stdDeviation="8.5"/><feColorMatrix values="0 0 0 0 1 0 0 0 0 1 0 0 0 0 1 0 0 0 1 0"/><feBlend in2="BackgroundImageFix" result="effect1_dropShadow"/><feBlend in="SourceGraphic" in2="effect1_dropShadow" result="shape"/></filter><filter id="filter9_d" x="119" y="80" width="47.247" height="47.247" filterUnits="userSpaceOnUse" color-interpolation-filters="sRGB"><feFlood flood-opacity="0" result="BackgroundImageFix"/><feColorMatrix in="SourceAlpha" values="0 0 0 0 0 0 0 0 0 0 0 0 0 0 0 0 0 0 127 0"/><feOffset/><feGaussianBlur stdDeviation="8.5"/><feColorMatrix values="0 0 0 0 1 0 0 0 0 1 0 0 0 0 1 0 0 0 1 0"/><feBlend in2="BackgroundImageFix" result="effect1_dropShadow"/><feBlend in="SourceGraphic" in2="effect1_dropShadow" result="shape"/></filter><filter id="filter10_d" x="302" y="217" width="47.247" height="47.247" filterUnits="userSpaceOnUse" color-interpolation-filters="sRGB"><feFlood flood-opacity="0" result="BackgroundImageFix"/><feColorMatrix in="SourceAlpha" values="0 0 0 0 0 0 0 0 0 0 0 0 0 0 0 0 0 0 127 0"/><feOffset/><feGaussianBlur stdDeviation="8.5"/><feColorMatrix values="0 0 0 0 1 0 0 0 0 1 0 0 0 0 1 0 0 0 1 0"/><feBlend in2="BackgroundImageFix" result="effect1_dropShadow"/><feBlend in="SourceGraphic" in2="effect1_dropShadow" result="shape"/></filter><filter id="filter11_d" x="337" y="137" width="47.247" height="47.247" filterUnits="userSpaceOnUse" color-interpolation-filters="sRGB"><feFlood flood-opacity="0" result="BackgroundImageFix"/><feColorMatrix in="SourceAlpha" values="0 0 0 0 0 0 0 0 0 0 0 0 0 0 0 0 0 0 127 0"/><feOffset/><feGaussianBlur stdDeviation="8.5"/><feColorMatrix values="0 0 0 0 1 0 0 0 0 1 0 0 0 0 1 0 0 0 1 0"/><feBlend in2="BackgroundImageFix" result="effect1_dropShadow"/><feBlend in="SourceGraphic" in2="effect1_dropShadow" result="shape"/></filter><filter id="filter12_d" x="384" y="240" width="47.247" height="47.247" filterUnits="userSpaceOnUse" color-interpolation-filters="sRGB"><feFlood flood-opacity="0" result="BackgroundImageFix"/><feColorMatrix in="SourceAlpha" values="0 0 0 0 0 0 0 0 0 0 0 0 0 0 0 0 0 0 127 0"/><feOffset/><feGaussianBlur stdDeviation="8.5"/><feColorMatrix values="0 0 0 0 1 0 0 0 0 1 0 0 0 0 1 0 0 0 1 0"/><feBlend in2="BackgroundImageFix" result="effect1_dropShadow"/><feBlend in="SourceGraphic" in2="effect1_dropShadow" result="shape"/></filter><filter id="filter13_d" x="119.222" y="137.313" width="47.247" height="47.247" filterUnits="userSpaceOnUse" color-interpolation-filters="sRGB"><feFlood flood-opacity="0" result="BackgroundImageFix"/><feColorMatrix in="SourceAlpha" values="0 0 0 0 0 0 0 0 0 0 0 0 0 0 0 0 0 0 127 0"/><feOffset/><feGaussianBlur stdDeviation="8.5"/><feColorMatrix values="0 0 0 0 1 0 0 0 0 1 0 0 0 0 1 0 0 0 1 0"/><feBlend in2="BackgroundImageFix" result="effect1_dropShadow"/><feBlend in="SourceGraphic" in2="effect1_dropShadow" result="shape"/></filter></defs></svg>