<svg width="1372" height="473" fill="none" xmlns="http://www.w3.org/2000/svg"><mask id="a" maskUnits="userSpaceOnUse" x="0" y="0" width="1372" height="473"><path d="M1372 0H0v473h1372V0z" fill="url(#paint0_linear)"/></mask><g mask="url(#a)"><path d="M56 397.5L39.5 472l-114-64.5 130.5-10z" fill="url(#paint1_linear)" fill-opacity=".06"/><path d="M79.5 253L56 397.5-74.5 295l154-42z" fill="url(#paint2_linear)" fill-opacity=".06"/><path d="M233 113L79 252l34.5-132.5L233 113z" fill="url(#paint3_linear)" fill-opacity=".06"/><path d="M255 213l-69 140L79 253l176-40z" fill="url(#paint4_linear)" fill-opacity=".06"/><path d="M353.5 317.5L291 458 186 353l167.5-35.5z" fill="url(#paint5_linear)" fill-opacity=".06"/><path d="M433 252.5L354 318l-98.5-105L433 252.5z" fill="url(#paint6_linear)" fill-opacity=".06"/><path d="M186 353l13 141-139.5-97L186 353z" fill="url(#paint7_linear)" fill-opacity=".06"/><path d="M79 252l-187-49.5 97.5-73L79 252z" fill="url(#paint8_linear)" fill-opacity=".06"/><path d="M112 119.5l-122.5 9 31-109 91.5 100z" fill="url(#paint9_linear)" fill-opacity=".06"/><path d="M137 567l-97.5-94.5 159.5 21-62 73.5z" fill="url(#paint10_linear)" fill-opacity=".06"/><path d="M820.38 223.5l16.344-74.5 112.919 64.5-129.263 10z" fill="url(#paint11_linear)" fill-opacity=".03"/><path d="M779.769 319.5l40.611-96 56.62 79-97.231 17z" fill="url(#paint12_linear)" fill-opacity=".06"/><path d="M767 371.5l13.5-51 84 44-97.5 7z" fill="url(#paint13_linear)" fill-opacity=".06"/><path d="M700.032 468l66.467-96.5 45.462 70L700.032 468z" fill="url(#paint14_linear)" fill-opacity=".06"/><path d="M678.999 340.5l12.614-72.5 86.67 50.5-99.284 22z" fill="url(#paint15_linear)" fill-opacity=".06"/><path d="M602.5 514.5L622.277 407l74.289 63.5-94.066 44z" fill="url(#paint16_linear)" fill-opacity=".06"/><path d="M636 408l43.5-69 83.5 33-127 36z" fill="url(#paint17_linear)" fill-opacity=".06"/><path d="M474.999 468l82.5-83 77 22-159.5 61z" fill="url(#paint18_linear)" fill-opacity=".06"/><path d="M559 385l47.5-97.5L677 339l-118 46z" fill="url(#paint19_linear)" fill-opacity=".06"/><path d="M525.702 303.5L587.609 163l104.004 105-165.911 35.5z" fill="url(#paint20_linear)" fill-opacity=".03"/><path d="M471.999 467l-173.5-11 157.5-103 16 114z" fill="url(#paint21_linear)" fill-opacity=".06"/><path d="M432.593 252l13.372-104.5 78.746 150-92.118-45.5z" fill="url(#paint22_linear)" fill-opacity=".06"/><path d="M356.499 318.5L525.206 303l35.793 82-204.5-66.5z" fill="url(#paint23_linear)" fill-opacity=".03"/><path d="M256.281 212l-22.782-97 210.98 30-188.198 67z" fill="url(#paint24_linear)" fill-opacity=".06"/><path d="M233.5 114l-31-104h212l-181 104z" fill="url(#paint25_linear)" fill-opacity=".06"/><path d="M113 118L99.5 6.5l102 2.5L113 118z" fill="url(#paint26_linear)" fill-opacity=".06"/><path d="M691.613 268l-12.877-141 138.177 97-125.3 44z" fill="url(#paint27_linear)" fill-opacity=".03"/><path d="M863.468 366.5l119.357 52-96.575 73-22.782-125z" fill="url(#paint28_linear)" fill-opacity=".06"/><path d="M811.466 444l76.269 45.5-81.717 46 5.448-91.5z" fill="url(#paint29_linear)" fill-opacity=".06"/><path d="M949.643 326l103.017 5.5-70.826 88.5-32.191-94z" fill="url(#paint30_linear)" fill-opacity=".03"/><path d="M911.508 87.5l151.552 61L950.633 214 911.508 87.5z" fill="url(#paint31_linear)" fill-opacity=".03"/><path d="M881 254l113 47-128.5 63.5L881 254z" fill="url(#paint32_linear)" fill-opacity=".03"/><path d="M740.148 54l96.576 94.5-157.988-21L740.148 54z" fill="url(#paint33_linear)" fill-opacity=".03"/></g><defs><linearGradient id="paint0_linear" x1="154.903" y1="67.155" x2="237.641" y2="599.699" gradientUnits="userSpaceOnUse"><stop stop-color="#1A5492"/><stop offset="1" stop-color="#1E6DC0"/></linearGradient><linearGradient id="paint1_linear" x1="-9.25" y1="397.5" x2="-9.25" y2="472" gradientUnits="userSpaceOnUse"><stop stop-color="#fff"/><stop offset="1" stop-color="#2F8CF0"/></linearGradient><linearGradient id="paint2_linear" x1="2.5" y1="253" x2="2.5" y2="397.5" gradientUnits="userSpaceOnUse"><stop stop-color="#fff"/><stop offset="1" stop-color="#2F8CF0"/></linearGradient><linearGradient id="paint3_linear" x1="156" y1="113" x2="156" y2="252" gradientUnits="userSpaceOnUse"><stop stop-color="#fff"/><stop offset="1" stop-color="#2F8CF0"/></linearGradient><linearGradient id="paint4_linear" x1="167" y1="213" x2="167" y2="353" gradientUnits="userSpaceOnUse"><stop stop-color="#fff"/><stop offset="1" stop-color="#2F8CF0"/></linearGradient><linearGradient id="paint5_linear" x1="269.75" y1="317.5" x2="269.75" y2="458" gradientUnits="userSpaceOnUse"><stop stop-color="#fff"/><stop offset="1" stop-color="#2F8CF0"/></linearGradient><linearGradient id="paint6_linear" x1="344.25" y1="213" x2="344.25" y2="318" gradientUnits="userSpaceOnUse"><stop stop-color="#fff"/><stop offset="1" stop-color="#2F8CF0"/></linearGradient><linearGradient id="paint7_linear" x1="129.25" y1="353" x2="129.25" y2="494" gradientUnits="userSpaceOnUse"><stop stop-color="#fff"/><stop offset="1" stop-color="#2F8CF0"/></linearGradient><linearGradient id="paint8_linear" x1="-14.5" y1="129.5" x2="-14.5" y2="252" gradientUnits="userSpaceOnUse"><stop stop-color="#fff"/><stop offset="1" stop-color="#2F8CF0"/></linearGradient><linearGradient id="paint9_linear" x1="50.75" y1="19.5" x2="50.75" y2="128.5" gradientUnits="userSpaceOnUse"><stop stop-color="#fff"/><stop offset="1" stop-color="#2F8CF0"/></linearGradient><linearGradient id="paint10_linear" x1="119.25" y1="472.5" x2="119.25" y2="567" gradientUnits="userSpaceOnUse"><stop stop-color="#fff"/><stop offset="1" stop-color="#2F8CF0"/></linearGradient><linearGradient id="paint11_linear" x1="885.011" y1="223.5" x2="885.011" y2="149" gradientUnits="userSpaceOnUse"><stop stop-color="#fff"/><stop offset="1" stop-color="#2F8CF0"/></linearGradient><linearGradient id="paint12_linear" x1="873.373" y1="368" x2="873.373" y2="223.5" gradientUnits="userSpaceOnUse"><stop stop-color="#fff"/><stop offset="1" stop-color="#2F8CF0"/></linearGradient><linearGradient id="paint13_linear" x1="863.373" y1="430.5" x2="863.373" y2="286" gradientUnits="userSpaceOnUse"><stop stop-color="#fff"/><stop offset="1" stop-color="#2F8CF0"/></linearGradient><linearGradient id="paint14_linear" x1="721.329" y1="508" x2="721.329" y2="369" gradientUnits="userSpaceOnUse"><stop stop-color="#fff"/><stop offset="1" stop-color="#2F8CF0"/></linearGradient><linearGradient id="paint15_linear" x1="710.433" y1="408" x2="710.433" y2="268" gradientUnits="userSpaceOnUse"><stop stop-color="#fff"/><stop offset="1" stop-color="#2F8CF0"/></linearGradient><linearGradient id="paint16_linear" x1="659.421" y1="554" x2="659.421" y2="414" gradientUnits="userSpaceOnUse"><stop stop-color="#fff"/><stop offset="1" stop-color="#2F8CF0"/></linearGradient><linearGradient id="paint17_linear" x1="718.855" y1="483" x2="718.855" y2="343" gradientUnits="userSpaceOnUse"><stop stop-color="#fff"/><stop offset="1" stop-color="#2F8CF0"/></linearGradient><linearGradient id="paint18_linear" x1="593.855" y1="529" x2="593.855" y2="389" gradientUnits="userSpaceOnUse"><stop stop-color="#fff"/><stop offset="1" stop-color="#2F8CF0"/></linearGradient><linearGradient id="paint19_linear" x1="641.855" y1="460" x2="641.855" y2="320" gradientUnits="userSpaceOnUse"><stop stop-color="#fff"/><stop offset="1" stop-color="#2F8CF0"/></linearGradient><linearGradient id="paint20_linear" x1="608.657" y1="303.5" x2="608.657" y2="163" gradientUnits="userSpaceOnUse"><stop stop-color="#fff"/><stop offset="1" stop-color="#2F8CF0"/></linearGradient><linearGradient id="paint21_linear" x1="395.696" y1="481.5" x2="395.696" y2="341" gradientUnits="userSpaceOnUse"><stop stop-color="#fff"/><stop offset="1" stop-color="#2F8CF0"/></linearGradient><linearGradient id="paint22_linear" x1="496.729" y1="276.5" x2="496.729" y2="136" gradientUnits="userSpaceOnUse"><stop stop-color="#fff"/><stop offset="1" stop-color="#2F8CF0"/></linearGradient><linearGradient id="paint23_linear" x1="534.864" y1="408" x2="534.864" y2="303" gradientUnits="userSpaceOnUse"><stop stop-color="#fff"/><stop offset="1" stop-color="#2F8CF0"/></linearGradient><linearGradient id="paint24_linear" x1="352.113" y1="212" x2="352.113" y2="107" gradientUnits="userSpaceOnUse"><stop stop-color="#fff"/><stop offset="1" stop-color="#2F8CF0"/></linearGradient><linearGradient id="paint25_linear" x1="227.5" y1="114" x2="330.634" y2="8" gradientUnits="userSpaceOnUse"><stop stop-color="#fff"/><stop offset="1" stop-color="#2F8CF0" stop-opacity=".22"/></linearGradient><linearGradient id="paint26_linear" x1="203.634" y1="122" x2="203.634" y2="17" gradientUnits="userSpaceOnUse"><stop stop-color="#fff"/><stop offset="1" stop-color="#2F8CF0" stop-opacity="0"/></linearGradient><linearGradient id="paint27_linear" x1="747.825" y1="268" x2="747.825" y2="127" gradientUnits="userSpaceOnUse"><stop stop-color="#fff"/><stop offset="1" stop-color="#2F8CF0"/></linearGradient><linearGradient id="paint28_linear" x1="890.212" y1="491.5" x2="890.212" y2="369" gradientUnits="userSpaceOnUse"><stop stop-color="#fff"/><stop offset="1" stop-color="#2F8CF0"/></linearGradient><linearGradient id="paint29_linear" x1="827.066" y1="598.5" x2="827.066" y2="489.5" gradientUnits="userSpaceOnUse"><stop stop-color="#fff"/><stop offset="1" stop-color="#2F8CF0"/></linearGradient><linearGradient id="paint30_linear" x1="1001.15" y1="420" x2="1001.15" y2="326" gradientUnits="userSpaceOnUse"><stop stop-color="#fff"/><stop offset="1" stop-color="#2F8CF0"/></linearGradient><linearGradient id="paint31_linear" x1="987.282" y1="214" x2="987.282" y2="87.5" gradientUnits="userSpaceOnUse"><stop stop-color="#fff"/><stop offset="1" stop-color="#2F8CF0"/></linearGradient><linearGradient id="paint32_linear" x1="934.073" y1="366.5" x2="934.073" y2="255" gradientUnits="userSpaceOnUse"><stop stop-color="#fff"/><stop offset="1" stop-color="#2F8CF0"/></linearGradient><linearGradient id="paint33_linear" x1="757.73" y1="148.5" x2="757.73" y2="54" gradientUnits="userSpaceOnUse"><stop stop-color="#fff"/><stop offset="1" stop-color="#2F8CF0"/></linearGradient></defs></svg>