<svg width="1372" height="450" fill="none" xmlns="http://www.w3.org/2000/svg"><mask id="a" maskUnits="userSpaceOnUse" x="0" y="0" width="1372" height="450"><path d="M0 7a7 7 0 017-7h1358c3.87 0 7 3.134 7 7v436c0 3.866-3.13 7-7 7H7a7 7 0 01-7-7V7z" fill="url(#paint0_linear)"/></mask><g mask="url(#a)"><path d="M1316 374.5l16.5 74.5 114-64.5-130.5-10z" fill="url(#paint1_linear)" fill-opacity=".06"/><path d="M1292.5 230l23.5 144.5L1446.5 272l-154-42z" fill="url(#paint2_linear)" fill-opacity=".06"/><path d="M1139 90l154 139-34.5-132.5L1139 90z" fill="url(#paint3_linear)" fill-opacity=".06"/><path d="M1117 190l69 140 107-100-176-40z" fill="url(#paint4_linear)" fill-opacity=".06"/><path d="M1018.5 294.5L1081 435l105-105-167.5-35.5z" fill="url(#paint5_linear)" fill-opacity=".06"/><path d="M939 229.5l79 65.5 98.5-105L939 229.5z" fill="url(#paint6_linear)" fill-opacity=".06"/><path d="M1186 330l-13 141 139.5-97-126.5-44z" fill="url(#paint7_linear)" fill-opacity=".06"/><path d="M1293 229l187-49.5-97.5-73L1293 229z" fill="url(#paint8_linear)" fill-opacity=".06"/><path d="M1260 96.5l122.5 9-31-109-91.5 100z" fill="url(#paint9_linear)" fill-opacity=".06"/><path d="M1235 544l97.5-94.5-159.5 21 62 73.5z" fill="url(#paint10_linear)" fill-opacity=".06"/><path d="M551.62 200.5L535.276 126l-112.919 64.5 129.263 10z" fill="url(#paint11_linear)" fill-opacity=".03"/><path d="M592.23 296.5l-40.611-96-56.619 79 97.23 17z" fill="url(#paint12_linear)" fill-opacity=".06"/><path d="M605 348.5l-13.5-51-84 44 97.5 7z" fill="url(#paint13_linear)" fill-opacity=".06"/><path d="M671.967 445L605.5 348.5l-45.461 70L671.967 445z" fill="url(#paint14_linear)" fill-opacity=".06"/><path d="M693 317.5L680.387 245l-86.67 50.5 99.283 22z" fill="url(#paint15_linear)" fill-opacity=".06"/><path d="M769.5 491.5L749.723 384l-74.289 63.5 94.066 44z" fill="url(#paint16_linear)" fill-opacity=".06"/><path d="M736 385l-43.5-69-83.5 33 127 36z" fill="url(#paint17_linear)" fill-opacity=".06"/><path d="M897 445l-82.5-83-77 22L897 445z" fill="url(#paint18_linear)" fill-opacity=".06"/><path d="M813 362l-47.5-97.5L695 316l118 46z" fill="url(#paint19_linear)" fill-opacity=".06"/><path d="M846.298 280.5L784.391 140 680.387 245l165.911 35.5z" fill="url(#paint20_linear)" fill-opacity=".03"/><path d="M900.001 444l173.499-11-157.499-103-16 114z" fill="url(#paint21_linear)" fill-opacity=".06"/><path d="M939.407 229l-13.372-104.5-78.746 150 92.118-45.5z" fill="url(#paint22_linear)" fill-opacity=".06"/><path d="M1015.5 295.5L846.794 280 811 362l204.5-66.5z" fill="url(#paint23_linear)" fill-opacity=".03"/><path d="M1115.72 189l22.78-97-210.979 30 188.199 67z" fill="url(#paint24_linear)" fill-opacity=".06"/><path d="M1138.5 91l31-104h-212l181 104z" fill="url(#paint25_linear)" fill-opacity=".06"/><path d="M1259 95l13.5-111.5-102 2.5L1259 95z" fill="url(#paint26_linear)" fill-opacity=".06"/><path d="M680.387 245l12.877-141-138.177 97 125.3 44z" fill="url(#paint27_linear)" fill-opacity=".03"/><path d="M508.532 343.5l-119.357 52 96.575 73 22.782-125z" fill="url(#paint28_linear)" fill-opacity=".06"/><path d="M560.534 421l-76.27 45.5 81.718 46-5.448-91.5z" fill="url(#paint29_linear)" fill-opacity=".06"/><path d="M422.357 303l-103.013 5.5 70.822 88.5 32.191-94z" fill="url(#paint30_linear)" fill-opacity=".03"/><path d="M460.492 64.5l-151.549 61L421.367 191l39.125-126.5z" fill="url(#paint31_linear)" fill-opacity=".03"/><path d="M491 231l-113 47 128.5 63.5L491 231z" fill="url(#paint32_linear)" fill-opacity=".03"/><path d="M631.852 31l-96.576 94.5 157.988-21L631.852 31z" fill="url(#paint33_linear)" fill-opacity=".03"/></g><defs><linearGradient id="paint0_linear" x1="1217.1" y1="63.889" x2="1142.04" y2="571.674" gradientUnits="userSpaceOnUse"><stop stop-color="#1A5492"/><stop offset="1" stop-color="#1E6DC0"/></linearGradient><linearGradient id="paint1_linear" x1="1381.25" y1="374.5" x2="1381.25" y2="449" gradientUnits="userSpaceOnUse"><stop stop-color="#fff"/><stop offset="1" stop-color="#2F8CF0"/></linearGradient><linearGradient id="paint2_linear" x1="1369.5" y1="230" x2="1369.5" y2="374.5" gradientUnits="userSpaceOnUse"><stop stop-color="#fff"/><stop offset="1" stop-color="#2F8CF0"/></linearGradient><linearGradient id="paint3_linear" x1="1216" y1="90" x2="1216" y2="229" gradientUnits="userSpaceOnUse"><stop stop-color="#fff"/><stop offset="1" stop-color="#2F8CF0"/></linearGradient><linearGradient id="paint4_linear" x1="1205" y1="190" x2="1205" y2="330" gradientUnits="userSpaceOnUse"><stop stop-color="#fff"/><stop offset="1" stop-color="#2F8CF0"/></linearGradient><linearGradient id="paint5_linear" x1="1102.25" y1="294.5" x2="1102.25" y2="435" gradientUnits="userSpaceOnUse"><stop stop-color="#fff"/><stop offset="1" stop-color="#2F8CF0"/></linearGradient><linearGradient id="paint6_linear" x1="1027.75" y1="190" x2="1027.75" y2="295" gradientUnits="userSpaceOnUse"><stop stop-color="#fff"/><stop offset="1" stop-color="#2F8CF0"/></linearGradient><linearGradient id="paint7_linear" x1="1242.75" y1="330" x2="1242.75" y2="471" gradientUnits="userSpaceOnUse"><stop stop-color="#fff"/><stop offset="1" stop-color="#2F8CF0"/></linearGradient><linearGradient id="paint8_linear" x1="1386.5" y1="106.5" x2="1386.5" y2="229" gradientUnits="userSpaceOnUse"><stop stop-color="#fff"/><stop offset="1" stop-color="#2F8CF0"/></linearGradient><linearGradient id="paint9_linear" x1="1321.25" y1="-3.5" x2="1321.25" y2="105.5" gradientUnits="userSpaceOnUse"><stop stop-color="#fff"/><stop offset="1" stop-color="#2F8CF0"/></linearGradient><linearGradient id="paint10_linear" x1="1252.75" y1="449.5" x2="1252.75" y2="544" gradientUnits="userSpaceOnUse"><stop stop-color="#fff"/><stop offset="1" stop-color="#2F8CF0"/></linearGradient><linearGradient id="paint11_linear" x1="486.988" y1="200.5" x2="486.988" y2="126" gradientUnits="userSpaceOnUse"><stop stop-color="#fff"/><stop offset="1" stop-color="#2F8CF0"/></linearGradient><linearGradient id="paint12_linear" x1="498.627" y1="345" x2="498.627" y2="200.5" gradientUnits="userSpaceOnUse"><stop stop-color="#fff"/><stop offset="1" stop-color="#2F8CF0"/></linearGradient><linearGradient id="paint13_linear" x1="508.627" y1="407.5" x2="508.627" y2="263" gradientUnits="userSpaceOnUse"><stop stop-color="#fff"/><stop offset="1" stop-color="#2F8CF0"/></linearGradient><linearGradient id="paint14_linear" x1="650.671" y1="485" x2="650.671" y2="346" gradientUnits="userSpaceOnUse"><stop stop-color="#fff"/><stop offset="1" stop-color="#2F8CF0"/></linearGradient><linearGradient id="paint15_linear" x1="661.567" y1="385" x2="661.567" y2="245" gradientUnits="userSpaceOnUse"><stop stop-color="#fff"/><stop offset="1" stop-color="#2F8CF0"/></linearGradient><linearGradient id="paint16_linear" x1="712.579" y1="531" x2="712.579" y2="391" gradientUnits="userSpaceOnUse"><stop stop-color="#fff"/><stop offset="1" stop-color="#2F8CF0"/></linearGradient><linearGradient id="paint17_linear" x1="653.145" y1="460" x2="653.145" y2="320" gradientUnits="userSpaceOnUse"><stop stop-color="#fff"/><stop offset="1" stop-color="#2F8CF0"/></linearGradient><linearGradient id="paint18_linear" x1="778.145" y1="506" x2="778.145" y2="366" gradientUnits="userSpaceOnUse"><stop stop-color="#fff"/><stop offset="1" stop-color="#2F8CF0"/></linearGradient><linearGradient id="paint19_linear" x1="730.145" y1="437" x2="730.145" y2="297" gradientUnits="userSpaceOnUse"><stop stop-color="#fff"/><stop offset="1" stop-color="#2F8CF0"/></linearGradient><linearGradient id="paint20_linear" x1="763.343" y1="280.5" x2="763.343" y2="140" gradientUnits="userSpaceOnUse"><stop stop-color="#fff"/><stop offset="1" stop-color="#2F8CF0"/></linearGradient><linearGradient id="paint21_linear" x1="976.304" y1="458.5" x2="976.304" y2="318" gradientUnits="userSpaceOnUse"><stop stop-color="#fff"/><stop offset="1" stop-color="#2F8CF0"/></linearGradient><linearGradient id="paint22_linear" x1="875.271" y1="253.5" x2="875.271" y2="113" gradientUnits="userSpaceOnUse"><stop stop-color="#fff"/><stop offset="1" stop-color="#2F8CF0"/></linearGradient><linearGradient id="paint23_linear" x1="837.136" y1="385" x2="837.136" y2="280" gradientUnits="userSpaceOnUse"><stop stop-color="#fff"/><stop offset="1" stop-color="#2F8CF0"/></linearGradient><linearGradient id="paint24_linear" x1="1019.89" y1="189" x2="1019.89" y2="84" gradientUnits="userSpaceOnUse"><stop stop-color="#fff"/><stop offset="1" stop-color="#2F8CF0"/></linearGradient><linearGradient id="paint25_linear" x1="1041.37" y1="90" x2="1041.37" y2="-15" gradientUnits="userSpaceOnUse"><stop stop-color="#fff"/><stop offset="1" stop-color="#2F8CF0"/></linearGradient><linearGradient id="paint26_linear" x1="1168.37" y1="99" x2="1168.37" y2="-6" gradientUnits="userSpaceOnUse"><stop stop-color="#fff"/><stop offset="1" stop-color="#2F8CF0"/></linearGradient><linearGradient id="paint27_linear" x1="624.175" y1="245" x2="624.175" y2="104" gradientUnits="userSpaceOnUse"><stop stop-color="#fff"/><stop offset="1" stop-color="#2F8CF0"/></linearGradient><linearGradient id="paint28_linear" x1="481.788" y1="468.5" x2="481.788" y2="346" gradientUnits="userSpaceOnUse"><stop stop-color="#fff"/><stop offset="1" stop-color="#2F8CF0"/></linearGradient><linearGradient id="paint29_linear" x1="544.933" y1="575.5" x2="544.933" y2="466.5" gradientUnits="userSpaceOnUse"><stop stop-color="#fff"/><stop offset="1" stop-color="#2F8CF0"/></linearGradient><linearGradient id="paint30_linear" x1="370.851" y1="397" x2="370.851" y2="303" gradientUnits="userSpaceOnUse"><stop stop-color="#fff"/><stop offset="1" stop-color="#2F8CF0"/></linearGradient><linearGradient id="paint31_linear" x1="384.718" y1="191" x2="384.718" y2="64.5" gradientUnits="userSpaceOnUse"><stop stop-color="#fff"/><stop offset="1" stop-color="#2F8CF0"/></linearGradient><linearGradient id="paint32_linear" x1="437.926" y1="343.5" x2="437.926" y2="232" gradientUnits="userSpaceOnUse"><stop stop-color="#fff"/><stop offset="1" stop-color="#2F8CF0"/></linearGradient><linearGradient id="paint33_linear" x1="614.27" y1="125.5" x2="614.27" y2="31" gradientUnits="userSpaceOnUse"><stop stop-color="#fff"/><stop offset="1" stop-color="#2F8CF0"/></linearGradient></defs></svg>