<svg width="950" height="382" fill="none" xmlns="http://www.w3.org/2000/svg"><path d="M243.619 217.5L227.276 143l-112.919 64.5 129.262 10z" fill="url(#paint0_linear)" fill-opacity=".03"/><path d="M284.23 313.5l-40.611-96-56.619 79 97.23 17z" fill="url(#paint1_linear)" fill-opacity=".06"/><path d="M297 365.5l-13.5-51-84 44 97.5 7z" fill="url(#paint2_linear)" fill-opacity=".06"/><path d="M363.968 462l-66.467-96.5-45.462 70L363.968 462z" fill="url(#paint3_linear)" fill-opacity=".06"/><path d="M385 334.5L372.386 262l-86.67 50.5 99.284 22z" fill="url(#paint4_linear)" fill-opacity=".06"/><path d="M428 402l-43.5-69-83.5 33 127 36z" fill="url(#paint5_linear)" fill-opacity=".06"/><path d="M589.001 462l-82.5-83-77 22 159.5 61z" fill="url(#paint6_linear)" fill-opacity=".06"/><path d="M505 379l-47.5-97.5L387 333l118 46z" fill="url(#paint7_linear)" fill-opacity=".06"/><path d="M538.298 297.5L476.391 157 372.386 262l165.912 35.5z" fill="url(#paint8_linear)" fill-opacity=".03"/><path d="M592.001 461l173.5-11-157.5-103-16 114z" fill="url(#paint9_linear)" fill-opacity=".06"/><path d="M631.407 246l-13.372-104.5-78.746 150 92.118-45.5z" fill="url(#paint10_linear)" fill-opacity=".06"/><path d="M707.501 312.5L538.794 297l-35.793 82 204.5-66.5z" fill="url(#paint11_linear)" fill-opacity=".03"/><path d="M807.719 206l22.782-97-210.98 30 188.198 67z" fill="url(#paint12_linear)" fill-opacity=".06"/><path d="M830.5 108l31-104h-212l181 104z" fill="url(#paint13_linear)" fill-opacity=".06"/><path d="M951 112L964.5.5 862.5 3 951 112z" fill="url(#paint14_linear)" fill-opacity=".06"/><path d="M372.387 262l12.877-141-138.177 97 125.3 44z" fill="url(#paint15_linear)" fill-opacity=".03"/><path d="M200.532 360.5l-119.357 52 96.575 73 22.782-125z" fill="url(#paint16_linear)" fill-opacity=".06"/><path d="M114.357 320l-103.013 5.5L82.166 414l32.191-94z" fill="url(#paint17_linear)" fill-opacity=".03"/><path d="M152.492 81.5L.943 142.5 113.367 208l39.125-126.5z" fill="url(#paint18_linear)" fill-opacity=".03"/><path d="M183 248L70 295l128.5 63.5L183 248z" fill="url(#paint19_linear)" fill-opacity=".03"/><path d="M323.852 48l-96.576 94.5 157.988-21L323.852 48z" fill="url(#paint20_linear)" fill-opacity=".03"/><defs><linearGradient id="paint0_linear" x1="178.988" y1="217.5" x2="178.988" y2="143" gradientUnits="userSpaceOnUse"><stop stop-color="#fff"/><stop offset="1" stop-color="#2F8CF0"/></linearGradient><linearGradient id="paint1_linear" x1="190.627" y1="362" x2="190.627" y2="217.5" gradientUnits="userSpaceOnUse"><stop stop-color="#fff"/><stop offset="1" stop-color="#2F8CF0"/></linearGradient><linearGradient id="paint2_linear" x1="200.627" y1="424.5" x2="200.627" y2="280" gradientUnits="userSpaceOnUse"><stop stop-color="#fff"/><stop offset="1" stop-color="#2F8CF0"/></linearGradient><linearGradient id="paint3_linear" x1="342.672" y1="502" x2="342.672" y2="363" gradientUnits="userSpaceOnUse"><stop stop-color="#fff"/><stop offset="1" stop-color="#2F8CF0"/></linearGradient><linearGradient id="paint4_linear" x1="353.567" y1="402" x2="353.567" y2="262" gradientUnits="userSpaceOnUse"><stop stop-color="#fff"/><stop offset="1" stop-color="#2F8CF0"/></linearGradient><linearGradient id="paint5_linear" x1="345.144" y1="477" x2="345.144" y2="337" gradientUnits="userSpaceOnUse"><stop stop-color="#fff"/><stop offset="1" stop-color="#2F8CF0"/></linearGradient><linearGradient id="paint6_linear" x1="470.145" y1="523" x2="470.145" y2="383" gradientUnits="userSpaceOnUse"><stop stop-color="#fff"/><stop offset="1" stop-color="#2F8CF0"/></linearGradient><linearGradient id="paint7_linear" x1="422.144" y1="454" x2="422.144" y2="314" gradientUnits="userSpaceOnUse"><stop stop-color="#fff"/><stop offset="1" stop-color="#2F8CF0"/></linearGradient><linearGradient id="paint8_linear" x1="455.342" y1="297.5" x2="455.342" y2="157" gradientUnits="userSpaceOnUse"><stop stop-color="#fff"/><stop offset="1" stop-color="#2F8CF0"/></linearGradient><linearGradient id="paint9_linear" x1="668.304" y1="475.5" x2="668.304" y2="335" gradientUnits="userSpaceOnUse"><stop stop-color="#fff"/><stop offset="1" stop-color="#2F8CF0"/></linearGradient><linearGradient id="paint10_linear" x1="567.271" y1="270.5" x2="567.271" y2="130" gradientUnits="userSpaceOnUse"><stop stop-color="#fff"/><stop offset="1" stop-color="#2F8CF0"/></linearGradient><linearGradient id="paint11_linear" x1="529.137" y1="402" x2="529.137" y2="297" gradientUnits="userSpaceOnUse"><stop stop-color="#fff"/><stop offset="1" stop-color="#2F8CF0"/></linearGradient><linearGradient id="paint12_linear" x1="711.887" y1="206" x2="711.887" y2="101" gradientUnits="userSpaceOnUse"><stop stop-color="#fff"/><stop offset="1" stop-color="#2F8CF0"/></linearGradient><linearGradient id="paint13_linear" x1="733.366" y1="107" x2="733.366" y2="2" gradientUnits="userSpaceOnUse"><stop stop-color="#fff"/><stop offset="1" stop-color="#2F8CF0"/></linearGradient><linearGradient id="paint14_linear" x1="860.366" y1="116" x2="860.366" y2="11" gradientUnits="userSpaceOnUse"><stop stop-color="#fff"/><stop offset="1" stop-color="#2F8CF0"/></linearGradient><linearGradient id="paint15_linear" x1="316.175" y1="262" x2="316.175" y2="121" gradientUnits="userSpaceOnUse"><stop stop-color="#fff"/><stop offset="1" stop-color="#2F8CF0"/></linearGradient><linearGradient id="paint16_linear" x1="173.788" y1="485.5" x2="173.788" y2="363" gradientUnits="userSpaceOnUse"><stop stop-color="#fff"/><stop offset="1" stop-color="#2F8CF0"/></linearGradient><linearGradient id="paint17_linear" x1="62.851" y1="414" x2="62.851" y2="320" gradientUnits="userSpaceOnUse"><stop stop-color="#fff"/><stop offset="1" stop-color="#2F8CF0"/></linearGradient><linearGradient id="paint18_linear" x1="76.718" y1="208" x2="76.718" y2="81.5" gradientUnits="userSpaceOnUse"><stop stop-color="#fff"/><stop offset="1" stop-color="#2F8CF0"/></linearGradient><linearGradient id="paint19_linear" x1="129.926" y1="360.5" x2="129.926" y2="249" gradientUnits="userSpaceOnUse"><stop stop-color="#fff"/><stop offset="1" stop-color="#2F8CF0"/></linearGradient><linearGradient id="paint20_linear" x1="306.27" y1="142.5" x2="306.27" y2="48" gradientUnits="userSpaceOnUse"><stop stop-color="#fff"/><stop offset="1" stop-color="#2F8CF0"/></linearGradient></defs></svg>