<svg width="15" height="15" fill="none" xmlns="http://www.w3.org/2000/svg"><path d="M13.221 7.702v3.467c0 .23.007.462-.023.691l.03-.22c-.032.222-.09.437-.176.645l.083-.198c-.087.201-.196.39-.33.564l.13-.168a2.6 2.6 0 01-.459.459l.168-.13a2.591 2.591 0 01-.564.33l.198-.084a2.613 2.613 0 01-.645.177l.221-.03c-.348.044-.71.023-1.06.023H4.281c-.303 0-.606.002-.907 0-.116 0-.231-.008-.346-.023l.221.03a2.633 2.633 0 01-.645-.177c.066.028.133.057.198.083a2.614 2.614 0 01-.564-.329l.168.13a2.602 2.602 0 01-.46-.46l.13.169a2.59 2.59 0 01-.329-.564c.029.066.057.133.083.198a2.613 2.613 0 01-.176-.646l.03.222c-.045-.348-.023-.71-.023-1.06V4.287c0-.303-.002-.605 0-.906 0-.117.008-.232.023-.346l-.03.22c.032-.222.09-.437.176-.645l-.083.198a2.62 2.62 0 01.33-.564l-.13.168c.133-.17.288-.326.459-.459l-.168.13a2.66 2.66 0 01.564-.33c-.067.03-.133.057-.198.084.206-.087.422-.145.645-.176l-.22.03c.2-.027.403-.024.606-.024h3.551a.866.866 0 00.59-.243.84.84 0 00.242-.588c-.01-.215-.08-.438-.243-.59a.863.863 0 00-.588-.242H3.389c-.546 0-1.066.133-1.554.373A3.373 3.373 0 000 3.379v8.137a3.42 3.42 0 00.45 1.685 3.41 3.41 0 002.927 1.69c.258.002.516 0 .774 0h7.186c.073 0 .148.002.221 0a3.365 3.365 0 001.777-.535c.503-.335.944-.797 1.202-1.35.223-.48.35-.978.35-1.51V7.703a.866.866 0 00-.244-.59.84.84 0 00-.588-.242c-.215.01-.438.08-.59.243a.857.857 0 00-.244.587zM10.36 1.665h3.693a.866.866 0 00.59-.243.841.841 0 00.242-.588c-.01-.215-.08-.438-.243-.59a.863.863 0 00-.589-.242h-3.692a.866.866 0 00-.59.243.84.84 0 00-.242.589c.01.214.08.437.243.588a.874.874 0 00.589.243z" fill="#1E6DC0"/><path d="M14.885 4.527V.834a.866.866 0 00-.243-.589.84.84 0 00-.589-.242c-.214.01-.437.08-.589.242a.863.863 0 00-.242.59v3.692a.87.87 0 00.242.589.84.84 0 00.59.243c.214-.01.437-.08.588-.243a.873.873 0 00.243-.589z" fill="#1E6DC0"/><path d="M8.044 8.02l.66-.66 1.573-1.574 1.903-1.903 1.65-1.65c.267-.266.538-.53.8-.8l.012-.012a.855.855 0 00.243-.589.848.848 0 00-.243-.589c-.158-.144-.366-.252-.589-.242a.873.873 0 00-.588.242l-.66.66-1.574 1.574L9.328 4.38l-1.65 1.65c-.267.267-.538.531-.8.8l-.012.012a.855.855 0 00-.243.589c0 .205.09.447.243.589.158.145.366.253.589.243a.858.858 0 00.589-.243z" fill="#1E6DC0"/></svg>