<svg width="18" height="18" fill="none" xmlns="http://www.w3.org/2000/svg"><path d="M15.363 2.636a9 9 0 00-12.727 0 9 9 0 000 12.727A9 9 0 1015.363 2.636zM13.41 7.363l-.602.601-2.628 2.629c-.551.549-1.1 1.1-1.649 1.648a.933.933 0 01-1.299 0 42.494 42.494 0 01-.321-.324L4.63 9.633c-.363-.362-.338-.932 0-1.3.335-.364.96-.339 1.3 0l.32.325c.545.544 1.089 1.09 1.63 1.634.862-.86 1.72-1.72 2.581-2.58l1.648-1.649c.363-.362.932-.337 1.3 0 .365.338.34.96 0 1.3z" fill="url(#paint0_linear)"/><defs><linearGradient id="paint0_linear" x1="15.599" y1="2.188" x2="8.397" y2="20.622" gradientUnits="userSpaceOnUse"><stop stop-color="#0060B9"/><stop offset="1" stop-color="#0072F8"/></linearGradient></defs></svg>