<svg width="30" height="30" fill="none" xmlns="http://www.w3.org/2000/svg"><path d="M25 10h-3.75V5H3.75a2.507 2.507 0 00-2.5 2.5v13.75h2.5A3.745 3.745 0 007.5 25a3.745 3.745 0 003.75-3.75h7.5A3.745 3.745 0 0022.5 25a3.745 3.745 0 003.75-3.75h2.5V15L25 10zM7.5 23.125a1.872 1.872 0 01-1.875-1.875c0-1.038.838-1.875 1.875-1.875s1.875.837 1.875 1.875A1.872 1.872 0 017.5 23.125zm16.875-11.25L26.825 15H21.25v-3.125h3.125zM22.5 23.125a1.872 1.872 0 01-1.875-1.875c0-1.038.837-1.875 1.875-1.875s1.875.837 1.875 1.875a1.872 1.872 0 01-1.875 1.875z" fill="url(#paint0_linear)"/><defs><linearGradient id="paint0_linear" x1="25.083" y1="7.431" x2="18.876" y2="29.278" gradientUnits="userSpaceOnUse"><stop stop-color="#0060B9"/><stop offset="1" stop-color="#0072F8"/></linearGradient></defs></svg>