<svg width="104" height="36" fill="none" xmlns="http://www.w3.org/2000/svg"><path d="M63.112 8.924h-9.306v13.572h-3.005V7.433c0-.208.038-.405.115-.59a1.59 1.59 0 01.313-.485c.138-.139.3-.247.485-.324.185-.077.385-.116.601-.116h10.797v3.006z" fill="#000"/><path d="M54.975 8.924h9.306v13.572h3.005V7.433a1.52 1.52 0 00-.115-.59 1.59 1.59 0 00-.313-.485 1.49 1.49 0 00-.485-.324 1.547 1.547 0 00-.601-.116H54.975v3.006z" fill="#000"/><path d="M53.288 31.285c-.725 0-1.335-.22-1.83-.657-.485-.443-.727-1.003-.727-1.681 0-.679.242-1.237.727-1.675.48-.442 1.09-.663 1.83-.663.494 0 .933.1 1.317.302v.715a2.494 2.494 0 00-1.31-.354c-.508 0-.933.159-1.275.477-.338.313-.506.712-.506 1.198 0 .485.17.886.513 1.204.341.313.773.47 1.296.47.554 0 1.016-.137 1.386-.412v.715c-.407.24-.88.36-1.421.36zm1.979-3.942v-.65h3.972v.65H57.63V31.2h-.763v-3.858h-1.6zM60.83 31.2h-.762v-4.508h2.087c.508 0 .903.123 1.185.368.29.236.436.55.436.94 0 .39-.145.713-.436.966-.282.249-.677.373-1.185.373H60.83v1.862zm0-3.857v1.346h1.262c.287 0 .51-.058.672-.174a.59.59 0 00.243-.502c0-.215-.08-.38-.242-.496-.158-.116-.382-.174-.673-.174h-1.261zm4.922 2.802c.329.317.73.476 1.207.476.475 0 .877-.159 1.206-.476.328-.327.492-.726.492-1.198a1.59 1.59 0 00-.492-1.192 1.656 1.656 0 00-1.207-.483c-.475 0-.877.161-1.206.483-.323.314-.485.71-.485 1.192 0 .48.162.88.486 1.198zm2.98.47c-.47.446-1.062.67-1.773.67-.712 0-1.303-.224-1.775-.67a2.24 2.24 0 01-.7-1.668c0-.662.234-1.215.7-1.662.472-.45 1.063-.676 1.775-.676.711 0 1.302.225 1.774.676.471.447.707 1 .707 1.662a2.22 2.22 0 01-.707 1.668zm2.391.585h-.651v-4.508h.762v3.31l2.668-3.31h.666v4.509h-.763v-3.323L71.123 31.2zm1.393-4.772c-.365 0-.66-.096-.887-.29a.986.986 0 01-.347-.772h.638a.5.5 0 00.16.386c.106.095.25.142.43.142s.323-.05.429-.148a.518.518 0 00.166-.38h.638a.976.976 0 01-.353.773c-.227.193-.518.29-.874.29zm3.907 4.772h-.652v-4.508h.763v3.31l2.668-3.31h.666v4.509h-.763v-3.323L76.423 31.2zm5.411 0h-.763v-4.508h.763v1.778h2.53v-1.777h.762V31.2h-.763v-2.08h-2.53v2.08zm6.881 0H86.33v-4.508h2.204c.44 0 .786.1 1.04.297.259.197.388.468.388.811a.95.95 0 01-.18.58.98.98 0 01-.464.348c.305.051.552.184.741.399.194.215.291.483.291.805 0 .382-.148.69-.443.921-.291.232-.689.348-1.192.348zm-1.622-2.067v1.417h1.483c.296 0 .527-.062.693-.187a.632.632 0 00.256-.534.598.598 0 00-.249-.515c-.166-.12-.4-.18-.7-.18h-1.483zm0-1.79v1.166h1.31c.254 0 .45-.05.589-.149a.508.508 0 00.215-.437.491.491 0 00-.215-.432c-.139-.099-.335-.148-.59-.148h-1.31zm7.774 3.857h-3.541v-4.508h3.451v.65h-2.69v1.128h2.191v.65h-2.19v1.43h2.78v.65zm3.181.085c-.725 0-1.335-.22-1.83-.657-.485-.443-.727-1.003-.727-1.681 0-.679.242-1.237.728-1.675.48-.442 1.09-.663 1.83-.663.494 0 .933.1 1.316.302v.715a2.494 2.494 0 00-1.31-.354c-.508 0-.933.159-1.275.477-.337.313-.506.712-.506 1.198 0 .485.171.886.513 1.204.342.313.774.47 1.296.47.555 0 1.017-.137 1.386-.412v.715c-.406.24-.88.36-1.42.36zm1.98-3.942v-.65h3.971v.65h-1.608V31.2h-.762v-3.858h-1.601z" fill="#646464"/><path d="M103.824 22.496h-4.266l-6.762-6.775c-.871-.87-.624-2.35 0-3.028l6.762-6.775h4.266l-8.52 8.289 8.52 8.289zm-19.171 0H73.809c-.277 0-.578-.031-.901-.093a4.607 4.607 0 01-1.838-.844 3.956 3.956 0 01-.763-.797 4.174 4.174 0 01-.52-1.087 4.647 4.647 0 01-.197-1.399v-8.138c0-.278.03-.574.092-.89.07-.324.174-.64.312-.948.14-.316.32-.617.544-.902.223-.285.49-.535.797-.751a3.959 3.959 0 011.087-.532c.409-.131.87-.197 1.387-.197h10.844v3.006H73.809c-.393 0-.693.104-.901.312-.209.208-.313.517-.313.925v8.115c0 .386.105.686.313.902.215.208.516.312.901.312h10.844v3.006zm5.872 0H87.52V5.918h3.006v16.578z" fill="#000"/><rect width="35.721" height="35.721" rx="3" fill="#2C2C2C"/><rect width="35.721" height="35.721" rx="3" fill="url(#paint0_linear)"/><mask id="a" maskUnits="userSpaceOnUse" x="0" y="0" width="36" height="36"><rect width="35.721" height="35.721" rx="3" fill="#2C2C2C"/></mask><g mask="url(#a)"><path d="M17.756 17.017l6.66-19.483 12.823-2.713 1.233 44.638H19.976l-7.398-3.738 5.178-16.731v-1.973z" fill="url(#paint1_linear)"/></g><path fill-rule="evenodd" clip-rule="evenodd" d="M15.745 20.576H8.051c-1.006 0-1.258-.451-1.258-.954 0-.504.343-.763.755-1.258L22.482.424A1.19 1.19 0 0123.74.052c.622.188.971.836.78 1.448l-4.468 14.55h7.118c.441 0 1.006.554 1.006 1.057 0 .503-.098.724-.51 1.22l-14.073 16.97a1.19 1.19 0 01-1.258.374 1.155 1.155 0 01-.78-1.448l4.19-13.646z" fill="#fff"/><defs><linearGradient id="paint0_linear" x1="23.566" y1="0" x2="0" y2="33.985" gradientUnits="userSpaceOnUse"><stop stop-color="#018DD2"/><stop offset="1" stop-color="#A2D9F7"/></linearGradient><linearGradient id="paint1_linear" x1="35.02" y1=".247" x2="10.605" y2="36.499" gradientUnits="userSpaceOnUse"><stop stop-color="#0060B9"/><stop offset="1" stop-color="#0072F8"/></linearGradient></defs></svg>