<svg width="170" height="30" viewBox="0 0 170 30" fill="none" xmlns="http://www.w3.org/2000/svg">
<g clip-path="url(#clip0_602_26533)">
<path d="M76.2854 21.1029C75.4091 21.1279 74.537 20.9726 73.7231 20.6468C72.9093 20.3209 72.171 19.8314 71.554 19.2086C70.9446 18.5839 70.4667 17.8433 70.1487 17.0305C69.8307 16.2178 69.679 15.3496 69.7026 14.4772C69.679 13.6048 69.8307 12.7365 70.1487 11.9238C70.4667 11.1111 70.9446 10.3704 71.554 9.74572C72.1681 9.11841 72.9056 8.62538 73.7201 8.29784C74.5345 7.9703 75.408 7.81537 76.2854 7.84287C77.1792 7.80665 78.0698 7.96845 78.8937 8.31667C79.7176 8.6649 80.4543 9.19094 81.0511 9.85715L81.4197 10.2772L79.7054 12.0772L79.2683 11.64C78.8817 11.235 78.4158 10.9141 77.8996 10.6973C77.3835 10.4805 76.8281 10.3725 76.2683 10.38C75.7506 10.3651 75.2356 10.4597 74.757 10.6576C74.2784 10.8556 73.8471 11.1524 73.4912 11.5286C73.1152 11.9192 72.822 12.3817 72.6291 12.8884C72.4361 13.395 72.3474 13.9354 72.3683 14.4772C72.3481 15.0175 72.4371 15.5564 72.6301 16.0616C72.823 16.5668 73.1159 17.0278 73.4912 17.4172C73.8471 17.7934 74.2784 18.0902 74.757 18.2881C75.2356 18.486 75.7506 18.5806 76.2683 18.5657C76.8357 18.5708 77.3981 18.4602 77.9213 18.2406C78.4445 18.021 78.9174 17.6971 79.3112 17.2886L79.7569 16.8429L81.4712 18.6857L81.1026 19.0886C80.4994 19.7607 79.7542 20.2902 78.921 20.6386C78.0878 20.987 77.1875 21.1456 76.2854 21.1029Z" fill="#060D2C"/>
<path d="M92.34 20.9144L87.3428 15.4458H86.3143V20.9144H83.6914V8.03149H86.3143V12.9515H87.36L92.2714 8.03149H95.7771L89.5885 14.1601L95.7857 20.9144H92.34Z" fill="#060D2C"/>
<path d="M64.1918 21.1029V10.5172H57.7547V21.1029H55.1318V8.03149H66.8147V10.5172V21.1029H64.1918Z" fill="#060D2C"/>
<path d="M34.4653 0.120117L28.0882 7.34583C28.1653 7.34583 28.2339 7.34583 28.3196 7.34583C29.607 7.33902 30.8686 7.70744 31.95 8.40605C33.0314 9.10467 33.8859 10.1032 34.4089 11.2796C34.932 12.456 35.101 13.7594 34.8952 15.0303C34.6895 16.3012 34.1179 17.4846 33.2504 18.4359C32.3829 19.3872 31.2571 20.0652 30.0105 20.3869C28.7638 20.7087 27.4505 20.6603 26.231 20.2476C25.0114 19.835 23.9386 19.0759 23.1435 18.0633C22.3484 17.0507 21.8655 15.8284 21.7539 14.5458L15.3682 21.7887C16.5999 23.8165 18.2913 25.5262 20.3058 26.7796C22.3202 28.0331 24.6012 28.7952 26.9646 29.0043C29.3279 29.2135 31.7073 28.8639 33.9106 27.9837C36.1139 27.1035 38.0793 25.7175 39.648 23.9375C41.2167 22.1576 42.3448 20.0336 42.9412 17.7372C43.5375 15.4407 43.5854 13.0363 43.0809 10.7179C42.5764 8.39959 41.5338 6.23241 40.0371 4.39143C38.5405 2.55045 36.6318 1.08728 34.4653 0.120117Z" fill="#FF6859"/>
<path d="M15.4282 21.7374C15.3425 21.7374 15.2568 21.7374 15.1711 21.7374C13.8807 21.7515 12.6143 21.3884 11.5273 20.6928C10.4404 19.9972 9.58023 18.9993 9.0525 17.8216C8.52478 16.6439 8.35245 15.3378 8.55667 14.0636C8.76089 12.7894 9.33277 11.6025 10.2021 10.6488C11.0714 9.69502 12.2003 9.0159 13.4502 8.6948C14.7001 8.37369 16.0166 8.42457 17.238 8.8412C18.4594 9.25783 19.5325 10.0221 20.3256 11.0401C21.1187 12.0581 21.5973 13.2855 21.7025 14.5717L28.0968 7.32887C26.8696 5.29421 25.1804 3.57723 23.166 2.31701C21.1516 1.05679 18.8687 0.288771 16.5022 0.0751709C14.1357 -0.13843 11.7522 0.208393 9.54473 1.08754C7.33724 1.9667 5.36788 3.35345 3.79617 5.13548C2.22446 6.9175 1.0946 9.04469 0.498114 11.3447C-0.0983692 13.6447 -0.144702 16.0529 0.36287 18.3742C0.870441 20.6954 1.91764 22.8645 3.41965 24.7057C4.92165 26.5468 6.83621 28.0083 9.00825 28.9717L15.4282 21.7374Z" fill="#361787"/>
<path d="M108.651 9.92493C109.065 10.0972 109.272 10.4094 109.272 10.8615C109.272 11.1953 109.159 11.4698 108.933 11.6851C108.713 11.8951 108.395 12 107.98 12H105.962V7.96288H107.819C108.223 7.96288 108.535 8.06515 108.756 8.2697C108.976 8.46886 109.087 8.73262 109.087 9.06098C109.087 9.44854 108.941 9.73653 108.651 9.92493ZM107.787 8.59267H106.648V9.6504H107.787C108.196 9.6504 108.4 9.47008 108.4 9.10942C108.4 8.76492 108.196 8.59267 107.787 8.59267ZM107.94 11.3621C108.145 11.3621 108.301 11.3137 108.408 11.2168C108.521 11.1199 108.578 10.9827 108.578 10.805C108.578 10.6382 108.521 10.509 108.408 10.4175C108.301 10.3206 108.145 10.2721 107.94 10.2721H106.648V11.3621H107.94Z" fill="#060D2C"/>
<path d="M115.545 7.96288V12H114.843V8.63304H112.752V12H112.049V7.96288H115.545Z" fill="#060D2C"/>
<path d="M120.022 11.4913C119.607 11.9004 119.104 12.105 118.512 12.105C117.92 12.105 117.417 11.9004 117.002 11.4913C116.593 11.0822 116.389 10.5789 116.389 9.98145C116.389 9.38395 116.593 8.88065 117.002 8.47156C117.417 8.06246 117.92 7.85791 118.512 7.85791C119.104 7.85791 119.607 8.06246 120.022 8.47156C120.436 8.88065 120.644 9.38395 120.644 9.98145C120.644 10.5789 120.436 11.0822 120.022 11.4913ZM118.512 11.4187C118.916 11.4187 119.255 11.2814 119.529 11.0069C119.804 10.7324 119.941 10.3905 119.941 9.98145C119.941 9.57235 119.804 9.23054 119.529 8.95601C119.255 8.68149 118.916 8.54422 118.512 8.54422C118.114 8.54422 117.777 8.68149 117.503 8.95601C117.228 9.23054 117.091 9.57235 117.091 9.98145C117.091 10.3905 117.228 10.7324 117.503 11.0069C117.777 11.2814 118.114 11.4187 118.512 11.4187Z" fill="#060D2C"/>
<path d="M124.403 7.96288H124.968V12H124.274V9.16594L122.037 12H121.472V7.96288H122.166V10.797L124.403 7.96288Z" fill="#060D2C"/>
<path d="M127.935 12.105C127.326 12.105 126.82 11.9031 126.417 11.4994C126.013 11.0903 125.811 10.5843 125.811 9.98145C125.811 9.37857 126.013 8.87527 126.417 8.47156C126.82 8.06246 127.326 7.85791 127.935 7.85791C128.333 7.85791 128.691 7.9548 129.009 8.14858C129.326 8.33698 129.563 8.59267 129.719 8.91564L129.13 9.25476C129.027 9.03945 128.869 8.8672 128.653 8.73801C128.443 8.60882 128.204 8.54422 127.935 8.54422C127.531 8.54422 127.192 8.68149 126.917 8.95601C126.648 9.23054 126.514 9.57235 126.514 9.98145C126.514 10.3852 126.648 10.7243 126.917 10.9988C127.192 11.2733 127.531 11.4106 127.935 11.4106C128.204 11.4106 128.446 11.3487 128.661 11.2249C128.877 11.0957 129.041 10.9234 129.154 10.7081L129.751 11.0553C129.579 11.3729 129.332 11.6286 129.009 11.8224C128.686 12.0108 128.328 12.105 127.935 12.105Z" fill="#060D2C"/>
<path d="M133.868 12H132.996L131.155 10.0864V12H130.453V7.96288H131.155V9.74729L132.899 7.96288H133.804L131.874 9.91685L133.868 12Z" fill="#060D2C"/>
<path d="M134.643 10.3044C134.713 10.6651 134.878 10.945 135.136 11.1441C135.4 11.3433 135.723 11.4429 136.105 11.4429C136.638 11.4429 137.025 11.2464 137.268 10.8535L137.865 11.1926C137.472 11.8009 136.88 12.105 136.089 12.105C135.448 12.105 134.926 11.9058 134.522 11.5075C134.124 11.1038 133.925 10.5951 133.925 9.98145C133.925 9.37318 134.121 8.8672 134.514 8.46348C134.907 8.05977 135.416 7.85791 136.04 7.85791C136.632 7.85791 137.114 8.06784 137.486 8.4877C137.862 8.90218 138.051 9.40279 138.051 9.98952C138.051 10.0918 138.043 10.1968 138.027 10.3044H134.643ZM136.04 8.52C135.664 8.52 135.351 8.62766 135.104 8.84297C134.856 9.0529 134.703 9.3355 134.643 9.69077H137.34C137.281 9.30859 137.13 9.01792 136.888 8.81875C136.646 8.61958 136.363 8.52 136.04 8.52Z" fill="#060D2C"/>
<path d="M109.329 16.5343V20.5714H108.626V17.2125H107.036V18.8597C107.036 19.5218 106.901 19.9847 106.632 20.2485C106.368 20.5069 105.994 20.6145 105.51 20.5714V19.9094C105.784 19.947 105.989 19.8878 106.123 19.7317C106.263 19.5702 106.333 19.2742 106.333 18.8435V16.5343H109.329Z" fill="#060D2C"/>
<path d="M113.211 16.5343H113.962L112.315 20.8218C112.143 21.2793 111.901 21.6265 111.588 21.8633C111.276 22.1056 110.921 22.2132 110.523 22.1863V21.5323C111.018 21.57 111.381 21.3008 111.613 20.7249L111.677 20.5795L109.925 16.5343H110.668L112.049 19.6994L113.211 16.5343Z" fill="#060D2C"/>
<path d="M117.092 16.5343H117.795V20.5714H117.092V19.1181C116.769 19.258 116.406 19.328 116.002 19.328C115.485 19.328 115.084 19.2069 114.799 18.9647C114.519 18.7171 114.379 18.3537 114.379 17.8746V16.5343H115.082V17.8343C115.082 18.1357 115.162 18.351 115.324 18.4802C115.491 18.6094 115.733 18.674 116.051 18.674C116.433 18.674 116.78 18.604 117.092 18.4641V16.5343Z" fill="#060D2C"/>
<path d="M123.69 16.5343H124.393V20.5714H118.862V16.5343H119.564V19.9013H121.276V16.5343H121.979V19.9013H123.69V16.5343Z" fill="#060D2C"/>
<path d="M128.4 16.5343H128.966V20.5714H128.271V17.7374L126.035 20.5714H125.47V16.5343H126.164V19.3684L128.4 16.5343Z" fill="#060D2C"/>
<path d="M133.539 20.5714H132.716L131.585 19.0454L130.447 20.5714H129.623L131.173 18.4964L129.712 16.5343H130.544L131.585 17.9392L132.627 16.5343H133.45L131.997 18.4883L133.539 20.5714Z" fill="#060D2C"/>
<path d="M138.437 16.4293C139.003 16.4293 139.484 16.6366 139.883 17.0511C140.281 17.4602 140.48 17.9608 140.48 18.5529C140.48 19.145 140.281 19.6483 139.883 20.0628C139.484 20.4719 139.003 20.6764 138.437 20.6764C137.77 20.6764 137.261 20.41 136.911 19.8771V22.1863H136.209V16.5343H136.911V17.2287C137.261 16.6958 137.77 16.4293 138.437 16.4293ZM138.349 19.9982C138.752 19.9982 139.091 19.8609 139.366 19.5864C139.641 19.3065 139.778 18.962 139.778 18.5529C139.778 18.1438 139.641 17.802 139.366 17.5274C139.091 17.2475 138.752 17.1076 138.349 17.1076C137.94 17.1076 137.598 17.2475 137.323 17.5274C137.049 17.802 136.911 18.1438 136.911 18.5529C136.911 18.962 137.049 19.3065 137.323 19.5864C137.598 19.8609 137.94 19.9982 138.349 19.9982Z" fill="#060D2C"/>
<path d="M141.811 18.8758C141.881 19.2365 142.045 19.5164 142.304 19.7156C142.567 19.9147 142.89 20.0143 143.272 20.0143C143.805 20.0143 144.193 19.8178 144.435 19.4249L145.033 19.764C144.64 20.3723 144.048 20.6764 143.256 20.6764C142.616 20.6764 142.094 20.4772 141.69 20.0789C141.292 19.6752 141.092 19.1665 141.092 18.5529C141.092 17.9446 141.289 17.4386 141.682 17.0349C142.075 16.6312 142.583 16.4293 143.208 16.4293C143.8 16.4293 144.282 16.6393 144.653 17.0591C145.03 17.4736 145.218 17.9742 145.218 18.561C145.218 18.6632 145.21 18.7682 145.194 18.8758H141.811ZM143.208 17.0914C142.831 17.0914 142.519 17.1991 142.271 17.4144C142.024 17.6243 141.87 17.9069 141.811 18.2622H144.508C144.449 17.88 144.298 17.5893 144.056 17.3902C143.813 17.191 143.531 17.0914 143.208 17.0914Z" fill="#060D2C"/>
<path d="M150.854 16.5343H151.557V20.5714H146.026V16.5343H146.728V19.9013H148.44V16.5343H149.143V19.9013H150.854V16.5343Z" fill="#060D2C"/>
<path d="M153.126 18.8758C153.196 19.2365 153.36 19.5164 153.619 19.7156C153.882 19.9147 154.205 20.0143 154.587 20.0143C155.12 20.0143 155.508 19.8178 155.75 19.4249L156.348 19.764C155.955 20.3723 155.363 20.6764 154.571 20.6764C153.931 20.6764 153.409 20.4772 153.005 20.0789C152.607 19.6752 152.407 19.1665 152.407 18.5529C152.407 17.9446 152.604 17.4386 152.997 17.0349C153.39 16.6312 153.898 16.4293 154.523 16.4293C155.115 16.4293 155.597 16.6393 155.968 17.0591C156.345 17.4736 156.533 17.9742 156.533 18.561C156.533 18.6632 156.525 18.7682 156.509 18.8758H153.126ZM154.523 17.0914C154.146 17.0914 153.834 17.1991 153.586 17.4144C153.339 17.6243 153.185 17.9069 153.126 18.2622H155.823C155.764 17.88 155.613 17.5893 155.371 17.3902C155.128 17.191 154.846 17.0914 154.523 17.0914Z" fill="#060D2C"/>
<path d="M160.135 16.5343H160.837V20.5714H160.135V18.8839H158.043V20.5714H157.341V16.5343H158.043V18.2138H160.135V16.5343Z" fill="#060D2C"/>
<path d="M164.837 16.5343H165.402V20.5714H164.708V17.7374L162.472 20.5714H161.906V16.5343H162.601V19.3684L164.837 16.5343Z" fill="#060D2C"/>
<path d="M167.134 15.9287V15.3151H169.314V15.9287H167.134ZM169.403 16.5343H169.968V20.5714H169.274V17.7374L167.037 20.5714H166.472V16.5343H167.166V19.3684L169.403 16.5343Z" fill="#060D2C"/>
</g>
<defs>
<clipPath id="clip0_602_26533">
<rect width="169.714" height="30" fill="white"/>
</clipPath>
</defs>
</svg>
