<svg width="198" height="35" viewBox="0 0 198 35" fill="none" xmlns="http://www.w3.org/2000/svg">
<g clip-path="url(#clip0_602_33647)">
<path d="M89.0002 24.6201C87.9778 24.6492 86.9603 24.4681 86.0108 24.088C85.0613 23.7078 84.2 23.1367 83.4802 22.4101C82.7692 21.6813 82.2116 20.8172 81.8406 19.869C81.4696 18.9209 81.2926 17.9079 81.3202 16.8901C81.2926 15.8723 81.4696 14.8593 81.8406 13.9111C82.2116 12.963 82.7692 12.0989 83.4802 11.3701C84.1966 10.6382 85.0571 10.063 86.0072 9.68089C86.9574 9.29876 87.9765 9.11801 89.0002 9.15009C90.0428 9.10784 91.082 9.29661 92.0432 9.70287C93.0044 10.1091 93.8639 10.7228 94.5602 11.5001L94.9902 11.9901L92.9902 14.0901L92.4802 13.5801C92.0292 13.1076 91.4856 12.7332 90.8834 12.4802C90.2812 12.2273 89.6333 12.1013 88.9802 12.1101C88.3762 12.0927 87.7754 12.2031 87.217 12.434C86.6587 12.6649 86.1554 13.0112 85.7402 13.4501C85.3016 13.9058 84.9595 14.4454 84.7344 15.0365C84.5093 15.6276 84.4058 16.2581 84.4302 16.8901C84.4066 17.5205 84.5105 18.1493 84.7356 18.7386C84.9607 19.328 85.3023 19.8659 85.7402 20.3201C86.1554 20.759 86.6587 21.1053 87.217 21.3362C87.7754 21.5671 88.3762 21.6775 88.9802 21.6601C89.6421 21.666 90.2983 21.537 90.9087 21.2808C91.519 21.0246 92.0708 20.6467 92.5302 20.1701L93.0502 19.6501L95.0502 21.8001L94.6202 22.2701C93.9165 23.0543 93.0471 23.672 92.075 24.0784C91.1029 24.4849 90.0526 24.6699 89.0002 24.6201Z" fill="white"/>
<path d="M107.73 24.4001L101.9 18.0201H100.7V24.4001H97.6396V9.37012H100.7V15.1101H101.92L107.65 9.37012H111.74L104.52 16.5201L111.75 24.4001H107.73Z" fill="white"/>
<path d="M74.8903 24.6201V12.2701H67.3803V24.6201H64.3203V9.37012H77.9503V12.2701V24.6201H74.8903Z" fill="white"/>
<path d="M40.2097 0.140137L32.7697 8.57014C32.8597 8.57014 32.9397 8.57014 33.0397 8.57014C34.5417 8.56219 36.0135 8.99201 37.2751 9.80706C38.5368 10.6221 39.5337 11.7871 40.1439 13.1596C40.7541 14.5321 40.9513 16.0526 40.7112 17.5353C40.4712 19.0181 39.8044 20.3987 38.7923 21.5086C37.7802 22.6184 36.4667 23.4094 35.0124 23.7848C33.558 24.1601 32.0258 24.1036 30.603 23.6222C29.1802 23.1408 27.9285 22.2553 27.0009 21.0739C26.0732 19.8925 25.5099 18.4665 25.3797 16.9701L17.9297 25.4201C19.3667 27.7859 21.34 29.7805 23.6902 31.2429C26.0404 32.7053 28.7016 33.5944 31.4588 33.8384C34.2161 34.0824 36.9921 33.6745 39.5626 32.6476C42.1331 31.6208 44.426 30.0037 46.2562 27.9271C48.0864 25.8505 49.4025 23.3725 50.0982 20.6934C50.7939 18.0142 50.8498 15.209 50.2612 12.5042C49.6727 9.79952 48.4562 7.27114 46.7101 5.12333C44.9641 2.97552 42.7373 1.26849 40.2097 0.140137Z" fill="#FF6859"/>
<path d="M17.9993 25.3602C17.8993 25.3602 17.7993 25.3602 17.6993 25.3602C16.1938 25.3766 14.7163 24.953 13.4482 24.1415C12.1801 23.3299 11.1766 22.1657 10.5609 20.7917C9.94525 19.4178 9.7442 17.894 9.98245 16.4074C10.2207 14.9208 10.8879 13.5361 11.9021 12.4234C12.9163 11.3107 14.2334 10.5184 15.6916 10.1438C17.1498 9.76918 18.6857 9.82855 20.1107 10.3146C21.5356 10.8007 22.7876 11.6923 23.7129 12.88C24.6382 14.0676 25.1965 15.4997 25.3193 17.0002L32.7793 8.55022C31.3475 6.17646 29.3768 4.17331 27.0267 2.70305C24.6766 1.2328 22.0132 0.336778 19.2523 0.0875773C16.4914 -0.161623 13.7106 0.243003 11.1352 1.26868C8.55979 2.29436 6.2622 3.91224 4.42854 5.99127C2.59488 8.0703 1.27671 10.552 0.580808 13.2354C-0.11509 15.9187 -0.169144 18.7283 0.423022 21.4364C1.01519 24.1446 2.23693 26.6751 3.98926 28.8232C5.7416 30.9712 7.97526 32.6762 10.5093 33.8002L17.9993 25.3602Z" fill="white"/>
<path d="M126.758 11.579C127.242 11.78 127.483 12.1442 127.483 12.6717C127.483 13.0611 127.352 13.3814 127.088 13.6326C126.83 13.8775 126.46 13.9999 125.976 13.9999H123.621V9.28994H125.788C126.259 9.28994 126.623 9.40926 126.881 9.6479C127.138 9.88026 127.267 10.188 127.267 10.5711C127.267 11.0232 127.097 11.3592 126.758 11.579ZM125.75 10.0247H124.422V11.2587H125.75C126.227 11.2587 126.466 11.0483 126.466 10.6276C126.466 10.2257 126.227 10.0247 125.75 10.0247ZM125.929 13.2558C126.168 13.2558 126.35 13.1992 126.476 13.0862C126.607 12.9732 126.673 12.813 126.673 12.6058C126.673 12.4111 126.607 12.2604 126.476 12.1536C126.35 12.0406 126.168 11.9841 125.929 11.9841H124.422V13.2558H125.929Z" fill="white"/>
<path d="M134.802 9.28994V13.9999H133.982V10.0718H131.543V13.9999H130.723V9.28994H134.802Z" fill="white"/>
<path d="M140.025 13.4065C139.541 13.8838 138.954 14.1224 138.263 14.1224C137.572 14.1224 136.985 13.8838 136.502 13.4065C136.024 12.9292 135.786 12.342 135.786 11.6449C135.786 10.9479 136.024 10.3607 136.502 9.8834C136.985 9.40612 137.572 9.16748 138.263 9.16748C138.954 9.16748 139.541 9.40612 140.025 9.8834C140.508 10.3607 140.75 10.9479 140.75 11.6449C140.75 12.342 140.508 12.9292 140.025 13.4065ZM138.263 13.3217C138.734 13.3217 139.13 13.1616 139.45 12.8413C139.77 12.521 139.93 12.1222 139.93 11.6449C139.93 11.1677 139.77 10.7689 139.45 10.4486C139.13 10.1283 138.734 9.96818 138.263 9.96818C137.798 9.96818 137.406 10.1283 137.086 10.4486C136.765 10.7689 136.605 11.1677 136.605 11.6449C136.605 12.1222 136.765 12.521 137.086 12.8413C137.406 13.1616 137.798 13.3217 138.263 13.3217Z" fill="white"/>
<path d="M145.136 9.28994H145.795V13.9999H144.985V10.6935L142.376 13.9999H141.716V9.28994H142.526V12.5964L145.136 9.28994Z" fill="white"/>
<path d="M149.256 14.1224C148.547 14.1224 147.956 13.8869 147.485 13.4159C147.014 12.9386 146.779 12.3483 146.779 11.6449C146.779 10.9416 147.014 10.3544 147.485 9.8834C147.956 9.40612 148.547 9.16748 149.256 9.16748C149.721 9.16748 150.139 9.28052 150.509 9.5066C150.88 9.7264 151.156 10.0247 151.338 10.4015L150.65 10.7971C150.531 10.5459 150.346 10.345 150.095 10.1943C149.85 10.0435 149.57 9.96818 149.256 9.96818C148.785 9.96818 148.39 10.1283 148.069 10.4486C147.755 10.7689 147.598 11.1677 147.598 11.6449C147.598 12.1159 147.755 12.5116 148.069 12.8319C148.39 13.1521 148.785 13.3123 149.256 13.3123C149.57 13.3123 149.853 13.2401 150.104 13.0956C150.355 12.9449 150.547 12.7439 150.679 12.4927L151.376 12.8978C151.175 13.2683 150.886 13.5666 150.509 13.7927C150.132 14.0125 149.715 14.1224 149.256 14.1224Z" fill="white"/>
<path d="M156.179 13.9999H155.161L153.014 11.7674V13.9999H152.194V9.28994H153.014V11.3718L155.048 9.28994H156.103L153.852 11.5696L156.179 13.9999Z" fill="white"/>
<path d="M157.083 12.0217C157.165 12.4425 157.356 12.7691 157.658 13.0014C157.965 13.2338 158.342 13.35 158.788 13.35C159.41 13.35 159.862 13.1207 160.145 12.6623L160.842 13.0579C160.383 13.7676 159.692 14.1224 158.769 14.1224C158.022 14.1224 157.413 13.89 156.942 13.4253C156.477 12.9543 156.245 12.3609 156.245 11.6449C156.245 10.9353 156.474 10.345 156.932 9.87398C157.391 9.40298 157.984 9.16748 158.713 9.16748C159.404 9.16748 159.966 9.4124 160.399 9.90224C160.839 10.3858 161.058 10.9698 161.058 11.6544C161.058 11.7737 161.049 11.8961 161.03 12.0217H157.083ZM158.713 9.93992C158.273 9.93992 157.909 10.0655 157.62 10.3167C157.331 10.5616 157.152 10.8913 157.083 11.3058H160.229C160.16 10.8599 159.984 10.5208 159.702 10.2885C159.419 10.0561 159.09 9.93992 158.713 9.93992Z" fill="white"/>
<path d="M127.549 19.2899V23.9999H126.73V20.0812H124.874V22.0029C124.874 22.7753 124.717 23.3154 124.403 23.6231C124.095 23.9246 123.659 24.0502 123.094 23.9999V23.2275C123.414 23.2715 123.653 23.2024 123.81 23.0203C123.973 22.8319 124.055 22.4865 124.055 21.9841V19.2899H127.549Z" fill="white"/>
<path d="M132.079 19.2899H132.955L131.033 24.292C130.832 24.8258 130.55 25.2308 130.185 25.5071C129.821 25.7897 129.407 25.9153 128.942 25.8839V25.1209C129.52 25.1649 129.944 24.8509 130.214 24.1789L130.289 24.0094L128.245 19.2899H129.112L130.722 22.9826L132.079 19.2899Z" fill="white"/>
<path d="M136.607 19.2899H137.426V23.9999H136.607V22.3043C136.23 22.4676 135.806 22.5493 135.335 22.5493C134.732 22.5493 134.264 22.408 133.931 22.1254C133.605 21.8365 133.441 21.4126 133.441 20.8537V19.2899H134.261V20.8066C134.261 21.1582 134.355 21.4094 134.544 21.5602C134.738 21.7109 135.021 21.7862 135.391 21.7862C135.837 21.7862 136.242 21.7046 136.607 21.5413V19.2899Z" fill="white"/>
<path d="M144.304 19.2899H145.124V23.9999H138.671V19.2899H139.491V23.2181H141.488V19.2899H142.307V23.2181H144.304V19.2899Z" fill="white"/>
<path d="M149.8 19.2899H150.459V23.9999H149.649V20.6935L147.04 23.9999H146.38V19.2899H147.19V22.5964L149.8 19.2899Z" fill="white"/>
<path d="M155.795 23.9999H154.834L153.515 22.2196L152.187 23.9999H151.226L153.035 21.579L151.33 19.2899H152.3L153.515 20.929L154.73 19.2899H155.691L153.996 21.5696L155.795 23.9999Z" fill="white"/>
<path d="M161.509 19.1675C162.169 19.1675 162.731 19.4093 163.196 19.8928C163.66 20.3701 163.893 20.9541 163.893 21.6449C163.893 22.3357 163.66 22.9229 163.196 23.4065C162.731 23.8838 162.169 24.1224 161.509 24.1224C160.731 24.1224 160.137 23.8115 159.729 23.1898V25.8839H158.909V19.2899H159.729V20.1001C160.137 19.4783 160.731 19.1675 161.509 19.1675ZM161.406 23.3311C161.877 23.3311 162.272 23.171 162.593 22.8507C162.913 22.5241 163.073 22.1222 163.073 21.6449C163.073 21.1677 162.913 20.7689 162.593 20.4486C162.272 20.122 161.877 19.9588 161.406 19.9588C160.928 19.9588 160.53 20.122 160.209 20.4486C159.889 20.7689 159.729 21.1677 159.729 21.6449C159.729 22.1222 159.889 22.5241 160.209 22.8507C160.53 23.171 160.928 23.3311 161.406 23.3311Z" fill="white"/>
<path d="M165.445 22.0217C165.527 22.4425 165.718 22.7691 166.02 23.0014C166.328 23.2338 166.704 23.35 167.15 23.35C167.772 23.35 168.224 23.1207 168.507 22.6623L169.204 23.0579C168.745 23.7676 168.055 24.1224 167.131 24.1224C166.384 24.1224 165.775 23.89 165.304 23.4253C164.839 22.9543 164.607 22.3609 164.607 21.6449C164.607 20.9353 164.836 20.345 165.294 19.874C165.753 19.403 166.346 19.1675 167.075 19.1675C167.766 19.1675 168.328 19.4124 168.761 19.9022C169.201 20.3858 169.42 20.9698 169.42 21.6544C169.42 21.7737 169.411 21.8961 169.392 22.0217H165.445ZM167.075 19.9399C166.635 19.9399 166.271 20.0655 165.982 20.3167C165.693 20.5616 165.514 20.8913 165.445 21.3058H168.591C168.522 20.8599 168.347 20.5208 168.064 20.2885C167.781 20.0561 167.452 19.9399 167.075 19.9399Z" fill="white"/>
<path d="M175.996 19.2899H176.815V23.9999H170.362V19.2899H171.182V23.2181H173.179V19.2899H173.999V23.2181H175.996V19.2899Z" fill="white"/>
<path d="M178.646 22.0217C178.728 22.4425 178.919 22.7691 179.221 23.0014C179.528 23.2338 179.905 23.35 180.351 23.35C180.973 23.35 181.425 23.1207 181.708 22.6623L182.405 23.0579C181.946 23.7676 181.255 24.1224 180.332 24.1224C179.585 24.1224 178.976 23.89 178.505 23.4253C178.04 22.9543 177.808 22.3609 177.808 21.6449C177.808 20.9353 178.037 20.345 178.495 19.874C178.954 19.403 179.547 19.1675 180.276 19.1675C180.967 19.1675 181.529 19.4124 181.962 19.9022C182.402 20.3858 182.621 20.9698 182.621 21.6544C182.621 21.7737 182.612 21.8961 182.593 22.0217H178.646ZM180.276 19.9399C179.836 19.9399 179.472 20.0655 179.183 20.3167C178.894 20.5616 178.715 20.8913 178.646 21.3058H181.792C181.723 20.8599 181.547 20.5208 181.265 20.2885C180.982 20.0561 180.653 19.9399 180.276 19.9399Z" fill="white"/>
<path d="M186.823 19.2899H187.642V23.9999H186.823V22.0312H184.383V23.9999H183.563V19.2899H184.383V21.2493H186.823V19.2899Z" fill="white"/>
<path d="M192.309 19.2899H192.969V23.9999H192.158V20.6935L189.549 23.9999H188.89V19.2899H189.7V22.5964L192.309 19.2899Z" fill="white"/>
<path d="M194.989 18.5834V17.8675H197.532V18.5834H194.989ZM197.636 19.2899H198.295V23.9999H197.485V20.6935L194.875 23.9999H194.216V19.2899H195.026V22.5964L197.636 19.2899Z" fill="white"/>
</g>
<defs>
<clipPath id="clip0_602_33647">
<rect width="198" height="35" fill="white"/>
</clipPath>
</defs>
</svg>
