<svg width="665" height="457" fill="none" xmlns="http://www.w3.org/2000/svg"><mask id="a" maskUnits="userSpaceOnUse" x="0" y="0" width="665" height="457"><path d="M211.2 331.958c2.007 6.603 1.814 34.962 7.071 45.249h58.038c8.89 0 23.687.575 28.108 2.967l3.215 9.001 9 4.5 6.429 13.5h22.501l19.929-16.072c2.39-8.492-.932-21.217 2.222-26.097 3.155-4.88 20.557.203 29.279-2.189h32.787l1.929 13.5 13.5 7.072 1.286 23.786 42.43 1.286 5.143-14.786c8.961 2.871 27.779.039 36.381 2.91 10.754 3.588 7.978 16.271 7.978 23.448s9 1.286 31.501 29.573c6.003 7.546 20.071 4.395 27.001 6.428l2.572-6.428 1.562-44.409v-96.171l-20.79-20.814 3.156-26.328c7.288-4.904 9-9 19.286-7.714 6.047.756 15.554-9.737 23.798-18.349 8.244-8.613 18.512-20.612 32.133-29.224 10.896-6.89 4.309-30.345-.231-40.034l-19.056-21.04-38.573-1.286c-6.93.359-2.571-10.71-2.571-11.572 0-.861-17.942.645-17.942-2.705 5.377-6.937-1.215-17.867 2.513-17.867 3.728 0 4.626-19.689-3.858-30.215-1.194 2.512-4.39 5.595-12.992 15.068-8.603 9.474-11.227 3.948-10.151 0V64.52c-3.226-9.808-23.144-15.43-37.93-11.572-26.065 6.8 1.841 15.324 1.841 22.501 0 5.742-.579 19.077 5.873 23.144l-18 16.715-16.072 4.5-16.965 10.152H430.8c-9.678 0-23.276-.509-31.879-.509 1.673-7.297 3.103-30.434-5.786-29.572-11.112 1.076-16.072 7.209-38.573-5.144-8.889-4.88-1.664-12.74 2.04-17.167l-9.754-8.548c-4.78 4.546-14.693 1.371-20.715 1.371-6.021 0-4.927-9.09-5.644-13.636l2.572-27.99C314.1 21.947 307.581-2.64 301.846.232c-5.735 2.87-26.819 26.14-24.43 28.533l-6.428 24.826H249.13c-8.842 2.034-42.056 2.303-46.931 3.164-6.093 1.077-10.103 19.172-21.215 23.837-8.889 3.732-1.132 11.45 2.572 16.354 0 12.201-18.001 28.648-21.591 33.014-3.875 4.712-45.165 31.579-53.409 36.603-8.244 5.024 0 21.89 0 27.99 0 4.88-16.25 2.034-24.374 0l-12.187 18.301c-6.094 6.46-19.715 21.818-25.45 31.579-5.735 9.761 2.39 9.809 7.169 8.612h34.053c6.093 5.742 2.508 9.833 2.508 14.713 0 4.88-22.773 3.5-28.867 5.055l-1.6 43.716c-10.515-.837-33.48-.723-41.222 1.286-9.678 2.512-14.667 13.829-18.251 19.929-2.868 4.881 13.5 13.985 18.251 25.716l41.221 1.546v-13.277l40.174-6.27c4.063 4.545 2.197 7.334 7.072 12.215 6.094 6.1 25.408 7.332 31.501 7.332 6.094 0 16.1.862 28.287-9.904 6.02-5.318 13.04-15.352 19.286-19.929 6.398-4.689 14.009-3.215 25.073-3.215z" fill="#C4C4C4"/></mask><g mask="url(#a)" stroke="#5B88B8" stroke-width="1.5"><circle cx="5.478" cy="15.661" r="3.75"/><circle cx="375.777" cy="15.661" r="3.75"/><circle cx="5.478" cy="200.811" r="3.75"/><circle cx="375.777" cy="200.811" r="3.75"/><circle cx="5.478" cy="108.236" r="3.75"/><circle cx="375.777" cy="108.236" r="3.75"/><circle cx="5.478" cy="293.386" r="3.75"/><circle cx="375.777" cy="293.386" r="3.75"/><circle cx="5.478" cy="385.961" r="3.75"/><circle cx="375.777" cy="385.961" r="3.75"/><circle cx="5.478" cy="61.949" r="3.75"/><circle cx="375.777" cy="61.949" r="3.75"/><circle cx="5.478" cy="247.098" r="3.75"/><circle cx="375.777" cy="247.098" r="3.75"/><circle cx="5.478" cy="154.524" r="3.75"/><circle cx="375.777" cy="154.524" r="3.75"/><circle cx="5.478" cy="339.673" r="3.75"/><circle cx="375.777" cy="339.673" r="3.75"/><circle cx="5.478" cy="432.248" r="3.75"/><circle cx="375.777" cy="432.248" r="3.75"/><circle cx="5.478" cy="31.09" r="3.75"/><circle cx="375.777" cy="31.09" r="3.75"/><circle cx="5.478" cy="216.24" r="3.75"/><circle cx="375.777" cy="216.24" r="3.75"/><circle cx="5.478" cy="123.665" r="3.75"/><circle cx="375.777" cy="123.665" r="3.75"/><circle cx="5.478" cy="308.815" r="3.75"/><circle cx="375.777" cy="308.815" r="3.75"/><circle cx="5.478" cy="401.39" r="3.75"/><circle cx="375.777" cy="401.39" r="3.75"/><circle cx="5.478" cy="77.378" r="3.75"/><circle cx="375.777" cy="77.378" r="3.75"/><circle cx="5.478" cy="262.527" r="3.75"/><circle cx="375.777" cy="262.527" r="3.75"/><circle cx="5.478" cy="169.953" r="3.75"/><circle cx="375.777" cy="169.953" r="3.75"/><circle cx="5.478" cy="355.102" r="3.75"/><circle cx="375.777" cy="355.102" r="3.75"/><circle cx="5.478" cy="447.677" r="3.75"/><circle cx="375.777" cy="447.677" r="3.75"/><circle cx="5.478" cy="46.52" r="3.75"/><circle cx="375.777" cy="46.52" r="3.75"/><circle cx="5.478" cy="231.669" r="3.75"/><circle cx="375.777" cy="231.669" r="3.75"/><circle cx="5.478" cy="139.094" r="3.75"/><circle cx="375.777" cy="139.094" r="3.75"/><circle cx="375.777" cy="324.244" r="3.75"/><circle cx="5.478" cy="416.819" r="3.75"/><circle cx="375.777" cy="416.819" r="3.75"/><circle cx="5.478" cy="92.807" r="3.75"/><circle cx="375.777" cy="92.807" r="3.75"/><circle cx="5.478" cy="277.957" r="3.75"/><circle cx="375.777" cy="277.957" r="3.75"/><circle cx="5.478" cy="185.382" r="3.75"/><circle cx="375.777" cy="185.382" r="3.75"/><circle cx="5.478" cy="370.531" r="3.75"/><circle cx="375.777" cy="370.531" r="3.75"/><circle cx="190.627" cy="15.661" r="3.75"/><circle cx="560.927" cy="15.661" r="3.75"/><circle cx="190.627" cy="200.811" r="3.75"/><circle cx="560.927" cy="200.811" r="3.75"/><circle cx="190.627" cy="108.236" r="3.75"/><circle cx="560.927" cy="108.236" r="3.75"/><circle cx="190.627" cy="293.386" r="3.75"/><circle cx="560.927" cy="293.386" r="3.75"/><circle cx="190.627" cy="385.961" r="3.75"/><circle cx="560.927" cy="385.961" r="3.75"/><circle cx="190.627" cy="61.949" r="3.75"/><circle cx="560.927" cy="61.949" r="3.75"/><circle cx="190.627" cy="247.098" r="3.75"/><circle cx="560.927" cy="247.098" r="3.75"/><circle cx="190.627" cy="154.524" r="3.75"/><circle cx="560.927" cy="154.524" r="3.75"/><circle cx="190.627" cy="339.673" r="3.75"/><circle cx="560.927" cy="339.673" r="3.75"/><circle cx="190.627" cy="432.248" r="3.75"/><circle cx="560.927" cy="432.248" r="3.75"/><circle cx="190.627" cy="31.09" r="3.75"/><circle cx="560.927" cy="31.09" r="3.75"/><circle cx="190.627" cy="216.24" r="3.75"/><circle cx="560.927" cy="216.24" r="3.75"/><circle cx="190.627" cy="123.665" r="3.75"/><circle cx="560.927" cy="123.665" r="3.75"/><circle cx="190.627" cy="308.815" r="3.75"/><circle cx="206.06" cy="308.815" r="3.75"/><circle cx="560.927" cy="308.815" r="3.75"/><circle cx="190.627" cy="401.39" r="3.75"/><circle cx="560.927" cy="401.39" r="3.75"/><circle cx="560.927" cy="77.378" r="3.75"/><circle cx="190.627" cy="262.527" r="3.75"/><circle cx="560.927" cy="262.527" r="3.75"/><circle cx="190.627" cy="169.953" r="3.75"/><circle cx="560.927" cy="169.953" r="3.75"/><circle cx="190.627" cy="355.102" r="3.75"/><circle cx="560.927" cy="355.102" r="3.75"/><circle cx="190.627" cy="447.677" r="3.75"/><circle cx="560.927" cy="447.677" r="3.75"/><circle cx="190.627" cy="46.52" r="3.75"/><circle cx="560.927" cy="46.52" r="3.75"/><circle cx="190.627" cy="231.669" r="3.75"/><circle cx="560.927" cy="231.669" r="3.75"/><circle cx="190.627" cy="139.094" r="3.75"/><circle cx="560.927" cy="139.094" r="3.75"/><circle cx="190.627" cy="324.244" r="3.75"/><circle cx="560.927" cy="324.244" r="3.75"/><circle cx="190.627" cy="416.819" r="3.75"/><circle cx="560.927" cy="416.819" r="3.75"/><circle cx="190.627" cy="92.807" r="3.75"/><circle cx="560.927" cy="92.807" r="3.75"/><circle cx="190.627" cy="277.957" r="3.75"/><circle cx="560.927" cy="277.957" r="3.75"/><circle cx="190.627" cy="185.382" r="3.75"/><circle cx="190.627" cy="370.531" r="3.75"/><circle cx="560.927" cy="370.531" r="3.75"/><circle cx="67.195" cy="15.661" r="3.75"/><circle cx="437.493" cy="15.661" r="3.75"/><circle cx="67.195" cy="200.811" r="3.75"/><circle cx="437.493" cy="200.811" r="3.75"/><circle cx="67.195" cy="108.236" r="3.75"/><circle cx="437.493" cy="108.236" r="3.75"/><circle cx="67.195" cy="293.386" r="3.75"/><circle cx="437.493" cy="293.386" r="3.75"/><circle cx="67.195" cy="385.961" r="3.75"/><circle cx="437.493" cy="385.961" r="3.75"/><circle cx="67.195" cy="61.949" r="3.75"/><circle cx="437.493" cy="61.949" r="3.75"/><circle cx="67.195" cy="247.098" r="3.75"/><circle cx="437.493" cy="247.098" r="3.75"/><circle cx="67.195" cy="154.524" r="3.75"/><circle cx="437.493" cy="154.524" r="3.75"/><circle cx="67.195" cy="339.673" r="3.75"/><circle cx="437.493" cy="339.673" r="3.75"/><circle cx="67.195" cy="432.248" r="3.75"/><circle cx="437.493" cy="432.248" r="3.75"/><circle cx="67.195" cy="31.09" r="3.75"/><circle cx="437.493" cy="31.09" r="3.75"/><circle cx="437.493" cy="216.24" r="3.75"/><circle cx="67.195" cy="123.665" r="3.75"/><circle cx="437.493" cy="123.665" r="3.75"/><circle cx="67.195" cy="308.815" r="3.75"/><circle cx="437.493" cy="308.815" r="3.75"/><circle cx="67.195" cy="401.39" r="3.75"/><circle cx="437.493" cy="401.39" r="3.75"/><circle cx="67.195" cy="77.378" r="3.75"/><circle cx="437.493" cy="77.378" r="3.75"/><circle cx="67.195" cy="262.527" r="3.75"/><circle cx="437.493" cy="262.527" r="3.75"/><circle cx="67.195" cy="169.953" r="3.75"/><circle cx="437.493" cy="169.953" r="3.75"/><circle cx="67.195" cy="355.102" r="3.75"/><circle cx="437.493" cy="355.102" r="3.75"/><circle cx="67.195" cy="447.677" r="3.75"/><circle cx="437.493" cy="447.677" r="3.75"/><circle cx="67.195" cy="46.52" r="3.75"/><circle cx="437.493" cy="46.52" r="3.75"/><circle cx="67.195" cy="231.669" r="3.75"/><circle cx="437.493" cy="231.669" r="3.75"/><circle cx="67.195" cy="139.094" r="3.75"/><circle cx="437.493" cy="139.094" r="3.75"/><circle cx="67.195" cy="324.244" r="3.75"/><circle cx="437.493" cy="324.244" r="3.75"/><circle cx="67.195" cy="416.819" r="3.75"/><circle cx="437.493" cy="416.819" r="3.75"/><circle cx="67.195" cy="92.807" r="3.75"/><circle cx="437.493" cy="92.807" r="3.75"/><circle cx="67.195" cy="277.957" r="3.75"/><circle cx="437.493" cy="277.957" r="3.75"/><circle cx="67.195" cy="185.382" r="3.75"/><circle cx="437.493" cy="185.382" r="3.75"/><circle cx="67.195" cy="370.531" r="3.75"/><circle cx="437.493" cy="370.531" r="3.75"/><circle cx="252.344" cy="15.661" r="3.75"/><circle cx="622.643" cy="15.661" r="3.75"/><circle cx="252.344" cy="200.811" r="3.75"/><circle cx="622.643" cy="200.811" r="3.75"/><circle cx="252.344" cy="108.236" r="3.75"/><circle cx="622.643" cy="108.236" r="3.75"/><circle cx="252.344" cy="293.386" r="3.75"/><circle cx="622.643" cy="293.386" r="3.75"/><circle cx="252.344" cy="385.961" r="3.75"/><circle cx="622.643" cy="385.961" r="3.75"/><circle cx="252.344" cy="61.949" r="3.75"/><circle cx="622.643" cy="61.949" r="3.75"/><circle cx="252.344" cy="247.098" r="3.75"/><circle cx="622.643" cy="247.098" r="3.75"/><circle cx="252.344" cy="154.524" r="3.75"/><circle cx="622.643" cy="154.524" r="3.75"/><circle cx="252.344" cy="339.673" r="3.75"/><circle cx="622.643" cy="339.673" r="3.75"/><circle cx="252.344" cy="432.248" r="3.75"/><circle cx="622.643" cy="432.248" r="3.75"/><circle cx="252.344" cy="31.09" r="3.75"/><circle cx="622.643" cy="31.09" r="3.75"/><circle cx="252.344" cy="216.24" r="3.75"/><circle cx="622.643" cy="216.24" r="3.75"/><circle cx="252.344" cy="123.665" r="3.75"/><circle cx="622.643" cy="123.665" r="3.75"/><circle cx="252.344" cy="308.815" r="3.75"/><circle cx="622.643" cy="308.815" r="3.75"/><circle cx="252.344" cy="401.39" r="3.75"/><circle cx="622.643" cy="401.39" r="3.75"/><circle cx="252.344" cy="77.378" r="3.75"/><circle cx="622.643" cy="77.378" r="3.75"/><circle cx="252.344" cy="262.527" r="3.75"/><circle cx="622.643" cy="262.527" r="3.75"/><circle cx="252.344" cy="169.953" r="3.75"/><circle cx="622.643" cy="169.953" r="3.75"/><circle cx="252.344" cy="355.102" r="3.75"/><circle cx="622.643" cy="355.102" r="3.75"/><circle cx="252.344" cy="447.677" r="3.75"/><circle cx="622.643" cy="447.677" r="3.75"/><circle cx="252.344" cy="46.52" r="3.75"/><circle cx="622.643" cy="46.52" r="3.75"/><circle cx="252.344" cy="231.669" r="3.75"/><circle cx="622.643" cy="231.669" r="3.75"/><circle cx="252.344" cy="139.094" r="3.75"/><circle cx="622.643" cy="139.094" r="3.75"/><circle cx="252.344" cy="324.244" r="3.75"/><circle cx="622.643" cy="324.244" r="3.75"/><circle cx="252.344" cy="416.819" r="3.75"/><circle cx="622.643" cy="416.819" r="3.75"/><circle cx="252.344" cy="92.807" r="3.75"/><circle cx="622.643" cy="92.807" r="3.75"/><circle cx="252.344" cy="277.957" r="3.75"/><circle cx="622.643" cy="277.957" r="3.75"/><circle cx="252.344" cy="185.382" r="3.75"/><circle cx="622.643" cy="185.382" r="3.75"/><circle cx="252.344" cy="370.531" r="3.75"/><circle cx="622.643" cy="370.531" r="3.75"/><circle cx="128.91" cy="15.661" r="3.75"/><circle cx="499.21" cy="15.661" r="3.75"/><circle cx="128.91" cy="200.811" r="3.75"/><circle cx="499.21" cy="200.811" r="3.75"/><circle cx="128.91" cy="108.236" r="3.75"/><circle cx="499.21" cy="108.236" r="3.75"/><circle cx="128.91" cy="293.386" r="3.75"/><circle cx="499.21" cy="293.386" r="3.75"/><circle cx="128.91" cy="385.961" r="3.75"/><circle cx="499.21" cy="385.961" r="3.75"/><circle cx="128.91" cy="61.949" r="3.75"/><circle cx="499.21" cy="61.949" r="3.75"/><circle cx="128.91" cy="247.098" r="3.75"/><circle cx="499.21" cy="247.098" r="3.75"/><circle cx="499.21" cy="154.524" r="3.75"/><circle cx="128.91" cy="339.673" r="3.75"/><circle cx="499.21" cy="339.673" r="3.75"/><circle cx="128.91" cy="432.248" r="3.75"/><circle cx="499.21" cy="432.248" r="3.75"/><circle cx="128.91" cy="31.09" r="3.75"/><circle cx="499.21" cy="31.09" r="3.75"/><circle cx="128.91" cy="216.24" r="3.75"/><circle cx="499.21" cy="216.24" r="3.75"/><circle cx="128.91" cy="123.665" r="3.75"/><circle cx="499.21" cy="123.665" r="3.75"/><circle cx="128.91" cy="308.815" r="3.75"/><circle cx="499.21" cy="308.815" r="3.75"/><circle cx="128.91" cy="401.39" r="3.75"/><circle cx="499.21" cy="401.39" r="3.75"/><circle cx="128.91" cy="77.378" r="3.75"/><circle cx="499.21" cy="77.378" r="3.75"/><circle cx="499.21" cy="262.527" r="3.75"/><circle cx="128.91" cy="169.953" r="3.75"/><circle cx="499.21" cy="169.953" r="3.75"/><circle cx="128.91" cy="355.102" r="3.75"/><circle cx="499.21" cy="355.102" r="3.75"/><circle cx="128.91" cy="447.677" r="3.75"/><circle cx="499.21" cy="447.677" r="3.75"/><circle cx="128.91" cy="46.52" r="3.75"/><circle cx="499.21" cy="46.52" r="3.75"/><circle cx="128.91" cy="231.669" r="3.75"/><circle cx="499.21" cy="231.669" r="3.75"/><circle cx="128.91" cy="139.094" r="3.75"/><circle cx="499.21" cy="139.094" r="3.75"/><circle cx="128.91" cy="324.244" r="3.75"/><circle cx="499.21" cy="324.244" r="3.75"/><circle cx="128.91" cy="416.819" r="3.75"/><circle cx="499.21" cy="416.819" r="3.75"/><circle cx="128.91" cy="92.807" r="3.75"/><circle cx="499.21" cy="92.807" r="3.75"/><circle cx="128.91" cy="277.957" r="3.75"/><circle cx="499.21" cy="277.957" r="3.75"/><circle cx="128.91" cy="185.382" r="3.75"/><circle cx="499.21" cy="185.382" r="3.75"/><circle cx="128.91" cy="370.531" r="3.75"/><circle cx="499.21" cy="370.531" r="3.75"/><circle cx="314.061" cy="200.811" r="3.75"/><circle cx="314.061" cy="108.236" r="3.75"/><circle cx="314.061" cy="293.386" r="3.75"/><circle cx="314.061" cy="385.961" r="3.75"/><circle cx="314.061" cy="247.098" r="3.75"/><circle cx="314.061" cy="154.524" r="3.75"/><circle cx="314.061" cy="339.673" r="3.75"/><circle cx="314.061" cy="432.248" r="3.75"/><circle cx="314.061" cy="31.09" r="3.75"/><circle cx="314.061" cy="216.24" r="3.75"/><circle cx="314.061" cy="123.665" r="3.75"/><circle cx="329.49" cy="123.665" r="3.75"/><circle cx="314.061" cy="308.815" r="3.75"/><circle cx="314.061" cy="401.39" r="3.75"/><circle cx="314.061" cy="77.378" r="3.75"/><circle cx="314.061" cy="262.527" r="3.75"/><circle cx="314.061" cy="169.953" r="3.75"/><circle cx="314.061" cy="355.102" r="3.75"/><circle cx="314.061" cy="447.677" r="3.75"/><circle cx="314.061" cy="46.52" r="3.75"/><circle cx="314.061" cy="231.669" r="3.75"/><circle cx="314.061" cy="139.094" r="3.75"/><circle cx="314.061" cy="324.244" r="3.75"/><circle cx="314.061" cy="416.819" r="3.75"/><circle cx="314.061" cy="92.807" r="3.75"/><circle cx="314.061" cy="185.382" r="3.75"/><circle cx="314.061" cy="370.531" r="3.75"/><circle cx="36.336" cy="15.661" r="3.75"/><circle cx="406.636" cy="15.661" r="3.75"/><circle cx="36.336" cy="200.811" r="3.75"/><circle cx="406.636" cy="200.811" r="3.75"/><circle cx="36.336" cy="108.236" r="3.75"/><circle cx="406.636" cy="108.236" r="3.75"/><circle cx="36.336" cy="293.386" r="3.75"/><circle cx="406.636" cy="293.386" r="3.75"/><circle cx="36.336" cy="385.961" r="3.75"/><circle cx="406.636" cy="385.961" r="3.75"/><circle cx="36.336" cy="61.949" r="3.75"/><circle cx="406.636" cy="61.949" r="3.75"/><circle cx="36.336" cy="247.098" r="3.75"/><circle cx="36.336" cy="154.524" r="3.75"/><circle cx="406.636" cy="154.524" r="3.75"/><circle cx="36.336" cy="339.673" r="3.75"/><circle cx="406.636" cy="339.673" r="3.75"/><circle cx="36.336" cy="432.248" r="3.75"/><circle cx="406.636" cy="432.248" r="3.75"/><circle cx="36.336" cy="31.09" r="3.75"/><circle cx="406.636" cy="31.09" r="3.75"/><circle cx="36.336" cy="216.24" r="3.75"/><circle cx="406.636" cy="216.24" r="3.75"/><circle cx="36.336" cy="123.665" r="3.75"/><circle cx="406.636" cy="123.665" r="3.75"/><circle cx="36.336" cy="308.815" r="3.75"/><circle cx="406.636" cy="308.815" r="3.75"/><circle cx="36.336" cy="401.39" r="3.75"/><circle cx="406.636" cy="401.39" r="3.75"/><circle cx="36.336" cy="77.378" r="3.75"/><circle cx="406.636" cy="77.378" r="3.75"/><circle cx="36.336" cy="262.527" r="3.75"/><circle cx="406.636" cy="262.527" r="3.75"/><circle cx="36.336" cy="169.953" r="3.75"/><circle cx="406.636" cy="169.953" r="3.75"/><circle cx="36.336" cy="355.102" r="3.75"/><circle cx="406.636" cy="355.102" r="3.75"/><circle cx="36.336" cy="447.677" r="3.75"/><circle cx="406.636" cy="447.677" r="3.75"/><circle cx="36.336" cy="46.52" r="3.75"/><circle cx="406.636" cy="46.52" r="3.75"/><circle cx="36.336" cy="231.669" r="3.75"/><circle cx="406.636" cy="231.669" r="3.75"/><circle cx="36.336" cy="139.094" r="3.75"/><circle cx="406.636" cy="139.094" r="3.75"/><circle cx="36.336" cy="324.244" r="3.75"/><circle cx="406.636" cy="324.244" r="3.75"/><circle cx="36.336" cy="416.819" r="3.75"/><circle cx="406.636" cy="416.819" r="3.75"/><circle cx="36.336" cy="92.807" r="3.75"/><circle cx="406.636" cy="92.807" r="3.75"/><circle cx="36.336" cy="277.957" r="3.75"/><circle cx="406.636" cy="277.957" r="3.75"/><circle cx="36.336" cy="185.382" r="3.75"/><circle cx="406.636" cy="185.382" r="3.75"/><circle cx="36.336" cy="370.531" r="3.75"/><circle cx="406.636" cy="370.531" r="3.75"/><circle cx="221.486" cy="15.661" r="3.75"/><circle cx="591.785" cy="15.661" r="3.75"/><circle cx="221.486" cy="200.811" r="3.75"/><circle cx="591.785" cy="200.811" r="3.75"/><circle cx="221.486" cy="108.236" r="3.75"/><circle cx="591.785" cy="108.236" r="3.75"/><circle cx="221.486" cy="293.386" r="3.75"/><circle cx="591.785" cy="293.386" r="3.75"/><circle cx="221.486" cy="385.961" r="3.75"/><circle cx="591.785" cy="385.961" r="3.75"/><circle cx="221.486" cy="61.949" r="3.75"/><circle cx="591.785" cy="61.949" r="3.75"/><circle cx="221.486" cy="247.098" r="3.75"/><circle cx="591.785" cy="247.098" r="3.75"/><circle cx="221.486" cy="154.524" r="3.75"/><circle cx="591.785" cy="154.524" r="3.75"/><circle cx="221.486" cy="339.673" r="3.75"/><circle cx="591.785" cy="339.673" r="3.75"/><circle cx="221.486" cy="432.248" r="3.75"/><circle cx="591.785" cy="432.248" r="3.75"/><circle cx="221.486" cy="31.09" r="3.75"/><circle cx="591.785" cy="31.09" r="3.75"/><circle cx="221.486" cy="216.24" r="3.75"/><circle cx="591.785" cy="216.24" r="3.75"/><circle cx="221.486" cy="123.665" r="3.75"/><circle cx="591.785" cy="123.665" r="3.75"/><circle cx="221.486" cy="308.815" r="3.75"/><circle cx="591.785" cy="308.815" r="3.75"/><circle cx="221.486" cy="401.39" r="3.75"/><circle cx="591.785" cy="401.39" r="3.75"/><circle cx="221.486" cy="77.378" r="3.75"/><circle cx="591.785" cy="77.378" r="3.75"/><circle cx="221.486" cy="262.527" r="3.75"/><circle cx="591.785" cy="262.527" r="3.75"/><circle cx="221.486" cy="169.953" r="3.75"/><circle cx="591.785" cy="169.953" r="3.75"/><circle cx="221.486" cy="355.102" r="3.75"/><circle cx="591.785" cy="355.102" r="3.75"/><circle cx="221.486" cy="447.677" r="3.75"/><circle cx="591.785" cy="447.677" r="3.75"/><circle cx="221.486" cy="46.52" r="3.75"/><circle cx="591.785" cy="46.52" r="3.75"/><circle cx="221.486" cy="231.669" r="3.75"/><circle cx="591.785" cy="231.669" r="3.75"/><circle cx="221.486" cy="139.094" r="3.75"/><circle cx="591.785" cy="139.094" r="3.75"/><circle cx="221.486" cy="324.244" r="3.75"/><circle cx="591.785" cy="324.244" r="3.75"/><circle cx="221.486" cy="416.819" r="3.75"/><circle cx="591.785" cy="416.819" r="3.75"/><circle cx="221.486" cy="92.807" r="3.75"/><circle cx="591.785" cy="92.807" r="3.75"/><circle cx="221.486" cy="277.957" r="3.75"/><circle cx="591.785" cy="277.957" r="3.75"/><circle cx="221.486" cy="185.382" r="3.75"/><circle cx="591.785" cy="185.382" r="3.75"/><circle cx="221.486" cy="370.531" r="3.75"/><circle cx="591.785" cy="370.531" r="3.75"/><circle cx="98.053" cy="15.661" r="3.75"/><circle cx="468.352" cy="15.661" r="3.75"/><circle cx="98.053" cy="200.811" r="3.75"/><circle cx="468.352" cy="200.811" r="3.75"/><circle cx="98.053" cy="108.236" r="3.75"/><circle cx="468.352" cy="108.236" r="3.75"/><circle cx="98.053" cy="293.386" r="3.75"/><circle cx="468.352" cy="293.386" r="3.75"/><circle cx="98.053" cy="385.961" r="3.75"/><circle cx="468.352" cy="385.961" r="3.75"/><circle cx="98.053" cy="61.949" r="3.75"/><circle cx="468.352" cy="61.949" r="3.75"/><circle cx="98.053" cy="247.098" r="3.75"/><circle cx="468.352" cy="247.098" r="3.75"/><circle cx="98.053" cy="154.524" r="3.75"/><circle cx="468.352" cy="154.524" r="3.75"/><circle cx="98.053" cy="339.673" r="3.75"/><circle cx="98.053" cy="432.248" r="3.75"/><circle cx="468.352" cy="432.248" r="3.75"/><circle cx="98.053" cy="31.09" r="3.75"/><circle cx="468.352" cy="31.09" r="3.75"/><circle cx="98.053" cy="216.24" r="3.75"/><circle cx="468.352" cy="216.24" r="3.75"/><circle cx="98.053" cy="123.665" r="3.75"/><circle cx="468.352" cy="123.665" r="3.75"/><circle cx="98.053" cy="308.815" r="3.75"/><circle cx="468.352" cy="308.815" r="3.75"/><circle cx="98.053" cy="401.39" r="3.75"/><circle cx="468.352" cy="401.39" r="3.75"/><circle cx="98.053" cy="77.378" r="3.75"/><circle cx="468.352" cy="77.378" r="3.75"/><circle cx="98.053" cy="262.527" r="3.75"/><circle cx="468.352" cy="262.527" r="3.75"/><circle cx="98.053" cy="169.953" r="3.75"/><circle cx="468.352" cy="169.953" r="3.75"/><circle cx="98.053" cy="355.102" r="3.75"/><circle cx="468.352" cy="355.102" r="3.75"/><circle cx="98.053" cy="447.677" r="3.75"/><circle cx="468.352" cy="447.677" r="3.75"/><circle cx="98.053" cy="46.52" r="3.75"/><circle cx="468.352" cy="46.52" r="3.75"/><circle cx="98.053" cy="231.669" r="3.75"/><circle cx="468.352" cy="231.669" r="3.75"/><circle cx="98.053" cy="139.094" r="3.75"/><circle cx="468.352" cy="139.094" r="3.75"/><circle cx="98.053" cy="324.244" r="3.75"/><circle cx="468.352" cy="324.244" r="3.75"/><circle cx="98.053" cy="416.819" r="3.75"/><circle cx="468.352" cy="416.819" r="3.75"/><circle cx="98.053" cy="92.807" r="3.75"/><circle cx="468.352" cy="92.807" r="3.75"/><circle cx="98.053" cy="277.957" r="3.75"/><circle cx="468.352" cy="277.957" r="3.75"/><circle cx="98.053" cy="185.382" r="3.75"/><circle cx="468.352" cy="185.382" r="3.75"/><circle cx="98.053" cy="370.531" r="3.75"/><circle cx="468.352" cy="370.531" r="3.75"/><circle cx="653.501" cy="15.661" r="3.75"/><circle cx="283.202" cy="200.811" r="3.75"/><circle cx="653.501" cy="200.811" r="3.75"/><circle cx="283.202" cy="108.236" r="3.75"/><circle cx="653.501" cy="108.236" r="3.75"/><circle cx="283.202" cy="293.386" r="3.75"/><circle cx="653.501" cy="293.386" r="3.75"/><circle cx="283.202" cy="385.961" r="3.75"/><circle cx="653.501" cy="385.961" r="3.75"/><circle cx="283.202" cy="61.949" r="3.75"/><circle cx="653.501" cy="61.949" r="3.75"/><circle cx="283.202" cy="247.098" r="3.75"/><circle cx="653.501" cy="247.098" r="3.75"/><circle cx="283.202" cy="154.524" r="3.75"/><circle cx="653.501" cy="154.524" r="3.75"/><circle cx="283.202" cy="339.673" r="3.75"/><circle cx="653.501" cy="339.673" r="3.75"/><circle cx="283.202" cy="432.248" r="3.75"/><circle cx="653.501" cy="432.248" r="3.75"/><circle cx="283.202" cy="31.09" r="3.75"/><circle cx="653.501" cy="31.09" r="3.75"/><circle cx="283.202" cy="216.24" r="3.75"/><circle cx="298.63" cy="216.24" r="3.75"/><circle cx="653.501" cy="216.24" r="3.75"/><circle cx="283.202" cy="123.665" r="3.75"/><circle cx="653.501" cy="123.665" r="3.75"/><circle cx="283.202" cy="308.815" r="3.75"/><circle cx="653.501" cy="308.815" r="3.75"/><circle cx="283.202" cy="401.39" r="3.75"/><circle cx="653.501" cy="401.39" r="3.75"/><circle cx="283.202" cy="77.378" r="3.75"/><circle cx="653.501" cy="77.378" r="3.75"/><circle cx="283.202" cy="262.527" r="3.75"/><circle cx="653.501" cy="262.527" r="3.75"/><circle cx="283.202" cy="169.953" r="3.75"/><circle cx="653.501" cy="169.953" r="3.75"/><circle cx="283.202" cy="355.102" r="3.75"/><circle cx="653.501" cy="355.102" r="3.75"/><circle cx="283.202" cy="447.677" r="3.75"/><circle cx="653.501" cy="447.677" r="3.75"/><circle cx="283.202" cy="46.52" r="3.75"/><circle cx="653.501" cy="46.52" r="3.75"/><circle cx="283.202" cy="231.669" r="3.75"/><circle cx="653.501" cy="231.669" r="3.75"/><circle cx="283.202" cy="139.094" r="3.75"/><circle cx="653.501" cy="139.094" r="3.75"/><circle cx="283.202" cy="324.244" r="3.75"/><circle cx="653.501" cy="324.244" r="3.75"/><circle cx="283.202" cy="416.819" r="3.75"/><circle cx="653.501" cy="416.819" r="3.75"/><circle cx="283.202" cy="92.807" r="3.75"/><circle cx="653.501" cy="92.807" r="3.75"/><circle cx="283.202" cy="277.957" r="3.75"/><circle cx="653.501" cy="277.957" r="3.75"/><circle cx="283.202" cy="185.382" r="3.75"/><circle cx="653.501" cy="185.382" r="3.75"/><circle cx="283.202" cy="370.531" r="3.75"/><circle cx="653.501" cy="370.531" r="3.75"/><circle cx="159.769" cy="15.661" r="3.75"/><circle cx="530.069" cy="15.661" r="3.75"/><circle cx="159.769" cy="200.811" r="3.75"/><circle cx="530.069" cy="200.811" r="3.75"/><circle cx="159.769" cy="108.236" r="3.75"/><circle cx="530.069" cy="108.236" r="3.75"/><circle cx="159.769" cy="293.386" r="3.75"/><circle cx="530.069" cy="293.386" r="3.75"/><circle cx="159.769" cy="385.961" r="3.75"/><circle cx="530.069" cy="385.961" r="3.75"/><circle cx="159.769" cy="61.949" r="3.75"/><circle cx="530.069" cy="61.949" r="3.75"/><circle cx="159.769" cy="247.098" r="3.75"/><circle cx="530.069" cy="247.098" r="3.75"/><circle cx="159.769" cy="154.524" r="3.75"/><circle cx="530.069" cy="154.524" r="3.75"/><circle cx="159.769" cy="339.673" r="3.75"/><circle cx="530.069" cy="339.673" r="3.75"/><circle cx="159.769" cy="432.248" r="3.75"/><circle cx="530.069" cy="432.248" r="3.75"/><circle cx="159.769" cy="31.09" r="3.75"/><circle cx="530.069" cy="31.09" r="3.75"/><circle cx="159.769" cy="216.24" r="3.75"/><circle cx="530.069" cy="216.24" r="3.75"/><circle cx="159.769" cy="123.665" r="3.75"/><circle cx="530.069" cy="123.665" r="3.75"/><circle cx="159.769" cy="308.815" r="3.75"/><circle cx="530.069" cy="308.815" r="3.75"/><circle cx="159.769" cy="401.39" r="3.75"/><circle cx="530.069" cy="401.39" r="3.75"/><circle cx="159.769" cy="77.378" r="3.75"/><circle cx="530.069" cy="77.378" r="3.75"/><circle cx="159.769" cy="262.527" r="3.75"/><circle cx="530.069" cy="262.527" r="3.75"/><circle cx="159.769" cy="169.953" r="3.75"/><circle cx="530.069" cy="169.953" r="3.75"/><circle cx="159.769" cy="355.102" r="3.75"/><circle cx="530.069" cy="355.102" r="3.75"/><circle cx="159.769" cy="447.677" r="3.75"/><circle cx="530.069" cy="447.677" r="3.75"/><circle cx="159.769" cy="46.52" r="3.75"/><circle cx="530.069" cy="46.52" r="3.75"/><circle cx="159.769" cy="231.669" r="3.75"/><circle cx="530.069" cy="231.669" r="3.75"/><circle cx="159.769" cy="139.094" r="3.75"/><circle cx="530.069" cy="139.094" r="3.75"/><circle cx="159.769" cy="324.244" r="3.75"/><circle cx="530.069" cy="324.244" r="3.75"/><circle cx="159.769" cy="416.819" r="3.75"/><circle cx="530.069" cy="416.819" r="3.75"/><circle cx="159.769" cy="92.807" r="3.75"/><circle cx="530.069" cy="92.807" r="3.75"/><circle cx="159.769" cy="277.957" r="3.75"/><circle cx="530.069" cy="277.957" r="3.75"/><circle cx="159.769" cy="185.382" r="3.75"/><circle cx="530.069" cy="185.382" r="3.75"/><circle cx="159.769" cy="370.531" r="3.75"/><circle cx="530.069" cy="370.531" r="3.75"/><circle cx="344.919" cy="15.661" r="3.75"/><circle cx="344.919" cy="200.811" r="3.75"/><circle cx="344.919" cy="108.236" r="3.75"/><circle cx="344.919" cy="293.386" r="3.75"/><circle cx="344.919" cy="385.961" r="3.75"/><circle cx="344.919" cy="61.949" r="3.75"/><circle cx="344.919" cy="247.098" r="3.75"/><circle cx="344.919" cy="154.524" r="3.75"/><circle cx="344.919" cy="339.673" r="3.75"/><circle cx="344.919" cy="432.248" r="3.75"/><circle cx="344.919" cy="31.09" r="3.75"/><circle cx="344.919" cy="216.24" r="3.75"/><circle cx="344.919" cy="123.665" r="3.75"/><circle cx="344.919" cy="308.815" r="3.75"/><circle cx="344.919" cy="401.39" r="3.75"/><circle cx="344.919" cy="77.378" r="3.75"/><circle cx="344.919" cy="262.527" r="3.75"/><circle cx="344.919" cy="169.953" r="3.75"/><circle cx="344.919" cy="355.102" r="3.75"/><circle cx="344.919" cy="447.677" r="3.75"/><circle cx="344.919" cy="46.52" r="3.75"/><circle cx="344.919" cy="231.669" r="3.75"/><circle cx="344.919" cy="139.094" r="3.75"/><circle cx="344.919" cy="324.244" r="3.75"/><circle cx="344.919" cy="416.819" r="3.75"/><circle cx="344.919" cy="92.807" r="3.75"/><circle cx="344.919" cy="277.957" r="3.75"/><circle cx="344.919" cy="185.382" r="3.75"/><circle cx="344.919" cy="370.531" r="3.75"/><circle cx="20.907" cy="15.661" r="3.75"/><circle cx="391.206" cy="15.661" r="3.75"/><circle cx="20.907" cy="200.811" r="3.75"/><circle cx="391.206" cy="200.811" r="3.75"/><circle cx="20.907" cy="108.236" r="3.75"/><circle cx="391.206" cy="108.236" r="3.75"/><circle cx="20.907" cy="293.386" r="3.75"/><circle cx="391.206" cy="293.386" r="3.75"/><circle cx="20.907" cy="385.961" r="3.75"/><circle cx="391.206" cy="385.961" r="3.75"/><circle cx="20.907" cy="61.949" r="3.75"/><circle cx="391.206" cy="61.949" r="3.75"/><circle cx="20.907" cy="247.098" r="3.75"/><circle cx="391.206" cy="247.098" r="3.75"/><circle cx="406.64" cy="247.098" r="3.75"/><circle cx="20.907" cy="154.524" r="3.75"/><circle cx="391.206" cy="154.524" r="3.75"/><circle cx="20.907" cy="339.673" r="3.75"/><circle cx="391.206" cy="339.673" r="3.75"/><circle cx="20.907" cy="432.248" r="3.75"/><circle cx="391.206" cy="432.248" r="3.75"/><circle cx="20.907" cy="31.09" r="3.75"/><circle cx="391.206" cy="31.09" r="3.75"/><circle cx="20.907" cy="216.24" r="3.75"/><circle cx="391.206" cy="216.24" r="3.75"/><circle cx="20.907" cy="123.665" r="3.75"/><circle cx="391.206" cy="123.665" r="3.75"/><circle cx="20.907" cy="308.815" r="3.75"/><circle cx="391.206" cy="308.815" r="3.75"/><circle cx="20.907" cy="401.39" r="3.75"/><circle cx="391.206" cy="401.39" r="3.75"/><circle cx="20.907" cy="77.378" r="3.75"/><circle cx="391.206" cy="77.378" r="3.75"/><circle cx="20.907" cy="262.527" r="3.75"/><circle cx="391.206" cy="262.527" r="3.75"/><circle cx="20.907" cy="169.953" r="3.75"/><circle cx="391.206" cy="169.953" r="3.75"/><circle cx="20.907" cy="355.102" r="3.75"/><circle cx="391.206" cy="355.102" r="3.75"/><circle cx="20.907" cy="447.677" r="3.75"/><circle cx="391.206" cy="447.677" r="3.75"/><circle cx="20.907" cy="46.52" r="3.75"/><circle cx="391.206" cy="46.52" r="3.75"/><circle cx="20.907" cy="231.669" r="3.75"/><circle cx="391.206" cy="231.669" r="3.75"/><circle cx="20.907" cy="139.094" r="3.75"/><circle cx="391.206" cy="139.094" r="3.75"/><circle cx="20.907" cy="324.244" r="3.75"/><circle cx="391.206" cy="324.244" r="3.75"/><circle cx="20.907" cy="416.819" r="3.75"/><circle cx="391.206" cy="416.819" r="3.75"/><circle cx="20.907" cy="92.807" r="3.75"/><circle cx="391.206" cy="92.807" r="3.75"/><circle cx="20.907" cy="277.957" r="3.75"/><circle cx="391.206" cy="277.957" r="3.75"/><circle cx="20.907" cy="185.382" r="3.75"/><circle cx="391.206" cy="185.382" r="3.75"/><circle cx="20.907" cy="370.531" r="3.75"/><circle cx="391.206" cy="370.531" r="3.75"/><circle cx="206.057" cy="15.661" r="3.75"/><circle cx="576.356" cy="15.661" r="3.75"/><circle cx="206.057" cy="200.811" r="3.75"/><circle cx="576.356" cy="200.811" r="3.75"/><circle cx="206.057" cy="108.236" r="3.75"/><circle cx="576.356" cy="108.236" r="3.75"/><circle cx="206.057" cy="293.386" r="3.75"/><circle cx="576.356" cy="293.386" r="3.75"/><circle cx="206.057" cy="385.961" r="3.75"/><circle cx="576.356" cy="385.961" r="3.75"/><circle cx="206.057" cy="61.949" r="3.75"/><circle cx="576.356" cy="61.949" r="3.75"/><circle cx="206.057" cy="247.098" r="3.75"/><circle cx="576.356" cy="247.098" r="3.75"/><circle cx="206.057" cy="154.524" r="3.75"/><circle cx="576.356" cy="154.524" r="3.75"/><circle cx="206.057" cy="339.673" r="3.75"/><circle cx="576.356" cy="339.673" r="3.75"/><circle cx="206.057" cy="432.248" r="3.75"/><circle cx="576.356" cy="432.248" r="3.75"/><circle cx="206.057" cy="31.09" r="3.75"/><circle cx="576.356" cy="31.09" r="3.75"/><circle cx="206.057" cy="216.24" r="3.75"/><circle cx="576.356" cy="216.24" r="3.75"/><circle cx="206.057" cy="123.665" r="3.75"/><circle cx="576.356" cy="123.665" r="3.75"/><circle cx="576.356" cy="308.815" r="3.75"/><circle cx="206.057" cy="401.39" r="3.75"/><circle cx="576.356" cy="401.39" r="3.75"/><circle cx="206.057" cy="77.378" r="3.75"/><circle cx="576.356" cy="77.378" r="3.75"/><circle cx="206.057" cy="262.527" r="3.75"/><circle cx="576.356" cy="262.527" r="3.75"/><circle cx="206.057" cy="169.953" r="3.75"/><circle cx="576.356" cy="169.953" r="3.75"/><circle cx="206.057" cy="355.102" r="3.75"/><circle cx="576.356" cy="355.102" r="3.75"/><circle cx="206.057" cy="447.677" r="3.75"/><circle cx="576.356" cy="447.677" r="3.75"/><circle cx="206.057" cy="46.52" r="3.75"/><circle cx="576.356" cy="46.52" r="3.75"/><circle cx="206.057" cy="231.669" r="3.75"/><circle cx="576.356" cy="231.669" r="3.75"/><circle cx="206.057" cy="139.094" r="3.75"/><circle cx="576.356" cy="139.094" r="3.75"/><circle cx="206.057" cy="324.244" r="3.75"/><circle cx="576.356" cy="324.244" r="3.75"/><circle cx="206.057" cy="416.819" r="3.75"/><circle cx="576.356" cy="416.819" r="3.75"/><circle cx="206.057" cy="92.807" r="3.75"/><circle cx="576.356" cy="92.807" r="3.75"/><circle cx="206.057" cy="277.957" r="3.75"/><circle cx="576.356" cy="277.957" r="3.75"/><circle cx="206.057" cy="185.382" r="3.75"/><circle cx="576.356" cy="185.382" r="3.75"/><circle cx="206.057" cy="370.531" r="3.75"/><circle cx="576.356" cy="370.531" r="3.75"/><circle cx="82.623" cy="15.661" r="3.75"/><circle cx="452.923" cy="15.661" r="3.75"/><circle cx="452.923" cy="200.811" r="3.75"/><circle cx="82.623" cy="108.236" r="3.75"/><circle cx="452.923" cy="108.236" r="3.75"/><circle cx="82.623" cy="293.386" r="3.75"/><circle cx="452.923" cy="293.386" r="3.75"/><circle cx="82.623" cy="385.961" r="3.75"/><circle cx="452.923" cy="385.961" r="3.75"/><circle cx="82.623" cy="61.949" r="3.75"/><circle cx="452.923" cy="61.949" r="3.75"/><circle cx="82.623" cy="247.098" r="3.75"/><circle cx="452.923" cy="247.098" r="3.75"/><circle cx="82.623" cy="154.524" r="3.75"/><circle cx="452.923" cy="154.524" r="3.75"/><circle cx="82.623" cy="339.673" r="3.75"/><circle cx="452.923" cy="339.673" r="3.75"/><circle cx="468.35" cy="339.673" r="3.75"/><circle cx="82.623" cy="432.248" r="3.75"/><circle cx="452.923" cy="432.248" r="3.75"/><circle cx="82.623" cy="31.09" r="3.75"/><circle cx="452.923" cy="31.09" r="3.75"/><circle cx="82.623" cy="216.24" r="3.75"/><circle cx="452.923" cy="216.24" r="3.75"/><circle cx="82.623" cy="123.665" r="3.75"/><circle cx="452.923" cy="123.665" r="3.75"/><circle cx="82.623" cy="308.815" r="3.75"/><circle cx="452.923" cy="308.815" r="3.75"/><circle cx="82.623" cy="401.39" r="3.75"/><circle cx="452.923" cy="401.39" r="3.75"/><circle cx="82.623" cy="77.378" r="3.75"/><circle cx="452.923" cy="77.378" r="3.75"/><circle cx="82.623" cy="262.527" r="3.75"/><circle cx="452.923" cy="262.527" r="3.75"/><circle cx="82.623" cy="169.953" r="3.75"/><circle cx="452.923" cy="169.953" r="3.75"/><circle cx="82.623" cy="355.102" r="3.75"/><circle cx="452.923" cy="355.102" r="3.75"/><circle cx="82.623" cy="447.677" r="3.75"/><circle cx="452.923" cy="447.677" r="3.75"/><circle cx="82.623" cy="46.52" r="3.75"/><circle cx="452.923" cy="46.52" r="3.75"/><circle cx="82.623" cy="231.669" r="3.75"/><circle cx="452.923" cy="231.669" r="3.75"/><circle cx="82.623" cy="139.094" r="3.75"/><circle cx="452.923" cy="139.094" r="3.75"/><circle cx="82.623" cy="324.244" r="3.75"/><circle cx="452.923" cy="324.244" r="3.75"/><circle cx="82.623" cy="416.819" r="3.75"/><circle cx="452.923" cy="416.819" r="3.75"/><circle cx="82.623" cy="92.807" r="3.75"/><circle cx="452.923" cy="92.807" r="3.75"/><circle cx="82.623" cy="277.957" r="3.75"/><circle cx="452.923" cy="277.957" r="3.75"/><circle cx="82.623" cy="185.382" r="3.75"/><circle cx="452.923" cy="185.382" r="3.75"/><circle cx="82.623" cy="370.531" r="3.75"/><circle cx="452.923" cy="370.531" r="3.75"/><circle cx="267.774" cy="15.661" r="3.75"/><circle cx="638.072" cy="15.661" r="3.75"/><circle cx="267.774" cy="200.811" r="3.75"/><circle cx="638.072" cy="200.811" r="3.75"/><circle cx="267.774" cy="108.236" r="3.75"/><circle cx="638.072" cy="108.236" r="3.75"/><circle cx="267.774" cy="293.386" r="3.75"/><circle cx="638.072" cy="293.386" r="3.75"/><circle cx="267.774" cy="385.961" r="3.75"/><circle cx="638.072" cy="385.961" r="3.75"/><circle cx="267.774" cy="61.949" r="3.75"/><circle cx="638.072" cy="61.949" r="3.75"/><circle cx="267.774" cy="247.098" r="3.75"/><circle cx="638.072" cy="247.098" r="3.75"/><circle cx="267.774" cy="154.524" r="3.75"/><circle cx="638.072" cy="154.524" r="3.75"/><circle cx="267.774" cy="339.673" r="3.75"/><circle cx="638.072" cy="339.673" r="3.75"/><circle cx="267.774" cy="432.248" r="3.75"/><circle cx="638.072" cy="432.248" r="3.75"/><circle cx="267.774" cy="31.09" r="3.75"/><circle cx="638.072" cy="31.09" r="3.75"/><circle cx="267.774" cy="216.24" r="3.75"/><circle cx="638.072" cy="216.24" r="3.75"/><circle cx="267.774" cy="123.665" r="3.75"/><circle cx="638.072" cy="123.665" r="3.75"/><circle cx="267.774" cy="308.815" r="3.75"/><circle cx="638.072" cy="308.815" r="3.75"/><circle cx="267.774" cy="401.39" r="3.75"/><circle cx="638.072" cy="401.39" r="3.75"/><circle cx="267.774" cy="77.378" r="3.75"/><circle cx="638.072" cy="77.378" r="3.75"/><circle cx="267.774" cy="262.527" r="3.75"/><circle cx="638.072" cy="262.527" r="3.75"/><circle cx="267.774" cy="169.953" r="3.75"/><circle cx="638.072" cy="169.953" r="3.75"/><circle cx="267.774" cy="355.102" r="3.75"/><circle cx="638.072" cy="355.102" r="3.75"/><circle cx="267.774" cy="447.677" r="3.75"/><circle cx="638.072" cy="447.677" r="3.75"/><circle cx="267.774" cy="46.52" r="3.75"/><circle cx="638.072" cy="46.52" r="3.75"/><circle cx="267.774" cy="231.669" r="3.75"/><circle cx="638.072" cy="231.669" r="3.75"/><circle cx="267.774" cy="139.094" r="3.75"/><circle cx="638.072" cy="139.094" r="3.75"/><circle cx="267.774" cy="324.244" r="3.75"/><circle cx="638.072" cy="324.244" r="3.75"/><circle cx="267.774" cy="416.819" r="3.75"/><circle cx="638.072" cy="416.819" r="3.75"/><circle cx="267.774" cy="92.807" r="3.75"/><circle cx="638.072" cy="92.807" r="3.75"/><circle cx="267.774" cy="277.957" r="3.75"/><circle cx="638.072" cy="277.957" r="3.75"/><circle cx="267.774" cy="185.382" r="3.75"/><circle cx="638.072" cy="185.382" r="3.75"/><circle cx="267.774" cy="370.531" r="3.75"/><circle cx="638.072" cy="370.531" r="3.75"/><circle cx="144.34" cy="15.661" r="3.75"/><circle cx="514.639" cy="15.661" r="3.75"/><circle cx="144.34" cy="200.811" r="3.75"/><circle cx="514.639" cy="200.811" r="3.75"/><circle cx="144.34" cy="108.236" r="3.75"/><circle cx="144.34" cy="293.386" r="3.75"/><circle cx="514.639" cy="293.386" r="3.75"/><circle cx="144.34" cy="385.961" r="3.75"/><circle cx="514.639" cy="385.961" r="3.75"/><circle cx="144.34" cy="61.949" r="3.75"/><circle cx="144.34" cy="247.098" r="3.75"/><circle cx="514.639" cy="247.098" r="3.75"/><circle cx="144.34" cy="154.524" r="3.75"/><circle cx="514.639" cy="154.524" r="3.75"/><circle cx="144.34" cy="339.673" r="3.75"/><circle cx="514.639" cy="339.673" r="3.75"/><circle cx="144.34" cy="432.248" r="3.75"/><circle cx="514.639" cy="432.248" r="3.75"/><circle cx="144.34" cy="31.09" r="3.75"/><circle cx="514.639" cy="31.09" r="3.75"/><circle cx="144.34" cy="216.24" r="3.75"/><circle cx="514.639" cy="216.24" r="3.75"/><circle cx="144.34" cy="123.665" r="3.75"/><circle cx="514.639" cy="123.665" r="3.75"/><circle cx="144.34" cy="308.815" r="3.75"/><circle cx="514.639" cy="308.815" r="3.75"/><circle cx="144.34" cy="401.39" r="3.75"/><circle cx="514.639" cy="401.39" r="3.75"/><circle cx="144.34" cy="77.378" r="3.75"/><circle cx="514.639" cy="77.378" r="3.75"/><circle cx="144.34" cy="262.527" r="3.75"/><circle cx="514.639" cy="262.527" r="3.75"/><circle cx="144.34" cy="169.953" r="3.75"/><circle cx="514.639" cy="169.953" r="3.75"/><circle cx="144.34" cy="355.102" r="3.75"/><circle cx="514.639" cy="355.102" r="3.75"/><circle cx="144.34" cy="447.677" r="3.75"/><circle cx="514.639" cy="447.677" r="3.75"/><circle cx="144.34" cy="46.52" r="3.75"/><circle cx="514.639" cy="46.52" r="3.75"/><circle cx="144.34" cy="231.669" r="3.75"/><circle cx="514.639" cy="231.669" r="3.75"/><circle cx="514.639" cy="139.094" r="3.75"/><circle cx="144.34" cy="324.244" r="3.75"/><circle cx="514.639" cy="324.244" r="3.75"/><circle cx="144.34" cy="416.819" r="3.75"/><circle cx="514.639" cy="416.819" r="3.75"/><circle cx="144.34" cy="92.807" r="3.75"/><circle cx="514.639" cy="92.807" r="3.75"/><circle cx="144.34" cy="277.957" r="3.75"/><circle cx="514.639" cy="277.957" r="3.75"/><circle cx="144.34" cy="185.382" r="3.75"/><circle cx="514.639" cy="185.382" r="3.75"/><circle cx="144.34" cy="370.531" r="3.75"/><circle cx="514.639" cy="370.531" r="3.75"/><circle cx="329.489" cy="15.661" r="3.75"/><circle cx="329.489" cy="200.811" r="3.75"/><circle cx="329.489" cy="108.236" r="3.75"/><circle cx="329.489" cy="293.386" r="3.75"/><circle cx="329.489" cy="385.961" r="3.75"/><circle cx="329.489" cy="61.949" r="3.75"/><circle cx="329.489" cy="247.098" r="3.75"/><circle cx="329.489" cy="154.524" r="3.75"/><circle cx="329.489" cy="339.673" r="3.75"/><circle cx="329.489" cy="432.248" r="3.75"/><circle cx="329.489" cy="31.09" r="3.75"/><circle cx="329.489" cy="216.24" r="3.75"/><circle cx="329.489" cy="308.815" r="3.75"/><circle cx="329.489" cy="401.39" r="3.75"/><circle cx="329.489" cy="77.378" r="3.75"/><circle cx="329.489" cy="262.527" r="3.75"/><circle cx="329.489" cy="169.953" r="3.75"/><circle cx="329.489" cy="355.102" r="3.75"/><circle cx="329.489" cy="447.677" r="3.75"/><circle cx="329.489" cy="46.52" r="3.75"/><circle cx="329.489" cy="231.669" r="3.75"/><circle cx="329.489" cy="139.094" r="3.75"/><circle cx="329.489" cy="324.244" r="3.75"/><circle cx="329.489" cy="416.819" r="3.75"/><circle cx="329.489" cy="92.807" r="3.75"/><circle cx="329.489" cy="277.957" r="3.75"/><circle cx="329.489" cy="185.382" r="3.75"/><circle cx="329.489" cy="370.531" r="3.75"/><circle cx="51.765" cy="15.661" r="3.75"/><circle cx="422.065" cy="15.661" r="3.75"/><circle cx="51.765" cy="200.811" r="3.75"/><circle cx="422.065" cy="200.811" r="3.75"/><circle cx="51.765" cy="108.236" r="3.75"/><circle cx="422.065" cy="108.236" r="3.75"/><circle cx="51.765" cy="293.386" r="3.75"/><circle cx="422.065" cy="293.386" r="3.75"/><circle cx="51.765" cy="385.961" r="3.75"/><circle cx="422.065" cy="385.961" r="3.75"/><circle cx="51.765" cy="61.949" r="3.75"/><circle cx="422.065" cy="61.949" r="3.75"/><circle cx="51.765" cy="247.098" r="3.75"/><circle cx="422.065" cy="247.098" r="3.75"/><circle cx="51.765" cy="154.524" r="3.75"/><circle cx="422.065" cy="154.524" r="3.75"/><circle cx="51.765" cy="339.673" r="3.75"/><circle cx="422.065" cy="339.673" r="3.75"/><circle cx="51.765" cy="432.248" r="3.75"/><circle cx="422.065" cy="432.248" r="3.75"/><circle cx="51.765" cy="31.09" r="3.75"/><circle cx="422.065" cy="31.09" r="3.75"/><circle cx="51.765" cy="216.24" r="3.75"/><circle cx="422.065" cy="216.24" r="3.75"/><circle cx="51.765" cy="123.665" r="3.75"/><circle cx="422.065" cy="123.665" r="3.75"/><circle cx="51.765" cy="308.815" r="3.75"/><circle cx="422.065" cy="308.815" r="3.75"/><circle cx="51.765" cy="401.39" r="3.75"/><circle cx="422.065" cy="401.39" r="3.75"/><circle cx="51.765" cy="77.378" r="3.75"/><circle cx="422.065" cy="77.378" r="3.75"/><circle cx="51.765" cy="262.527" r="3.75"/><circle cx="422.065" cy="262.527" r="3.75"/><circle cx="51.765" cy="169.953" r="3.75"/><circle cx="422.065" cy="169.953" r="3.75"/><circle cx="51.765" cy="355.102" r="3.75"/><circle cx="422.065" cy="355.102" r="3.75"/><circle cx="51.765" cy="447.677" r="3.75"/><circle cx="422.065" cy="447.677" r="3.75"/><circle cx="51.765" cy="46.52" r="3.75"/><circle cx="422.065" cy="46.52" r="3.75"/><circle cx="422.065" cy="231.669" r="3.75"/><circle cx="51.765" cy="139.094" r="3.75"/><circle cx="422.065" cy="139.094" r="3.75"/><circle cx="51.765" cy="324.244" r="3.75"/><circle cx="422.065" cy="324.244" r="3.75"/><circle cx="51.765" cy="416.819" r="3.75"/><circle cx="422.065" cy="416.819" r="3.75"/><circle cx="51.765" cy="92.807" r="3.75"/><circle cx="422.065" cy="92.807" r="3.75"/><circle cx="51.765" cy="277.957" r="3.75"/><circle cx="422.065" cy="277.957" r="3.75"/><circle cx="51.765" cy="185.382" r="3.75"/><circle cx="422.065" cy="185.382" r="3.75"/><circle cx="51.765" cy="370.531" r="3.75"/><circle cx="422.065" cy="370.531" r="3.75"/><circle cx="236.915" cy="15.661" r="3.75"/><circle cx="607.214" cy="15.661" r="3.75"/><circle cx="236.915" cy="200.811" r="3.75"/><circle cx="607.214" cy="200.811" r="3.75"/><circle cx="236.915" cy="108.236" r="3.75"/><circle cx="607.214" cy="108.236" r="3.75"/><circle cx="236.915" cy="293.386" r="3.75"/><circle cx="607.214" cy="293.386" r="3.75"/><circle cx="236.915" cy="385.961" r="3.75"/><circle cx="607.214" cy="385.961" r="3.75"/><circle cx="236.915" cy="61.949" r="3.75"/><circle cx="607.214" cy="61.949" r="3.75"/><circle cx="236.915" cy="247.098" r="3.75"/><circle cx="607.214" cy="247.098" r="3.75"/><circle cx="236.915" cy="154.524" r="3.75"/><circle cx="607.214" cy="154.524" r="3.75"/><circle cx="236.915" cy="339.673" r="3.75"/><circle cx="607.214" cy="339.673" r="3.75"/><circle cx="236.915" cy="432.248" r="3.75"/><circle cx="607.214" cy="432.248" r="3.75"/><circle cx="236.915" cy="31.09" r="3.75"/><circle cx="607.214" cy="31.09" r="3.75"/><circle cx="236.915" cy="216.24" r="3.75"/><circle cx="607.214" cy="216.24" r="3.75"/><circle cx="236.915" cy="123.665" r="3.75"/><circle cx="607.214" cy="123.665" r="3.75"/><circle cx="236.915" cy="308.815" r="3.75"/><circle cx="607.214" cy="308.815" r="3.75"/><circle cx="236.915" cy="401.39" r="3.75"/><circle cx="607.214" cy="401.39" r="3.75"/><circle cx="236.915" cy="77.378" r="3.75"/><circle cx="607.214" cy="77.378" r="3.75"/><circle cx="236.915" cy="262.527" r="3.75"/><circle cx="607.214" cy="262.527" r="3.75"/><circle cx="236.915" cy="169.953" r="3.75"/><circle cx="607.214" cy="169.953" r="3.75"/><circle cx="236.915" cy="355.102" r="3.75"/><circle cx="607.214" cy="355.102" r="3.75"/><circle cx="236.915" cy="447.677" r="3.75"/><circle cx="607.214" cy="447.677" r="3.75"/><circle cx="236.915" cy="46.52" r="3.75"/><circle cx="607.214" cy="46.52" r="3.75"/><circle cx="236.915" cy="231.669" r="3.75"/><circle cx="607.214" cy="231.669" r="3.75"/><circle cx="236.915" cy="139.094" r="3.75"/><circle cx="607.214" cy="139.094" r="3.75"/><circle cx="236.915" cy="324.244" r="3.75"/><circle cx="607.214" cy="324.244" r="3.75"/><circle cx="236.915" cy="416.819" r="3.75"/><circle cx="607.214" cy="416.819" r="3.75"/><circle cx="236.915" cy="92.807" r="3.75"/><circle cx="607.214" cy="92.807" r="3.75"/><circle cx="236.915" cy="277.957" r="3.75"/><circle cx="607.214" cy="277.957" r="3.75"/><circle cx="236.915" cy="185.382" r="3.75"/><circle cx="607.214" cy="185.382" r="3.75"/><circle cx="236.915" cy="370.531" r="3.75"/><circle cx="607.214" cy="370.531" r="3.75"/><circle cx="113.482" cy="15.661" r="3.75"/><circle cx="483.781" cy="15.661" r="3.75"/><circle cx="113.482" cy="200.811" r="3.75"/><circle cx="483.781" cy="200.811" r="3.75"/><circle cx="113.482" cy="108.236" r="3.75"/><circle cx="483.781" cy="108.236" r="3.75"/><circle cx="113.482" cy="293.386" r="3.75"/><circle cx="483.781" cy="293.386" r="3.75"/><circle cx="113.482" cy="385.961" r="3.75"/><circle cx="483.781" cy="385.961" r="3.75"/><circle cx="113.482" cy="61.949" r="3.75"/><circle cx="483.781" cy="61.949" r="3.75"/><circle cx="113.482" cy="247.098" r="3.75"/><circle cx="483.781" cy="247.098" r="3.75"/><circle cx="113.482" cy="154.524" r="3.75"/><circle cx="483.781" cy="154.524" r="3.75"/><circle cx="113.482" cy="339.673" r="3.75"/><circle cx="483.781" cy="339.673" r="3.75"/><circle cx="113.482" cy="432.248" r="3.75"/><circle cx="483.781" cy="432.248" r="3.75"/><circle cx="113.482" cy="31.09" r="3.75"/><circle cx="483.781" cy="31.09" r="3.75"/><circle cx="113.482" cy="216.24" r="3.75"/><circle cx="483.781" cy="216.24" r="3.75"/><circle cx="113.482" cy="123.665" r="3.75"/><circle cx="113.482" cy="308.815" r="3.75"/><circle cx="483.781" cy="308.815" r="3.75"/><circle cx="113.482" cy="401.39" r="3.75"/><circle cx="483.781" cy="401.39" r="3.75"/><circle cx="113.482" cy="77.378" r="3.75"/><circle cx="483.781" cy="77.378" r="3.75"/><circle cx="113.482" cy="262.527" r="3.75"/><circle cx="128.91" cy="262.527" r="3.75"/><circle cx="483.781" cy="262.527" r="3.75"/><circle cx="113.482" cy="169.953" r="3.75"/><circle cx="483.781" cy="169.953" r="3.75"/><circle cx="113.482" cy="355.102" r="3.75"/><circle cx="483.781" cy="355.102" r="3.75"/><circle cx="113.482" cy="447.677" r="3.75"/><circle cx="483.781" cy="447.677" r="3.75"/><circle cx="113.482" cy="46.52" r="3.75"/><circle cx="483.781" cy="46.52" r="3.75"/><circle cx="113.482" cy="231.669" r="3.75"/><circle cx="483.781" cy="231.669" r="3.75"/><circle cx="113.482" cy="139.094" r="3.75"/><circle cx="483.781" cy="139.094" r="3.75"/><circle cx="113.482" cy="324.244" r="3.75"/><circle cx="483.781" cy="324.244" r="3.75"/><circle cx="113.482" cy="416.819" r="3.75"/><circle cx="483.781" cy="416.819" r="3.75"/><circle cx="113.482" cy="92.807" r="3.75"/><circle cx="483.781" cy="92.807" r="3.75"/><circle cx="113.482" cy="277.957" r="3.75"/><circle cx="483.781" cy="277.957" r="3.75"/><circle cx="113.482" cy="185.382" r="3.75"/><circle cx="483.781" cy="185.382" r="3.75"/><circle cx="113.482" cy="370.531" r="3.75"/><circle cx="483.781" cy="370.531" r="3.75"/><circle cx="298.631" cy="15.661" r="3.75"/><circle cx="668.931" cy="15.661" r="3.75"/><circle cx="298.631" cy="200.811" r="3.75"/><circle cx="668.931" cy="200.811" r="3.75"/><circle cx="298.631" cy="108.236" r="3.75"/><circle cx="668.931" cy="108.236" r="3.75"/><circle cx="298.631" cy="293.386" r="3.75"/><circle cx="668.931" cy="293.386" r="3.75"/><circle cx="298.631" cy="385.961" r="3.75"/><circle cx="668.931" cy="385.961" r="3.75"/><circle cx="298.631" cy="61.949" r="3.75"/><circle cx="314.061" cy="61.949" r="3.75"/><circle cx="668.931" cy="61.949" r="3.75"/><circle cx="298.631" cy="247.098" r="3.75"/><circle cx="668.931" cy="247.098" r="3.75"/><circle cx="298.631" cy="154.524" r="3.75"/><circle cx="668.931" cy="154.524" r="3.75"/><circle cx="298.631" cy="339.673" r="3.75"/><circle cx="668.931" cy="339.673" r="3.75"/><circle cx="298.631" cy="432.248" r="3.75"/><circle cx="668.931" cy="432.248" r="3.75"/><circle cx="298.631" cy="31.09" r="3.75"/><circle cx="668.931" cy="31.09" r="3.75"/><circle cx="668.931" cy="216.24" r="3.75"/><circle cx="298.631" cy="123.665" r="3.75"/><circle cx="668.931" cy="123.665" r="3.75"/><circle cx="298.631" cy="308.815" r="3.75"/><circle cx="668.931" cy="308.815" r="3.75"/><circle cx="298.631" cy="401.39" r="3.75"/><circle cx="668.931" cy="401.39" r="3.75"/><circle cx="298.631" cy="77.378" r="3.75"/><circle cx="668.931" cy="77.378" r="3.75"/><circle cx="298.631" cy="262.527" r="3.75"/><circle cx="668.931" cy="262.527" r="3.75"/><circle cx="298.631" cy="169.953" r="3.75"/><circle cx="668.931" cy="169.953" r="3.75"/><circle cx="298.631" cy="355.102" r="3.75"/><circle cx="668.931" cy="355.102" r="3.75"/><circle cx="298.631" cy="447.677" r="3.75"/><circle cx="668.931" cy="447.677" r="3.75"/><circle cx="298.631" cy="46.52" r="3.75"/><circle cx="668.931" cy="46.52" r="3.75"/><circle cx="298.631" cy="231.669" r="3.75"/><circle cx="668.931" cy="231.669" r="3.75"/><circle cx="298.631" cy="139.094" r="3.75"/><circle cx="668.931" cy="139.094" r="3.75"/><circle cx="298.631" cy="324.244" r="3.75"/><circle cx="668.931" cy="324.244" r="3.75"/><circle cx="298.631" cy="416.819" r="3.75"/><circle cx="668.931" cy="416.819" r="3.75"/><circle cx="298.631" cy="92.807" r="3.75"/><circle cx="668.931" cy="92.807" r="3.75"/><circle cx="298.631" cy="277.957" r="3.75"/><circle cx="314.06" cy="277.957" r="3.75"/><circle cx="668.931" cy="277.957" r="3.75"/><circle cx="298.631" cy="185.382" r="3.75"/><circle cx="668.931" cy="185.382" r="3.75"/><circle cx="298.631" cy="370.531" r="3.75"/><circle cx="668.931" cy="370.531" r="3.75"/><circle cx="175.198" cy="15.661" r="3.75"/><circle cx="545.497" cy="15.661" r="3.75"/><circle cx="175.198" cy="200.811" r="3.75"/><circle cx="545.497" cy="200.811" r="3.75"/><circle cx="545.497" cy="108.236" r="3.75"/><circle cx="175.198" cy="293.386" r="3.75"/><circle cx="545.497" cy="293.386" r="3.75"/><circle cx="175.198" cy="385.961" r="3.75"/><circle cx="545.497" cy="385.961" r="3.75"/><circle cx="175.198" cy="61.949" r="3.75"/><circle cx="545.497" cy="61.949" r="3.75"/><circle cx="175.198" cy="247.098" r="3.75"/><circle cx="545.497" cy="247.098" r="3.75"/><circle cx="175.198" cy="154.524" r="3.75"/><circle cx="545.497" cy="154.524" r="3.75"/><circle cx="175.198" cy="339.673" r="3.75"/><circle cx="545.497" cy="339.673" r="3.75"/><circle cx="175.198" cy="432.248" r="3.75"/><circle cx="545.497" cy="432.248" r="3.75"/><circle cx="175.198" cy="31.09" r="3.75"/><circle cx="545.497" cy="31.09" r="3.75"/><circle cx="175.198" cy="216.24" r="3.75"/><circle cx="545.497" cy="216.24" r="3.75"/><circle cx="175.198" cy="123.665" r="3.75"/><circle cx="545.497" cy="123.665" r="3.75"/><circle cx="175.198" cy="308.815" r="3.75"/><circle cx="545.497" cy="308.815" r="3.75"/><circle cx="175.198" cy="401.39" r="3.75"/><circle cx="545.497" cy="401.39" r="3.75"/><circle cx="175.198" cy="77.378" r="3.75"/><circle cx="545.497" cy="77.378" r="3.75"/><circle cx="175.198" cy="262.527" r="3.75"/><circle cx="545.497" cy="262.527" r="3.75"/><circle cx="175.198" cy="169.953" r="3.75"/><circle cx="545.497" cy="169.953" r="3.75"/><circle cx="175.198" cy="355.102" r="3.75"/><circle cx="545.497" cy="355.102" r="3.75"/><circle cx="175.198" cy="447.677" r="3.75"/><circle cx="545.497" cy="447.677" r="3.75"/><circle cx="175.198" cy="46.52" r="3.75"/><circle cx="545.497" cy="46.52" r="3.75"/><circle cx="175.198" cy="231.669" r="3.75"/><circle cx="545.497" cy="231.669" r="3.75"/><circle cx="175.198" cy="139.094" r="3.75"/><circle cx="545.497" cy="139.094" r="3.75"/><circle cx="175.198" cy="324.244" r="3.75"/><circle cx="545.497" cy="324.244" r="3.75"/><circle cx="175.198" cy="416.819" r="3.75"/><circle cx="545.497" cy="416.819" r="3.75"/><circle cx="175.198" cy="92.807" r="3.75"/><circle cx="545.497" cy="92.807" r="3.75"/><circle cx="175.198" cy="277.957" r="3.75"/><circle cx="545.497" cy="277.957" r="3.75"/><circle cx="175.198" cy="185.382" r="3.75"/><circle cx="545.497" cy="185.382" r="3.75"/><circle cx="560.93" cy="185.382" r="3.75"/><circle cx="175.198" cy="370.531" r="3.75"/><circle cx="545.497" cy="370.531" r="3.75"/><circle cx="360.348" cy="15.661" r="3.75"/><circle cx="360.348" cy="200.811" r="3.75"/><circle cx="360.348" cy="108.236" r="3.75"/><circle cx="360.348" cy="293.386" r="3.75"/><circle cx="360.348" cy="385.961" r="3.75"/><circle cx="360.348" cy="61.949" r="3.75"/><circle cx="360.348" cy="247.098" r="3.75"/><circle cx="360.348" cy="154.524" r="3.75"/><circle cx="360.348" cy="339.673" r="3.75"/><circle cx="360.348" cy="432.248" r="3.75"/><circle cx="360.348" cy="31.09" r="3.75"/><circle cx="360.348" cy="216.24" r="3.75"/><circle cx="360.348" cy="123.665" r="3.75"/><circle cx="360.348" cy="308.815" r="3.75"/><circle cx="360.348" cy="401.39" r="3.75"/><circle cx="360.348" cy="77.378" r="3.75"/><circle cx="360.348" cy="262.527" r="3.75"/><circle cx="360.348" cy="169.953" r="3.75"/><circle cx="360.348" cy="355.102" r="3.75"/><circle cx="360.348" cy="447.677" r="3.75"/><circle cx="360.348" cy="46.52" r="3.75"/><circle cx="360.348" cy="231.669" r="3.75"/><circle cx="360.348" cy="139.094" r="3.75"/><circle cx="360.348" cy="324.244" r="3.75"/><circle cx="360.348" cy="416.819" r="3.75"/><circle cx="360.348" cy="92.807" r="3.75"/><circle cx="360.348" cy="277.957" r="3.75"/><circle cx="360.348" cy="185.382" r="3.75"/><circle cx="360.348" cy="370.531" r="3.75"/></g><circle cx="498.86" cy="277.86" r="4.11" stroke="#5B88B8" stroke-width="1.5"/></svg>