<svg width="83" height="90" fill="none" xmlns="http://www.w3.org/2000/svg"><path d="M81 53c-3.6 12-32.5 29.334-46.5 36.5L24 68s-2.5-3-5.5-21.5S35.161 21 52.5 21C69.84 21 86.954 33.154 81 53z" fill="#181F31" fill-opacity=".11"/><path d="M33.909 0C15.182 0 0 15.181 0 33.909 0 52.636 33.909 90 33.909 90s33.909-37.364 33.909-56.091C67.818 15.181 52.636 0 33.909 0zm0 47.535c-7.875 0-14.26-6.384-14.26-14.261 0-7.876 6.385-14.26 14.26-14.26 7.876 0 14.261 6.384 14.261 14.26 0 7.877-6.385 14.261-14.261 14.261z" fill="url(#paint0_linear)"/><defs><linearGradient id="paint0_linear" x1="60.161" y1="10.939" x2="12.846" y2="88.215" gradientUnits="userSpaceOnUse"><stop stop-color="#1A5492"/><stop offset="1" stop-color="#1E6DC0"/></linearGradient></defs></svg>