<svg width="32" height="25" viewBox="0 0 32 25" fill="none" xmlns="http://www.w3.org/2000/svg">
<path fill-rule="evenodd" clip-rule="evenodd" d="M4.09302 24.4706H27.907C30.1675 24.4706 32 22.6446 32 20.3922V4.07843C32 1.82599 30.1675 0 27.907 0H4.09302C1.83252 0 0 1.82599 0 4.07843V20.3922C0 22.6446 1.83252 24.4706 4.09302 24.4706ZM27.907 22.246H4.09302C3.06567 22.246 2.23267 21.416 2.23267 20.3922V10.3518L14.2996 15.9986C15.4016 16.5142 16.6768 16.5142 17.7788 15.9986L29.7676 10.3815V20.3922C29.7676 21.416 28.9346 22.246 27.907 22.246ZM27.907 2.22461H4.09302C3.06567 2.22461 2.23267 3.05463 2.23267 4.07843V7.89362L15.2485 13.9854C15.7493 14.2197 16.3289 14.2197 16.8298 13.9854L29.7676 7.93073V4.07843C29.7676 3.05463 28.9346 2.22461 27.907 2.22461Z" fill="white"/>
</svg>
