<svg width="90" height="90" viewBox="0 0 90 90" fill="none" xmlns="http://www.w3.org/2000/svg">
<path fill-rule="evenodd" clip-rule="evenodd" d="M45 90C69.8528 90 90 69.8528 90 45C90 20.1472 69.8528 0 45 0C20.1472 0 0 20.1472 0 45C0 69.8528 20.1472 90 45 90Z" fill="url(#paint0_linear)"/>
<path fill-rule="evenodd" clip-rule="evenodd" d="M45 90C69.8528 90 90 69.8528 90 45C90 20.1472 69.8528 0 45 0C20.1472 0 0 20.1472 0 45C0 69.8528 20.1472 90 45 90Z" fill="black" fill-opacity="0.124321"/>
<path d="M43.5938 34.1209H7.03125C3.148 34.1209 0 30.9383 0 27.0124V1.4217C0 0.636518 0.6296 0 1.40625 0C2.1829 0 2.8125 0.636518 2.8125 1.4217V27.0124C2.8125 29.3679 4.7013 31.2775 7.03125 31.2775H42.1875V2.84341H12.6562C11.8796 2.84341 11.25 2.20689 11.25 1.4217C11.25 0.636518 11.8796 0 12.6562 0H43.5938C44.3704 0 45 0.636518 45 1.4217V32.6992C45 33.4844 44.3704 34.1209 43.5938 34.1209Z" transform="translate(22.5 30.783)" fill="white"/>
<path d="M12.6562 34.1209C11.8796 34.1209 11.25 33.4844 11.25 32.6992C11.25 30.3436 9.3612 28.4341 7.03125 28.4341C4.7013 28.4341 2.8125 30.3436 2.8125 32.6992C2.8125 33.4844 2.1829 34.1209 1.40625 34.1209C0.6296 34.1209 0 33.4844 0 32.6992C0 30.0067 1.5047 27.5453 3.88678 26.3411C6.26885 25.137 9.11941 25.3969 11.25 27.0124V7.10852C11.25 4.75296 9.3612 2.84341 7.03125 2.84341C4.7013 2.84341 2.8125 4.75296 2.8125 7.10852C2.8125 7.8937 2.1829 8.53022 1.40625 8.53022C0.6296 8.53022 0 7.8937 0 7.10852C0 3.18259 3.148 0 7.03125 0C10.9145 0 14.0625 3.18259 14.0625 7.10852V32.6992C14.0625 33.0762 13.9143 33.4379 13.6506 33.7045C13.3869 33.9711 13.0292 34.1209 12.6562 34.1209Z" transform="translate(22.5 25.0961)" fill="white"/>
<path fill-rule="evenodd" clip-rule="evenodd" d="M0 9.9519C0 10.7371 0.628906 11.3736 1.40625 11.3736C1.625 11.3745 1.83984 11.3239 2.03711 11.2257L10.4746 6.96063C10.9512 6.72009 11.252 6.22736 11.252 5.68817C11.252 5.14905 10.9512 4.65625 10.4746 4.41577L2.03711 0.150635C1.76562 0.0137939 1.46484 -0.0293579 1.17578 0.0192871C0.998047 0.0491333 0.826172 0.113525 0.667969 0.211975C0.4375 0.355591 0.255859 0.560364 0.140625 0.79834C0.0488281 0.989502 0 1.20209 0 1.42163V9.9519ZM6.69922 5.68677L2.8125 7.65155V3.72198L6.69922 5.68677Z" transform="translate(45 42.1566)" fill="white"/>
<defs>
<linearGradient id="paint0_linear" x2="1" gradientUnits="userSpaceOnUse" gradientTransform="translate(90) scale(116.122) rotate(140.809)">
<stop stop-color="#1FAFFF"/>
<stop offset="1" stop-color="#4380FF"/>
</linearGradient>
</defs>
</svg>
