<svg width="15" height="14" viewBox="0 0 15 14" fill="none" xmlns="http://www.w3.org/2000/svg">
<path fill-rule="evenodd" clip-rule="evenodd" d="M7.5 11.49C7.38477 11.49 7.24072 11.4351 7.1543 11.3528L3.25977 7.6734C3.05811 7.4812 3.05811 7.17917 3.25977 6.98697C3.46191 6.79474 3.7793 6.79474 3.98096 6.98697L6.98096 9.84256V0.495514C6.98096 0.248383 7.21191 0 7.5 0C7.78857 0 7.99072 0.220917 7.99072 0.495514V9.84256L10.9907 6.98697C11.1924 6.79474 11.5098 6.79474 11.7119 6.98697C11.9136 7.17917 11.9136 7.4812 11.7119 7.6734L7.84619 11.3528C7.75977 11.4351 7.61572 11.49 7.5 11.49ZM14.481 14C14.769 14 15 13.8078 15 13.5332C15 13.2586 14.769 13.0664 14.481 13.0664H0.490234C0.230957 13.0664 0 13.2586 0 13.5332C0 13.7803 0.202148 14 0.490234 14H14.481Z" fill="white"/>
</svg>
