<svg width="11" height="12" viewBox="0 0 11 12" fill="none" xmlns="http://www.w3.org/2000/svg">
<path fill-rule="evenodd" clip-rule="evenodd" d="M10.541 12C10.7949 12 11 11.808 11 11.5714V6.42857C11 6.192 10.7949 6 10.541 6H9.16602V3.42857C9.16602 1.53514 7.52539 0 5.5 0C3.47461 0 1.83398 1.53514 1.83398 3.42857V6H0.458984C0.304688 6 0.167969 6.07132 0.0839844 6.1806C0.03125 6.25061 0 6.3362 0 6.42857V11.5714C0 11.808 0.205078 12 0.458984 12H10.541ZM3.66602 3.76924C3.66602 2.74969 4.48633 1.92308 5.5 1.92308C6.51172 1.92308 7.33203 2.74969 7.33203 3.76924V6.00665H3.66602V3.76924Z" fill="#307CE0"/>
</svg>
