<svg width="41" height="41" viewBox="0 0 41 41" fill="none" xmlns="http://www.w3.org/2000/svg">
<path d="M8.54167 1.70833H0.854167C0.382039 1.70833 0 1.32629 0 0.854167C0 0.382039 0.382039 0 0.854167 0H8.54167C9.01379 0 9.39583 0.382039 9.39583 0.854167C9.39583 1.32629 9.01379 1.70833 8.54167 1.70833Z" transform="translate(31.6035 3.41663)" fill="#307CE0"/>
<path d="M8.54167 1.70833H0.854167C0.382039 1.70833 0 1.32629 0 0.854167C0 0.382039 0.382039 0 0.854167 0H8.54167C9.01379 0 9.39583 0.382039 9.39583 0.854167C9.39583 1.32629 9.01379 1.70833 8.54167 1.70833Z" transform="translate(31.6035 17.0834)" fill="#307CE0"/>
<path fill-rule="evenodd" clip-rule="evenodd" d="M1.70898 11.9584H10.25V0H1.70898C0.765625 0 0 0.766602 0 1.70837V10.25C0 11.1918 0.765625 11.9584 1.70898 11.9584ZM1.70898 10.2517V1.70837H8.54297V10.25L1.70898 10.2517Z" transform="translate(7.6875 5.125)" fill="#307CE0"/>
<path d="M40.1458 30.75H11.1042C8.74937 30.75 6.83333 28.834 6.83333 26.4792C6.83333 24.1244 8.74937 22.2083 11.1042 22.2083H12.8125C14.2255 22.2083 15.375 21.0589 15.375 19.6458V17.9375C15.375 16.5245 14.2255 15.375 12.8125 15.375H4.27083C1.91604 15.375 0 13.459 0 11.1042V4.27083C0 1.91604 1.91604 0 4.27083 0H7.6875C8.15963 0 8.54167 0.382039 8.54167 0.854167C8.54167 1.32629 8.15963 1.70833 7.6875 1.70833H4.27083C2.85779 1.70833 1.70833 2.85779 1.70833 4.27083V11.1042C1.70833 12.5172 2.85779 13.6667 4.27083 13.6667H12.8125C15.1673 13.6667 17.0833 15.5827 17.0833 17.9375V19.6458C17.0833 22.0006 15.1673 23.9167 12.8125 23.9167H11.1042C9.69112 23.9167 8.54167 25.0661 8.54167 26.4792C8.54167 27.8922 9.69112 29.0417 11.1042 29.0417H40.1458C40.618 29.0417 41 29.4237 41 29.8958C41 30.368 40.618 30.75 40.1458 30.75Z" transform="translate(0 10.25)" fill="#307CE0"/>
<path fill-rule="evenodd" clip-rule="evenodd" d="M6.83398 22.2084H12.8125V0H6.95312C6.18945 0 5.45312 0.350342 4.96875 0.940063L0 5.60962V16.5929L4.83008 21.2432C5.3125 21.8489 6.05664 22.2084 6.83398 22.2084ZM6.15039 20.1589L1.70898 15.8655V6.34875L6.18359 2.14294L6.27539 2.04199C6.36719 1.92322 6.48633 1.83276 6.61914 1.77612C6.72266 1.73181 6.83594 1.70837 6.95312 1.70837H11.1055V20.5H6.83398C6.56641 20.5 6.31055 20.3724 6.15039 20.1589Z" transform="translate(16.2285)" fill="#307CE0"/>
<path fill-rule="evenodd" clip-rule="evenodd" d="M0 22.2084H4.27148C5.21289 22.2084 5.97852 21.4418 5.97852 20.5V1.70837C5.97852 0.766602 5.21289 0 4.27148 0H0V22.2084ZM4.27148 20.5H1.70898V1.70837H4.27148V20.5Z" transform="translate(27.334)" fill="#307CE0"/>
</svg>
