<svg width="28" height="20" viewBox="0 0 28 20" fill="none" xmlns="http://www.w3.org/2000/svg">
<path d="M24 5H20.25V0H2.75C1.375 0 0.25 1.125 0.25 2.5V16.25H2.75C2.75 18.325 4.425 20 6.5 20C8.575 20 10.25 18.325 10.25 16.25H17.75C17.75 18.325 19.425 20 21.5 20C23.575 20 25.25 18.325 25.25 16.25H27.75V10L24 5ZM6.5 18.125C5.4625 18.125 4.625 17.2875 4.625 16.25C4.625 15.2125 5.4625 14.375 6.5 14.375C7.5375 14.375 8.375 15.2125 8.375 16.25C8.375 17.2875 7.5375 18.125 6.5 18.125ZM23.375 6.875L25.825 10H20.25V6.875H23.375ZM21.5 18.125C20.4625 18.125 19.625 17.2875 19.625 16.25C19.625 15.2125 20.4625 14.375 21.5 14.375C22.5375 14.375 23.375 15.2125 23.375 16.25C23.375 17.2875 22.5375 18.125 21.5 18.125Z" fill="url(#paint0_linear)"/>
<defs>
<linearGradient id="paint0_linear" x1="24.0833" y1="2.43094" x2="17.876" y2="24.2776" gradientUnits="userSpaceOnUse">
<stop stop-color="#0060B9"/>
<stop offset="1" stop-color="#0072F8"/>
</linearGradient>
</defs>
</svg>
