<svg width="21" height="21" viewBox="0 0 21 21" fill="none" xmlns="http://www.w3.org/2000/svg">
<path fill-rule="evenodd" clip-rule="evenodd" d="M0 9.30927C0 4.16751 4.16748 0 9.30908 0C14.4512 0 18.6187 4.16751 18.6187 9.30927C18.6187 11.6907 17.6982 13.8557 16.2373 15.4794L21 20.2423L20.2422 21L15.4795 16.2371C13.8555 17.6985 11.6909 18.6186 9.30908 18.6186C4.16748 18.6186 0 14.451 0 9.30927ZM9.30908 1.08249C4.7627 1.08249 1.08252 4.76291 1.08252 9.3093C1.08252 13.8557 4.7627 17.5361 9.30908 17.5361C13.856 17.5361 17.5361 13.8557 17.5361 9.3093C17.5361 4.76291 13.856 1.08249 9.30908 1.08249Z" fill="#307CE0"/>
</svg>
