<svg width="47" height="46" viewBox="0 0 47 46" fill="none" xmlns="http://www.w3.org/2000/svg">
<mask id="path-2-outside-1" maskUnits="userSpaceOnUse" x="-1" y="-1" width="47" height="46" fill="black">
<rect fill="white" x="-1" y="-1" width="47" height="46"/>
<path fill-rule="evenodd" clip-rule="evenodd" d="M44.4922 6.24365C44.7734 6.24365 45 6.02124 45 5.74695V0.496704C45 0.222412 44.7734 0 44.4922 0H0.507812C0.226562 0 0 0.222412 0 0.496704V5.74695C0 5.88647 0.0585938 6.01257 0.152344 6.10278C0.244141 6.18994 0.369141 6.24365 0.507812 6.24365H2.50586V24.179H0.507812C0.384766 24.179 0.271484 24.2217 0.183594 24.2928C0.0703125 24.384 0 24.5217 0 24.6757V27.4711C0 27.7454 0.226562 27.9678 0.507812 27.9678H2.50586V43.5459C2.50586 43.8202 2.73242 44.0426 3.01172 44.0426H41.9863C42.2676 44.0426 42.4941 43.8202 42.4941 43.5459V27.9684H44.4922C44.5312 27.9684 44.5703 27.9639 44.6074 27.9553C44.6406 27.9476 44.6738 27.9365 44.7051 27.9226C44.7422 27.9058 44.7773 27.8848 44.8086 27.8601L44.8633 27.8121L44.9004 27.7682C44.9629 27.6853 45 27.5826 45 27.4716V24.6768C45 24.4025 44.7715 24.1801 44.4922 24.1801H42.4941V6.24365H44.4922ZM43.9844 5.24976H23.0078V0.993408H43.9844V5.24976ZM21.9922 0.994019H1.01562V5.25037H21.9922V0.994019ZM3.51953 6.24365H21.9922V24.179H3.51953V6.24365ZM3.51953 43.0492H41.4785V27.9684H3.51953V43.0492ZM43.9844 26.9744H1.01562V25.173H43.9844V26.9744ZM23.0078 24.179H41.4805V6.24365H23.0078V24.179Z"/>
</mask>
<path fill-rule="evenodd" clip-rule="evenodd" d="M44.4922 6.24365C44.7734 6.24365 45 6.02124 45 5.74695V0.496704C45 0.222412 44.7734 0 44.4922 0H0.507812C0.226562 0 0 0.222412 0 0.496704V5.74695C0 5.88647 0.0585938 6.01257 0.152344 6.10278C0.244141 6.18994 0.369141 6.24365 0.507812 6.24365H2.50586V24.179H0.507812C0.384766 24.179 0.271484 24.2217 0.183594 24.2928C0.0703125 24.384 0 24.5217 0 24.6757V27.4711C0 27.7454 0.226562 27.9678 0.507812 27.9678H2.50586V43.5459C2.50586 43.8202 2.73242 44.0426 3.01172 44.0426H41.9863C42.2676 44.0426 42.4941 43.8202 42.4941 43.5459V27.9684H44.4922C44.5312 27.9684 44.5703 27.9639 44.6074 27.9553C44.6406 27.9476 44.6738 27.9365 44.7051 27.9226C44.7422 27.9058 44.7773 27.8848 44.8086 27.8601L44.8633 27.8121L44.9004 27.7682C44.9629 27.6853 45 27.5826 45 27.4716V24.6768C45 24.4025 44.7715 24.1801 44.4922 24.1801H42.4941V6.24365H44.4922ZM43.9844 5.24976H23.0078V0.993408H43.9844V5.24976ZM21.9922 0.994019H1.01562V5.25037H21.9922V0.994019ZM3.51953 6.24365H21.9922V24.179H3.51953V6.24365ZM3.51953 43.0492H41.4785V27.9684H3.51953V43.0492ZM43.9844 26.9744H1.01562V25.173H43.9844V26.9744ZM23.0078 24.179H41.4805V6.24365H23.0078V24.179Z" transform="translate(1 1)" fill="#307CE0"/>
<path d="M0.152344 6.10278L-0.19435 6.46308L-0.19193 6.46538L0.152344 6.10278ZM2.50586 6.24365H3.00586V5.74365H2.50586V6.24365ZM2.50586 24.179V24.679H3.00586V24.179H2.50586ZM0.183594 24.2928L0.497118 24.6823L0.498239 24.6814L0.183594 24.2928ZM2.50586 27.9678H3.00586V27.4678H2.50586V27.9678ZM42.4941 27.9684V27.4684H41.9941V27.9684H42.4941ZM44.6074 27.9553L44.7196 28.4426L44.7202 28.4424L44.6074 27.9553ZM44.7051 27.9226L44.9085 28.3794L44.9118 28.3779L44.7051 27.9226ZM44.8086 27.8601L45.1183 28.2526L45.1285 28.2446L45.1383 28.236L44.8086 27.8601ZM44.8633 27.8121L45.193 28.188L45.2211 28.1633L45.2453 28.1347L44.8633 27.8121ZM44.9004 27.7682L45.2824 28.0908L45.2913 28.0802L45.2996 28.0692L44.9004 27.7682ZM42.4941 24.1801H41.9941V24.6801H42.4941V24.1801ZM42.4941 6.24365V5.74365H41.9941V6.24365H42.4941ZM23.0078 5.24976H22.5078V5.74976H23.0078V5.24976ZM43.9844 5.24976V5.74976H44.4844V5.24976H43.9844ZM23.0078 0.993408V0.493408H22.5078V0.993408H23.0078ZM43.9844 0.993408H44.4844V0.493408H43.9844V0.993408ZM1.01562 0.994019V0.494019H0.515625V0.994019H1.01562ZM21.9922 0.994019H22.4922V0.494019H21.9922V0.994019ZM1.01562 5.25037H0.515625V5.75037H1.01562V5.25037ZM21.9922 5.25037V5.75037H22.4922V5.25037H21.9922ZM21.9922 6.24365H22.4922V5.74365H21.9922V6.24365ZM3.51953 6.24365V5.74365H3.01953V6.24365H3.51953ZM21.9922 24.179V24.679H22.4922V24.179H21.9922ZM3.51953 24.179H3.01953V24.679H3.51953V24.179ZM41.4785 43.0492V43.5492H41.9785V43.0492H41.4785ZM3.51953 43.0492H3.01953V43.5492H3.51953V43.0492ZM41.4785 27.9684H41.9785V27.4684H41.4785V27.9684ZM3.51953 27.9684V27.4684H3.01953V27.9684H3.51953ZM1.01562 26.9744H0.515625V27.4744H1.01562V26.9744ZM43.9844 26.9744V27.4744H44.4844V26.9744H43.9844ZM1.01562 25.173V24.673H0.515625V25.173H1.01562ZM43.9844 25.173H44.4844V24.673H43.9844V25.173ZM41.4805 24.179V24.679H41.9805V24.179H41.4805ZM23.0078 24.179H22.5078V24.679H23.0078V24.179ZM41.4805 6.24365H41.9805V5.74365H41.4805V6.24365ZM23.0078 6.24365V5.74365H22.5078V6.24365H23.0078ZM44.5 5.74695C44.5 5.74604 44.5003 5.74408 44.5011 5.74222C44.5017 5.74072 44.5022 5.74046 44.5017 5.74091C44.5013 5.74137 44.5004 5.74203 44.4991 5.74256C44.4982 5.74296 44.4961 5.74365 44.4922 5.74365V6.74365C45.0396 6.74365 45.5 6.30723 45.5 5.74695H44.5ZM44.5 0.496704V5.74695H45.5V0.496704H44.5ZM44.4922 0.5C44.4961 0.5 44.4982 0.500694 44.4991 0.501094C44.5004 0.50162 44.5013 0.502281 44.5017 0.502738C44.5022 0.503194 44.5017 0.502928 44.5011 0.50143C44.5003 0.499574 44.5 0.497608 44.5 0.496704H45.5C45.5 -0.0635754 45.0396 -0.5 44.4922 -0.5V0.5ZM0.507812 0.5H44.4922V-0.5H0.507812V0.5ZM0.5 0.496704C0.5 0.497608 0.499698 0.499574 0.498897 0.50143C0.498251 0.502928 0.497794 0.503194 0.49826 0.502738C0.498727 0.502281 0.499603 0.50162 0.500874 0.501094C0.501842 0.500694 0.503875 0.5 0.507812 0.5V-0.5C-0.0396308 -0.5 -0.5 -0.0635754 -0.5 0.496704H0.5ZM0.5 5.74695V0.496704H-0.5V5.74695H0.5ZM0.499029 5.74249C0.498404 5.74189 0.4986 5.74182 0.499062 5.74288C0.499697 5.74433 0.5 5.74606 0.5 5.74695H-0.5C-0.5 6.02976 -0.380636 6.28381 -0.194342 6.46307L0.499029 5.74249ZM0.507812 5.74365C0.503528 5.74365 0.501288 5.74291 0.500183 5.74246C0.498784 5.7419 0.497573 5.74109 0.496617 5.74019L-0.19193 6.46538C-0.00986381 6.63824 0.237415 6.74365 0.507812 6.74365V5.74365ZM2.50586 5.74365H0.507812V6.74365H2.50586V5.74365ZM3.00586 24.179V6.24365H2.00586V24.179H3.00586ZM0.507812 24.679H2.50586V23.679H0.507812V24.679ZM0.498239 24.6814C0.49901 24.6808 0.501738 24.679 0.507812 24.679V23.679C0.267793 23.679 0.0439588 23.7626 -0.131052 23.9043L0.498239 24.6814ZM0.5 24.6757C0.5 24.6756 0.499839 24.6776 0.498701 24.6799C0.49775 24.6819 0.496893 24.6825 0.497117 24.6823L-0.12993 23.9034C-0.356871 24.086 -0.5 24.365 -0.5 24.6757H0.5ZM0.5 27.4711V24.6757H-0.5V27.4711H0.5ZM0.507812 27.4678C0.503875 27.4678 0.501842 27.4671 0.500874 27.4667C0.499603 27.4662 0.498727 27.4655 0.49826 27.465C0.497794 27.4646 0.498251 27.4648 0.498897 27.4663C0.499698 27.4682 0.5 27.4702 0.5 27.4711H-0.5C-0.5 28.0313 -0.0396308 28.4678 0.507812 28.4678V27.4678ZM2.50586 27.4678H0.507812V28.4678H2.50586V27.4678ZM3.00586 43.5459V27.9678H2.00586V43.5459H3.00586ZM3.01172 43.5426C3.00874 43.5426 3.00732 43.5421 3.00665 43.5418C3.00567 43.5414 3.00487 43.5408 3.00435 43.5403C3.00384 43.5398 3.00422 43.54 3.00481 43.5414C3.00556 43.5431 3.00586 43.545 3.00586 43.5459H2.00586C2.00586 44.1049 2.46496 44.5426 3.01172 44.5426V43.5426ZM41.9863 43.5426H3.01172V44.5426H41.9863V43.5426ZM41.9941 43.5459C41.9941 43.545 41.9944 43.543 41.9952 43.5412C41.9959 43.5397 41.9963 43.5394 41.9959 43.5399C41.9954 43.5403 41.9945 43.541 41.9933 43.5415C41.9923 43.5419 41.9903 43.5426 41.9863 43.5426V44.5426C42.5338 44.5426 42.9941 44.1062 42.9941 43.5459H41.9941ZM41.9941 27.9684V43.5459H42.9941V27.9684H41.9941ZM44.4922 27.4684H42.4941V28.4684H44.4922V27.4684ZM44.4952 27.4681C44.4952 27.4681 44.4951 27.4681 44.4949 27.4681C44.4946 27.4682 44.4943 27.4682 44.4939 27.4683C44.4932 27.4684 44.4925 27.4684 44.4922 27.4684V28.4684C44.5692 28.4684 44.6459 28.4595 44.7196 28.4426L44.4952 27.4681ZM44.5017 27.4658C44.4997 27.4667 44.4968 27.4677 44.4946 27.4682L44.7202 28.4424C44.7845 28.4276 44.848 28.4063 44.9085 28.3794L44.5017 27.4658ZM44.4989 27.4676L44.4984 27.4673L44.9118 28.3779C44.9824 28.3458 45.0527 28.3044 45.1183 28.2526L44.4989 27.4676ZM44.5336 27.4363L44.4789 27.4842L45.1383 28.236L45.193 28.188L44.5336 27.4363ZM44.5184 27.4456L44.4813 27.4895L45.2453 28.1347L45.2824 28.0908L44.5184 27.4456ZM44.5 27.4716C44.5 27.4711 44.5001 27.4698 44.5006 27.4685C44.501 27.4673 44.5013 27.4669 44.5012 27.4672L45.2996 28.0692C45.4246 27.9035 45.5 27.696 45.5 27.4716H44.5ZM44.5 24.6768V27.4716H45.5V24.6768H44.5ZM44.4922 24.6801C44.4952 24.6801 44.4969 24.6806 44.4981 24.681C44.4995 24.6816 44.5007 24.6825 44.5015 24.6833C44.5023 24.684 44.5019 24.684 44.5013 24.6825C44.5004 24.6806 44.5 24.6783 44.5 24.6768H45.5C45.5 24.1152 45.0364 23.6801 44.4922 23.6801V24.6801ZM42.4941 24.6801H44.4922V23.6801H42.4941V24.6801ZM41.9941 6.24365V24.1801H42.9941V6.24365H41.9941ZM44.4922 5.74365H42.4941V6.74365H44.4922V5.74365ZM23.0078 5.74976H43.9844V4.74976H23.0078V5.74976ZM22.5078 0.993408V5.24976H23.5078V0.993408H22.5078ZM43.9844 0.493408H23.0078V1.49341H43.9844V0.493408ZM44.4844 5.24976V0.993408H43.4844V5.24976H44.4844ZM1.01562 1.49402H21.9922V0.494019H1.01562V1.49402ZM1.51562 5.25037V0.994019H0.515625V5.25037H1.51562ZM21.9922 4.75037H1.01562V5.75037H21.9922V4.75037ZM21.4922 0.994019V5.25037H22.4922V0.994019H21.4922ZM21.9922 5.74365H3.51953V6.74365H21.9922V5.74365ZM22.4922 24.179V6.24365H21.4922V24.179H22.4922ZM3.51953 24.679H21.9922V23.679H3.51953V24.679ZM3.01953 6.24365V24.179H4.01953V6.24365H3.01953ZM41.4785 42.5492H3.51953V43.5492H41.4785V42.5492ZM40.9785 27.9684V43.0492H41.9785V27.9684H40.9785ZM3.51953 28.4684H41.4785V27.4684H3.51953V28.4684ZM4.01953 43.0492V27.9684H3.01953V43.0492H4.01953ZM1.01562 27.4744H43.9844V26.4744H1.01562V27.4744ZM0.515625 25.173V26.9744H1.51562V25.173H0.515625ZM43.9844 24.673H1.01562V25.673H43.9844V24.673ZM44.4844 26.9744V25.173H43.4844V26.9744H44.4844ZM41.4805 23.679H23.0078V24.679H41.4805V23.679ZM40.9805 6.24365V24.179H41.9805V6.24365H40.9805ZM23.0078 6.74365H41.4805V5.74365H23.0078V6.74365ZM23.5078 24.179V6.24365H22.5078V24.179H23.5078Z" transform="translate(1 1)" fill="#307CE0" mask="url(#path-2-outside-1)"/>
<path d="M0.489715 0.957447H9.08475C9.35518 0.957447 9.57447 0.743085 9.57447 0.478723C9.57447 0.214362 9.35518 0 9.08475 0H0.489715C0.219283 0 0 0.214362 0 0.478723C0 0.743085 0.219283 0.957447 0.489715 0.957447Z" transform="translate(8.70117 12.4468)" fill="#307CE0"/>
<path d="M0.489715 1.20745H9.08475C9.48788 1.20745 9.82447 0.886476 9.82447 0.478723C9.82447 0.0709711 9.48788 -0.25 9.08475 -0.25H0.489715C0.0865925 -0.25 -0.25 0.070971 -0.25 0.478723C-0.25 0.886476 0.0865925 1.20745 0.489715 1.20745Z" transform="translate(8.70117 12.4468)" stroke="#307CE0" stroke-width="0.5"/>
<path d="M9.08475 0H0.489715C0.219283 0 0 0.214362 0 0.478723C0 0.743085 0.219283 0.957447 0.489715 0.957447H9.08475C9.35518 0.957447 9.57447 0.743085 9.57447 0.478723C9.57447 0.214362 9.35518 0 9.08475 0Z" transform="translate(8.70117 15.3617)" fill="#307CE0"/>
<path d="M9.08475 -0.25H0.489715C0.0865925 -0.25 -0.25 0.070971 -0.25 0.478723C-0.25 0.886476 0.0865925 1.20745 0.489715 1.20745H9.08475C9.48788 1.20745 9.82447 0.886476 9.82447 0.478723C9.82447 0.0709711 9.48788 -0.25 9.08475 -0.25Z" transform="translate(8.70117 15.3617)" stroke="#307CE0" stroke-width="0.5"/>
<path d="M9.08475 0H0.489715C0.219283 0 0 0.214362 0 0.478723C0 0.743085 0.219283 0.957447 0.489715 0.957447H9.08475C9.35518 0.957447 9.57447 0.743085 9.57447 0.478723C9.57447 0.214362 9.35518 0 9.08475 0Z" transform="translate(8.70117 18.1915)" fill="#307CE0"/>
<path d="M9.08475 -0.25H0.489715C0.0865925 -0.25 -0.25 0.070971 -0.25 0.478723C-0.25 0.886476 0.0865925 1.20745 0.489715 1.20745H9.08475C9.48788 1.20745 9.82447 0.886476 9.82447 0.478723C9.82447 0.0709711 9.48788 -0.25 9.08475 -0.25Z" transform="translate(8.70117 18.1915)" stroke="#307CE0" stroke-width="0.5"/>
<path d="M0.489715 0.957447H9.08475C9.35518 0.957447 9.57447 0.743085 9.57447 0.478723C9.57447 0.214362 9.35518 0 9.08475 0H0.489715C0.219283 0 0 0.214362 0 0.478723C0 0.743085 0.219283 0.957447 0.489715 0.957447Z" transform="translate(28.8086 12.4468)" fill="#307CE0"/>
<path d="M0.489715 1.20745H9.08475C9.48788 1.20745 9.82447 0.886476 9.82447 0.478723C9.82447 0.0709711 9.48788 -0.25 9.08475 -0.25H0.489715C0.0865925 -0.25 -0.25 0.070971 -0.25 0.478723C-0.25 0.886476 0.0865925 1.20745 0.489715 1.20745Z" transform="translate(28.8086 12.4468)" stroke="#307CE0" stroke-width="0.5"/>
<path d="M9.08475 0H0.489715C0.219283 0 0 0.214362 0 0.478723C0 0.743085 0.219283 0.957447 0.489715 0.957447H9.08475C9.35518 0.957447 9.57447 0.743085 9.57447 0.478723C9.57447 0.214362 9.35518 0 9.08475 0Z" transform="translate(28.8086 15.3617)" fill="#307CE0"/>
<path d="M9.08475 -0.25H0.489715C0.0865925 -0.25 -0.25 0.070971 -0.25 0.478723C-0.25 0.886476 0.0865925 1.20745 0.489715 1.20745H9.08475C9.48788 1.20745 9.82447 0.886476 9.82447 0.478723C9.82447 0.0709711 9.48788 -0.25 9.08475 -0.25Z" transform="translate(28.8086 15.3617)" stroke="#307CE0" stroke-width="0.5"/>
<path d="M9.08475 0H0.489715C0.219283 0 0 0.214362 0 0.478723C0 0.743085 0.219283 0.957447 0.489715 0.957447H9.08475C9.35518 0.957447 9.57447 0.743085 9.57447 0.478723C9.57447 0.214362 9.35518 0 9.08475 0Z" transform="translate(28.8086 18.234)" fill="#307CE0"/>
<path d="M9.08475 -0.25H0.489715C0.0865925 -0.25 -0.25 0.070971 -0.25 0.478723C-0.25 0.886476 0.0865925 1.20745 0.489715 1.20745H9.08475C9.48788 1.20745 9.82447 0.886476 9.82447 0.478723C9.82447 0.0709711 9.48788 -0.25 9.08475 -0.25Z" transform="translate(28.8086 18.234)" stroke="#307CE0" stroke-width="0.5"/>
</svg>
