<svg width="52" height="40" viewBox="0 0 52 40" fill="none" xmlns="http://www.w3.org/2000/svg">
<path fill-rule="evenodd" clip-rule="evenodd" d="M49.7397 14.4587C49.9478 14.3022 50 14.0413 50 13.8325C49.8438 11.7444 48.1772 9.34351 43.8022 8.76929C43.3335 8.71704 42.7085 8.87354 42.0835 9.03027C41.7188 9.13452 41.25 9.23901 40.9897 9.23901L40.8623 9.22461L40.7334 9.21289C40.5967 9.20215 40.46 9.1958 40.3232 9.19214C40.1284 9.18677 39.9341 9.18677 39.7397 9.18677C38.6978 9.18677 37.7085 9.34351 36.7188 9.60449V3.81055C36.7188 1.72241 35 0 32.9165 0H3.80225C1.71875 0 0 1.72241 0 3.81055V22.3406C0 24.4285 1.71875 26.1511 3.80225 26.1511H19.479C19.271 26.8818 19.1665 27.6648 19.1665 28.4478C19.1665 28.6045 18.9585 29.1785 18.8022 29.4917C18.5415 30.1182 18.3335 30.6924 18.3335 31.1621C18.3853 35.5989 20.521 37.5825 22.5522 38H22.7085C22.8076 38 22.9067 37.958 23.0059 37.9006C23.0605 37.8691 23.1152 37.8328 23.1699 37.7964L23.1772 37.7913L30.1562 31.6318C30.4165 31.3708 30.625 31.0576 30.625 30.6924C30.6772 29.9094 30.0522 29.022 28.2812 27.0386C28.2012 26.9583 28.1133 26.8857 28.0122 26.812C27.9409 26.7603 27.8633 26.708 27.7764 26.6521C27.6655 26.5803 27.54 26.5024 27.396 26.4121C27.1875 26.3076 26.875 26.0989 26.6665 25.9424C27.4478 23.5413 28.646 21.6621 30.4165 20.0962C30.4321 20.0803 30.4478 20.0693 30.4634 20.0603L30.4941 20.0442L30.5234 20.0286C30.54 20.0193 30.5566 20.0078 30.5728 19.9917C30.6245 19.9399 30.689 19.8882 30.7534 19.8364C30.7886 19.8086 30.8237 19.7805 30.8564 19.7524C30.8857 19.7278 30.9131 19.7031 30.9375 19.6785C31.0415 19.5742 31.146 19.4697 31.3022 19.3655C31.354 19.3655 31.354 19.3132 31.4062 19.261C33.229 17.6951 35.2603 16.7556 37.7085 16.2856C37.8125 16.4944 37.9688 16.8599 38.0728 17.0686C38.2812 17.5386 38.4375 17.7996 38.5938 18.0083C40.4165 20.0962 41.146 20.8269 41.979 20.8269C42.2915 20.8269 42.604 20.7224 42.8647 20.4614L49.7397 14.4587ZM33.9062 2.66211C33.5938 2.34888 33.125 2.34888 32.8647 2.66211L19.1665 16.3379C18.6978 16.8079 17.9688 16.8079 17.5522 16.3379L3.854 2.66211C3.5415 2.34888 3.07275 2.34888 2.8125 2.66211C2.5 2.97534 2.5 3.44507 2.8125 3.70605L16.4585 17.3818C16.6113 17.5354 16.7734 17.6663 16.9443 17.7747C17.1655 17.9146 17.4014 18.0168 17.6523 18.0815C17.8682 18.137 18.0952 18.1648 18.3335 18.1648C19.0625 18.1648 19.6875 17.9038 20.2085 17.3818L33.854 3.70605C34.1665 3.39282 34.1665 2.9231 33.9062 2.66211ZM11.5625 14.1458C11.6855 14.2483 11.7603 14.3833 11.7896 14.5283C11.8345 14.7522 11.7725 14.9998 11.6147 15.1897L4.01074 23.489C3.85449 23.6458 3.646 23.75 3.48975 23.75C3.3335 23.75 3.125 23.698 2.96875 23.5413C2.65625 23.2803 2.65625 22.8105 2.91699 22.4973L10.521 14.198C10.7812 13.8848 11.25 13.8848 11.5625 14.1458ZM19.9482 24.585C21.25 21.1921 24.0625 18.3213 27.0835 15.6592L27.396 15.3459C29.7397 13.3103 32.3438 11.2224 35.2085 10.074V3.8103C35.2085 2.50537 34.167 1.46143 32.8647 1.46143H3.80225C2.5 1.46143 1.4585 2.50537 1.4585 3.8103V22.2361C1.4585 23.541 2.5 24.585 3.80225 24.585H19.9482ZM43.5938 10.2307C46.8228 10.6482 48.229 12.1621 48.4897 13.5713L41.9272 19.4697C41.4585 19.261 40.2085 17.7993 39.6875 17.1731C39.6655 17.1294 39.6348 17.0586 39.5986 16.9756C39.5483 16.8599 39.4878 16.7205 39.4272 16.5989C39.0625 15.7637 38.646 14.8762 37.8647 14.8762H37.7085C34.7397 15.3982 32.396 16.4944 30.3125 18.3213C30.2925 18.3413 30.2729 18.3535 30.2559 18.364C30.2285 18.3811 30.2085 18.3936 30.2085 18.4258C30.104 18.5303 30 18.5823 29.896 18.6868C29.7915 18.7913 29.6875 18.8433 29.5835 18.9478C29.5537 18.9478 29.541 18.9478 29.5259 18.9573C29.5142 18.9646 29.5015 18.9775 29.479 19C27.396 20.8792 25.9897 23.0713 25.104 25.8901C24.8438 26.7773 25.729 27.3516 26.5625 27.8213C26.771 27.9258 27.0312 28.0823 27.0835 28.1345C27.2954 28.3472 27.6006 28.6814 27.9087 29.042C28.4321 29.6553 28.9639 30.3442 29.0625 30.6401L22.5 36.4341C21.1978 35.9641 19.8438 34.3982 19.8438 31.1099C19.8438 30.9011 20.0522 30.3792 20.2085 30.0137C20.4688 29.3872 20.6772 28.8652 20.6772 28.3955C20.729 23.8542 24.2188 20.1482 28.021 16.8076L28.3853 16.4944C31.6665 13.6235 35.5728 10.6482 39.7397 10.6482C40.0522 10.6482 40.4165 10.6482 40.7812 10.7004C41.1978 10.7527 41.8228 10.5962 42.4478 10.4395C42.8647 10.3352 43.3335 10.2307 43.5938 10.2307Z" transform="translate(1 1)" fill="white" stroke="white"/>
</svg>
