<svg width="90" height="91" viewBox="0 0 90 91" fill="none" xmlns="http://www.w3.org/2000/svg">
<path fill-rule="evenodd" clip-rule="evenodd" d="M45 89.9532C69.8528 89.9532 90 69.8165 90 44.9766C90 20.1367 69.8528 0 45 0C20.1472 0 0 20.1367 0 44.9766C0 69.8165 20.1472 89.9532 45 89.9532Z" transform="translate(0 0.778931)" fill="url(#paint0_linear)"/>
<path fill-rule="evenodd" clip-rule="evenodd" d="M45 89.9532C69.8528 89.9532 90 69.8165 90 44.9766C90 20.1367 69.8528 0 45 0C20.1472 0 0 20.1367 0 44.9766C0 69.8165 20.1472 89.9532 45 89.9532Z" transform="translate(0 0.778931)" fill="black" fill-opacity="0.124321"/>
<path d="M2.88079 -0.35C1.0977 -0.35 -0.35 1.09695 -0.35 2.8808V35.1192C-0.35 36.9023 1.09694 38.35 2.88079 38.35H35.1192C36.9023 38.35 38.35 36.9031 38.35 35.1192V2.8808C38.35 1.09771 36.9031 -0.35 35.1192 -0.35H2.88079ZM2.88079 36.4985C2.85785 36.4985 2.83505 36.4979 2.8124 36.4968L36.4968 2.81239C36.4979 2.83504 36.4985 2.85785 36.4985 2.8808V11.7074L11.7075 36.4985H2.88079ZM14.3259 36.4985L36.4985 14.3259V23.2226L23.2226 36.4985H14.3259ZM35.1192 36.4985H25.841L36.4985 25.841V35.1192C36.4985 35.8803 35.88 36.4985 35.1192 36.4985ZM35.1876 1.50318L1.50318 35.1876C1.50207 35.165 1.50152 35.1422 1.50152 35.1192V26.2926L26.2925 1.50152H35.1192C35.1422 1.50152 35.165 1.50207 35.1876 1.50318ZM23.6741 1.50152L1.50152 23.6741V14.7774L14.7774 1.50152H23.6741ZM2.88079 1.50152H12.159L1.50152 12.159V2.8808C1.50152 2.11974 2.12003 1.50152 2.88079 1.50152Z" transform="translate(26 27)" fill="white" stroke="white" stroke-width="0.7"/>
<defs>
<linearGradient id="paint0_linear" x2="1" gradientUnits="userSpaceOnUse" gradientTransform="translate(90) scale(116.122 116.062) rotate(140.809)">
<stop stop-color="#1FAFFF"/>
<stop offset="1" stop-color="#4380FF"/>
</linearGradient>
</defs>
</svg>
