<svg width="30" height="41" viewBox="0 0 30 41" fill="none" xmlns="http://www.w3.org/2000/svg">
<path fill-rule="evenodd" clip-rule="evenodd" d="M29.0625 38.8636H24.2324L17.9824 1.85071H25.3125V5.552C25.3125 6.06274 25.7324 6.47729 26.25 6.47729C26.7676 6.47729 27.1875 6.06274 27.1875 5.552V0.925293C27.1875 0.414551 26.7676 0 26.25 0H3.75C3.23242 0 2.8125 0.414551 2.8125 0.925293V5.552C2.8125 6.06274 3.23242 6.47729 3.75 6.47729C4.26758 6.47729 4.6875 6.06274 4.6875 5.552V1.85071H12.0176L5.76758 38.8636H0.9375C0.419922 38.8636 0 39.2782 0 39.7889C0 40.2997 0.419922 40.7142 0.9375 40.7142H29.0625C29.5801 40.7142 30 40.2997 30 39.7889C30 39.2782 29.5801 38.8636 29.0625 38.8636ZM9.92188 25.5297L18.9355 31.4609H8.91992L9.92188 25.5297ZM18.0918 23.1332L11.2969 17.385L10.3262 23.1332H18.0918ZM12.6465 9.39111L17.2168 14.8052H11.7324L12.6465 9.39111ZM13.3164 16.6559L19.459 21.8525L18.582 16.6559H13.3164ZM17.9219 12.7477L14.1895 8.32788H17.1758L17.9219 12.7477ZM19.9863 24.9838H12.4707L20.9258 30.5472L19.9863 24.9838ZM16.082 1.85071L16.8633 6.47729H13.1387L13.9199 1.85071H16.082ZM21.3945 33.3116H8.60742L7.66992 38.8636H22.332L21.3945 33.3116Z" fill="#307CE0"/>
<path d="M0.9375 1.85065H6.5625C7.08 1.85065 7.5 1.4361 7.5 0.925325C7.5 0.414545 7.08 0 6.5625 0H0.9375C0.42 0 0 0.414545 0 0.925325C0 1.4361 0.42 1.85065 0.9375 1.85065Z" transform="translate(0 8.32788)" fill="#307CE0"/>
<path d="M0 0.925325C0 1.4361 0.42 1.85065 0.9375 1.85065H6.5625C7.08 1.85065 7.5 1.4361 7.5 0.925325C7.5 0.414545 7.08 0 6.5625 0H0.9375C0.42 0 0 0.414545 0 0.925325Z" transform="translate(22.5 8.32788)" fill="#307CE0"/>
</svg>
