<svg width="25" height="25" viewBox="0 0 25 25" fill="none" xmlns="http://www.w3.org/2000/svg">
<path fill-rule="evenodd" clip-rule="evenodd" d="M19.1537 18.112C19.762 18.6092 19.808 19.4759 19.2533 20.03L16.9081 22.3727C15.0111 24.2678 8.47919 21.5923 4.94435 18.0611C1.40919 14.5296 -1.26906 8.0051 0.628294 6.10971L2.97344 3.76699C3.52743 3.21357 4.39636 3.25952 4.89343 3.86645L8.00392 7.66435C8.48436 8.25096 8.4412 9.14689 7.90589 9.68165L6.42426 11.1617C6.12501 11.4607 6.05072 12.0231 6.27937 12.4065C6.29437 12.4371 6.32805 12.5009 6.38113 12.5938C6.47161 12.7522 6.58294 12.9318 6.71582 13.1286C7.09768 13.6941 7.57436 14.2809 8.15142 14.8574C8.72846 15.4338 9.3166 15.9104 9.88384 16.2926C10.0813 16.4256 10.2615 16.5371 10.4205 16.6278C10.5138 16.681 10.5779 16.7148 10.6308 16.7417C10.9925 16.952 11.5544 16.8789 11.8509 16.5828L13.3325 15.1027C13.8676 14.5681 14.7652 14.5252 15.3519 15.0047L19.1537 18.112ZM18.7119 18.6512L14.9101 15.5439C14.6003 15.2908 14.107 15.3144 13.8258 15.5953L12.3442 17.0754C11.8238 17.5952 10.9153 17.7134 10.3019 17.3556C10.2581 17.3342 10.181 17.2936 10.0746 17.2329C9.90079 17.1338 9.70581 17.0132 9.49367 16.8702C8.89076 16.464 8.26807 15.9594 7.65804 15.35C7.04802 14.7406 6.5433 14.1193 6.13739 13.5181C5.99455 13.3066 5.87406 13.1122 5.77512 12.939C5.71455 12.833 5.67396 12.7561 5.66679 12.7386C5.28644 12.1051 5.40701 11.1921 5.93088 10.6687L7.4125 9.18864C7.694 8.90744 7.7177 8.41538 7.46389 8.10548L4.3534 4.30758C4.11708 4.01903 3.72814 3.99846 3.46671 4.25962L1.12157 6.60234C-0.385784 8.10813 2.14882 14.2827 5.43763 17.5681C8.72611 20.8532 14.9077 23.3852 16.4148 21.8797L18.7599 19.537C19.022 19.2752 19.0015 18.8879 18.7119 18.6512ZM22.9991 11.4997C22.9991 11.6921 22.8429 11.8482 22.6503 11.8482C22.4576 11.8482 22.3014 11.6921 22.3014 11.4997C22.3014 5.5335 17.4599 0.696951 11.4875 0.696951C11.2949 0.696951 11.1387 0.540933 11.1387 0.348475C11.1387 0.156018 11.2949 0 11.4875 0C17.8452 0 22.9991 5.14858 22.9991 11.4997ZM18.8131 11.4996C18.8131 11.6921 18.6569 11.8481 18.4642 11.8481C18.2716 11.8481 18.1154 11.6921 18.1154 11.4996C18.1154 7.84293 15.148 4.87859 11.4875 4.87859C11.2949 4.87859 11.1387 4.72257 11.1387 4.53012C11.1387 4.33766 11.2949 4.18164 11.4875 4.18164C15.5333 4.18164 18.8131 7.45801 18.8131 11.4996Z" transform="translate(1 1)" fill="#307CE0" stroke="#307CE0"/>
</svg>
