<svg width="31" height="31" viewBox="0 0 31 31" fill="none" xmlns="http://www.w3.org/2000/svg">
<path d="M0.454848 30.5452C0.757086 30.848 1.15411 30.9994 1.55054 30.9994C1.94696 30.9994 2.34399 30.848 2.64623 30.5452L15.5 17.692L28.3538 30.5457C28.656 30.8486 29.053 31 29.4495 31C29.8459 31 30.2429 30.8486 30.5452 30.5457C31.1508 29.9407 31.1508 28.9588 30.5452 28.3538L17.692 15.5L30.5457 2.64623C31.1514 2.04115 31.1514 1.05932 30.5457 0.454252C29.9413 -0.151417 28.9588 -0.151417 28.3538 0.454252L15.5 13.308L2.64623 0.454848C2.04175 -0.150821 1.05932 -0.150821 0.454252 0.454848C-0.151417 1.05992 -0.151417 2.04175 0.454252 2.64682L13.3086 15.5L0.454848 28.3538C-0.150821 28.9588 -0.150821 29.9401 0.454848 30.5452Z" fill="white"/>
</svg>
