<svg width="90" height="90" viewBox="0 0 90 90" fill="none" xmlns="http://www.w3.org/2000/svg">
<path fill-rule="evenodd" clip-rule="evenodd" d="M45 90C69.8528 90 90 69.8528 90 45C90 20.1472 69.8528 0 45 0C20.1472 0 0 20.1472 0 45C0 69.8528 20.1472 90 45 90Z" fill="url(#paint0_linear)"/>
<path fill-rule="evenodd" clip-rule="evenodd" d="M45 90C69.8528 90 90 69.8528 90 45C90 20.1472 69.8528 0 45 0C20.1472 0 0 20.1472 0 45C0 69.8528 20.1472 90 45 90Z" fill="black" fill-opacity="0.124321"/>
<path fill-rule="evenodd" clip-rule="evenodd" d="M23.5996 10.1711V3.14893H26.4004C27.2832 3.14893 28 2.44403 28 1.57446C28 0.704895 27.2832 0 26.4004 0H1.59961C0.716797 0 0 0.704895 0 1.57446C0 2.44403 0.716797 3.14893 1.59961 3.14893H4.40039V10.1041C4.40234 12.1863 5.45117 14.1326 7.19922 15.3038L11.5996 18.2756L7.15625 21.4246C5.47852 22.6069 4.48438 24.5119 4.48438 26.5416V33.8511H1.59961C0.716797 33.8511 0 34.556 0 35.4255C0 36.2951 0.716797 37 1.59961 37H26.4004C27.2832 37 28 36.2951 28 35.4255C28 34.556 27.2832 33.8511 26.4004 33.8511H23.6953V26.5967C23.6934 24.5146 22.6445 22.5682 20.8965 21.397L16.4883 18.4213L20.9277 15.2723C22.5996 14.0933 23.5938 12.1953 23.5996 10.1711ZM20.4961 26.5967V33.8511H7.69531V26.5298C7.69531 25.515 8.19336 24.5624 9.03125 23.9713L13.9277 20.5153L19.0996 24.0106C19.9688 24.5944 20.4902 25.5613 20.4961 26.5967ZM14.168 16.1855L19.0645 12.7296C19.9023 12.1384 20.3984 11.1859 20.4004 10.1711V3.14893H7.59961V10.1041C7.59961 11.1431 8.12109 12.1151 8.99219 12.702L14.168 16.1855Z" transform="translate(32 27)" fill="white"/>
<defs>
<linearGradient id="paint0_linear" x2="1" gradientUnits="userSpaceOnUse" gradientTransform="translate(90) scale(116.122) rotate(140.809)">
<stop stop-color="#1FAFFF"/>
<stop offset="1" stop-color="#4380FF"/>
</linearGradient>
</defs>
</svg>
