<svg width="14" height="12" viewBox="0 0 14 12" fill="none" xmlns="http://www.w3.org/2000/svg">
<path fill-rule="evenodd" clip-rule="evenodd" d="M2.86957 5.34545C3.30179 5.34545 3.65217 5.68735 3.65217 6.10909C3.65217 6.53084 3.30179 6.87273 2.86957 6.87273H2.08652C1.79832 6.87273 1.56522 7.10035 1.56522 7.38317V11.9623C1.56522 12.2447 1.79874 12.4727 2.08834 12.4727H9.91165C10.2011 12.4727 10.4348 12.2449 10.4348 11.9623V7.38317C10.4348 7.10116 10.201 6.87273 9.91348 6.87273H9.13043C8.69821 6.87273 8.34783 6.53084 8.34783 6.10909C8.34783 5.68735 8.69821 5.34545 9.13043 5.34545H9.91348C11.0658 5.34545 12 6.25809 12 7.38317V11.9623C12 13.0886 11.0653 14 9.91165 14H2.08834C0.934072 14 0 13.088 0 11.9623V7.38317C0 6.25712 0.933615 5.34545 2.08652 5.34545H2.86957ZM6.53324 0.225198L9.1487 2.83069C9.88435 3.55056 8.78088 4.63062 8.04497 3.91075L7.14964 3.03128C6.94581 2.83107 6.7805 2.89744 6.7805 3.17962V6.68114C6.7805 7.09956 6.43111 7.44291 6.00011 7.44291C5.56999 7.44291 5.21972 7.10185 5.21972 6.68114V3.17962C5.21972 2.89896 5.05442 2.83103 4.85051 3.03128L3.95499 3.91075C3.21935 4.63062 2.11562 3.55056 2.85126 2.83069L5.43992 0.228795C5.74258 -0.0754079 6.23098 -0.0759162 6.53324 0.225198Z" transform="translate(14) rotate(90)" fill="#307CE0"/>
</svg>
