<svg width="78" height="37" viewBox="0 0 78 37" fill="none" xmlns="http://www.w3.org/2000/svg">
<path fill-rule="evenodd" clip-rule="evenodd" d="M72.1152 0H23.8916C21.1006 0 18.7627 1.90015 18.1602 4.43994H21.0527V4.46436L40.4316 19.2739L21.0527 32.6191H18.1748C18.8008 35.1284 21.123 37 23.8906 37H72.1133C75.3594 37 78 34.4319 78 31.2739V5.72607C78 2.56812 75.3594 0 72.1152 0ZM23.1777 2.72803C23.4082 2.67725 23.6445 2.64355 23.8906 2.64355H72.1133C72.1875 2.64355 72.2578 2.64648 72.3281 2.65186C72.3926 2.65649 72.457 2.66333 72.5195 2.67188L72.625 2.68823L72.8105 2.7251L47.8213 21.5591L23.1777 2.72803ZM23.8916 34.3564H72.1152C72.3105 34.3564 72.502 34.334 72.6914 34.2993L53.1787 20.8625L48.6465 24.2791C48.4014 24.4634 48.1074 24.5549 47.8145 24.5549C47.7373 24.5549 47.6602 24.5486 47.583 24.5359C47.5068 24.5234 47.4316 24.5046 47.3584 24.4795L47.2559 24.4399L47.1914 24.4097C47.1152 24.3718 47.043 24.3267 46.9746 24.2739L42.6602 20.9766L23.3135 34.2993C23.501 34.334 23.6934 34.3564 23.8916 34.3564ZM75.2012 31.9492C75.1445 32.1836 75.0605 32.4075 74.9531 32.6191L55.4248 19.1709L74.9824 4.43066C75.1719 4.82568 75.2832 5.26172 75.2832 5.72485V31.2739C75.2832 31.3613 75.2793 31.4478 75.2715 31.5332C75.2578 31.675 75.2344 31.814 75.2012 31.9492ZM7.92383 10.9023H21.3945C22.1455 10.9023 22.7539 10.3096 22.7539 9.58057C22.7539 8.85132 22.1455 8.25977 21.3945 8.25977H7.92383C7.17383 8.25977 6.56543 8.85034 6.56543 9.58057C6.56543 10.3108 7.17383 10.9023 7.92383 10.9023ZM21.3945 19.6008H1.3584C0.608398 19.6008 0 19.009 0 18.28C0 17.9956 0.0927734 17.7324 0.25 17.5171C0.496094 17.1794 0.900391 16.9592 1.3584 16.9592H21.3945C22.1455 16.9592 22.7539 17.5508 22.7539 18.28C22.7539 18.6519 22.5957 18.9878 22.3408 19.228C22.1924 19.3679 22.0117 19.4751 21.8105 19.5381C21.6797 19.5789 21.54 19.6008 21.3945 19.6008ZM7.92383 28.3005H21.3945C22.1455 28.3005 22.7539 27.709 22.7539 26.9788C22.7539 26.2495 22.1455 25.658 21.3945 25.658H7.92383C7.17383 25.658 6.56543 26.2495 6.56543 26.9788C6.56543 27.709 7.17383 28.3005 7.92383 28.3005Z" fill="#307CE0"/>
</svg>
