<svg width="34" height="34" viewBox="0 0 34 34" fill="none" xmlns="http://www.w3.org/2000/svg">
<path fill-rule="evenodd" clip-rule="evenodd" d="M26.6487 25.199C27.495 25.8907 27.5589 27.0966 26.7872 27.8675L23.5244 31.127C20.885 33.7636 11.7971 30.0412 6.8791 25.1282C1.96061 20.2148 -1.76565 11.1372 0.874148 8.50017L4.13696 5.24073C4.90773 4.47076 6.11667 4.53469 6.80825 5.37911L11.1359 10.6631C11.8043 11.4793 11.7443 12.7258 10.9995 13.4698L8.9381 15.5291C8.52175 15.945 8.4184 16.7276 8.73651 17.2609C8.75738 17.3035 8.80424 17.3922 8.87809 17.5215C9.00398 17.7419 9.15887 17.9918 9.34376 18.2656C9.87503 19.0523 10.5382 19.8688 11.3411 20.6708C12.1439 21.4728 12.9622 22.136 13.7514 22.6677C14.0261 22.8528 14.2768 23.0079 14.4981 23.134C14.6279 23.208 14.717 23.255 14.7907 23.2924C15.294 23.5851 16.0757 23.4834 16.4882 23.0714L18.5496 21.0121C19.294 20.2684 20.5429 20.2087 21.3592 20.8758L26.6487 25.199ZM26.0339 25.9495L20.7444 21.6264C20.3135 21.2742 19.6271 21.307 19.2358 21.6978L17.1744 23.757C16.4505 24.4802 15.1865 24.6447 14.3331 24.147C14.2721 24.1172 14.1648 24.0606 14.0168 23.9762C13.775 23.8383 13.5037 23.6705 13.2086 23.4716C12.3697 22.9065 11.5034 22.2044 10.6546 21.3565C9.80591 20.5087 9.10369 19.6442 8.53894 18.8078C8.34021 18.5135 8.17258 18.2431 8.03492 18.0021C7.95064 17.8546 7.89418 17.7477 7.88419 17.7233C7.35501 16.8418 7.52277 15.5716 8.25163 14.8435L10.313 12.7842C10.7047 12.393 10.7376 11.7084 10.3845 11.2772L6.05688 5.99316C5.72808 5.59169 5.18694 5.56308 4.82322 5.92643L1.56041 9.18587C-0.536774 11.2809 2.98963 19.8716 7.56536 24.4426C12.1406 29.0131 20.7411 32.536 22.8379 30.4413L26.1007 27.1819C26.4654 26.8176 26.4368 26.2788 26.0339 25.9495ZM32 15.9996C32 16.2673 31.7827 16.4844 31.5147 16.4844C31.2466 16.4844 31.0293 16.2673 31.0293 15.9996C31.0293 7.69878 24.2932 0.96967 15.9839 0.96967C15.7158 0.96967 15.4985 0.752602 15.4985 0.484835C15.4985 0.217068 15.7158 0 15.9839 0C24.8293 0 32 7.16325 32 15.9996ZM26.176 15.9995C26.176 16.2673 25.9587 16.4844 25.6906 16.4844C25.4226 16.4844 25.2053 16.2673 25.2053 15.9995C25.2053 10.912 21.0767 6.78766 15.9839 6.78766C15.7158 6.78766 15.4985 6.5706 15.4985 6.30283C15.4985 6.03506 15.7158 5.81799 15.9839 5.81799C21.6128 5.81799 26.176 10.3764 26.176 15.9995Z" transform="translate(1 1)" fill="white" stroke="white"/>
</svg>
