<svg width="33" height="31" viewBox="0 0 33 31" fill="none" xmlns="http://www.w3.org/2000/svg">
<path fill-rule="evenodd" clip-rule="evenodd" d="M32.707 4.00159L32.8154 4.11377C32.9956 4.41296 33.0674 4.74963 32.9233 5.08618L29.8975 17.0911C29.8257 17.3903 29.6094 17.652 29.3574 17.8016C29.1772 17.9138 28.9971 17.9138 28.7808 17.8765H9.32959L9.54541 19.1106C9.68945 20.0829 10.5181 20.8309 11.5269 20.8309H28.2769C28.853 20.8309 29.3213 21.317 29.3213 21.9154C29.3213 22.5138 28.8892 23 28.2769 23H11.563C9.58154 23 7.81641 21.4667 7.49219 19.4098L7.13232 17.0911C7.09619 17.0162 7.06006 16.9041 7.06006 16.7919L4.89893 3.29102C4.79102 2.65527 4.25049 2.16907 3.60205 2.16907H1.04443C0.468262 2.16907 0 1.68298 0 1.08459C0 0.486206 0.432129 0 1.04443 0H3.56592C5.25928 0 6.69971 1.27148 6.95215 2.99182L7.06006 3.62769H31.9146C32.311 3.62769 32.563 3.85205 32.707 4.00159ZM28.0967 15.7448L30.6182 5.87158H7.45654L9.00537 15.7448H28.0967Z" fill="#307CE0"/>
<path fill-rule="evenodd" clip-rule="evenodd" d="M0 3.5C0 1.57141 1.57129 0 3.5 0C5.42871 0 7 1.57141 7 3.5C7 5.42859 5.42871 7 3.5 7C1.57129 7 0 5.42859 0 3.5ZM4.85693 3.5C4.85693 2.71436 4.28564 2.10718 3.5 2.10718C2.71387 2.10718 2.10693 2.75 2.10693 3.5C2.10693 4.25 2.71387 4.89294 3.46387 4.89294C4.21387 4.89294 4.85693 4.25 4.85693 3.5Z" transform="translate(8 24)" fill="#307CE0"/>
<path fill-rule="evenodd" clip-rule="evenodd" d="M0 3.48218C0 1.56348 1.57129 0 3.5 0C5.42871 0 7 1.599 7 3.51782C7 5.43652 5.46436 7 3.5 7C1.53564 7 0 5.401 0 3.48218ZM4.85693 3.48218C4.85693 2.70044 4.25 2.09644 3.46387 2.09644C2.67822 2.09644 2.03564 2.73608 2.07129 3.48218C2.07129 4.22839 2.71387 4.86804 3.46387 4.86804C4.21387 4.86804 4.85693 4.22839 4.85693 3.48218Z" transform="translate(20 24)" fill="#307CE0"/>
</svg>
