<svg width="61" height="45" viewBox="0 0 61 45" fill="none" xmlns="http://www.w3.org/2000/svg">
<path fill-rule="evenodd" clip-rule="evenodd" d="M0 2.41016C0 1.07727 1.05762 0 2.37207 0H25.7471C27.0605 0 28.1172 1.07861 28.1172 2.41016V24.2472C28.1299 24.375 28.1367 24.5052 28.1367 24.6331C28.1455 25.1278 28.1416 25.6177 28.1172 26.1038V26.1676C28.1172 26.2051 28.1123 26.2404 28.1074 26.2758C28.1025 26.3114 28.0977 26.3473 28.0977 26.3856C27.6797 33.6036 23.917 40.2567 17.8994 44.2416L17.7656 44.3318C15.7461 45.6157 13.082 44.9944 11.8184 42.9399C10.5557 40.8855 11.168 38.1797 13.1885 36.897C16.1426 34.939 18.2051 31.9563 19.0635 28.5778H2.37207C1.05664 28.5778 0 27.5029 0 26.1676V2.41016ZM32.8604 2.41016C32.8604 1.07727 33.917 0 35.2305 0H58.6055C59.9189 0 60.9775 1.07861 60.9775 2.41016V24.2472C60.9883 24.375 60.9961 24.5052 60.9961 24.6331C61.0049 25.1278 61 25.6177 60.9775 26.1038V26.1676C60.9775 26.2051 60.9727 26.2404 60.9678 26.2758C60.9619 26.3114 60.9561 26.3473 60.9561 26.3856C60.5371 33.6036 56.7764 40.2567 50.7578 44.2416L50.623 44.3318C48.6055 45.6157 45.9414 44.9944 44.6787 42.9399C43.4141 40.8855 44.0273 38.1797 46.0488 36.897C49.002 34.939 51.0645 31.9563 51.9219 28.5778H35.2305C33.915 28.5778 32.8604 27.5029 32.8604 26.1676V2.41016Z" fill="url(#paint0_linear)"/>
<path fill-rule="evenodd" clip-rule="evenodd" d="M0 2.41016C0 1.07727 1.05762 0 2.37207 0H25.7471C27.0605 0 28.1172 1.07861 28.1172 2.41016V24.2472C28.1299 24.375 28.1367 24.5052 28.1367 24.6331C28.1455 25.1278 28.1416 25.6177 28.1172 26.1038V26.1676C28.1172 26.2051 28.1123 26.2404 28.1074 26.2758C28.1025 26.3114 28.0977 26.3473 28.0977 26.3856C27.6797 33.6036 23.917 40.2567 17.8994 44.2416L17.7656 44.3318C15.7461 45.6157 13.082 44.9944 11.8184 42.9399C10.5557 40.8855 11.168 38.1797 13.1885 36.897C16.1426 34.939 18.2051 31.9563 19.0635 28.5778H2.37207C1.05664 28.5778 0 27.5029 0 26.1676V2.41016ZM32.8604 2.41016C32.8604 1.07727 33.917 0 35.2305 0H58.6055C59.9189 0 60.9775 1.07861 60.9775 2.41016V24.2472C60.9883 24.375 60.9961 24.5052 60.9961 24.6331C61.0049 25.1278 61 25.6177 60.9775 26.1038V26.1676C60.9775 26.2051 60.9727 26.2404 60.9678 26.2758C60.9619 26.3114 60.9561 26.3473 60.9561 26.3856C60.5371 33.6036 56.7764 40.2567 50.7578 44.2416L50.623 44.3318C48.6055 45.6157 45.9414 44.9944 44.6787 42.9399C43.4141 40.8855 44.0273 38.1797 46.0488 36.897C49.002 34.939 51.0645 31.9563 51.9219 28.5778H35.2305C33.915 28.5778 32.8604 27.5029 32.8604 26.1676V2.41016Z" fill="black" fill-opacity="0.124321"/>
<defs>
<linearGradient id="paint0_linear" x2="1" gradientUnits="userSpaceOnUse" gradientTransform="translate(61) scale(78.7049 58.061) rotate(140.809)">
<stop stop-color="#1FAFFF"/>
<stop offset="1" stop-color="#4380FF"/>
</linearGradient>
</defs>
</svg>
