<svg width="16" height="10" viewBox="0 0 16 10" fill="none" xmlns="http://www.w3.org/2000/svg">
<path d="M4.70224 15.9831C4.93776 15.9831 5.12891 15.7919 5.12891 15.5564V1.39899L8.79163 5.06171C8.87483 5.14491 8.98405 5.18651 9.09328 5.18651C9.20251 5.18651 9.31173 5.14491 9.39493 5.06171C9.56155 4.89509 9.56155 4.62501 9.39493 4.45819L5.06171 0.12496C4.89531 -0.0416533 4.6248 -0.0416533 4.4584 0.12496L0.12496 4.4584C-0.0416533 4.62501 -0.0416533 4.89509 0.12496 5.06192C0.29136 5.22853 0.561867 5.22853 0.728267 5.06192L4.27557 1.51461V15.5564C4.27557 15.7919 4.46672 15.9831 4.70224 15.9831Z" transform="translate(15.9824 0.204346) rotate(90)" fill="white"/>
</svg>
