<svg width="17" height="13" viewBox="0 0 17 13" fill="none" xmlns="http://www.w3.org/2000/svg">
<path fill-rule="evenodd" clip-rule="evenodd" d="M2.17383 13H14.8262C16.0273 13 17 12.03 17 10.8333V2.16667C17 0.970047 16.0273 0 14.8262 0H2.17383C0.972656 0 0 0.970047 0 2.16667V10.8333C0 12.03 0.972656 13 2.17383 13ZM14.8242 11.8182H2.17383C1.62891 11.8182 1.18555 11.3772 1.18555 10.8333V5.49939L7.5957 8.49924C8.18164 8.77312 8.85938 8.77312 9.44531 8.49924L15.8125 5.51515V10.8333C15.8125 11.3772 15.3711 11.8182 14.8242 11.8182ZM14.8242 1.18182H2.17383C1.62891 1.18182 1.18555 1.62276 1.18555 2.16667V4.1935L8.09961 7.4297C8.36719 7.5542 8.67383 7.5542 8.93945 7.4297L15.8125 4.21318V2.16667C15.8125 1.62276 15.3711 1.18182 14.8242 1.18182Z" fill="white"/>
</svg>
