<svg width="28" height="37" viewBox="0 0 28 37" fill="none" xmlns="http://www.w3.org/2000/svg">
<path fill-rule="evenodd" clip-rule="evenodd" d="M13.9998 0C21.3379 0 27.4773 5.88031 27.9783 13.3829C28.1672 16.8336 27.1155 20.2382 25.0132 22.9832L14.835 36.5829C14.6379 36.8455 14.3284 37 13.9998 37C13.6711 37 13.3616 36.8455 13.1646 36.5829L2.98633 22.9749C0.88623 20.2319 -0.165283 16.8307 0.0212402 13.3829C0.522217 5.88031 6.66162 0 13.9998 0ZM13.9998 34.2142L23.3384 21.7238V21.7363C25.1436 19.3892 26.0498 16.4757 25.8945 13.5205C25.5186 7.89877 20.9663 2.08939 13.9998 2.08939C7.03345 2.08939 2.4812 7.90295 2.10522 13.5247C1.95093 16.4785 2.85718 19.3903 4.66138 21.7363L13.9998 34.2142Z" fill="white"/>
<path fill-rule="evenodd" clip-rule="evenodd" d="M0.465576 3.68304C1.40356 1.44205 3.60059 -0.012085 6.03003 6.10352e-05C9.33203 0.016571 12 2.698 12 6C12 8.42944 10.5349 10.6191 8.28906 11.546C6.04346 12.4729 3.46045 11.954 1.74683 10.2318C0.0332031 8.50964 -0.472656 5.92407 0.465576 3.68304ZM2.44531 7.49695C3.05176 8.93723 4.46729 9.86923 6.03003 9.85709V9.86136C8.15015 9.84488 9.85962 8.12021 9.85718 6C9.85718 4.43723 8.91406 3.02893 7.46899 2.43375C6.02417 1.83853 4.36279 2.17407 3.26196 3.28342C2.16138 4.39276 1.83887 6.05667 2.44531 7.49695Z" transform="translate(8 8)" fill="white"/>
</svg>
