<svg width="20" height="19" viewBox="0 0 20 19" fill="none" xmlns="http://www.w3.org/2000/svg">
<path fill-rule="evenodd" clip-rule="evenodd" d="M19.7393 2.42023L19.8042 2.4881C19.8745 2.60529 19.918 2.73193 19.916 2.86194C19.915 2.93274 19.9004 3.00446 19.8696 3.07617L18.0435 10.3369C18 10.5179 17.8696 10.6762 17.7173 10.7667C17.6089 10.8345 17.5 10.8345 17.3696 10.8119H5.63037L5.76074 11.5583C5.84766 12.1464 6.34766 12.5988 6.95654 12.5988H17.0654C17.4131 12.5988 17.6958 12.8929 17.6958 13.2548C17.6958 13.6166 17.4346 13.9107 17.0654 13.9107H6.97803C5.78271 13.9107 4.71729 12.9833 4.52197 11.7393L4.3042 10.3369C4.28271 10.2917 4.26074 10.2238 4.26074 10.1559L2.95654 1.99048C2.89111 1.60596 2.56543 1.31189 2.17383 1.31189H0.630371C0.453613 1.31189 0.293457 1.23572 0.178711 1.11316C0.0678711 0.994995 0 0.833679 0 0.655945C0 0.294067 0.260742 0 0.630371 0H2.15234C3.17383 0 4.04346 0.769043 4.1958 1.80951L4.26074 2.19403H19.2607C19.5 2.19403 19.6523 2.32977 19.7393 2.42023ZM16.9565 9.52264L18.478 3.55121H4.5L5.43457 9.52264H16.9565Z" transform="translate(0.043457)" fill="white"/>
<path fill-rule="evenodd" clip-rule="evenodd" d="M0 2.21667C0 0.995239 0.956543 0 2.13037 0C3.3042 0 4.26074 0.995239 4.26074 2.21667C4.26074 3.43811 3.3042 4.43335 2.13037 4.43335C0.956543 4.43335 0 3.43811 0 2.21667ZM2.95654 2.21667C2.95654 1.71906 2.60889 1.33453 2.13037 1.33453C1.65234 1.33453 1.28271 1.7417 1.28271 2.21667C1.28271 2.69165 1.65234 3.09882 2.10889 3.09882C2.56543 3.09882 2.95654 2.69165 2.95654 2.21667Z" transform="translate(5.06543 14.5441)" fill="white"/>
<path fill-rule="evenodd" clip-rule="evenodd" d="M0 2.21667C0 0.995239 0.956543 0 2.13037 0C3.3042 0 4.26074 1.01788 4.26074 2.23926C4.26074 3.46069 3.32617 4.45593 2.13037 4.45593C0.93457 4.45593 0 3.43811 0 2.21667ZM2.95605 2.21667C2.95605 1.71906 2.58691 1.33453 2.1084 1.33453C1.63037 1.33453 1.23877 1.7417 1.26074 2.21667C1.26074 2.69165 1.65186 3.09882 2.1084 3.09882C2.56494 3.09882 2.95605 2.69165 2.95605 2.21667Z" transform="translate(12.1089 14.5441)" fill="white"/>
</svg>
