<svg width="90" height="90" viewBox="0 0 90 90" fill="none" xmlns="http://www.w3.org/2000/svg">
<path fill-rule="evenodd" clip-rule="evenodd" d="M45 90C69.8528 90 90 69.8528 90 45C90 20.1472 69.8528 0 45 0C20.1472 0 0 20.1472 0 45C0 69.8528 20.1472 90 45 90Z" fill="url(#paint0_linear)"/>
<path fill-rule="evenodd" clip-rule="evenodd" d="M45 90C69.8528 90 90 69.8528 90 45C90 20.1472 69.8528 0 45 0C20.1472 0 0 20.1472 0 45C0 69.8528 20.1472 90 45 90Z" fill="black" fill-opacity="0.124321"/>
<path fill-rule="evenodd" clip-rule="evenodd" d="M1.81933 19.0942C2.37338 24.307 6.92137 28.4171 12.3357 28.4171C17.7507 28.4171 22.2994 24.3063 22.8527 19.0935C23.9685 18.3665 24.6713 17.1244 24.6713 15.768C24.6713 14.4345 23.9925 13.2119 22.9091 12.4806V10.3965C22.9091 4.66387 18.1659 0 12.3357 0C6.50548 0 1.76224 4.66387 1.76224 10.3965V12.4806C0.678814 13.2119 0 14.4345 0 15.768C0 17.1258 0.70278 18.3685 1.81933 19.0942ZM21.0285 16.9137L20.11 17.2325L20.0881 18.1904C19.9965 22.3012 16.5192 25.6454 12.3364 25.6454C8.15355 25.6454 4.67701 22.3012 4.58466 18.1904L4.56352 17.2318L3.64433 16.913C3.15161 16.7425 2.82031 16.283 2.82031 15.7687C2.82031 15.2953 3.10791 14.8788 3.53719 14.6812L3.73809 15.1324C9.89464 12.4834 15.5 12.4744 20.872 15.1033L21.0961 14.659C21.5487 14.8476 21.8525 15.2801 21.8525 15.7687C21.8525 16.2823 21.5219 16.7425 21.0285 16.9137ZM12.3359 2.77307C16.6111 2.77307 20.0897 6.19352 20.0897 10.3972V11.7432C15.1456 9.86833 10.0365 9.89814 4.58203 11.8263V10.3965C4.58203 6.19283 8.06069 2.77307 12.3359 2.77307Z" transform="translate(33.1152 18.6487)" fill="white"/>
<path fill-rule="evenodd" clip-rule="evenodd" d="M1.40745 3.17064C1.49838 3.17064 1.59143 3.16163 1.68447 3.14431C4.12905 2.66537 6.55459 2.64943 8.89343 3.09579C9.66318 3.2455 10.3984 2.75132 10.5464 2C10.6951 1.24799 10.1961 0.520231 9.43197 0.37468C6.73082 -0.141679 3.93943 -0.123659 1.13465 0.424583C0.371252 0.574293 -0.124289 1.30482 0.0272634 2.05545C0.160489 2.71459 0.749076 3.17064 1.40745 3.17064Z" transform="translate(40.166 24.8848)" fill="white"/>
<path fill-rule="evenodd" clip-rule="evenodd" d="M33.7215 2.56793L27.4902 0.0103965V0.0020793H24.6706V10.3986H13.3937V0.0020793H10.6496L10.6489 0L10.6439 0.0020793H10.5734V0.0311895L4.50851 2.57209C1.7277 3.73719 0 6.21433 0 9.03733V18.7158H2.81958V9.03733C2.81958 7.31913 3.86423 5.85531 5.61449 5.1227L6.34476 4.81704V10.3993H6.34406V18.7165H9.16364V13.1717H28.9007V18.7165H31.7203V10.3993V4.75189L32.6352 5.12755C34.3185 5.81857 35.2448 7.19853 35.2448 9.01307V18.7165H38.0643V9.01307C38.0643 6.09373 36.441 3.68452 33.7215 2.56793ZM9.16406 10.3986V3.63528L10.5739 3.04407V10.3979H9.16406V10.3986ZM28.9007 10.3986H27.4902V3.01501L28.9007 3.59375V10.3986Z" transform="translate(26.4199 47.0645)" fill="white"/>
<defs>
<linearGradient id="paint0_linear" x2="1" gradientUnits="userSpaceOnUse" gradientTransform="translate(90) scale(116.122) rotate(140.809)">
<stop stop-color="#1FAFFF"/>
<stop offset="1" stop-color="#4380FF"/>
</linearGradient>
</defs>
</svg>
