<svg width="40" height="40" viewBox="0 0 40 40" fill="none" xmlns="http://www.w3.org/2000/svg">
<path fill-rule="evenodd" clip-rule="evenodd" d="M14.8887 9.46667C14.8887 12.4889 12.4453 14.9333 9.42188 14.9333C7.28906 14.9333 5.37695 13.6888 4.48828 11.7333C4.44531 11.5555 0 0 0 0L11.2891 4.3111C13.4219 5.11108 14.8887 7.15558 14.8887 9.46667ZM10.7559 6.08893L3.11133 3.15558L6.08984 11.0222C6.66602 12.2667 7.95508 13.1111 9.37891 13.1111C11.3789 13.1111 13.0215 11.4667 13.0215 9.46667C13.0215 7.95557 12.1328 6.62225 10.7559 6.08893Z" transform="translate(10.5781 10.5333)" fill="#307CE0"/>
<path fill-rule="evenodd" clip-rule="evenodd" d="M1.5 3C2.32843 3 3 2.32843 3 1.5C3 0.671573 2.32843 0 1.5 0C0.671573 0 0 0.671573 0 1.5C0 2.32843 0.671573 3 1.5 3Z" transform="translate(18 18)" fill="#307CE0"/>
<path d="M20.3111 0V0H19.1111V7.28889H20.8889V1.86667C30.4889 2.35556 38.1778 10.2667 38.1778 20C38.1778 30.0444 30 38.1778 20 38.1778C10 38.1778 1.82222 30.0444 1.82222 20C1.82222 14.9778 3.86667 10.4444 7.15556 7.15556L5.86667 5.86667C2.22222 9.46667 0 14.4889 0 20C0 31.0667 8.93333 40 20 40C31.0667 40 40 31.0667 40 20C40 9.06667 31.2 0.177778 20.3111 0Z" fill="#307CE0"/>
</svg>
