<svg width="32" height="40" viewBox="0 0 32 40" fill="none" xmlns="http://www.w3.org/2000/svg">
<path fill-rule="evenodd" clip-rule="evenodd" d="M0 15.5C0 7 6.90039 0 15.5 0C24 0 31 7 31 15.5V28.8C31 29.4 30.5 29.8 30 29.8C29.5 29.8 29 29.4 29 28.8V15.5C29 8.09998 23 2 15.5 2C8 2 2 8.09998 2 15.5V31.8H9C9.30078 31.8 9.5 31.9 9.69922 32.1C9.90039 32.3 10 32.5 10 32.8V39C10 39.6 9.5 40 9 40H1C0.5 40 0 39.6 0 39V15.5ZM8 38V33.8H2V38H8Z" transform="translate(0.400391)" fill="#307CE0"/>
<path fill-rule="evenodd" clip-rule="evenodd" d="M15 23.8H22C22.5 23.8 23 24.2 23 24.8V31C23 31.6 22.5 32 22 32H14C13.7871 32 13.5742 31.9268 13.3984 31.796C13.1641 31.6212 13 31.3434 13 31V7.5C13 4.5 10.5 2 7.5 2C4.5 2 2 4.5 2 7.5V20.8C2 21.4 1.5 21.8 1 21.8C0.5 21.8 0 21.4 0 20.8V7.5C0 3.40002 3.40039 0 7.5 0C11.5996 0 15 3.40002 15 7.5V23.8ZM15 30H21V25.8H15V30Z" transform="translate(8.40039 8)" fill="#307CE0"/>
</svg>
