<svg width="23" height="18" viewBox="0 0 23 18" fill="none" xmlns="http://www.w3.org/2000/svg">
<path fill-rule="evenodd" clip-rule="evenodd" d="M2.94141 17.5884H20.0586C21.6836 17.5884 23 16.2759 23 14.6567V2.93115C23 1.92529 22.4922 1.0376 21.7168 0.509766C21.2441 0.187988 20.6738 0 20.0586 0H2.94141C1.31641 0 0 1.3125 0 2.93115V14.6567C0 16.2759 1.31641 17.5884 2.94141 17.5884ZM20.0586 15.9893H2.94336C2.20508 15.9893 1.60547 15.3931 1.60547 14.6567V7.44043L10.2793 11.499C10.748 11.7188 11.2617 11.8081 11.7676 11.7671C12.1133 11.7393 12.457 11.6499 12.7793 11.499L21.3965 7.46191V14.6567C21.3965 14.998 21.2676 15.3091 21.0566 15.5449C20.9355 15.6787 20.7891 15.7881 20.623 15.8647C20.4512 15.9448 20.2598 15.9893 20.0586 15.9893ZM20.0586 1.59912H2.94336C2.20508 1.59912 1.60547 2.1958 1.60547 2.93164V5.67383L10.9609 10.0522C11.3203 10.2207 11.7363 10.2207 12.0977 10.0522L21.3965 5.7002V2.93164C21.3965 2.1958 20.7969 1.59912 20.0586 1.59912Z" fill="#307CE0"/>
</svg>
