<svg width="19" height="19" viewBox="0 0 19 19" fill="none" xmlns="http://www.w3.org/2000/svg">
<path fill-rule="evenodd" clip-rule="evenodd" d="M9.5 0C4.26367 0 0 4.26392 0 9.5C0 14.7361 4.26367 19 9.5 19C14.7363 19 19 14.7361 19 9.5C19 4.24194 14.7363 0 9.5 0ZM9.5 17.6746C4.99414 17.6746 1.32617 14.0071 1.32617 9.5C1.32617 4.99316 4.99414 1.32568 9.5 1.32568C14.0078 1.32568 17.6758 4.99316 17.6758 9.5C17.6758 14.0291 14.0078 17.6746 9.5 17.6746ZM7.92969 13.2778C8.10742 13.2778 8.2832 13.2117 8.41602 13.1011L14.6465 6.82666C14.8906 6.56152 14.8906 6.18604 14.6465 5.9209C14.4043 5.65576 13.9844 5.65576 13.7188 5.89893L7.92969 11.6873L5.2793 9.03613C5.01367 8.79297 4.63867 8.79297 4.37305 9.03613C4.24023 9.15894 4.17383 9.3269 4.17188 9.49707C4.17188 9.66382 4.23242 9.83276 4.35156 9.96387L7.37891 12.9907C7.48828 13.1233 7.62109 13.2117 7.79883 13.2559C7.8418 13.2778 7.88672 13.2778 7.92969 13.2778Z" fill="#307CE0"/>
</svg>
