<?xml version="1.0" standalone="no"?>
<!DOCTYPE svg PUBLIC "-//W3C//DTD SVG 20010904//EN"
 "http://www.w3.org/TR/2001/REC-SVG-20010904/DTD/svg10.dtd">
<svg version="1.0" xmlns="http://www.w3.org/2000/svg"
 width="600.000000pt" height="600.000000pt" viewBox="0 0 600.000000 600.000000"
 preserveAspectRatio="xMidYMid meet">
<metadata>
Created by potrace 1.11, written by Peter Selinger 2001-2013
</metadata>
<g transform="translate(0.000000,600.000000) scale(0.100000,-0.100000)"
fill="#000000" stroke="none">
<path d="M862 5984 c-416 -76 -746 -391 -837 -799 -3 -11 -9 -42 -14 -70 -12
-61 -9 -4200 3 -4260 52 -258 194 -484 412 -654 106 -83 316 -169 464 -190 39
-6 907 -9 2150 -8 l2085 2 75 22 c246 70 416 177 562 353 111 135 203 335 226
493 9 68 9 4186 0 4254 -11 72 -54 206 -92 283 -32 63 -83 150 -95 160 -3 3
-18 21 -32 40 -124 167 -376 324 -584 364 -16 4 -41 10 -55 13 -14 4 -963 8
-2110 9 -1709 2 -2098 0 -2158 -12z"/>
</g>
</svg>
