<svg width="68" height="68" viewBox="0 0 68 68" fill="none" xmlns="http://www.w3.org/2000/svg">
<path d="M30.7261 43.3943H10.7528V45.6989H30.7261V43.3943ZM31.4943 48.3876H9.98465C9.13655 48.3876 8.44824 47.6993 8.44824 46.8512V42.242C8.44824 41.3939 9.13655 40.7056 9.98465 40.7056H31.4943C32.3424 40.7056 33.0307 41.3939 33.0307 42.242V46.8512C33.0307 47.6993 32.3424 48.3876 31.4943 48.3876Z" fill="white"/>
<path d="M30.7261 32.6399H10.7528V34.9445H30.7261V32.6399ZM31.4943 37.6332H9.98465C9.13655 37.6332 8.44824 36.9449 8.44824 36.0968V31.4876C8.44824 30.6395 9.13655 29.9512 9.98465 29.9512H31.4943C32.3424 29.9512 33.0307 30.6395 33.0307 31.4876V36.0968C33.0307 36.9449 32.3424 37.6332 31.4943 37.6332Z" fill="white"/>
<path d="M30.7261 21.8852H10.7528V24.1899H30.7261V21.8852ZM31.4943 26.8786H9.98465C9.13655 26.8786 8.44824 26.1902 8.44824 25.3422V20.7329C8.44824 19.8848 9.13655 19.1965 9.98465 19.1965H31.4943C32.3424 19.1965 33.0307 19.8848 33.0307 20.7329V25.3422C33.0307 26.1902 32.3424 26.8786 31.4943 26.8786Z" fill="white"/>
<path d="M59.1451 32.2557H56.8405V21.5007H52.2308V32.2557H43.0113V21.5007H38.4016V46.0832H43.0113V35.3285H59.144V47.6185C59.144 48.467 58.456 49.155 57.6077 49.155H49.9257V41.4732H52.2303V46.083H56.84V38.4012H45.317V49.1558H37.6352C36.7867 49.1558 36.0986 48.4678 36.0986 47.6193V19.9636C36.0986 19.1151 36.7867 18.427 37.6352 18.427H43.7807C44.6292 18.427 45.317 19.1151 45.317 19.9636V29.183H49.9267V19.9636C49.9267 19.1151 50.6145 18.427 51.4631 18.427H57.6088C58.4571 18.427 59.1451 19.1151 59.1451 19.9636V32.2557Z" fill="white"/>
<path d="M34 67.9973C15.2215 67.9973 0 52.775 0 33.9986C0 15.2212 15.2229 0 34 0C52.7785 0 68 15.2222 68 33.9986C68 52.7764 52.7771 68 34 68V67.9973ZM34 64.909C51.0436 64.909 64.9113 51.0438 64.9113 33.9989C64.9113 16.956 51.0447 3.08883 34 3.08883C16.9564 3.08883 3.08868 16.9541 3.08868 33.9989C3.08868 51.0418 16.9553 64.909 34 64.909Z" fill="white"/>
</svg>
