<svg xmlns="http://www.w3.org/2000/svg" viewBox="0 0 489.8 489.8"><path d="M244.9 0C109.4 0 0 109.4 0 244.9s109.4 244.9 244.9 244.9 244.9-109.4 244.9-244.9S380.4 0 244.9 0zm203.2 224.1h-70.3c-2.9-65.3-19-122.6-43.7-162.8 62.1 30.2 106.7 91.1 114 162.8zM224 46.6V224h-71.4C157 132.8 189.5 66.3 224 46.6zm0 219.1V443c-34.5-19.9-67-86.8-71.4-177.3H224zm41.7 177.5V265.7h71.4c-4.3 91.3-36.8 157.8-71.4 177.5zm0-219.1V46.7c34.5 19.9 67 86.8 71.4 177.3h-71.4v.1zM155.6 61.2c-24.7 40.3-40.8 97.5-43.7 162.8H41.7C49 152.4 93.6 91.5 155.6 61.2zM41.7 265.7H112c2.8 65.3 19 122.6 43.7 162.8-62.2-30.2-106.7-91.1-114-162.8zm292.5 162.9c24.7-40.3 40.8-97.5 43.7-162.8h70.3c-7.4 71.6-52 132.5-114 162.8z" fill="#0E2845"/></svg>