<svg width="1259" height="581" fill="none" xmlns="http://www.w3.org/2000/svg"><g opacity=".8"><path d="M251 391l-16.5 74.5-114-64.5L251 391z" fill="url(#paint0_linear)" fill-opacity=".06"/><path d="M274.5 246.5L251 391 120.5 288.5l154-42z" fill="url(#paint1_linear)" fill-opacity=".06"/><path d="M428 106.5l-154 139L308.5 113l119.5-6.5z" fill="url(#paint2_linear)" fill-opacity=".06"/><path d="M450 206.5l-69 140-107-100 176-40z" fill="url(#paint3_linear)" fill-opacity=".06"/><path d="M548.5 311L486 451.5l-105-105L548.5 311z" fill="url(#paint4_linear)" fill-opacity=".06"/><path d="M628 246l-79 65.5-98.5-105L628 246z" fill="url(#paint5_linear)" fill-opacity=".06"/><path d="M381 346.5l13 141-139.5-97 126.5-44z" fill="url(#paint6_linear)" fill-opacity=".06"/><path d="M274 245.5L87 196l97.5-73L274 245.5z" fill="url(#paint7_linear)" fill-opacity=".06"/><path d="M307 113l-122.5 9 31-109L307 113z" fill="url(#paint8_linear)" fill-opacity=".06"/><path d="M183.5 122L43 115.5 83.5 7l100 115z" fill="url(#paint9_linear)" fill-opacity=".06"/><path d="M120.5 288.5l-104-5.5L88 194.5l32.5 94z" fill="url(#paint10_linear)" fill-opacity=".06"/><path d="M159 527L6 466l113.5-65.5L159 527z" fill="url(#paint11_linear)" fill-opacity=".06"/><path d="M121 400L0 354l120.5-65.5.5 111.5z" fill="url(#paint12_linear)" fill-opacity=".06"/><path d="M332 560.5L234.5 466 394 487l-62 73.5z" fill="url(#paint13_linear)" fill-opacity=".06"/><g opacity=".7"><path d="M1015.38 217l16.34-74.5 112.92 64.5-129.26 10z" fill="url(#paint14_linear)" fill-opacity=".03"/><path d="M974.769 313l40.611-96 56.62 79-97.231 17z" fill="url(#paint15_linear)" fill-opacity=".06"/><path d="M962 365l13.5-51 84 44-97.5 7z" fill="url(#paint16_linear)" fill-opacity=".06"/><path d="M895.032 461.5L961.5 365l45.46 70-111.928 26.5z" fill="url(#paint17_linear)" fill-opacity=".06"/><path d="M874 334l12.613-72.5 86.67 50.5L874 334z" fill="url(#paint18_linear)" fill-opacity=".06"/><path d="M797.5 508l19.777-107.5 74.289 63.5-94.066 44z" fill="url(#paint19_linear)" fill-opacity=".06"/><path d="M831 401.5l43.5-69 83.5 33-127 36z" fill="url(#paint20_linear)" fill-opacity=".06"/><path d="M669.999 461.5l82.5-83 77 22-159.5 61z" fill="url(#paint21_linear)" fill-opacity=".06"/><path d="M754 378.5l47.5-97.5 70.5 51.5-118 46z" fill="url(#paint22_linear)" fill-opacity=".06"/><path d="M720.702 297l61.907-140.5 104.004 105L720.702 297z" fill="url(#paint23_linear)" fill-opacity=".03"/><path d="M666.999 460.5l-173.5-11 157.5-103 16 114z" fill="url(#paint24_linear)" fill-opacity=".06"/><path d="M627.593 245.5L640.965 141l78.746 150-92.118-45.5z" fill="url(#paint25_linear)" fill-opacity=".06"/><path d="M551.499 312l168.707-15.5 35.793 82-204.5-66.5z" fill="url(#paint26_linear)" fill-opacity=".03"/><path d="M451.281 205.5l-22.782-97 210.98 30-188.198 67z" fill="url(#paint27_linear)" fill-opacity=".06"/><path d="M428.5 107.5l-31-104h212l-181 104z" fill="url(#paint28_linear)" fill-opacity=".06"/><path d="M308 111.5L294.5 0l102 2.5-88.5 109z" fill="url(#paint29_linear)" fill-opacity=".06"/><path d="M886.613 261.5l-12.877-141 138.174 97-125.297 44z" fill="url(#paint30_linear)" fill-opacity=".03"/><path d="M1058.47 360l119.36 52-96.58 73-22.78-125z" fill="url(#paint31_linear)" fill-opacity=".06"/><path d="M1006.47 437.5l76.27 45.5-81.72 46 5.45-91.5z" fill="url(#paint32_linear)" fill-opacity=".06"/><path d="M1082.24 486l139.17 6.5-70.82 88.5-68.35-95z" fill="url(#paint33_linear)" fill-opacity=".03"/><path d="M1144.64 319.5l103.02 5.5-70.83 88.5-32.19-94z" fill="url(#paint34_linear)" fill-opacity=".03"/><path d="M1106.51 81l151.55 61-112.43 65.5L1106.51 81z" fill="url(#paint35_linear)" fill-opacity=".03"/><path d="M1076 247.5l113 47-128.5 63.5 15.5-110.5z" fill="url(#paint36_linear)" fill-opacity=".03"/><path d="M935.148 47.5l96.572 94.5-157.984-21 61.412-73.5z" fill="url(#paint37_linear)" fill-opacity=".03"/></g></g><defs><linearGradient id="paint0_linear" x1="185.75" y1="391" x2="185.75" y2="465.5" gradientUnits="userSpaceOnUse"><stop stop-color="#fff"/><stop offset="1" stop-color="#2F8CF0"/></linearGradient><linearGradient id="paint1_linear" x1="197.5" y1="246.5" x2="197.5" y2="391" gradientUnits="userSpaceOnUse"><stop stop-color="#fff"/><stop offset="1" stop-color="#2F8CF0"/></linearGradient><linearGradient id="paint2_linear" x1="351" y1="106.5" x2="351" y2="245.5" gradientUnits="userSpaceOnUse"><stop stop-color="#fff"/><stop offset="1" stop-color="#2F8CF0"/></linearGradient><linearGradient id="paint3_linear" x1="362" y1="206.5" x2="362" y2="346.5" gradientUnits="userSpaceOnUse"><stop stop-color="#fff"/><stop offset="1" stop-color="#2F8CF0"/></linearGradient><linearGradient id="paint4_linear" x1="464.75" y1="311" x2="464.75" y2="451.5" gradientUnits="userSpaceOnUse"><stop stop-color="#fff"/><stop offset="1" stop-color="#2F8CF0"/></linearGradient><linearGradient id="paint5_linear" x1="539.25" y1="206.5" x2="539.25" y2="311.5" gradientUnits="userSpaceOnUse"><stop stop-color="#fff"/><stop offset="1" stop-color="#2F8CF0"/></linearGradient><linearGradient id="paint6_linear" x1="324.25" y1="346.5" x2="324.25" y2="487.5" gradientUnits="userSpaceOnUse"><stop stop-color="#fff"/><stop offset="1" stop-color="#2F8CF0"/></linearGradient><linearGradient id="paint7_linear" x1="180.5" y1="123" x2="180.5" y2="245.5" gradientUnits="userSpaceOnUse"><stop stop-color="#fff"/><stop offset="1" stop-color="#2F8CF0"/></linearGradient><linearGradient id="paint8_linear" x1="245.75" y1="13" x2="245.75" y2="122" gradientUnits="userSpaceOnUse"><stop stop-color="#fff"/><stop offset="1" stop-color="#2F8CF0"/></linearGradient><linearGradient id="paint9_linear" x1="113.25" y1="27" x2="113.25" y2="122" gradientUnits="userSpaceOnUse"><stop stop-color="#fff"/><stop offset="1" stop-color="#2F8CF0"/></linearGradient><linearGradient id="paint10_linear" x1="68.5" y1="194.5" x2="68.5" y2="288.5" gradientUnits="userSpaceOnUse"><stop stop-color="#fff"/><stop offset="1" stop-color="#2F8CF0"/></linearGradient><linearGradient id="paint11_linear" x1="82.5" y1="400.5" x2="82.5" y2="527" gradientUnits="userSpaceOnUse"><stop stop-color="#fff"/><stop offset="1" stop-color="#2F8CF0"/></linearGradient><linearGradient id="paint12_linear" x1="60.5" y1="288.5" x2="60.5" y2="400" gradientUnits="userSpaceOnUse"><stop stop-color="#fff"/><stop offset="1" stop-color="#2F8CF0"/></linearGradient><linearGradient id="paint13_linear" x1="314.25" y1="466" x2="314.25" y2="560.5" gradientUnits="userSpaceOnUse"><stop stop-color="#fff"/><stop offset="1" stop-color="#2F8CF0"/></linearGradient><linearGradient id="paint14_linear" x1="1080.01" y1="217" x2="1080.01" y2="142.5" gradientUnits="userSpaceOnUse"><stop stop-color="#fff"/><stop offset="1" stop-color="#2F8CF0"/></linearGradient><linearGradient id="paint15_linear" x1="1068.37" y1="361.5" x2="1068.37" y2="217" gradientUnits="userSpaceOnUse"><stop stop-color="#fff"/><stop offset="1" stop-color="#2F8CF0"/></linearGradient><linearGradient id="paint16_linear" x1="1058.37" y1="424" x2="1058.37" y2="279.5" gradientUnits="userSpaceOnUse"><stop stop-color="#fff"/><stop offset="1" stop-color="#2F8CF0"/></linearGradient><linearGradient id="paint17_linear" x1="916.329" y1="501.5" x2="916.329" y2="362.5" gradientUnits="userSpaceOnUse"><stop stop-color="#fff"/><stop offset="1" stop-color="#2F8CF0"/></linearGradient><linearGradient id="paint18_linear" x1="905.433" y1="401.5" x2="905.433" y2="261.5" gradientUnits="userSpaceOnUse"><stop stop-color="#fff"/><stop offset="1" stop-color="#2F8CF0"/></linearGradient><linearGradient id="paint19_linear" x1="854.421" y1="547.5" x2="854.421" y2="407.5" gradientUnits="userSpaceOnUse"><stop stop-color="#fff"/><stop offset="1" stop-color="#2F8CF0"/></linearGradient><linearGradient id="paint20_linear" x1="913.855" y1="476.5" x2="913.855" y2="336.5" gradientUnits="userSpaceOnUse"><stop stop-color="#fff"/><stop offset="1" stop-color="#2F8CF0"/></linearGradient><linearGradient id="paint21_linear" x1="788.855" y1="522.5" x2="788.855" y2="382.5" gradientUnits="userSpaceOnUse"><stop stop-color="#fff"/><stop offset="1" stop-color="#2F8CF0"/></linearGradient><linearGradient id="paint22_linear" x1="836.855" y1="453.5" x2="836.855" y2="313.5" gradientUnits="userSpaceOnUse"><stop stop-color="#fff"/><stop offset="1" stop-color="#2F8CF0"/></linearGradient><linearGradient id="paint23_linear" x1="803.657" y1="297" x2="803.657" y2="156.5" gradientUnits="userSpaceOnUse"><stop stop-color="#fff"/><stop offset="1" stop-color="#2F8CF0"/></linearGradient><linearGradient id="paint24_linear" x1="590.696" y1="475" x2="590.696" y2="334.5" gradientUnits="userSpaceOnUse"><stop stop-color="#fff"/><stop offset="1" stop-color="#2F8CF0"/></linearGradient><linearGradient id="paint25_linear" x1="691.729" y1="270" x2="691.729" y2="129.5" gradientUnits="userSpaceOnUse"><stop stop-color="#fff"/><stop offset="1" stop-color="#2F8CF0"/></linearGradient><linearGradient id="paint26_linear" x1="729.864" y1="401.5" x2="729.864" y2="296.5" gradientUnits="userSpaceOnUse"><stop stop-color="#fff"/><stop offset="1" stop-color="#2F8CF0"/></linearGradient><linearGradient id="paint27_linear" x1="547.114" y1="205.5" x2="547.114" y2="100.5" gradientUnits="userSpaceOnUse"><stop stop-color="#fff"/><stop offset="1" stop-color="#2F8CF0"/></linearGradient><linearGradient id="paint28_linear" x1="525.634" y1="106.5" x2="525.634" y2="1.5" gradientUnits="userSpaceOnUse"><stop stop-color="#fff"/><stop offset="1" stop-color="#2F8CF0"/></linearGradient><linearGradient id="paint29_linear" x1="398.634" y1="115.5" x2="398.634" y2="10.5" gradientUnits="userSpaceOnUse"><stop stop-color="#fff"/><stop offset="1" stop-color="#2F8CF0"/></linearGradient><linearGradient id="paint30_linear" x1="942.825" y1="261.5" x2="942.825" y2="120.5" gradientUnits="userSpaceOnUse"><stop stop-color="#fff"/><stop offset="1" stop-color="#2F8CF0"/></linearGradient><linearGradient id="paint31_linear" x1="1085.21" y1="485" x2="1085.21" y2="362.5" gradientUnits="userSpaceOnUse"><stop stop-color="#fff"/><stop offset="1" stop-color="#2F8CF0"/></linearGradient><linearGradient id="paint32_linear" x1="1022.07" y1="592" x2="1022.07" y2="483" gradientUnits="userSpaceOnUse"><stop stop-color="#fff"/><stop offset="1" stop-color="#2F8CF0"/></linearGradient><linearGradient id="paint33_linear" x1="1151.82" y1="581" x2="1151.82" y2="486" gradientUnits="userSpaceOnUse"><stop stop-color="#fff"/><stop offset="1" stop-color="#2F8CF0"/></linearGradient><linearGradient id="paint34_linear" x1="1196.15" y1="413.5" x2="1196.15" y2="319.5" gradientUnits="userSpaceOnUse"><stop stop-color="#fff"/><stop offset="1" stop-color="#2F8CF0"/></linearGradient><linearGradient id="paint35_linear" x1="1182.28" y1="207.5" x2="1182.28" y2="81" gradientUnits="userSpaceOnUse"><stop stop-color="#fff"/><stop offset="1" stop-color="#2F8CF0"/></linearGradient><linearGradient id="paint36_linear" x1="1129.07" y1="360" x2="1129.07" y2="248.5" gradientUnits="userSpaceOnUse"><stop stop-color="#fff"/><stop offset="1" stop-color="#2F8CF0"/></linearGradient><linearGradient id="paint37_linear" x1="952.73" y1="142" x2="952.73" y2="47.5" gradientUnits="userSpaceOnUse"><stop stop-color="#fff"/><stop offset="1" stop-color="#2F8CF0"/></linearGradient></defs></svg>