<svg width="15" height="12" fill="none" xmlns="http://www.w3.org/2000/svg"><path d="M7.254 1.215v7.394c0 .29.467.29.467 0V1.215c0-.287-.467-.287-.467 0z" fill="#1E6DC0" stroke="#1E6DC0" stroke-width=".5"/><path d="M4.647 6.493c.78.677 1.562 1.358 2.346 2.036.112.096.22.191.333.287a.248.248 0 00.33 0C8.435 8.138 9.216 7.457 10 6.78l.333-.286c.224-.195-.109-.511-.33-.317-.78.678-1.561 1.359-2.345 2.037-.112.095-.221.19-.333.287h.33c-.781-.678-1.562-1.36-2.346-2.037l-.333-.287c-.221-.194-.554.122-.33.317z" fill="#1E6DC0" stroke="#1E6DC0" stroke-width=".5"/><path d="M1.004 7.862v1.875c0 .23-.01.46 0 .69.013.34.286.562.632.568 1.001.012 2.003 0 3.005 0h8.533c.09 0 .184.006.274-.01a.582.582 0 00.486-.558c.003-.077 0-.152 0-.23V7.865c0-.29-.467-.29-.467 0v1.792c0 .247.028.51 0 .758-.013.126-.097.132-.202.132H1.823c-.072 0-.153.009-.225 0-.18-.024-.124-.281-.124-.407V7.863c-.003-.287-.47-.29-.47 0z" fill="#1E6DC0" stroke="#1E6DC0" stroke-width=".5"/></svg>