<svg width="24" height="24" fill="none" xmlns="http://www.w3.org/2000/svg"><circle cx="12" cy="12" r="12" fill="#1C61AA"/><path d="M16.678 15.244l-3.009-3.002a.332.332 0 010-.484l3.009-3.002a1.045 1.045 0 00.02-1.488 1.003 1.003 0 00-1.438.073l-3.008 3.003a.335.335 0 01-.484 0L8.759 7.34a1.046 1.046 0 00-1.49-.02 1 1 0 00.073 1.435l3.008 3.002a.334.334 0 010 .484l-3.008 3.002a1.045 1.045 0 00-.02 1.488 1.003 1.003 0 001.437-.073l3.009-3.003a.335.335 0 01.484 0l3.008 3.003a1.003 1.003 0 001.438.073 1.044 1.044 0 00-.02-1.488z" fill="#fff"/></svg>