<svg width="197" height="30" viewBox="0 0 197 30" fill="none" xmlns="http://www.w3.org/2000/svg">
<path d="M72.4495 21.1029C71.6172 21.1279 70.7889 20.9726 70.016 20.6468C69.243 20.3209 68.5419 19.8314 67.9559 19.2086C67.3771 18.5839 66.9233 17.8433 66.6213 17.0305C66.3192 16.2178 66.1752 15.3496 66.1976 14.4772C66.1752 13.6047 66.3192 12.7365 66.6213 11.9238C66.9233 11.1111 67.3771 10.3704 67.9559 9.74572C68.5391 9.11841 69.2396 8.62538 70.0131 8.29784C70.7866 7.9703 71.6162 7.81537 72.4495 7.84287C73.2983 7.80665 74.1442 7.96845 74.9266 8.31667C75.7091 8.6649 76.4088 9.19094 76.9756 9.85715L77.3256 10.2772L75.6975 12.0772L75.2824 11.64C74.9153 11.235 74.4728 10.9141 73.9825 10.6973C73.4923 10.4805 72.9649 10.3725 72.4332 10.38C71.9415 10.3651 71.4524 10.4597 70.9979 10.6576C70.5434 10.8556 70.1337 11.1524 69.7957 11.5286C69.4386 11.9192 69.1602 12.3817 68.9769 12.8884C68.7937 13.395 68.7095 13.9354 68.7293 14.4772C68.7101 15.0175 68.7946 15.5564 68.9779 16.0616C69.1611 16.5668 69.4393 17.0278 69.7957 17.4172C70.1337 17.7934 70.5434 18.0902 70.9979 18.2881C71.4524 18.486 71.9415 18.5806 72.4332 18.5657C72.972 18.5708 73.5062 18.4602 74.0031 18.2406C74.5 18.021 74.9491 17.6971 75.3231 17.2886L75.7464 16.8429L77.3745 18.6857L77.0244 19.0886C76.4516 19.7607 75.7438 20.2902 74.9525 20.6386C74.1612 20.987 73.3062 21.1456 72.4495 21.1029Z" fill="#060D2C"/>
<path d="M87.6981 20.9141L82.9522 15.4455H81.9754V20.9141H79.4844V8.03125H81.9754V12.9513H82.9685L87.633 8.03125H90.9625L85.085 14.1598L90.9706 20.9141H87.6981Z" fill="#060D2C"/>
<path d="M60.9639 21.1027V10.517H54.8504V21.1027H52.3594V8.03125H63.4549V10.517V21.1027H60.9639Z" fill="#060D2C"/>
<path d="M32.7327 0.121094L26.6762 7.34681C26.7495 7.34681 26.8146 7.34681 26.896 7.34681C28.1187 7.34 29.3168 7.70842 30.3439 8.40703C31.3709 9.10565 32.1824 10.1042 32.6792 11.2806C33.1759 12.457 33.3364 13.7603 33.141 15.0313C32.9456 16.3022 32.4028 17.4856 31.5789 18.4369C30.755 19.3882 29.6858 20.0662 28.5018 20.3879C27.3179 20.7097 26.0706 20.6612 24.9124 20.2486C23.7542 19.8359 22.7352 19.0769 21.9801 18.0643C21.225 17.0517 20.7664 15.8294 20.6604 14.5468L14.5957 21.7897C15.7655 23.8175 17.3719 25.5271 19.2851 26.7806C21.1982 28.0341 23.3646 28.7961 25.6091 29.0053C27.8536 29.2145 30.1134 28.8648 32.2059 27.9847C34.2984 27.1045 36.165 25.7184 37.6549 23.9385C39.1447 22.1585 40.2161 20.0346 40.7825 17.7381C41.3488 15.4417 41.3943 13.0372 40.9152 10.7189C40.4361 8.40057 39.4458 6.23339 38.0244 4.3924C36.603 2.55142 34.7903 1.08826 32.7327 0.121094Z" fill="#FF6859"/>
<path d="M14.6533 21.7372C14.5719 21.7372 14.4905 21.7372 14.4091 21.7372C13.1835 21.7513 11.9808 21.3882 10.9485 20.6926C9.91616 19.9969 9.09927 18.999 8.59807 17.8214C8.09688 16.6437 7.93321 15.3376 8.12716 14.0634C8.32112 12.7891 8.86425 11.6023 9.68987 10.6485C10.5155 9.69478 11.5876 9.01566 12.7747 8.69455C13.9618 8.37344 15.212 8.42433 16.372 8.84096C17.532 9.25759 18.5512 10.0218 19.3044 11.0398C20.0576 12.0578 20.5122 13.2853 20.6121 14.5715L26.6849 7.32862C25.5194 5.29397 23.9151 3.57698 22.002 2.31676C20.0889 1.05654 17.9208 0.288527 15.6733 0.0749267C13.4257 -0.138674 11.1621 0.208149 9.06555 1.0873C6.96905 1.96645 5.0987 3.35321 3.606 5.13523C2.11331 6.91726 1.04025 9.04444 0.473759 11.3445C-0.0927363 13.6445 -0.13674 16.0527 0.345313 18.3739C0.827367 20.6952 1.82192 22.8643 3.24841 24.7054C4.6749 26.5466 6.49321 28.0081 8.55604 28.9715L14.6533 21.7372Z" fill="#361787"/>
<path d="M102.969 8.14325V12.0004H102.332V8.78354H100.434V12.0004H99.7969V8.14325H102.969Z" fill="#060D2C"/>
<path d="M105.962 8.04297C106.474 8.04297 106.912 8.24097 107.273 8.63697C107.634 9.02783 107.815 9.50611 107.815 10.0718C107.815 10.6375 107.634 11.1184 107.273 11.5144C106.912 11.9053 106.474 12.1007 105.962 12.1007C105.356 12.1007 104.894 11.8461 104.577 11.337V13.5433H103.939V8.14325H104.577V8.80668C104.894 8.29754 105.356 8.04297 105.962 8.04297ZM105.881 11.4527C106.247 11.4527 106.555 11.3215 106.804 11.0593C107.053 10.7918 107.178 10.4627 107.178 10.0718C107.178 9.68097 107.053 9.3544 106.804 9.09211C106.555 8.82468 106.247 8.69097 105.881 8.69097C105.51 8.69097 105.2 8.82468 104.951 9.09211C104.701 9.3544 104.577 9.68097 104.577 10.0718C104.577 10.4627 104.701 10.7918 104.951 11.0593C105.2 11.3215 105.51 11.4527 105.881 11.4527Z" fill="#060D2C"/>
<path d="M111.667 11.5144C111.291 11.9053 110.835 12.1007 110.297 12.1007C109.76 12.1007 109.303 11.9053 108.927 11.5144C108.556 11.1235 108.371 10.6427 108.371 10.0718C108.371 9.50097 108.556 9.02011 108.927 8.62925C109.303 8.2384 109.76 8.04297 110.297 8.04297C110.835 8.04297 111.291 8.2384 111.667 8.62925C112.044 9.02011 112.232 9.50097 112.232 10.0718C112.232 10.6427 112.044 11.1235 111.667 11.5144ZM110.297 11.445C110.664 11.445 110.971 11.3138 111.221 11.0515C111.47 10.7893 111.594 10.4627 111.594 10.0718C111.594 9.68097 111.47 9.3544 111.221 9.09211C110.971 8.82983 110.664 8.69868 110.297 8.69868C109.936 8.69868 109.631 8.82983 109.382 9.09211C109.133 9.3544 109.008 9.68097 109.008 10.0718C109.008 10.4627 109.133 10.7893 109.382 11.0515C109.631 11.3138 109.936 11.445 110.297 11.445Z" fill="#060D2C"/>
<path d="M115.643 8.14325H116.155V12.0004H115.525V9.29268L113.496 12.0004H112.983V8.14325H113.613V10.851L115.643 8.14325Z" fill="#060D2C"/>
<path d="M119.104 10.0255C119.509 10.2004 119.712 10.5064 119.712 10.9435C119.712 11.2675 119.59 11.5427 119.346 11.769C119.101 11.9901 118.755 12.1007 118.305 12.1007C117.573 12.1007 117.082 11.7921 116.833 11.175L117.367 10.8433C117.509 11.265 117.824 11.4758 118.313 11.4758C118.557 11.4758 118.745 11.4218 118.877 11.3138C119.013 11.2007 119.082 11.0567 119.082 10.8818C119.082 10.7275 119.026 10.6015 118.913 10.5038C118.806 10.4061 118.659 10.3573 118.474 10.3573H117.939V9.74783H118.335C118.52 9.74783 118.664 9.70154 118.767 9.60897C118.869 9.51125 118.921 9.38011 118.921 9.21554C118.921 9.05097 118.86 8.91725 118.737 8.8144C118.62 8.71154 118.457 8.66011 118.247 8.66011C117.836 8.66011 117.558 8.84268 117.411 9.20783L116.891 8.89154C117.15 8.32583 117.602 8.04297 118.247 8.04297C118.647 8.04297 118.962 8.15097 119.192 8.36697C119.426 8.58297 119.543 8.84783 119.543 9.16154C119.543 9.5524 119.397 9.8404 119.104 10.0255Z" fill="#060D2C"/>
<path d="M122.842 10.0178C123.218 10.1824 123.406 10.4807 123.406 10.9127C123.406 11.2315 123.304 11.4938 123.099 11.6995C122.898 11.9001 122.61 12.0004 122.234 12.0004H120.403V8.14325H122.088C122.454 8.14325 122.737 8.24097 122.937 8.4364C123.138 8.62668 123.238 8.87868 123.238 9.1924C123.238 9.56268 123.106 9.83783 122.842 10.0178ZM122.058 8.74497H121.025V9.75554H122.058C122.429 9.75554 122.615 9.58325 122.615 9.23868C122.615 8.90954 122.429 8.74497 122.058 8.74497ZM122.197 11.391C122.383 11.391 122.525 11.3447 122.622 11.2521C122.725 11.1595 122.776 11.0284 122.776 10.8587C122.776 10.6993 122.725 10.5758 122.622 10.4884C122.525 10.3958 122.383 10.3495 122.197 10.3495H121.025V11.391H122.197Z" fill="#060D2C"/>
<path d="M127.186 11.5144C126.81 11.9053 126.353 12.1007 125.816 12.1007C125.279 12.1007 124.822 11.9053 124.446 11.5144C124.075 11.1235 123.889 10.6427 123.889 10.0718C123.889 9.50097 124.075 9.02011 124.446 8.62925C124.822 8.2384 125.279 8.04297 125.816 8.04297C126.353 8.04297 126.81 8.2384 127.186 8.62925C127.562 9.02011 127.75 9.50097 127.75 10.0718C127.75 10.6427 127.562 11.1235 127.186 11.5144ZM125.816 11.445C126.182 11.445 126.49 11.3138 126.739 11.0515C126.988 10.7893 127.113 10.4627 127.113 10.0718C127.113 9.68097 126.988 9.3544 126.739 9.09211C126.49 8.82983 126.182 8.69868 125.816 8.69868C125.455 8.69868 125.149 8.82983 124.9 9.09211C124.651 9.3544 124.527 9.68097 124.527 10.0718C124.527 10.4627 124.651 10.7893 124.9 11.0515C125.149 11.3138 125.455 11.445 125.816 11.445Z" fill="#060D2C"/>
<path d="M131.509 11.3601H132.014V13.0341H131.384V12.0004H128.637V13.0341H128.007V11.3601H128.454C128.688 11.0207 128.805 10.545 128.805 9.93297V8.14325H131.509V11.3601ZM129.179 11.3601H130.879V8.76811H129.436V9.93297C129.436 10.509 129.35 10.9847 129.179 11.3601Z" fill="#060D2C"/>
<path d="M135.361 8.14325H135.874V12.0004H135.244V9.29268L133.214 12.0004H132.701V8.14325H133.332V10.851L135.361 8.14325Z" fill="#060D2C"/>
<path d="M140.507 8.14325V12.0004H139.885V9.20011L138.72 11.175H138.639L137.474 9.20011V12.0004H136.844V8.14325H137.525L138.676 10.095L139.826 8.14325H140.507Z" fill="#060D2C"/>
<path d="M145.034 12.1007C144.482 12.1007 144.023 11.9078 143.656 11.5221C143.29 11.1313 143.107 10.6478 143.107 10.0718C143.107 9.49583 143.29 9.01497 143.656 8.62925C144.023 8.2384 144.482 8.04297 145.034 8.04297C145.395 8.04297 145.72 8.13554 146.008 8.32068C146.296 8.50068 146.511 8.74497 146.653 9.05354L146.118 9.37754C146.025 9.17183 145.881 9.00725 145.686 8.88383C145.495 8.7604 145.278 8.69868 145.034 8.69868C144.667 8.69868 144.36 8.82983 144.111 9.09211C143.866 9.3544 143.744 9.68097 143.744 10.0718C143.744 10.4575 143.866 10.7815 144.111 11.0438C144.36 11.3061 144.667 11.4373 145.034 11.4373C145.278 11.4373 145.498 11.3781 145.693 11.2598C145.888 11.1364 146.037 10.9718 146.14 10.7661L146.682 11.0978C146.526 11.4013 146.301 11.6455 146.008 11.8307C145.715 12.0107 145.39 12.1007 145.034 12.1007Z" fill="#060D2C"/>
<path d="M149.978 8.14325H150.491V12.0004H149.861V9.29268L147.831 12.0004H147.319V8.14325H147.949V10.851L149.978 8.14325Z" fill="#060D2C"/>
<path d="M154.634 8.14325V12.0004H153.996V8.78354H152.099V12.0004H151.461V8.14325H154.634Z" fill="#060D2C"/>
<path d="M155.67 9.95611V9.30811H158.344V9.95611H155.67Z" fill="#060D2C"/>
<path d="M162.407 8.14325H163.045V12.0004H162.407V11.337C162.09 11.8461 161.628 12.1007 161.023 12.1007C160.51 12.1007 160.073 11.9053 159.711 11.5144C159.35 11.1184 159.169 10.6375 159.169 10.0718C159.169 9.50611 159.35 9.02783 159.711 8.63697C160.073 8.24097 160.51 8.04297 161.023 8.04297C161.628 8.04297 162.09 8.29754 162.407 8.80668V8.14325ZM161.103 11.4527C161.475 11.4527 161.785 11.3215 162.034 11.0593C162.283 10.7918 162.407 10.4627 162.407 10.0718C162.407 9.68097 162.283 9.3544 162.034 9.09211C161.785 8.82468 161.475 8.69097 161.103 8.69097C160.737 8.69097 160.429 8.82468 160.18 9.09211C159.931 9.3544 159.807 9.68097 159.807 10.0718C159.807 10.4627 159.931 10.7918 160.18 11.0593C160.429 11.3215 160.737 11.4527 161.103 11.4527Z" fill="#060D2C"/>
<path d="M166.033 8.04297C166.546 8.04297 166.983 8.24097 167.344 8.63697C167.706 9.02783 167.886 9.50611 167.886 10.0718C167.886 10.6375 167.706 11.1184 167.344 11.5144C166.983 11.9053 166.546 12.1007 166.033 12.1007C165.427 12.1007 164.965 11.8461 164.648 11.337V13.5433H164.011V8.14325H164.648V8.80668C164.965 8.29754 165.427 8.04297 166.033 8.04297ZM165.952 11.4527C166.318 11.4527 166.626 11.3215 166.875 11.0593C167.124 10.7918 167.249 10.4627 167.249 10.0718C167.249 9.68097 167.124 9.3544 166.875 9.09211C166.626 8.82468 166.318 8.69097 165.952 8.69097C165.581 8.69097 165.271 8.82468 165.022 9.09211C164.773 9.3544 164.648 9.68097 164.648 10.0718C164.648 10.4627 164.773 10.7918 165.022 11.0593C165.271 11.3215 165.581 11.4527 165.952 11.4527Z" fill="#060D2C"/>
<path d="M172.31 8.14325V12.0004H171.687V9.20011L170.522 11.175H170.442L169.277 9.20011V12.0004H168.647V8.14325H169.328L170.478 10.095L171.629 8.14325H172.31Z" fill="#060D2C"/>
<path d="M176.316 8.14325H176.954V12.0004H176.316V11.337C175.999 11.8461 175.537 12.1007 174.932 12.1007C174.419 12.1007 173.982 11.9053 173.62 11.5144C173.259 11.1184 173.078 10.6375 173.078 10.0718C173.078 9.50611 173.259 9.02783 173.62 8.63697C173.982 8.24097 174.419 8.04297 174.932 8.04297C175.537 8.04297 175.999 8.29754 176.316 8.80668V8.14325ZM175.012 11.4527C175.383 11.4527 175.694 11.3215 175.943 11.0593C176.192 10.7918 176.316 10.4627 176.316 10.0718C176.316 9.68097 176.192 9.3544 175.943 9.09211C175.694 8.82468 175.383 8.69097 175.012 8.69097C174.646 8.69097 174.338 8.82468 174.089 9.09211C173.84 9.3544 173.715 9.68097 173.715 10.0718C173.715 10.4627 173.84 10.7918 174.089 11.0593C174.338 11.3215 174.646 11.4527 175.012 11.4527Z" fill="#060D2C"/>
<path d="M180.645 8.14325V8.79125H179.399V12.0004H178.762V8.79125H177.509V8.14325H180.645Z" fill="#060D2C"/>
<path d="M183.782 8.14325H184.463L182.969 12.2395C182.812 12.6767 182.592 13.0084 182.309 13.2347C182.026 13.4661 181.704 13.569 181.342 13.5433V12.9184C181.791 12.9544 182.121 12.6973 182.331 12.147L182.39 12.0081L180.8 8.14325H181.474L182.727 11.1673L183.782 8.14325Z" fill="#060D2C"/>
<path d="M187.018 8.04297C187.53 8.04297 187.968 8.24097 188.329 8.63697C188.69 9.02783 188.871 9.50611 188.871 10.0718C188.871 10.6375 188.69 11.1184 188.329 11.5144C187.968 11.9053 187.53 12.1007 187.018 12.1007C186.412 12.1007 185.95 11.8461 185.633 11.337V13.5433H184.995V8.14325H185.633V8.80668C185.95 8.29754 186.412 8.04297 187.018 8.04297ZM186.937 11.4527C187.303 11.4527 187.611 11.3215 187.86 11.0593C188.109 10.7918 188.234 10.4627 188.234 10.0718C188.234 9.68097 188.109 9.3544 187.86 9.09211C187.611 8.82468 187.303 8.69097 186.937 8.69097C186.566 8.69097 186.256 8.82468 186.006 9.09211C185.757 9.3544 185.633 9.68097 185.633 10.0718C185.633 10.4627 185.757 10.7918 186.006 11.0593C186.256 11.3215 186.566 11.4527 186.937 11.4527Z" fill="#060D2C"/>
<path d="M192.046 8.14325H192.727L191.232 12.2395C191.076 12.6767 190.856 13.0084 190.573 13.2347C190.29 13.4661 189.967 13.569 189.606 13.5433V12.9184C190.055 12.9544 190.385 12.6973 190.595 12.147L190.654 12.0081L189.064 8.14325H189.738L190.991 11.1673L192.046 8.14325Z" fill="#060D2C"/>
<path d="M102.896 20.5718H102.105L100.434 18.7435V20.5718H99.7969V16.7147H100.434V18.4195L102.017 16.7147H102.837L101.086 18.5815L102.896 20.5718Z" fill="#060D2C"/>
<path d="M106.186 16.7147H106.823V20.5718H106.186V19.9084C105.868 20.4175 105.407 20.6721 104.801 20.6721C104.288 20.6721 103.851 20.4767 103.489 20.0858C103.128 19.6898 102.947 19.209 102.947 18.6433C102.947 18.0775 103.128 17.5993 103.489 17.2084C103.851 16.8124 104.288 16.6144 104.801 16.6144C105.407 16.6144 105.868 16.869 106.186 17.3781V16.7147ZM104.881 20.0241C105.253 20.0241 105.563 19.893 105.812 19.6307C106.061 19.3633 106.186 19.0341 106.186 18.6433C106.186 18.2524 106.061 17.9258 105.812 17.6635C105.563 17.3961 105.253 17.2624 104.881 17.2624C104.515 17.2624 104.207 17.3961 103.958 17.6635C103.709 17.9258 103.585 18.2524 103.585 18.6433C103.585 19.0341 103.709 19.3633 103.958 19.6307C104.207 19.893 104.515 20.0241 104.881 20.0241Z" fill="#060D2C"/>
<path d="M110.097 16.7147H110.734V20.5718H110.097V19.1833C109.803 19.317 109.474 19.3838 109.107 19.3838C108.639 19.3838 108.275 19.2681 108.016 19.0367C107.762 18.8001 107.635 18.453 107.635 17.9953V16.7147H108.272V17.9567C108.272 18.2447 108.346 18.4504 108.492 18.5738C108.643 18.6973 108.863 18.759 109.151 18.759C109.498 18.759 109.813 18.6921 110.097 18.5584V16.7147Z" fill="#060D2C"/>
<path d="M112.149 18.9518C112.213 19.2964 112.362 19.5638 112.596 19.7541C112.836 19.9444 113.129 20.0395 113.475 20.0395C113.959 20.0395 114.311 19.8518 114.53 19.4764L115.073 19.8004C114.716 20.3815 114.179 20.6721 113.461 20.6721C112.879 20.6721 112.406 20.4818 112.039 20.1013C111.678 19.7155 111.497 19.2295 111.497 18.6433C111.497 18.0621 111.675 17.5787 112.032 17.193C112.389 16.8073 112.85 16.6144 113.417 16.6144C113.954 16.6144 114.391 16.815 114.728 17.2161C115.07 17.6121 115.241 18.0904 115.241 18.651C115.241 18.7487 115.234 18.849 115.219 18.9518H112.149ZM113.417 17.247C113.075 17.247 112.792 17.3498 112.567 17.5555C112.342 17.7561 112.203 18.0261 112.149 18.3655H114.596C114.543 18.0004 114.406 17.7227 114.186 17.5324C113.966 17.3421 113.71 17.247 113.417 17.247Z" fill="#060D2C"/>
<path d="M117.688 20.6721C117.136 20.6721 116.677 20.4793 116.311 20.0935C115.945 19.7027 115.761 19.2193 115.761 18.6433C115.761 18.0673 115.945 17.5864 116.311 17.2007C116.677 16.8098 117.136 16.6144 117.688 16.6144C118.05 16.6144 118.375 16.707 118.663 16.8921C118.951 17.0721 119.166 17.3164 119.307 17.625L118.773 17.949C118.68 17.7433 118.536 17.5787 118.34 17.4553C118.15 17.3318 117.932 17.2701 117.688 17.2701C117.322 17.2701 117.014 17.4013 116.765 17.6635C116.521 17.9258 116.399 18.2524 116.399 18.6433C116.399 19.029 116.521 19.353 116.765 19.6153C117.014 19.8775 117.322 20.0087 117.688 20.0087C117.932 20.0087 118.152 19.9495 118.348 19.8313C118.543 19.7078 118.692 19.5433 118.795 19.3375L119.337 19.6693C119.18 19.9727 118.956 20.217 118.663 20.4021C118.37 20.5821 118.045 20.6721 117.688 20.6721Z" fill="#060D2C"/>
<path d="M122.634 16.7147V17.3627H121.389V20.5718H120.751V17.3627H119.499V16.7147H122.634Z" fill="#060D2C"/>
<path d="M125.633 18.5893C126.009 18.7538 126.197 19.0521 126.197 19.4841C126.197 19.803 126.094 20.0653 125.889 20.271C125.689 20.4715 125.401 20.5718 125.024 20.5718H123.193V16.7147H124.878C125.244 16.7147 125.528 16.8124 125.728 17.0078C125.928 17.1981 126.028 17.4501 126.028 17.7638C126.028 18.1341 125.896 18.4093 125.633 18.5893ZM124.849 17.3164H123.816V18.327H124.849C125.22 18.327 125.405 18.1547 125.405 17.8101C125.405 17.481 125.22 17.3164 124.849 17.3164ZM124.988 19.9624C125.173 19.9624 125.315 19.9161 125.413 19.8235C125.515 19.731 125.567 19.5998 125.567 19.4301C125.567 19.2707 125.515 19.1473 125.413 19.0598C125.315 18.9673 125.173 18.921 124.988 18.921H123.816V19.9624H124.988Z" fill="#060D2C"/>
<path d="M127.332 18.9518C127.395 19.2964 127.544 19.5638 127.779 19.7541C128.018 19.9444 128.311 20.0395 128.658 20.0395C129.141 20.0395 129.493 19.8518 129.713 19.4764L130.255 19.8004C129.898 20.3815 129.361 20.6721 128.643 20.6721C128.062 20.6721 127.588 20.4818 127.222 20.1013C126.86 19.7155 126.68 19.2295 126.68 18.6433C126.68 18.0621 126.858 17.5787 127.214 17.193C127.571 16.8073 128.033 16.6144 128.599 16.6144C129.136 16.6144 129.573 16.815 129.911 17.2161C130.252 17.6121 130.423 18.0904 130.423 18.651C130.423 18.7487 130.416 18.849 130.401 18.9518H127.332ZM128.599 17.247C128.257 17.247 127.974 17.3498 127.749 17.5555C127.525 17.7561 127.385 18.0261 127.332 18.3655H129.779C129.725 18.0004 129.588 17.7227 129.368 17.5324C129.149 17.3421 128.892 17.247 128.599 17.247Z" fill="#060D2C"/>
<path d="M133.691 16.7147H134.328V20.5718H133.691V18.9595H131.793V20.5718H131.156V16.7147H131.793V18.3193H133.691V16.7147Z" fill="#060D2C"/>
<path d="M137.834 16.7147H138.471V20.5718H137.834V18.9595H135.936V20.5718H135.299V16.7147H135.936V18.3193H137.834V16.7147Z" fill="#060D2C"/>
<path d="M142.533 20.0858C142.157 20.4767 141.7 20.6721 141.163 20.6721C140.626 20.6721 140.169 20.4767 139.793 20.0858C139.422 19.695 139.236 19.2141 139.236 18.6433C139.236 18.0724 139.422 17.5915 139.793 17.2007C140.169 16.8098 140.626 16.6144 141.163 16.6144C141.7 16.6144 142.157 16.8098 142.533 17.2007C142.909 17.5915 143.097 18.0724 143.097 18.6433C143.097 19.2141 142.909 19.695 142.533 20.0858ZM141.163 20.0164C141.529 20.0164 141.837 19.8853 142.086 19.623C142.335 19.3607 142.46 19.0341 142.46 18.6433C142.46 18.2524 142.335 17.9258 142.086 17.6635C141.837 17.4013 141.529 17.2701 141.163 17.2701C140.802 17.2701 140.496 17.4013 140.247 17.6635C139.998 17.9258 139.874 18.2524 139.874 18.6433C139.874 19.0341 139.998 19.3607 140.247 19.623C140.496 19.8853 140.802 20.0164 141.163 20.0164Z" fill="#060D2C"/>
</svg>
