<svg width="484" height="75" viewBox="0 0 484 75" fill="none" xmlns="http://www.w3.org/2000/svg">
<g clip-path="url(#clip0_644_138)">
<path d="M75.1571 6.43155L61.5141 22.488C61.6792 22.488 61.8259 22.488 62.0092 22.488C64.7635 22.4729 67.4624 23.2915 69.7759 24.8439C72.0895 26.3964 73.9175 28.6152 75.0365 31.2294C76.1555 33.8435 76.517 36.7397 76.0768 39.5638C75.6367 42.3879 74.4139 45.0177 72.558 47.1316C70.7021 49.2455 68.2935 50.752 65.6266 51.467C62.9597 52.1819 60.15 52.0743 57.541 51.1574C54.9319 50.2404 52.6366 48.5538 50.9356 46.3036C49.2346 44.0535 48.2016 41.3374 47.9628 38.4873L34.3015 54.5818C36.9366 59.0879 40.5551 62.887 44.8648 65.6723C49.1744 68.4576 54.0543 70.1511 59.1104 70.6159C64.1664 71.0807 69.2568 70.3037 73.9704 68.3479C78.6841 66.392 82.8887 63.3121 86.2448 59.3568C89.6008 55.4015 92.0142 50.6818 93.29 45.5788C94.5658 40.4759 94.6682 35.1328 93.589 29.9812C92.5097 24.8296 90.2791 20.0138 87.0772 15.9229C83.8754 11.832 79.792 8.58071 75.1571 6.43155Z" fill="#FF6859"/>
<path d="M32.9486 54.6794C32.7653 54.6794 32.5821 54.6794 32.3989 54.6794C29.6407 54.7107 26.9337 53.9043 24.6103 52.3593C22.287 50.8143 20.4485 48.5979 19.3204 45.9824C18.1924 43.3668 17.8241 40.4659 18.2606 37.6359C18.6971 34.8058 19.9195 32.1698 21.7777 30.0515C23.6359 27.9333 26.0489 26.4249 28.7206 25.7118C31.3922 24.9986 34.2062 25.1116 36.8169 26.0369C39.4276 26.9623 41.7214 28.6596 43.4166 30.9206C45.1119 33.1816 46.1348 35.9078 46.3598 38.7644L60.0275 22.678C57.4044 18.1591 53.7937 14.3457 49.4879 11.5467C45.1822 8.74777 40.3025 7.042 35.2442 6.5676C30.1858 6.09319 25.0911 6.86348 20.3726 8.81607C15.6541 10.7687 11.4446 13.8486 8.08506 17.8065C4.72554 21.7644 2.31047 26.4889 1.03549 31.5972C-0.239487 36.7055 -0.338523 42.0541 0.746408 47.2096C1.83134 52.3652 4.06973 57.1826 7.28025 61.2719C10.4908 65.3611 14.5831 68.607 19.2258 70.7468L32.9486 54.6794Z" fill="#4B369D"/>
<path d="M144.288 52.9182V25.6992H126.798V52.9182H119.671V19.3077H151.414V25.6992V52.9182H144.288Z" fill="#2D2C30"/>
<path d="M176.642 52.901C174.279 52.9643 171.927 52.5712 169.732 51.746C167.538 50.9208 165.547 49.6811 163.883 48.1038C162.239 46.5218 160.951 44.6461 160.093 42.5879C159.235 40.5298 158.826 38.3309 158.89 36.1215C158.826 33.9122 159.235 31.7133 160.093 29.6552C160.951 27.597 162.239 25.7213 163.883 24.1393C165.539 22.5507 167.528 21.3021 169.724 20.4726C171.92 19.6431 174.276 19.2507 176.642 19.3204C179.052 19.2287 181.454 19.6384 183.676 20.5203C185.898 21.4022 187.885 22.7343 189.494 24.4215L190.488 25.4851L185.865 30.0436L184.686 28.9366C183.644 27.9109 182.387 27.0982 180.995 26.5491C179.603 26.0001 178.106 25.7266 176.596 25.7456C175.2 25.7078 173.811 25.9474 172.521 26.4487C171.23 26.95 170.067 27.7016 169.107 28.6544C168.093 29.6436 167.302 30.8149 166.782 32.098C166.262 33.3811 166.022 34.7496 166.079 36.1215C166.024 37.49 166.264 38.8548 166.785 40.1341C167.305 41.4135 168.095 42.581 169.107 43.567C170.067 44.5198 171.23 45.2714 172.521 45.7727C173.811 46.274 175.2 46.5135 176.596 46.4758C178.126 46.4887 179.643 46.2085 181.054 45.6524C182.465 45.0963 183.74 44.276 184.802 43.2414L186.004 42.1127L190.627 46.7797L189.633 47.7999C188.006 49.5021 185.997 50.8429 183.75 51.7252C181.503 52.6076 179.075 53.0092 176.642 52.901Z" fill="#2D2C30"/>
<path d="M220.795 52.9183L207.68 38.6511H204.98V52.9183H198.096V19.3078H204.98V32.1437H207.725L220.615 19.3078H229.817L213.574 35.2968L229.839 52.9183H220.795Z" fill="#2D2C30"/>
<path d="M248.35 30.6166V20.898H252.86C253.997 20.898 254.89 21.1181 255.538 21.5582C256.198 21.986 256.528 22.5973 256.528 23.3919C256.528 24.1865 256.216 24.8038 255.593 25.2439C254.981 25.6717 254.169 25.8857 253.154 25.8857L253.429 25.4089C254.59 25.4089 255.452 25.6228 256.014 26.0507C256.577 26.4786 256.858 27.1081 256.858 27.9394C256.858 28.7829 256.54 29.443 255.904 29.9198C255.281 30.3843 254.321 30.6166 253.026 30.6166H248.35ZM250.073 29.2597H252.897C253.631 29.2597 254.181 29.1496 254.547 28.9296C254.914 28.6973 255.098 28.3306 255.098 27.8294C255.098 27.3159 254.926 26.9431 254.584 26.7108C254.254 26.4663 253.728 26.3441 253.007 26.3441H250.073V29.2597ZM250.073 25.0788H252.714C253.386 25.0788 253.893 24.9566 254.236 24.7121C254.59 24.4554 254.768 24.1009 254.768 23.6486C254.768 23.184 254.59 22.8356 254.236 22.6034C253.893 22.3711 253.386 22.255 252.714 22.255H250.073V25.0788ZM264.538 30.6166V20.898H273.541V30.6166H271.781V21.9983L272.202 22.4383H265.876L266.298 21.9983V30.6166H264.538ZM281.11 30.7266C280.132 30.7266 279.264 30.5127 278.506 30.0848C277.748 29.6569 277.149 29.0702 276.709 28.3245C276.269 27.5665 276.049 26.7108 276.049 25.7573C276.049 24.7916 276.269 23.9359 276.709 23.1902C277.149 22.4445 277.748 21.8638 278.506 21.4482C279.264 21.0203 280.132 20.8064 281.11 20.8064C282.075 20.8064 282.937 21.0203 283.695 21.4482C284.465 21.8638 285.064 22.4445 285.492 23.1902C285.932 23.9236 286.152 24.7793 286.152 25.7573C286.152 26.7231 285.932 27.5788 285.492 28.3245C285.064 29.0702 284.465 29.6569 283.695 30.0848C282.937 30.5127 282.075 30.7266 281.11 30.7266ZM281.11 29.1863C281.733 29.1863 282.289 29.0457 282.778 28.7646C283.28 28.4834 283.671 28.0861 283.952 27.5727C284.233 27.047 284.374 26.4419 284.374 25.7573C284.374 25.0605 284.233 24.4615 283.952 23.9603C283.671 23.4469 283.28 23.0496 282.778 22.7684C282.289 22.4872 281.733 22.3467 281.11 22.3467C280.486 22.3467 279.93 22.4872 279.441 22.7684C278.952 23.0496 278.561 23.4469 278.267 23.9603C277.974 24.4615 277.827 25.0605 277.827 25.7573C277.827 26.4419 277.974 27.047 278.267 27.5727C278.561 28.0861 278.952 28.4834 279.441 28.7646C279.93 29.0457 280.486 29.1863 281.11 29.1863ZM288.694 30.6166V20.898H290.455V27.9761L296.414 20.898H298.009V30.6166H296.249V23.5386L290.308 30.6166H288.694ZM305.662 30.7266C304.672 30.7266 303.786 30.5127 303.003 30.0848C302.233 29.6569 301.628 29.0702 301.188 28.3245C300.748 27.5788 300.528 26.7231 300.528 25.7573C300.528 24.7916 300.748 23.9359 301.188 23.1902C301.628 22.4445 302.233 21.8638 303.003 21.4482C303.786 21.0203 304.672 20.8064 305.662 20.8064C306.542 20.8064 307.325 20.9836 308.009 21.3381C308.706 21.6804 309.244 22.1938 309.623 22.8784L308.284 23.7403C307.966 23.2635 307.575 22.9151 307.111 22.6951C306.658 22.4628 306.169 22.3467 305.644 22.3467C305.008 22.3467 304.44 22.4872 303.938 22.7684C303.437 23.0496 303.04 23.4469 302.746 23.9603C302.453 24.4615 302.306 25.0605 302.306 25.7573C302.306 26.4541 302.453 27.0592 302.746 27.5727C303.04 28.0861 303.437 28.4834 303.938 28.7646C304.44 29.0457 305.008 29.1863 305.644 29.1863C306.169 29.1863 306.658 29.0763 307.111 28.8562C307.575 28.624 307.966 28.2695 308.284 27.7927L309.623 28.6362C309.244 29.3085 308.706 29.8281 308.009 30.1948C307.325 30.5493 306.542 30.7266 305.662 30.7266ZM318.943 30.6166L315.184 25.8857L316.633 25.0055L321.015 30.6166H318.943ZM311.902 30.6166V20.898H313.662V30.6166H311.902ZM313.13 26.5091V25.0055H316.339V26.5091H313.13ZM316.779 25.959L315.147 25.739L318.87 20.898H320.759L316.779 25.959ZM326.866 30.7266C325.827 30.7266 324.91 30.5127 324.116 30.0848C323.333 29.6569 322.722 29.0702 322.282 28.3245C321.854 27.5788 321.64 26.7231 321.64 25.7573C321.64 24.7916 321.848 23.9359 322.264 23.1902C322.691 22.4445 323.272 21.8638 324.006 21.4482C324.751 21.0203 325.589 20.8064 326.518 20.8064C327.459 20.8064 328.29 21.0142 329.012 21.4298C329.733 21.8454 330.295 22.4322 330.699 23.1902C331.114 23.9359 331.322 24.8099 331.322 25.8123C331.322 25.8857 331.316 25.9712 331.304 26.069C331.304 26.1668 331.298 26.2585 331.285 26.3441H323.015V25.0788H330.368L329.653 25.5189C329.666 24.8955 329.537 24.3393 329.268 23.8503C328.999 23.3613 328.626 22.9823 328.15 22.7134C327.685 22.4322 327.141 22.2916 326.518 22.2916C325.907 22.2916 325.363 22.4322 324.886 22.7134C324.409 22.9823 324.036 23.3674 323.767 23.8686C323.498 24.3576 323.364 24.9199 323.364 25.5556V25.849C323.364 26.4969 323.511 27.0776 323.804 27.591C324.11 28.0922 324.531 28.4834 325.069 28.7646C325.607 29.0457 326.224 29.1863 326.921 29.1863C327.496 29.1863 328.015 29.0885 328.48 28.8929C328.957 28.6973 329.372 28.4039 329.727 28.0127L330.699 29.1496C330.258 29.6631 329.708 30.0542 329.048 30.3232C328.4 30.5921 327.673 30.7266 326.866 30.7266ZM246.736 50.5982L246.846 49.113C246.932 49.1252 247.011 49.1374 247.084 49.1496C247.158 49.1619 247.225 49.168 247.286 49.168C247.677 49.168 247.983 49.0335 248.203 48.7646C248.435 48.4956 248.606 48.1411 248.716 47.701C248.826 47.2487 248.906 46.7414 248.955 46.1791C249.004 45.6167 249.04 45.0544 249.065 44.4921L249.23 40.898H256.693V50.6166H254.933V41.9249L255.354 42.4383H250.367L250.77 41.9066L250.642 44.6021C250.605 45.4578 250.538 46.2585 250.44 47.0042C250.342 47.7499 250.189 48.4039 249.982 48.9663C249.786 49.5286 249.511 49.9687 249.156 50.2865C248.814 50.6044 248.368 50.7633 247.818 50.7633C247.659 50.7633 247.488 50.7449 247.304 50.7083C247.133 50.6838 246.944 50.6471 246.736 50.5982ZM260.592 54.2839C260.127 54.2839 259.675 54.2045 259.235 54.0456C258.795 53.8989 258.416 53.6788 258.098 53.3854L258.85 52.0652C259.094 52.2975 259.363 52.4747 259.657 52.597C259.95 52.7192 260.262 52.7803 260.592 52.7803C261.02 52.7803 261.374 52.6703 261.655 52.4503C261.936 52.2302 262.199 51.839 262.444 51.2767L263.049 49.9381L263.232 49.7181L267.046 40.898H268.77L264.057 51.5884C263.776 52.273 263.458 52.8109 263.104 53.2021C262.762 53.5933 262.383 53.8683 261.967 54.0272C261.551 54.1984 261.093 54.2839 260.592 54.2839ZM262.902 50.9283L258.465 40.898H260.298L264.076 49.553L262.902 50.9283ZM276.697 46.6375C276.183 46.882 275.652 47.0776 275.102 47.2243C274.564 47.3587 274.007 47.426 273.433 47.426C272.259 47.426 271.33 47.1509 270.646 46.6008C269.973 46.0507 269.637 45.2011 269.637 44.052V40.898H271.397V43.942C271.397 44.6388 271.611 45.1522 272.039 45.4823C272.479 45.8123 273.066 45.9774 273.8 45.9774C274.264 45.9774 274.741 45.9162 275.23 45.794C275.731 45.6717 276.22 45.5006 276.697 45.2806V46.6375ZM276.568 50.6166V40.898H278.329V50.6166H276.568ZM288.201 49.0763L287.797 49.5347V40.898H289.558V49.5347L289.118 49.0763H294.252L293.83 49.5347V40.898H295.591V50.6166H281.746V40.898H283.507V49.5347L283.085 49.0763H288.201ZM299.009 50.6166V40.898H300.769V47.9761L306.729 40.898H308.324V50.6166H306.564V43.5386L300.622 50.6166H299.009ZM310.2 50.6166L314.381 45.1889L314.363 46.0874L310.384 40.898H312.346L315.39 44.8955H314.638L317.682 40.898H319.607L315.573 46.124L315.591 45.1889L319.809 50.6166H317.81L314.601 46.3624L315.316 46.4724L312.162 50.6166H310.2ZM331.738 50.7266C330.931 50.7266 330.192 50.5432 329.52 50.1765C328.859 49.7975 328.328 49.2413 327.924 48.5078C327.533 47.7744 327.337 46.8575 327.337 45.7573C327.337 44.6571 327.527 43.7403 327.906 43.0068C328.297 42.2733 328.823 41.7232 329.483 41.3565C330.155 40.9897 330.907 40.8064 331.738 40.8064C332.692 40.8064 333.535 41.0142 334.269 41.4298C335.002 41.8454 335.583 42.4261 336.011 43.1718C336.439 43.9053 336.653 44.7671 336.653 45.7573C336.653 46.7475 336.439 47.6154 336.011 48.3611C335.583 49.1068 335.002 49.6875 334.269 50.1031C333.535 50.5188 332.692 50.7266 331.738 50.7266ZM326.586 54.1739V40.898H328.273V43.5202L328.163 45.7756L328.346 48.0311V54.1739H326.586ZM331.592 49.1863C332.215 49.1863 332.771 49.0457 333.26 48.7646C333.761 48.4834 334.153 48.0861 334.434 47.5727C334.727 47.047 334.874 46.4419 334.874 45.7573C334.874 45.0605 334.727 44.4615 334.434 43.9603C334.153 43.4469 333.761 43.0496 333.26 42.7684C332.771 42.4872 332.215 42.3467 331.592 42.3467C330.98 42.3467 330.424 42.4872 329.923 42.7684C329.434 43.0496 329.043 43.4469 328.749 43.9603C328.468 44.4615 328.328 45.0605 328.328 45.7573C328.328 46.4419 328.468 47.047 328.749 47.5727C329.043 48.0861 329.434 48.4834 329.923 48.7646C330.424 49.0457 330.98 49.1863 331.592 49.1863ZM343.538 50.7266C342.499 50.7266 341.582 50.5127 340.787 50.0848C340.005 49.6569 339.394 49.0702 338.953 48.3245C338.526 47.5788 338.312 46.7231 338.312 45.7573C338.312 44.7916 338.519 43.9359 338.935 43.1902C339.363 42.4445 339.944 41.8638 340.677 41.4482C341.423 41.0203 342.26 40.8064 343.189 40.8064C344.131 40.8064 344.962 41.0142 345.683 41.4298C346.404 41.8454 346.967 42.4322 347.37 43.1902C347.786 43.9359 347.993 44.8099 347.993 45.8123C347.993 45.8857 347.987 45.9712 347.975 46.069C347.975 46.1668 347.969 46.2585 347.957 46.3441H339.687V45.0788H347.04L346.325 45.5189C346.337 44.8955 346.209 44.3393 345.94 43.8503C345.671 43.3613 345.298 42.9823 344.821 42.7134C344.357 42.4322 343.813 42.2916 343.189 42.2916C342.578 42.2916 342.034 42.4322 341.557 42.7134C341.081 42.9823 340.708 43.3674 340.439 43.8686C340.17 44.3576 340.035 44.9199 340.035 45.5556V45.849C340.035 46.4969 340.182 47.0776 340.475 47.591C340.781 48.0922 341.203 48.4834 341.741 48.7646C342.279 49.0457 342.896 49.1863 343.593 49.1863C344.167 49.1863 344.687 49.0885 345.151 48.8929C345.628 48.6973 346.044 48.4039 346.398 48.0127L347.37 49.1496C346.93 49.6631 346.38 50.0542 345.72 50.3232C345.072 50.5921 344.344 50.7266 343.538 50.7266ZM357.179 49.0763L356.776 49.5347V40.898H358.536V49.5347L358.096 49.0763H363.23L362.808 49.5347V40.898H364.569V50.6166H350.724V40.898H352.485V49.5347L352.063 49.0763H357.179ZM372.314 50.7266C371.275 50.7266 370.358 50.5127 369.564 50.0848C368.781 49.6569 368.17 49.0702 367.73 48.3245C367.302 47.5788 367.088 46.7231 367.088 45.7573C367.088 44.7916 367.296 43.9359 367.712 43.1902C368.14 42.4445 368.72 41.8638 369.454 41.4482C370.199 41.0203 371.037 40.8064 371.966 40.8064C372.907 40.8064 373.738 41.0142 374.46 41.4298C375.181 41.8454 375.743 42.4322 376.147 43.1902C376.562 43.9359 376.77 44.8099 376.77 45.8123C376.77 45.8857 376.764 45.9712 376.752 46.069C376.752 46.1668 376.746 46.2585 376.734 46.3441H368.464V45.0788H375.817L375.102 45.5189C375.114 44.8955 374.985 44.3393 374.716 43.8503C374.448 43.3613 374.075 42.9823 373.598 42.7134C373.133 42.4322 372.589 42.2916 371.966 42.2916C371.355 42.2916 370.811 42.4322 370.334 42.7134C369.857 42.9823 369.484 43.3674 369.215 43.8686C368.946 44.3576 368.812 44.9199 368.812 45.5556V45.849C368.812 46.4969 368.959 47.0776 369.252 47.591C369.558 48.0922 369.979 48.4834 370.517 48.7646C371.055 49.0457 371.673 49.1863 372.369 49.1863C372.944 49.1863 373.463 49.0885 373.928 48.8929C374.405 48.6973 374.82 48.4039 375.175 48.0127L376.147 49.1496C375.707 49.6631 375.157 50.0542 374.496 50.3232C373.849 50.5921 373.121 50.7266 372.314 50.7266ZM379.501 50.6166V40.898H381.261V45.0238H386.799V40.898H388.559V50.6166H386.799V46.5458H381.261V50.6166H379.501ZM391.982 50.6166V40.898H393.743V47.9761L399.702 40.898H401.297V50.6166H399.537V43.5386L393.596 50.6166H391.982ZM404.714 50.6166V40.898H406.475V47.9761L412.434 40.898H414.029V50.6166H412.269V43.5386L406.328 50.6166H404.714ZM409.262 39.6328C408.369 39.6328 407.666 39.4189 407.153 38.991C406.652 38.5509 406.395 37.9214 406.383 37.1023H407.575C407.587 37.5669 407.74 37.9336 408.033 38.2025C408.339 38.4715 408.742 38.6059 409.243 38.6059C409.745 38.6059 410.148 38.4715 410.454 38.2025C410.759 37.9336 410.918 37.5669 410.93 37.1023H412.159C412.147 37.9214 411.884 38.5509 411.371 38.991C410.857 39.4189 410.154 39.6328 409.262 39.6328Z" fill="#2D2C30"/>
</g>
<defs>
<clipPath id="clip0_644_138">
<rect width="484" height="75" fill="white"/>
</clipPath>
</defs>
</svg>
