<svg width="80" height="104" viewBox="0 0 80 104" fill="none" xmlns="http://www.w3.org/2000/svg">
<g id="Group 1171275961">
<g id="Group 1171275959">
<path id="Vector" d="M73.1113 103.056C69.9082 103.056 5.11133 103.056 5.11133 103.056C2.11133 103.056 0 101.056 0 97.779V7.88129C0.00378763 5.78973 0.840007 3.78513 2.3251 2.30751C3.81019 0.829894 5.82281 -3.40738e-06 7.92115 0H48.0417L79.1114 31.853C79.1114 31.853 79.1114 94.5018 79.1114 97.779C79.1114 101.056 76.3145 103.056 73.1113 103.056Z" fill="#361787"/>
<path id="Vector_2" d="M48.8906 26.666C48.9057 28.6214 49.5467 30.5125 50.7074 32.026C51.8681 33.5396 53.4788 34.5846 55.2725 34.9879L56.0316 35.1828C59.082 35.7526 79.1132 39.5612 79.1132 39.0664V32.064H55.8067C55.8067 32.064 49.9871 31.9141 48.8906 26.666Z" fill="#241746"/>
</g>
<g id="PDF">
<path d="M25.0698 67.7212H20.541V64.8647H25.0698C25.7697 64.8647 26.3394 64.7508 26.7788 64.5229C27.2183 64.2869 27.5397 63.9614 27.7432 63.5464C27.9466 63.1313 28.0483 62.6634 28.0483 62.1426C28.0483 61.6136 27.9466 61.1213 27.7432 60.6655C27.5397 60.2098 27.2183 59.8436 26.7788 59.5669C26.3394 59.2902 25.7697 59.1519 25.0698 59.1519H21.8105V74.0566H18.1484V56.2832H25.0698C26.4614 56.2832 27.6536 56.5355 28.6465 57.04C29.6475 57.5365 30.4124 58.2241 30.9414 59.103C31.4704 59.9819 31.7349 60.987 31.7349 62.1182C31.7349 63.2656 31.4704 64.2585 30.9414 65.0967C30.4124 65.9349 29.6475 66.5819 28.6465 67.0376C27.6536 67.4933 26.4614 67.7212 25.0698 67.7212Z" fill="white"/>
<path d="M39.7183 74.0566H35.8486L35.873 71.2002H39.7183C40.6785 71.2002 41.4883 70.9845 42.1475 70.5532C42.8066 70.1138 43.3031 69.4749 43.6367 68.6367C43.9785 67.7985 44.1494 66.7853 44.1494 65.5972V64.7305C44.1494 63.819 44.0518 63.0174 43.8564 62.3257C43.6693 61.634 43.3885 61.0521 43.0142 60.5801C42.6398 60.1081 42.18 59.7541 41.6348 59.5181C41.0895 59.2739 40.4629 59.1519 39.7549 59.1519H35.7754V56.2832H39.7549C40.943 56.2832 42.0295 56.4867 43.0142 56.8936C44.007 57.2923 44.8656 57.866 45.5898 58.6147C46.3141 59.3634 46.8716 60.2586 47.2622 61.3003C47.661 62.3338 47.8604 63.4854 47.8604 64.7549V65.5972C47.8604 66.8586 47.661 68.0101 47.2622 69.0518C46.8716 70.0934 46.3141 70.9886 45.5898 71.7373C44.8737 72.4779 44.0151 73.0516 43.0142 73.4585C42.0213 73.8573 40.9227 74.0566 39.7183 74.0566ZM37.9238 56.2832V74.0566H34.2617V56.2832H37.9238Z" fill="white"/>
<path d="M54.1836 56.2832V74.0566H50.5215V56.2832H54.1836ZM61.2637 63.876V66.7324H53.1826V63.876H61.2637ZM62.1182 56.2832V59.1519H53.1826V56.2832H62.1182Z" fill="white"/>
</g>
</g>
</svg>
