<svg width="320" height="477" viewBox="0 0 320 477" fill="none" xmlns="http://www.w3.org/2000/svg">
<g filter="url(#filter0_f_466_38777)">
<path d="M-25.5713 496.942C347.718 494.423 -78.0571 147.47 -33.8587 -21.9138L724.881 -25.7695C736.591 -21.9138 750.447 -34.6464 760.557 -21.9138L750.481 496.942H-25.5713C-28.2912 496.961 -31.0535 496.961 -33.8587 496.942H-25.5713Z" fill="url(#paint0_linear_466_38777)"/>
</g>
<path d="M627.403 593.006C216.381 589.043 11.5727 43.0957 -35.9581 -223.437L-224.53 -234C-230.939 -215.567 -213.657 -148.404 -224.53 -128.369L-207.057 593.006H627.403C630.398 593.035 633.404 593.035 636.42 593.006H627.403Z" fill="url(#paint1_linear_466_38777)"/>
<g opacity="0.6" filter="url(#filter1_f_466_38777)">
<ellipse rx="180.207" ry="139.377" transform="matrix(0.658347 0.752715 -0.149681 0.988734 548.651 360.548)" fill="#61279C"/>
</g>
<defs>
<filter id="filter0_f_466_38777" x="-39.1226" y="-29.7278" width="801.68" height="528.684" filterUnits="userSpaceOnUse" color-interpolation-filters="sRGB">
<feFlood flood-opacity="0" result="BackgroundImageFix"/>
<feBlend mode="normal" in="SourceGraphic" in2="BackgroundImageFix" result="shape"/>
<feGaussianBlur stdDeviation="1" result="effect1_foregroundBlur_466_38777"/>
</filter>
<filter id="filter1_f_466_38777" x="188.171" y="-72.817" width="720.958" height="866.731" filterUnits="userSpaceOnUse" color-interpolation-filters="sRGB">
<feFlood flood-opacity="0" result="BackgroundImageFix"/>
<feBlend mode="normal" in="SourceGraphic" in2="BackgroundImageFix" result="shape"/>
<feGaussianBlur stdDeviation="120" result="effect1_foregroundBlur_466_38777"/>
</filter>
<linearGradient id="paint0_linear_466_38777" x1="650.975" y1="-21.9142" x2="123.64" y2="314.598" gradientUnits="userSpaceOnUse">
<stop offset="0.0321855" stop-color="#8F2F2E"/>
<stop offset="0.232292" stop-color="#EC6261"/>
<stop offset="1" stop-color="#371888"/>
</linearGradient>
<linearGradient id="paint1_linear_466_38777" x1="-100.048" y1="-223.437" x2="531.033" y2="41.1176" gradientUnits="userSpaceOnUse">
<stop offset="0.0321855" stop-color="#EC6261"/>
<stop offset="0.273958" stop-color="#EC6261"/>
<stop offset="0.813646" stop-color="#371888"/>
</linearGradient>
</defs>
</svg>
