<svg width="24" height="24" viewBox="0 0 24 24" fill="none" xmlns="http://www.w3.org/2000/svg">
<g id="Icon" clip-path="url(#clip0_1667_55590)">
<path id="Vector" d="M23.5216 6.18492C23.3859 5.67434 23.1185 5.20834 22.7462 4.83358C22.3738 4.45881 21.9095 4.18842 21.3998 4.04947C19.5234 3.54492 12.0234 3.54492 12.0234 3.54492C12.0234 3.54492 4.52344 3.54492 2.64707 4.04947C2.13737 4.18842 1.6731 4.45881 1.30073 4.83358C0.928354 5.20834 0.660943 5.67434 0.525256 6.18492C0.0234376 8.06947 0.0234375 11.9995 0.0234375 11.9995C0.0234375 11.9995 0.0234376 15.9295 0.525256 17.814C0.660943 18.3246 0.928354 18.7906 1.30073 19.1654C1.6731 19.5401 2.13737 19.8105 2.64707 19.9495C4.52344 20.454 12.0234 20.454 12.0234 20.454C12.0234 20.454 19.5234 20.454 21.3998 19.9495C21.9095 19.8105 22.3738 19.5401 22.7462 19.1654C23.1185 18.7906 23.3859 18.3246 23.5216 17.814C24.0234 15.9295 24.0234 11.9995 24.0234 11.9995C24.0234 11.9995 24.0234 8.06947 23.5216 6.18492Z" fill="#D71B1B"/>
<path id="Vector_2" d="M9.56836 15.5689V8.43164L15.8411 12.0003L9.56836 15.5689Z" fill="#FEFEFE"/>
</g>
<defs>
<clipPath id="clip0_1667_55590">
<rect width="24" height="24" fill="white"/>
</clipPath>
</defs>
</svg>
