<svg width="35" height="49" viewBox="0 0 35 49" fill="none" xmlns="http://www.w3.org/2000/svg">
<path d="M2.0625 47C0.928125 47 0 46.0804 0 44.9565V2.04348C0 0.919565 0.928125 0 2.0625 0H29.5969C30.7312 0 31.6594 0.919565 31.6594 2.04348V44.9565C31.6594 46.0804 30.7312 47 29.5969 47H2.0625Z" transform="translate(1.72266 1)" stroke="#307CE0" stroke-width="2"/>
<path d="M5.15625 0H0" transform="translate(14.9219 6.31299)" stroke="#307CE0" stroke-width="2"/>
<path d="M0 12.6696V0" transform="translate(20.2852 19.2892)" stroke="#307CE0" stroke-width="2"/>
<path d="M0 21.3543V0" transform="translate(25.957 10.6044)" stroke="#307CE0" stroke-width="2"/>
<path d="M0 16.5522V0" transform="translate(14.7148 15.4065)" stroke="#307CE0" stroke-width="2"/>
<path d="M0 10.8304V0" transform="translate(9.04297 21.1283)" stroke="#307CE0" stroke-width="2"/>
<path d="M3.19688 6.33478C4.96246 6.33478 6.39375 4.91669 6.39375 3.16739C6.39375 1.41809 4.96246 0 3.19688 0C1.43129 0 0 1.41809 0 3.16739C0 4.91669 1.43129 6.33478 3.19688 6.33478Z" transform="translate(14.3027 36.6587)" stroke="#307CE0" stroke-width="2"/>
</svg>
