<svg width="39" height="39" viewBox="0 0 39 39" fill="none" xmlns="http://www.w3.org/2000/svg">
<path fill-rule="evenodd" clip-rule="evenodd" d="M19.5 0L0 14.11V39H39V14.11L19.5 0ZM37.3047 37.313H20.3477V28.8781H21.1953C23.5312 28.8781 25.4336 26.9868 25.4336 24.6605V20.443H23.7383V14.5386H22.043V20.443H16.957V14.5386H15.2598V20.443H13.5645V24.6605C13.5645 26.9868 15.4668 28.8781 17.8047 28.8781H18.6523V37.313H1.69531V14.9688L19.5 2.08679L37.3047 14.9703V37.313ZM23.7402 24.6605V22.13H15.2617V24.6605C15.2617 26.0574 16.4023 27.191 17.8047 27.191H21.1973C22.5996 27.191 23.7402 26.0574 23.7402 24.6605Z" fill="url(#paint0_linear)"/>
<path fill-rule="evenodd" clip-rule="evenodd" d="M19.5 0L0 14.11V39H39V14.11L19.5 0ZM37.3047 37.313H20.3477V28.8781H21.1953C23.5312 28.8781 25.4336 26.9868 25.4336 24.6605V20.443H23.7383V14.5386H22.043V20.443H16.957V14.5386H15.2598V20.443H13.5645V24.6605C13.5645 26.9868 15.4668 28.8781 17.8047 28.8781H18.6523V37.313H1.69531V14.9688L19.5 2.08679L37.3047 14.9703V37.313ZM23.7402 24.6605V22.13H15.2617V24.6605C15.2617 26.0574 16.4023 27.191 17.8047 27.191H21.1973C22.5996 27.191 23.7402 26.0574 23.7402 24.6605Z" fill="black" fill-opacity="0.124321"/>
<defs>
<linearGradient id="paint0_linear" x2="1" gradientUnits="userSpaceOnUse" gradientTransform="translate(39) scale(50.3195) rotate(140.809)">
<stop stop-color="#089BEE"/>
<stop offset="1" stop-color="#4380FF"/>
</linearGradient>
</defs>
</svg>
