<svg width="38" height="47" viewBox="0 0 38 47" fill="none" xmlns="http://www.w3.org/2000/svg">
<path d="M0.85 3.32636C0.85 1.77413 1.82991 0.85 2.65991 0.85H34.5788C35.4088 0.85 36.3887 1.77413 36.3887 3.32636V43.2427C36.3887 44.7949 35.4088 45.7191 34.5788 45.7191H2.65991C1.82991 45.7191 0.85 44.7949 0.85 43.2427V3.32636Z" transform="translate(0.015625 0.210815)" stroke="#307CE0" stroke-width="1.7"/>
<path d="M0.85 2.78388C0.85 2.1829 1.03437 1.66991 1.29215 1.3262C1.54998 0.98243 1.84044 0.85 2.08791 0.85H27.1429C27.3903 0.85 27.6808 0.98243 27.9386 1.3262C28.1964 1.66991 28.3808 2.1829 28.3808 2.78388V36.1905C28.3808 36.7915 28.1964 37.3045 27.9386 37.6482C27.6808 37.9919 27.3903 38.1244 27.1429 38.1244H2.08791C1.84044 38.1244 1.54998 37.9919 1.29215 37.6482C1.03437 37.3045 0.85 36.7915 0.85 36.1905V2.78388Z" transform="translate(3.89648 3.89746)" stroke="#307CE0" stroke-width="1.7"/>
<path fill-rule="evenodd" clip-rule="evenodd" d="M0.279297 19.403C0.373047 19.4597 0.478516 19.4872 0.583984 19.4872C0.75 19.4872 0.914062 19.4185 1.0293 19.2866L11.5508 7.25037C11.7012 7.08069 11.7344 6.84167 11.6387 6.63831C11.543 6.4353 11.3359 6.30469 11.1074 6.30469H7.49609L11.0176 0.880981C11.1309 0.704346 11.1387 0.480835 11.0352 0.297485C10.9336 0.114014 10.7363 0 10.5234 0H5.8457C5.7168 0 5.59375 0.0419922 5.49414 0.115967C5.43164 0.16272 5.37891 0.222412 5.33789 0.292358L0.0761719 9.46277C-0.0273438 9.63989 -0.0253906 9.85706 0.0800781 10.0331C0.185547 10.209 0.376953 10.3168 0.583984 10.3168H3.58594L0.0449219 18.6945C-0.0390625 18.8934 -0.00195312 19.1157 0.130859 19.2755C0.171875 19.3247 0.220703 19.368 0.279297 19.403ZM4.46094 9.17053H1.58398L6.1875 1.14636H9.45898L5.9375 6.57007C5.82227 6.74658 5.81641 6.97021 5.91797 7.15356C6.02148 7.33704 6.2168 7.45105 6.42969 7.45105H9.83594L2.53125 15.807L5.00195 9.96313C5.07617 9.78601 5.05469 9.58484 4.94727 9.42493C4.83789 9.26624 4.65625 9.17053 4.46094 9.17053Z" transform="translate(13.6406 13.641)" fill="#307CE0" stroke="#307CE0" stroke-width="0.3"/>
</svg>
