<svg width="41" height="41" viewBox="0 0 41 41" fill="none" xmlns="http://www.w3.org/2000/svg">
<path fill-rule="evenodd" clip-rule="evenodd" d="M1.70898 27.3333H30.75C31.6895 27.3333 32.459 26.5646 32.459 25.6251V0H0V25.6251C0 26.5646 0.769531 27.3333 1.70898 27.3333ZM1.70898 25.6249V1.70831H30.75V25.6249H1.70898Z" transform="translate(4.27148 13.6667)" fill="#307CE0"/>
<path fill-rule="evenodd" clip-rule="evenodd" d="M1.70898 8.32812H39.291C40.2305 8.32812 41 7.64478 41 6.79065V4.05731C41 3.20312 40.3164 2.51978 39.377 2.51978L22.6348 0.128113C21.7031 0.0185547 20.8066 -0.020752 19.9004 0.0101929C19.3945 0.0275269 18.8848 0.0668335 18.3652 0.128113L1.62305 2.51978C0.769531 2.51978 0 3.20312 0 4.05731V6.79065C0 7.64478 0.769531 8.32812 1.70898 8.32812ZM39.293 6.61975H1.70898V4.22809L18.6211 1.83643C19.9023 1.66559 21.0977 1.66559 22.3789 1.83643L39.207 4.22809H39.293V6.61975Z" transform="translate(0 7.04688)" fill="#307CE0"/>
<path fill-rule="evenodd" clip-rule="evenodd" d="M0.255859 10.5917C0.427734 10.6771 0.683594 10.7625 0.853516 10.7625H0.939453L3.50195 10.4208C3.92969 10.3354 4.27148 9.99377 4.27148 9.56665V2.30627C4.27148 1.02502 3.33203 0 2.13477 0C0.939453 0 0 1.02502 0 2.30627V9.90833C0 10.1646 0.0859375 10.4208 0.255859 10.5917ZM1.82031 1.93176C1.91016 1.79376 2.03711 1.70831 2.13672 1.70831C2.30664 1.70831 2.5625 1.96454 2.5625 2.30621V8.8833L1.70898 8.96875V2.30621C1.70898 2.16187 1.75391 2.03271 1.82031 1.93176Z" transform="translate(4.27148)" fill="#307CE0"/>
<path d="M8.54167 1.70833H0.854167C0.341667 1.70833 0 1.36667 0 0.854167C0 0.341667 0.341667 0 0.854167 0H8.54167C9.05417 0 9.39583 0.341667 9.39583 0.854167C9.39583 1.36667 9.05417 1.70833 8.54167 1.70833Z" transform="translate(1.70898 2.5625)" fill="#307CE0"/>
<path d="M8.54167 1.70833H0.854167C0.341667 1.70833 0 1.36667 0 0.854167C0 0.341667 0.341667 0 0.854167 0H8.54167C9.05417 0 9.39583 0.341667 9.39583 0.854167C9.39583 1.36667 9.05417 1.70833 8.54167 1.70833Z" transform="translate(1.70898 5.97919)" fill="#307CE0"/>
<path fill-rule="evenodd" clip-rule="evenodd" d="M3.33203 10.7625H3.41602C3.58789 10.7625 3.84375 10.7625 4.01367 10.5917C4.18555 10.4208 4.27148 10.1646 4.27148 9.90833V2.30627C4.27148 1.02502 3.33203 0 2.13477 0C0.939453 0 0 1.02502 0 2.30627V9.56665C0 9.99377 0.341797 10.3354 0.769531 10.4208L3.33203 10.7625ZM2.5625 2.30621V8.8833L1.70898 8.79791V2.30621C1.70898 2.11072 1.79297 1.94318 1.89648 1.83563C1.97461 1.75519 2.0625 1.70831 2.13672 1.70831C2.30664 1.70831 2.5625 1.96454 2.5625 2.30621Z" transform="translate(32.459)" fill="#307CE0"/>
<path d="M8.54167 1.70833H0.854167C0.341667 1.70833 0 1.36667 0 0.854167C0 0.341667 0.341667 0 0.854167 0H8.54167C9.05417 0 9.39583 0.341667 9.39583 0.854167C9.39583 1.36667 9.05417 1.70833 8.54167 1.70833Z" transform="translate(29.8965 2.5625)" fill="#307CE0"/>
<path d="M8.54167 1.70833H0.854167C0.341667 1.70833 0 1.36667 0 0.854167C0 0.341667 0.341667 0 0.854167 0H8.54167C9.05417 0 9.39583 0.341667 9.39583 0.854167C9.39583 1.36667 9.05417 1.70833 8.54167 1.70833Z" transform="translate(29.8965 5.97919)" fill="#307CE0"/>
</svg>
