<svg width="50" height="45" viewBox="0 0 50 45" fill="none" xmlns="http://www.w3.org/2000/svg">
<path d="M10.9137 1.36546C11.262 1.36546 11.6104 1.02409 11.6104 0.682729C11.6104 0.227576 11.262 0 10.9137 0H0.696621C0.348311 0 0 0.341364 0 0.682729V8.42032C0 8.87547 0.348311 9.10305 0.696621 9.10305H12.7714C13.1197 9.10305 13.468 8.76168 13.468 8.42032C13.468 7.96517 13.1197 7.73759 12.7714 7.73759H1.39324V1.47925H10.9137V1.36546Z" transform="translate(11.4531 20.6853)" fill="#307CE0"/>
<path d="M10.9137 1.36546C11.262 1.36546 11.6104 1.02409 11.6104 0.682729C11.6104 0.227576 11.262 0 10.9137 0H0.696621C0.348311 0 0 0.341364 0 0.682729V8.42032C0 8.87547 0.348311 9.10305 0.696621 9.10305H12.7714C13.1197 9.10305 13.468 8.76168 13.468 8.42032C13.468 7.96517 13.1197 7.73759 12.7714 7.73759H1.39324V1.47925H10.9137V1.36546Z" transform="translate(11.4531 20.6853)" stroke="#307CE0" stroke-width="0.2"/>
<path d="M5.92128 7.6238H1.50935V1.36546H7.77894C8.12725 1.36546 8.47556 1.02409 8.47556 0.682729C8.47556 0.227576 8.12725 0 7.77894 0H0.696621C0.348311 0 0 0.341364 0 0.682729V8.30653C0 8.76168 0.348311 8.98926 0.696621 8.98926H5.80518C6.15349 8.98926 6.5018 8.64789 6.5018 8.30653C6.6179 7.96517 6.26959 7.6238 5.92128 7.6238Z" transform="translate(17.7227 10.8995)" fill="#307CE0"/>
<path d="M5.92128 7.6238H1.50935V1.36546H7.77894C8.12725 1.36546 8.47556 1.02409 8.47556 0.682729C8.47556 0.227576 8.12725 0 7.77894 0H0.696621C0.348311 0 0 0.341364 0 0.682729V8.30653C0 8.76168 0.348311 8.98926 0.696621 8.98926H5.80518C6.15349 8.98926 6.5018 8.6479 6.5018 8.30653C6.6179 7.96517 6.26959 7.6238 5.92128 7.6238V7.6238Z" transform="translate(17.7227 10.8995)" stroke="#307CE0" stroke-width="0.2"/>
<path d="M0.719124 9.21684H14.8838C15.2321 9.21684 15.5804 8.87547 15.5804 8.53411C15.5804 8.07895 15.2321 7.85138 14.8838 7.85138H1.41575V1.47925H22.7788V6.82729C22.7788 7.28244 23.1271 7.51001 23.4754 7.51001C23.8237 7.51001 24.172 7.16865 24.172 6.82729V0.682729C24.172 0.341364 23.8237 0 23.4754 0H0.719124C0.370813 0 0.0225026 0.341364 0.0225026 0.682729V8.42032C-0.093601 8.87547 0.25471 9.21684 0.719124 9.21684Z" transform="translate(11.4316 1)" fill="#307CE0"/>
<path d="M0.719124 9.21684H14.8838C15.2321 9.21684 15.5804 8.87547 15.5804 8.53411C15.5804 8.07895 15.2321 7.85138 14.8838 7.85138H1.41575V1.47925H22.7788V6.82729C22.7788 7.28244 23.1271 7.51001 23.4754 7.51001C23.8237 7.51001 24.172 7.16865 24.172 6.82729V0.682729C24.172 0.341364 23.8237 0 23.4754 0H0.719124C0.370813 0 0.0225026 0.341364 0.0225026 0.682729V8.42032C-0.093601 8.87547 0.25471 9.21684 0.719124 9.21684V9.21684Z" transform="translate(11.4316 1)" stroke="#307CE0" stroke-width="0.2"/>
<path fill-rule="evenodd" clip-rule="evenodd" d="M16.0215 0.682739V8.42029C16.0215 8.87549 15.791 9.2168 15.3262 9.10303H0.697266C0.347656 9.10303 0 8.87549 0 8.42029V0.682739C0 0.341309 0.347656 0 0.697266 0H15.3262C15.6738 0 16.0215 0.227539 16.0215 0.682739ZM1.39258 7.73755H14.6289V1.47925H1.39258V7.73755Z" transform="translate(1.00391 10.7858)" fill="#307CE0" stroke="#307CE0" stroke-width="0.2"/>
<path fill-rule="evenodd" clip-rule="evenodd" d="M0 8.53406C0 10.4685 1.39258 11.9478 3.13477 11.9478C4.75977 11.9478 6.1543 10.3547 6.1543 8.53406V0.682739C6.1543 0.341309 5.80469 0 5.45703 0H0.697266C0.347656 0 0 0.341309 0 0.682739V8.53406ZM1.39258 8.53418V1.36548H4.75977V8.53418C4.75977 9.55823 4.0625 10.4685 3.13477 10.4685H3.01758C2.08984 10.4685 1.39258 9.672 1.39258 8.53418Z" transform="translate(28.0566 32.8607)" fill="#307CE0" stroke="#307CE0" stroke-width="0.2"/>
<path fill-rule="evenodd" clip-rule="evenodd" d="M2.21094 17.9785H11.2676C11.6426 17.9785 11.9941 17.8812 12.3086 17.698C12.6738 17.4847 12.9902 17.1552 13.2402 16.7268C13.5879 16.0441 13.7051 15.2476 13.3574 14.451L8.36328 1.47925C8.01562 0.56897 7.20312 0 6.27344 0C5.57812 0 4.5332 0.4552 4.18359 1.70679L0.121094 14.6787C-0.111328 15.3615 0.00390625 16.158 0.353516 16.8407C0.701172 17.5233 1.39844 17.9785 2.21094 17.9785ZM5.57812 2.04822C5.69336 1.36548 6.1582 1.36548 6.27344 1.36548C6.73828 1.36548 6.9707 1.82068 7.08594 1.93445L12.0801 14.9062C12.1953 15.3615 12.1953 15.7028 11.9629 16.0442C11.8477 16.2717 11.6152 16.4993 11.2656 16.4993H2.21094C1.97852 16.4993 1.74609 16.158 1.62891 16.0442C1.39844 15.8165 1.39844 15.3615 1.51367 15.02L5.57812 2.04822Z" transform="translate(24.2207 9.42029)" fill="#307CE0" stroke="#307CE0" stroke-width="0.2"/>
<path d="M0 0.796517V6.59971C0 7.05486 0.348311 7.39623 0.812725 7.39623C1.27714 7.39623 1.62545 7.05486 1.62545 6.59971V0.796517C1.62545 0.341364 1.27714 0 0.812725 0C0.348311 0.113788 0 0.455152 0 0.796517Z" transform="translate(30.3789 26.261)" fill="#307CE0"/>
<path d="M0 0.796517V6.59971C0 7.05486 0.348311 7.39623 0.812725 7.39623C1.27714 7.39623 1.62545 7.05486 1.62545 6.59971V0.796517C1.62545 0.341364 1.27714 0 0.812725 0C0.348311 0.113788 0 0.455152 0 0.796517V0.796517Z" transform="translate(30.3789 26.261)" stroke="#307CE0" stroke-width="0.2"/>
<path d="M13.5841 1.47925V7.73759H3.367C3.01869 7.73759 2.67038 8.07896 2.67038 8.42032C2.67038 8.87547 3.01869 9.10305 3.367 9.10305H14.1646C14.5129 9.10305 14.8613 8.76168 14.8613 8.42032V0.682729C14.8613 0.227576 14.5129 0 14.1646 0H0.696621C0.348311 0 0 0.341364 0 0.682729C0 1.13788 0.348311 1.36546 0.696621 1.36546H13.5841V1.47925Z" transform="translate(35.0234 10.7858)" fill="#307CE0"/>
<path d="M13.5841 1.47925V7.73759H3.367C3.01869 7.73759 2.67038 8.07896 2.67038 8.42032C2.67038 8.87547 3.01869 9.10305 3.367 9.10305H14.1646C14.5129 9.10305 14.8613 8.76168 14.8613 8.42032V0.682729C14.8613 0.227576 14.5129 0 14.1646 0H0.696621C0.348311 0 0 0.341364 0 0.682729C0 1.13788 0.348311 1.36546 0.696621 1.36546H13.5841V1.47925Z" transform="translate(35.0234 10.7858)" stroke="#307CE0" stroke-width="0.2"/>
<path d="M0.696621 7.73759C0.348311 7.73759 0 8.07896 0 8.42032C0 8.87547 0.348311 9.10305 0.696621 9.10305H6.03738C6.3857 9.10305 6.73401 8.76168 6.73401 8.42032V0.682729C6.73401 0.227576 6.3857 0 6.03738 0H2.55428C2.20597 0 1.85766 0.341364 1.85766 0.682729C1.85766 1.13788 2.20597 1.36546 2.55428 1.36546H5.22466V7.73759H0.696621Z" transform="translate(37.1133 20.5715)" fill="#307CE0"/>
<path d="M0.696621 7.73759C0.348311 7.73759 0 8.07896 0 8.42032C0 8.87547 0.348311 9.10305 0.696621 9.10305H6.03738C6.3857 9.10305 6.73401 8.76168 6.73401 8.42032V0.682729C6.73401 0.227576 6.3857 0 6.03738 0H2.55428C2.20597 0 1.85766 0.341364 1.85766 0.682729C1.85766 1.13788 2.20597 1.36546 2.55428 1.36546H5.22466V7.73759H0.696621V7.73759Z" transform="translate(37.1133 20.5715)" stroke="#307CE0" stroke-width="0.2"/>
</svg>
