<svg width="1259" height="581" viewBox="0 0 1259 581" fill="none" xmlns="http://www.w3.org/2000/svg">
<g opacity="0.8">
<path d="M251 391L234.5 465.5L120.5 401L251 391Z" fill="url(#paint0_linear)" fill-opacity="0.06"/>
<path d="M274.5 246.5L251 391L120.5 288.5L274.5 246.5Z" fill="url(#paint1_linear)" fill-opacity="0.06"/>
<path d="M428 106.5L274 245.5L308.5 113L428 106.5Z" fill="url(#paint2_linear)" fill-opacity="0.06"/>
<path d="M450 206.5L381 346.5L274 246.5L450 206.5Z" fill="url(#paint3_linear)" fill-opacity="0.06"/>
<path d="M548.5 311L486 451.5L381 346.5L548.5 311Z" fill="url(#paint4_linear)" fill-opacity="0.06"/>
<path d="M628 246L549 311.5L450.5 206.5L628 246Z" fill="url(#paint5_linear)" fill-opacity="0.06"/>
<path d="M381 346.5L394 487.5L254.5 390.5L381 346.5Z" fill="url(#paint6_linear)" fill-opacity="0.06"/>
<path d="M274 245.5L87 196L184.5 123L274 245.5Z" fill="url(#paint7_linear)" fill-opacity="0.06"/>
<path d="M307 113L184.5 122L215.5 13L307 113Z" fill="url(#paint8_linear)" fill-opacity="0.06"/>
<path d="M183.5 122L43 115.5L83.5 7L183.5 122Z" fill="url(#paint9_linear)" fill-opacity="0.06"/>
<path d="M120.5 288.5L16.5 283L88 194.5L120.5 288.5Z" fill="url(#paint10_linear)" fill-opacity="0.06"/>
<path d="M159 527L6 466L119.5 400.5L159 527Z" fill="url(#paint11_linear)" fill-opacity="0.06"/>
<path d="M121 400L0 354L120.5 288.5L121 400Z" fill="url(#paint12_linear)" fill-opacity="0.06"/>
<path d="M332 560.5L234.5 466L394 487L332 560.5Z" fill="url(#paint13_linear)" fill-opacity="0.06"/>
<g opacity="0.7">
<path d="M1015.38 217L1031.72 142.5L1144.64 207L1015.38 217Z" fill="url(#paint14_linear)" fill-opacity="0.03"/>
<path d="M974.769 313L1015.38 217L1072 296L974.769 313Z" fill="url(#paint15_linear)" fill-opacity="0.06"/>
<path d="M962 365L975.5 314L1059.5 358L962 365Z" fill="url(#paint16_linear)" fill-opacity="0.06"/>
<path d="M895.032 461.5L961.5 365L1006.96 435L895.032 461.5Z" fill="url(#paint17_linear)" fill-opacity="0.06"/>
<path d="M874 334L886.613 261.5L973.283 312L874 334Z" fill="url(#paint18_linear)" fill-opacity="0.06"/>
<path d="M797.5 508L817.277 400.5L891.566 464L797.5 508Z" fill="url(#paint19_linear)" fill-opacity="0.06"/>
<path d="M831 401.5L874.5 332.5L958 365.5L831 401.5Z" fill="url(#paint20_linear)" fill-opacity="0.06"/>
<path d="M669.999 461.5L752.499 378.5L829.499 400.5L669.999 461.5Z" fill="url(#paint21_linear)" fill-opacity="0.06"/>
<path d="M754 378.5L801.5 281L872 332.5L754 378.5Z" fill="url(#paint22_linear)" fill-opacity="0.06"/>
<path d="M720.702 297L782.609 156.5L886.613 261.5L720.702 297Z" fill="url(#paint23_linear)" fill-opacity="0.03"/>
<path d="M666.999 460.5L493.499 449.5L650.999 346.5L666.999 460.5Z" fill="url(#paint24_linear)" fill-opacity="0.06"/>
<path d="M627.593 245.5L640.965 141L719.711 291L627.593 245.5Z" fill="url(#paint25_linear)" fill-opacity="0.06"/>
<path d="M551.499 312L720.206 296.5L755.999 378.5L551.499 312Z" fill="url(#paint26_linear)" fill-opacity="0.03"/>
<path d="M451.281 205.5L428.499 108.5L639.479 138.5L451.281 205.5Z" fill="url(#paint27_linear)" fill-opacity="0.06"/>
<path d="M428.5 107.5L397.5 3.5H609.5L428.5 107.5Z" fill="url(#paint28_linear)" fill-opacity="0.06"/>
<path d="M308 111.5L294.5 0L396.5 2.5L308 111.5Z" fill="url(#paint29_linear)" fill-opacity="0.06"/>
<path d="M886.613 261.5L873.736 120.5L1011.91 217.5L886.613 261.5Z" fill="url(#paint30_linear)" fill-opacity="0.03"/>
<path d="M1058.47 360L1177.83 412L1081.25 485L1058.47 360Z" fill="url(#paint31_linear)" fill-opacity="0.06"/>
<path d="M1006.47 437.5L1082.74 483L1001.02 529L1006.47 437.5Z" fill="url(#paint32_linear)" fill-opacity="0.06"/>
<path d="M1082.24 486L1221.41 492.5L1150.59 581L1082.24 486Z" fill="url(#paint33_linear)" fill-opacity="0.03"/>
<path d="M1144.64 319.5L1247.66 325L1176.83 413.5L1144.64 319.5Z" fill="url(#paint34_linear)" fill-opacity="0.03"/>
<path d="M1106.51 81L1258.06 142L1145.63 207.5L1106.51 81Z" fill="url(#paint35_linear)" fill-opacity="0.03"/>
<path d="M1076 247.5L1189 294.5L1060.5 358L1076 247.5Z" fill="url(#paint36_linear)" fill-opacity="0.03"/>
<path d="M935.148 47.5L1031.72 142L873.736 121L935.148 47.5Z" fill="url(#paint37_linear)" fill-opacity="0.03"/>
</g>
</g>
<defs>
<linearGradient id="paint0_linear" x1="185.75" y1="391" x2="185.75" y2="465.5" gradientUnits="userSpaceOnUse">
<stop stop-color="white"/>
<stop offset="1" stop-color="#2F8CF0"/>
</linearGradient>
<linearGradient id="paint1_linear" x1="197.5" y1="246.5" x2="197.5" y2="391" gradientUnits="userSpaceOnUse">
<stop stop-color="white"/>
<stop offset="1" stop-color="#2F8CF0"/>
</linearGradient>
<linearGradient id="paint2_linear" x1="351" y1="106.5" x2="351" y2="245.5" gradientUnits="userSpaceOnUse">
<stop stop-color="white"/>
<stop offset="1" stop-color="#2F8CF0"/>
</linearGradient>
<linearGradient id="paint3_linear" x1="362" y1="206.5" x2="362" y2="346.5" gradientUnits="userSpaceOnUse">
<stop stop-color="white"/>
<stop offset="1" stop-color="#2F8CF0"/>
</linearGradient>
<linearGradient id="paint4_linear" x1="464.75" y1="311" x2="464.75" y2="451.5" gradientUnits="userSpaceOnUse">
<stop stop-color="white"/>
<stop offset="1" stop-color="#2F8CF0"/>
</linearGradient>
<linearGradient id="paint5_linear" x1="539.25" y1="206.5" x2="539.25" y2="311.5" gradientUnits="userSpaceOnUse">
<stop stop-color="white"/>
<stop offset="1" stop-color="#2F8CF0"/>
</linearGradient>
<linearGradient id="paint6_linear" x1="324.25" y1="346.5" x2="324.25" y2="487.5" gradientUnits="userSpaceOnUse">
<stop stop-color="white"/>
<stop offset="1" stop-color="#2F8CF0"/>
</linearGradient>
<linearGradient id="paint7_linear" x1="180.5" y1="123" x2="180.5" y2="245.5" gradientUnits="userSpaceOnUse">
<stop stop-color="white"/>
<stop offset="1" stop-color="#2F8CF0"/>
</linearGradient>
<linearGradient id="paint8_linear" x1="245.75" y1="13" x2="245.75" y2="122" gradientUnits="userSpaceOnUse">
<stop stop-color="white"/>
<stop offset="1" stop-color="#2F8CF0"/>
</linearGradient>
<linearGradient id="paint9_linear" x1="113.25" y1="27" x2="113.25" y2="122" gradientUnits="userSpaceOnUse">
<stop stop-color="white"/>
<stop offset="1" stop-color="#2F8CF0"/>
</linearGradient>
<linearGradient id="paint10_linear" x1="68.5" y1="194.5" x2="68.5" y2="288.5" gradientUnits="userSpaceOnUse">
<stop stop-color="white"/>
<stop offset="1" stop-color="#2F8CF0"/>
</linearGradient>
<linearGradient id="paint11_linear" x1="82.5" y1="400.5" x2="82.5" y2="527" gradientUnits="userSpaceOnUse">
<stop stop-color="white"/>
<stop offset="1" stop-color="#2F8CF0"/>
</linearGradient>
<linearGradient id="paint12_linear" x1="60.5" y1="288.5" x2="60.5" y2="400" gradientUnits="userSpaceOnUse">
<stop stop-color="white"/>
<stop offset="1" stop-color="#2F8CF0"/>
</linearGradient>
<linearGradient id="paint13_linear" x1="314.25" y1="466" x2="314.25" y2="560.5" gradientUnits="userSpaceOnUse">
<stop stop-color="white"/>
<stop offset="1" stop-color="#2F8CF0"/>
</linearGradient>
<linearGradient id="paint14_linear" x1="1080.01" y1="217" x2="1080.01" y2="142.5" gradientUnits="userSpaceOnUse">
<stop stop-color="white"/>
<stop offset="1" stop-color="#2F8CF0"/>
</linearGradient>
<linearGradient id="paint15_linear" x1="1068.37" y1="361.5" x2="1068.37" y2="217" gradientUnits="userSpaceOnUse">
<stop stop-color="white"/>
<stop offset="1" stop-color="#2F8CF0"/>
</linearGradient>
<linearGradient id="paint16_linear" x1="1058.37" y1="424" x2="1058.37" y2="279.5" gradientUnits="userSpaceOnUse">
<stop stop-color="white"/>
<stop offset="1" stop-color="#2F8CF0"/>
</linearGradient>
<linearGradient id="paint17_linear" x1="916.329" y1="501.5" x2="916.329" y2="362.5" gradientUnits="userSpaceOnUse">
<stop stop-color="white"/>
<stop offset="1" stop-color="#2F8CF0"/>
</linearGradient>
<linearGradient id="paint18_linear" x1="905.433" y1="401.5" x2="905.433" y2="261.5" gradientUnits="userSpaceOnUse">
<stop stop-color="white"/>
<stop offset="1" stop-color="#2F8CF0"/>
</linearGradient>
<linearGradient id="paint19_linear" x1="854.421" y1="547.5" x2="854.421" y2="407.5" gradientUnits="userSpaceOnUse">
<stop stop-color="white"/>
<stop offset="1" stop-color="#2F8CF0"/>
</linearGradient>
<linearGradient id="paint20_linear" x1="913.855" y1="476.5" x2="913.855" y2="336.5" gradientUnits="userSpaceOnUse">
<stop stop-color="white"/>
<stop offset="1" stop-color="#2F8CF0"/>
</linearGradient>
<linearGradient id="paint21_linear" x1="788.855" y1="522.5" x2="788.855" y2="382.5" gradientUnits="userSpaceOnUse">
<stop stop-color="white"/>
<stop offset="1" stop-color="#2F8CF0"/>
</linearGradient>
<linearGradient id="paint22_linear" x1="836.855" y1="453.5" x2="836.855" y2="313.5" gradientUnits="userSpaceOnUse">
<stop stop-color="white"/>
<stop offset="1" stop-color="#2F8CF0"/>
</linearGradient>
<linearGradient id="paint23_linear" x1="803.657" y1="297" x2="803.657" y2="156.5" gradientUnits="userSpaceOnUse">
<stop stop-color="white"/>
<stop offset="1" stop-color="#2F8CF0"/>
</linearGradient>
<linearGradient id="paint24_linear" x1="590.696" y1="475" x2="590.696" y2="334.5" gradientUnits="userSpaceOnUse">
<stop stop-color="white"/>
<stop offset="1" stop-color="#2F8CF0"/>
</linearGradient>
<linearGradient id="paint25_linear" x1="691.729" y1="270" x2="691.729" y2="129.5" gradientUnits="userSpaceOnUse">
<stop stop-color="white"/>
<stop offset="1" stop-color="#2F8CF0"/>
</linearGradient>
<linearGradient id="paint26_linear" x1="729.864" y1="401.5" x2="729.864" y2="296.5" gradientUnits="userSpaceOnUse">
<stop stop-color="white"/>
<stop offset="1" stop-color="#2F8CF0"/>
</linearGradient>
<linearGradient id="paint27_linear" x1="547.114" y1="205.5" x2="547.114" y2="100.5" gradientUnits="userSpaceOnUse">
<stop stop-color="white"/>
<stop offset="1" stop-color="#2F8CF0"/>
</linearGradient>
<linearGradient id="paint28_linear" x1="525.634" y1="106.5" x2="525.634" y2="1.49997" gradientUnits="userSpaceOnUse">
<stop stop-color="white"/>
<stop offset="1" stop-color="#2F8CF0"/>
</linearGradient>
<linearGradient id="paint29_linear" x1="398.634" y1="115.5" x2="398.634" y2="10.5" gradientUnits="userSpaceOnUse">
<stop stop-color="white"/>
<stop offset="1" stop-color="#2F8CF0"/>
</linearGradient>
<linearGradient id="paint30_linear" x1="942.825" y1="261.5" x2="942.825" y2="120.5" gradientUnits="userSpaceOnUse">
<stop stop-color="white"/>
<stop offset="1" stop-color="#2F8CF0"/>
</linearGradient>
<linearGradient id="paint31_linear" x1="1085.21" y1="485" x2="1085.21" y2="362.5" gradientUnits="userSpaceOnUse">
<stop stop-color="white"/>
<stop offset="1" stop-color="#2F8CF0"/>
</linearGradient>
<linearGradient id="paint32_linear" x1="1022.07" y1="592" x2="1022.07" y2="483" gradientUnits="userSpaceOnUse">
<stop stop-color="white"/>
<stop offset="1" stop-color="#2F8CF0"/>
</linearGradient>
<linearGradient id="paint33_linear" x1="1151.82" y1="581" x2="1151.82" y2="486" gradientUnits="userSpaceOnUse">
<stop stop-color="white"/>
<stop offset="1" stop-color="#2F8CF0"/>
</linearGradient>
<linearGradient id="paint34_linear" x1="1196.15" y1="413.5" x2="1196.15" y2="319.5" gradientUnits="userSpaceOnUse">
<stop stop-color="white"/>
<stop offset="1" stop-color="#2F8CF0"/>
</linearGradient>
<linearGradient id="paint35_linear" x1="1182.28" y1="207.5" x2="1182.28" y2="81" gradientUnits="userSpaceOnUse">
<stop stop-color="white"/>
<stop offset="1" stop-color="#2F8CF0"/>
</linearGradient>
<linearGradient id="paint36_linear" x1="1129.07" y1="360" x2="1129.07" y2="248.5" gradientUnits="userSpaceOnUse">
<stop stop-color="white"/>
<stop offset="1" stop-color="#2F8CF0"/>
</linearGradient>
<linearGradient id="paint37_linear" x1="952.73" y1="142" x2="952.73" y2="47.5" gradientUnits="userSpaceOnUse">
<stop stop-color="white"/>
<stop offset="1" stop-color="#2F8CF0"/>
</linearGradient>
</defs>
</svg>
