<svg width="950" height="382" viewBox="0 0 950 382" fill="none" xmlns="http://www.w3.org/2000/svg">
<path d="M243.619 217.5L227.276 143L114.357 207.5L243.619 217.5Z" fill="url(#paint0_linear)" fill-opacity="0.03"/>
<path d="M284.23 313.5L243.619 217.5L187 296.5L284.23 313.5Z" fill="url(#paint1_linear)" fill-opacity="0.06"/>
<path d="M297 365.5L283.5 314.5L199.5 358.5L297 365.5Z" fill="url(#paint2_linear)" fill-opacity="0.06"/>
<path d="M363.968 462L297.501 365.5L252.039 435.5L363.968 462Z" fill="url(#paint3_linear)" fill-opacity="0.06"/>
<path d="M385 334.5L372.386 262L285.716 312.5L385 334.5Z" fill="url(#paint4_linear)" fill-opacity="0.06"/>
<path d="M428 402L384.5 333L301 366L428 402Z" fill="url(#paint5_linear)" fill-opacity="0.06"/>
<path d="M589.001 462L506.501 379L429.501 401L589.001 462Z" fill="url(#paint6_linear)" fill-opacity="0.06"/>
<path d="M505 379L457.5 281.5L387 333L505 379Z" fill="url(#paint7_linear)" fill-opacity="0.06"/>
<path d="M538.298 297.5L476.391 157L372.386 262L538.298 297.5Z" fill="url(#paint8_linear)" fill-opacity="0.03"/>
<path d="M592.001 461L765.501 450L608.001 347L592.001 461Z" fill="url(#paint9_linear)" fill-opacity="0.06"/>
<path d="M631.407 246L618.035 141.5L539.289 291.5L631.407 246Z" fill="url(#paint10_linear)" fill-opacity="0.06"/>
<path d="M707.501 312.5L538.794 297L503.001 379L707.501 312.5Z" fill="url(#paint11_linear)" fill-opacity="0.03"/>
<path d="M807.719 206L830.501 109L619.521 139L807.719 206Z" fill="url(#paint12_linear)" fill-opacity="0.06"/>
<path d="M830.5 108L861.5 4H649.5L830.5 108Z" fill="url(#paint13_linear)" fill-opacity="0.06"/>
<path d="M951 112L964.5 0.5L862.5 3L951 112Z" fill="url(#paint14_linear)" fill-opacity="0.06"/>
<path d="M372.387 262L385.264 121L247.087 218L372.387 262Z" fill="url(#paint15_linear)" fill-opacity="0.03"/>
<path d="M200.532 360.5L81.1751 412.5L177.75 485.5L200.532 360.5Z" fill="url(#paint16_linear)" fill-opacity="0.06"/>
<path d="M114.357 320L11.3438 325.5L82.1657 414L114.357 320Z" fill="url(#paint17_linear)" fill-opacity="0.03"/>
<path d="M152.492 81.5L0.943283 142.5L113.367 208L152.492 81.5Z" fill="url(#paint18_linear)" fill-opacity="0.03"/>
<path d="M183 248L70 295L198.5 358.5L183 248Z" fill="url(#paint19_linear)" fill-opacity="0.03"/>
<path d="M323.852 48L227.276 142.5L385.264 121.5L323.852 48Z" fill="url(#paint20_linear)" fill-opacity="0.03"/>
<defs>
<linearGradient id="paint0_linear" x1="178.988" y1="217.5" x2="178.988" y2="143" gradientUnits="userSpaceOnUse">
<stop stop-color="white"/>
<stop offset="1" stop-color="#2F8CF0"/>
</linearGradient>
<linearGradient id="paint1_linear" x1="190.627" y1="362" x2="190.627" y2="217.5" gradientUnits="userSpaceOnUse">
<stop stop-color="white"/>
<stop offset="1" stop-color="#2F8CF0"/>
</linearGradient>
<linearGradient id="paint2_linear" x1="200.627" y1="424.5" x2="200.627" y2="280" gradientUnits="userSpaceOnUse">
<stop stop-color="white"/>
<stop offset="1" stop-color="#2F8CF0"/>
</linearGradient>
<linearGradient id="paint3_linear" x1="342.672" y1="502" x2="342.672" y2="363" gradientUnits="userSpaceOnUse">
<stop stop-color="white"/>
<stop offset="1" stop-color="#2F8CF0"/>
</linearGradient>
<linearGradient id="paint4_linear" x1="353.567" y1="402" x2="353.567" y2="262" gradientUnits="userSpaceOnUse">
<stop stop-color="white"/>
<stop offset="1" stop-color="#2F8CF0"/>
</linearGradient>
<linearGradient id="paint5_linear" x1="345.144" y1="477" x2="345.144" y2="337" gradientUnits="userSpaceOnUse">
<stop stop-color="white"/>
<stop offset="1" stop-color="#2F8CF0"/>
</linearGradient>
<linearGradient id="paint6_linear" x1="470.145" y1="523" x2="470.145" y2="383" gradientUnits="userSpaceOnUse">
<stop stop-color="white"/>
<stop offset="1" stop-color="#2F8CF0"/>
</linearGradient>
<linearGradient id="paint7_linear" x1="422.144" y1="454" x2="422.144" y2="314" gradientUnits="userSpaceOnUse">
<stop stop-color="white"/>
<stop offset="1" stop-color="#2F8CF0"/>
</linearGradient>
<linearGradient id="paint8_linear" x1="455.342" y1="297.5" x2="455.342" y2="157" gradientUnits="userSpaceOnUse">
<stop stop-color="white"/>
<stop offset="1" stop-color="#2F8CF0"/>
</linearGradient>
<linearGradient id="paint9_linear" x1="668.304" y1="475.5" x2="668.304" y2="335" gradientUnits="userSpaceOnUse">
<stop stop-color="white"/>
<stop offset="1" stop-color="#2F8CF0"/>
</linearGradient>
<linearGradient id="paint10_linear" x1="567.271" y1="270.5" x2="567.271" y2="130" gradientUnits="userSpaceOnUse">
<stop stop-color="white"/>
<stop offset="1" stop-color="#2F8CF0"/>
</linearGradient>
<linearGradient id="paint11_linear" x1="529.137" y1="402" x2="529.137" y2="297" gradientUnits="userSpaceOnUse">
<stop stop-color="white"/>
<stop offset="1" stop-color="#2F8CF0"/>
</linearGradient>
<linearGradient id="paint12_linear" x1="711.887" y1="206" x2="711.887" y2="101" gradientUnits="userSpaceOnUse">
<stop stop-color="white"/>
<stop offset="1" stop-color="#2F8CF0"/>
</linearGradient>
<linearGradient id="paint13_linear" x1="733.366" y1="107" x2="733.366" y2="1.99997" gradientUnits="userSpaceOnUse">
<stop stop-color="white"/>
<stop offset="1" stop-color="#2F8CF0"/>
</linearGradient>
<linearGradient id="paint14_linear" x1="860.366" y1="116" x2="860.366" y2="11" gradientUnits="userSpaceOnUse">
<stop stop-color="white"/>
<stop offset="1" stop-color="#2F8CF0"/>
</linearGradient>
<linearGradient id="paint15_linear" x1="316.175" y1="262" x2="316.175" y2="121" gradientUnits="userSpaceOnUse">
<stop stop-color="white"/>
<stop offset="1" stop-color="#2F8CF0"/>
</linearGradient>
<linearGradient id="paint16_linear" x1="173.788" y1="485.5" x2="173.788" y2="363" gradientUnits="userSpaceOnUse">
<stop stop-color="white"/>
<stop offset="1" stop-color="#2F8CF0"/>
</linearGradient>
<linearGradient id="paint17_linear" x1="62.8506" y1="414" x2="62.8506" y2="320" gradientUnits="userSpaceOnUse">
<stop stop-color="white"/>
<stop offset="1" stop-color="#2F8CF0"/>
</linearGradient>
<linearGradient id="paint18_linear" x1="76.7177" y1="208" x2="76.7177" y2="81.5" gradientUnits="userSpaceOnUse">
<stop stop-color="white"/>
<stop offset="1" stop-color="#2F8CF0"/>
</linearGradient>
<linearGradient id="paint19_linear" x1="129.926" y1="360.5" x2="129.926" y2="249" gradientUnits="userSpaceOnUse">
<stop stop-color="white"/>
<stop offset="1" stop-color="#2F8CF0"/>
</linearGradient>
<linearGradient id="paint20_linear" x1="306.27" y1="142.5" x2="306.27" y2="48" gradientUnits="userSpaceOnUse">
<stop stop-color="white"/>
<stop offset="1" stop-color="#2F8CF0"/>
</linearGradient>
</defs>
</svg>
