<svg width="24" height="24" viewBox="0 0 24 24" fill="none" xmlns="http://www.w3.org/2000/svg">
<circle cx="12" cy="12" r="12" fill="#1C61AA"/>
<path d="M16.6778 15.2442L13.6695 12.2419C13.6366 12.2107 13.6104 12.1732 13.5926 12.1316C13.5747 12.09 13.5654 12.0452 13.5654 12C13.5654 11.9548 13.5747 11.91 13.5926 11.8684C13.6104 11.8268 13.6366 11.7893 13.6695 11.7581L16.6778 8.75582C16.7779 8.66 16.858 8.54525 16.9133 8.41826C16.9686 8.29126 16.998 8.15456 16.9999 8.0161C17.0018 7.87764 16.976 7.7402 16.9242 7.61176C16.8723 7.48333 16.7954 7.36648 16.6978 7.268C16.5996 7.17677 16.4839 7.10616 16.3578 7.06035C16.2317 7.01454 16.0977 6.99446 15.9636 7.00131C15.8296 7.00815 15.6983 7.04178 15.5775 7.1002C15.4568 7.15861 15.349 7.24063 15.2605 7.34139L12.2522 10.3437C12.221 10.3765 12.1834 10.4026 12.1418 10.4205C12.1001 10.4383 12.0553 10.4475 12.0099 10.4475C11.9646 10.4475 11.9197 10.4383 11.8781 10.4205C11.8364 10.4026 11.7988 10.3765 11.7676 10.3437L8.7593 7.34139C8.66329 7.24143 8.54832 7.16152 8.42107 7.10633C8.29382 7.05113 8.15685 7.02175 8.01812 7.01989C7.87938 7.01802 7.74166 7.04372 7.61298 7.09548C7.48429 7.14724 7.3672 7.22403 7.26853 7.32137C7.17712 7.41945 7.10637 7.53484 7.06047 7.6607C7.01457 7.78657 6.99445 7.92035 7.00131 8.05412C7.00817 8.18789 7.04186 8.31892 7.10039 8.43945C7.15893 8.55999 7.24111 8.66757 7.34207 8.75582L10.3503 11.7581C10.3832 11.7893 10.4094 11.8268 10.4273 11.8684C10.4452 11.91 10.4544 11.9548 10.4544 12C10.4544 12.0452 10.4452 12.09 10.4273 12.1316C10.4094 12.1732 10.3832 12.2107 10.3503 12.2419L7.34207 15.2442C7.24191 15.34 7.16185 15.4548 7.10654 15.5817C7.05124 15.7087 7.02179 15.8454 7.01993 15.9839C7.01806 16.1224 7.04381 16.2598 7.09567 16.3882C7.14753 16.5167 7.22447 16.6335 7.32201 16.732C7.42028 16.8232 7.5359 16.8938 7.66201 16.9396C7.78813 16.9855 7.92218 17.0055 8.05621 16.9987C8.19024 16.9918 8.32154 16.9582 8.44231 16.8998C8.56308 16.8414 8.67087 16.7594 8.7593 16.6586L11.7676 13.6563C11.7988 13.6235 11.8364 13.5974 11.8781 13.5795C11.9197 13.5617 11.9646 13.5525 12.0099 13.5525C12.0553 13.5525 12.1001 13.5617 12.1418 13.5795C12.1834 13.5974 12.221 13.6235 12.2522 13.6563L15.2605 16.6586C15.349 16.7594 15.4568 16.8414 15.5775 16.8998C15.6983 16.9582 15.8296 16.9918 15.9636 16.9987C16.0977 17.0055 16.2317 16.9855 16.3578 16.9396C16.4839 16.8938 16.5996 16.8232 16.6978 16.732C16.7954 16.6335 16.8723 16.5167 16.9242 16.3882C16.976 16.2598 17.0018 16.1224 16.9999 15.9839C16.998 15.8454 16.9686 15.7087 16.9133 15.5817C16.858 15.4548 16.7779 15.34 16.6778 15.2442Z" fill="white"/>
</svg>
