<svg width="28" height="28" viewBox="0 0 28 28" fill="none" xmlns="http://www.w3.org/2000/svg">
<path fill-rule="evenodd" clip-rule="evenodd" d="M0.93934 0.93934C1.52513 0.353553 2.47487 0.353553 3.06066 0.93934L14 11.8787L24.9393 0.93934C25.5251 0.353553 26.4749 0.353553 27.0607 0.93934C27.6464 1.52513 27.6464 2.47487 27.0607 3.06066L16.1213 14L27.0607 24.9393C27.6464 25.5251 27.6464 26.4749 27.0607 27.0607C26.4749 27.6464 25.5251 27.6464 24.9393 27.0607L14 16.1213L3.06066 27.0607C2.47487 27.6464 1.52513 27.6464 0.93934 27.0607C0.353553 26.4749 0.353553 25.5251 0.93934 24.9393L11.8787 14L0.93934 3.06066C0.353553 2.47487 0.353553 1.52513 0.93934 0.93934Z" fill="white"/>
</svg>
