<svg version="1.1" id="Layer_1" xmlns="http://www.w3.org/2000/svg" xmlns:xlink="http://www.w3.org/1999/xlink" x="0px" y="0px"
	 viewBox="0 0 489.8 489.8" style="enable-background:new 0 0 489.8 489.8;" xml:space="preserve">
<g>
	<path d="M244.9,0C109.4,0,0,109.4,0,244.9s109.4,244.9,244.9,244.9s244.9-109.4,244.9-244.9S380.4,0,244.9,0z M448.1,224.1h-70.3
		c-2.9-65.3-19-122.6-43.7-162.8C396.2,91.5,440.8,152.4,448.1,224.1z M224,46.6V224h-71.4C157,132.8,189.5,66.3,224,46.6z
		 M224,265.7V443c-34.5-19.9-67-86.8-71.4-177.3H224z M265.7,443.2V265.7h71.4C332.8,357,300.3,423.5,265.7,443.2z M265.7,224.1
		V46.7c34.5,19.9,67,86.8,71.4,177.3h-71.4V224.1z M155.6,61.2c-24.7,40.3-40.8,97.5-43.7,162.8H41.7C49,152.4,93.6,91.5,155.6,61.2
		z M41.7,265.7H112c2.8,65.3,19,122.6,43.7,162.8C93.5,398.3,49,337.4,41.7,265.7z M334.2,428.6c24.7-40.3,40.8-97.5,43.7-162.8
		h70.3C440.8,337.4,396.2,398.3,334.2,428.6z" fill="#0E2845"/>
</g>
<g>
</g>
<g>
</g>
<g>
</g>
<g>
</g>
<g>
</g>
<g>
</g>
<g>
</g>
<g>
</g>
<g>
</g>
<g>
</g>
<g>
</g>
<g>
</g>
<g>
</g>
<g>
</g>
<g>
</g>
</svg>
