<svg width="18" height="18" viewBox="0 0 18 18" fill="none" xmlns="http://www.w3.org/2000/svg">
<path d="M15.3633 2.63601C11.8486 -0.878671 6.1507 -0.878671 2.63601 2.63601C-0.878671 6.1507 -0.878671 11.8486 2.63601 15.3633C6.1507 18.8779 11.8486 18.8779 15.3633 15.3633C18.8779 11.8486 18.8779 6.1507 15.3633 2.63601ZM13.4096 7.36281C13.2099 7.56254 13.0079 7.76456 12.8082 7.96428C11.9312 8.84123 11.0566 9.71589 10.1796 10.5928C9.62865 11.1415 9.07998 11.6925 8.53131 12.2411C8.18008 12.5924 7.5832 12.5924 7.23196 12.2411C7.12406 12.1332 7.01617 12.0253 6.91057 11.9174C6.1507 11.1553 5.39083 10.3954 4.63096 9.63324C4.26824 9.27052 4.29349 8.70119 4.63096 8.33389C4.96613 7.96887 5.59055 7.99413 5.93031 8.33389C6.03821 8.44178 6.1461 8.54968 6.25171 8.65758C6.79578 9.20165 7.33986 9.74802 7.88164 10.2921C8.74252 9.43122 9.6011 8.57264 10.462 7.71176L12.1103 6.06346C12.473 5.70074 13.0423 5.726 13.4096 6.06346C13.7746 6.40093 13.7494 7.02305 13.4096 7.36281Z" fill="url(#paint0_linear)"/>
<defs>
<linearGradient id="paint0_linear" x1="15.5993" y1="2.18776" x2="8.39727" y2="20.6225" gradientUnits="userSpaceOnUse">
<stop stop-color="#0060B9"/>
<stop offset="1" stop-color="#0072F8"/>
</linearGradient>
</defs>
</svg>
