<svg width="15" height="15" viewBox="0 0 15 15" fill="none" xmlns="http://www.w3.org/2000/svg">
<path d="M13.2213 7.70207C13.2213 8.16283 13.2213 8.62192 13.2213 9.08268C13.2213 9.77798 13.2213 10.4733 13.2213 11.1686C13.2213 11.3998 13.228 11.631 13.1981 11.8605C13.208 11.7873 13.218 11.7125 13.228 11.6393C13.1964 11.8622 13.1382 12.0768 13.0517 12.2847C13.08 12.2182 13.1082 12.1516 13.1349 12.0868C13.0484 12.288 12.9386 12.4777 12.8055 12.6506C12.8487 12.5941 12.892 12.5392 12.9352 12.4826C12.8022 12.654 12.6475 12.8087 12.4762 12.9417C12.5327 12.8985 12.5876 12.8552 12.6442 12.812C12.4695 12.9451 12.2815 13.0565 12.0803 13.1413C12.1468 13.1131 12.2133 13.0848 12.2782 13.0582C12.0719 13.1447 11.8557 13.2029 11.6328 13.2345C11.706 13.2245 11.7809 13.2145 11.854 13.2046C11.5064 13.2495 11.1438 13.2278 10.7945 13.2278C10.1308 13.2278 9.46874 13.2278 8.80505 13.2278C7.99166 13.2278 7.1766 13.2278 6.3632 13.2278C5.66957 13.2278 4.97427 13.2278 4.28064 13.2278C3.9779 13.2278 3.67516 13.2295 3.37409 13.2278C3.25765 13.2278 3.14288 13.2195 3.02811 13.2046C3.10129 13.2145 3.17615 13.2245 3.24934 13.2345C3.02644 13.2029 2.81187 13.1447 2.60394 13.0582C2.67048 13.0865 2.73701 13.1147 2.80189 13.1413C2.60062 13.0549 2.41099 12.9451 2.238 12.812C2.29455 12.8552 2.34944 12.8985 2.406 12.9417C2.23467 12.8087 2.07997 12.654 1.9469 12.4826C1.99015 12.5392 2.0334 12.5941 2.07665 12.6506C1.94358 12.476 1.83213 12.288 1.7473 12.0868C1.77557 12.1533 1.80385 12.2198 1.83047 12.2847C1.74397 12.0784 1.68575 11.8622 1.65415 11.6393C1.66413 11.7125 1.67411 11.7873 1.68409 11.8605C1.63918 11.5129 1.6608 11.1503 1.6608 10.801C1.6608 10.1373 1.6608 9.47524 1.6608 8.81155C1.6608 7.99815 1.6608 7.18309 1.6608 6.36969C1.6608 5.67606 1.6608 4.98076 1.6608 4.28713C1.6608 3.98439 1.65914 3.68166 1.6608 3.38058C1.6608 3.26415 1.66912 3.14937 1.68409 3.0346C1.67411 3.10779 1.66413 3.18264 1.65415 3.25583C1.68575 3.03294 1.74397 2.81836 1.83047 2.61044C1.80219 2.67697 1.77391 2.74351 1.7473 2.80838C1.83379 2.60711 1.94358 2.41748 2.07665 2.24449C2.0334 2.30105 1.99015 2.35594 1.9469 2.41249C2.07997 2.24116 2.23467 2.08647 2.406 1.9534C2.34944 1.99665 2.29455 2.03989 2.238 2.08314C2.41265 1.95007 2.60062 1.83862 2.80189 1.75379C2.73535 1.78207 2.66881 1.81035 2.60394 1.83696C2.8102 1.75046 3.02644 1.69225 3.24934 1.66064C3.17615 1.67062 3.10129 1.6806 3.02811 1.69058C3.22938 1.66397 3.43231 1.66729 3.63524 1.66729C3.92966 1.66729 4.22408 1.66729 4.5185 1.66729C5.23708 1.66729 5.95733 1.66729 6.67592 1.66729C6.84558 1.66729 7.01691 1.66729 7.18658 1.66729C7.39949 1.66729 7.62405 1.57414 7.77541 1.42444C7.92013 1.27972 8.02825 1.04352 8.01827 0.8356C8.00829 0.621023 7.93843 0.398129 7.77541 0.246761C7.6124 0.097056 7.4128 0.00390625 7.18658 0.00390625C6.76574 0.00390625 6.3449 0.00390625 5.92573 0.00390625C5.2454 0.00390625 4.56508 0.00390625 3.88475 0.00390625C3.72008 0.00390625 3.55374 0.00390625 3.38906 0.00390625C2.84347 0.00390625 2.32283 0.136977 1.83546 0.376505C1.28987 0.644311 0.829107 1.0901 0.506409 1.60076C0.173732 2.12639 0.00240267 2.75848 0.000739284 3.37892C-0.000924105 3.61179 0.000739284 3.84467 0.000739284 4.07921C0.000739284 4.65141 0.000739284 5.22362 0.000739284 5.79582C0.000739284 6.51607 0.000739284 7.23465 0.000739284 7.9549C0.000739284 8.63024 0.000739284 9.30557 0.000739284 9.98091C0.000739284 10.42 0.000739284 10.8608 0.000739284 11.3C0.000739284 11.3715 0.000739284 11.443 0.000739284 11.5162C0.00240267 12.1034 0.157098 12.6922 0.449854 13.2012C1.04535 14.2392 2.1831 14.8879 3.37742 14.8912C3.63524 14.8929 3.89307 14.8912 4.15089 14.8912C4.73641 14.8912 5.32192 14.8912 5.90743 14.8912C6.62934 14.8912 7.35125 14.8912 8.07316 14.8912C8.74018 14.8912 9.4072 14.8912 10.0742 14.8912C10.4951 14.8912 10.9159 14.8912 11.3367 14.8912C11.4099 14.8912 11.4848 14.8929 11.558 14.8912C12.1784 14.8796 12.8155 14.6999 13.3345 14.3556C13.8385 14.0213 14.2793 13.5589 14.5371 13.0066C14.76 12.5259 14.8864 12.0285 14.8864 11.4963C14.8864 11.0022 14.8864 10.5099 14.8864 10.0158C14.8864 9.36047 14.8864 8.70675 14.8864 8.05138C14.8864 7.93494 14.8864 7.82017 14.8864 7.70373C14.8864 7.49082 14.7932 7.26626 14.6435 7.11489C14.4988 6.97018 14.2626 6.86206 14.0547 6.87204C13.8401 6.88202 13.6172 6.95188 13.4659 7.11489C13.3162 7.27624 13.2213 7.47585 13.2213 7.70207Z" fill="#1E6DC0"/>
<path d="M10.3607 1.66534C10.7765 1.66534 11.194 1.66534 11.6099 1.66534C12.2735 1.66534 12.9356 1.66534 13.5993 1.66534C13.7506 1.66534 13.902 1.66534 14.0534 1.66534C14.2663 1.66534 14.4908 1.57219 14.6422 1.42249C14.7869 1.27777 14.895 1.04157 14.8851 0.833647C14.8751 0.61907 14.8052 0.396176 14.6422 0.244808C14.4792 0.0951028 14.2796 0.00195312 14.0534 0.00195312C13.6375 0.00195312 13.22 0.00195312 12.8042 0.00195312C12.1405 0.00195312 11.4784 0.00195312 10.8148 0.00195312C10.6634 0.00195312 10.512 0.00195312 10.3607 0.00195312C10.1477 0.00195312 9.92318 0.0951028 9.77181 0.244808C9.6271 0.389523 9.51898 0.625724 9.52896 0.833647C9.53894 1.04822 9.6088 1.27112 9.77181 1.42249C9.93483 1.57053 10.1361 1.66534 10.3607 1.66534Z" fill="#1E6DC0"/>
<path d="M14.8851 4.52701C14.8851 4.11116 14.8851 3.69365 14.8851 3.2778C14.8851 2.61411 14.8851 1.95208 14.8851 1.28839C14.8851 1.13702 14.8851 0.985654 14.8851 0.834286C14.8851 0.621372 14.7919 0.396815 14.6422 0.245447C14.4975 0.100732 14.2613 -0.00738836 14.0534 0.00259197C13.8388 0.0125723 13.6159 0.0824346 13.4645 0.245447C13.3148 0.408459 13.2217 0.608065 13.2217 0.834286C13.2217 1.25013 13.2217 1.66764 13.2217 2.08349C13.2217 2.74718 13.2217 3.40921 13.2217 4.0729C13.2217 4.22427 13.2217 4.37564 13.2217 4.52701C13.2217 4.73992 13.3148 4.96448 13.4645 5.11585C13.6092 5.26056 13.8455 5.36868 14.0534 5.3587C14.268 5.34872 14.4908 5.27886 14.6422 5.11585C14.7903 4.95283 14.8851 4.75156 14.8851 4.52701Z" fill="#1E6DC0"/>
<path d="M8.04358 8.01983C8.26315 7.80027 8.48438 7.57903 8.70395 7.35947C9.22791 6.8355 9.75354 6.30987 10.2775 5.7859C10.9113 5.15215 11.545 4.5184 12.1804 3.88299C12.731 3.3324 13.2799 2.78349 13.8305 2.23291C14.0966 1.96676 14.3678 1.70228 14.6306 1.43282C14.6339 1.42949 14.6373 1.42616 14.6422 1.42117C14.7936 1.2698 14.8851 1.04691 14.8851 0.832333C14.8851 0.627736 14.7953 0.384881 14.6422 0.243493C14.4842 0.0987787 14.2763 -0.00934149 14.0534 0.000638843C13.8322 0.0106192 13.6242 0.0854716 13.4646 0.243493C13.245 0.463061 13.0238 0.684291 12.8042 0.903859C12.2802 1.42783 11.7546 1.95346 11.2306 2.47742C10.5969 3.11117 9.96313 3.74493 9.32772 4.38034C8.77714 4.93092 8.22822 5.47984 7.67764 6.03042C7.41149 6.29656 7.14036 6.56104 6.87755 6.83051C6.87422 6.83384 6.87089 6.83716 6.8659 6.84215C6.71453 6.99352 6.62305 7.21642 6.62305 7.43099C6.62305 7.63559 6.71287 7.87844 6.8659 8.01983C7.02392 8.16455 7.23185 8.27267 7.45474 8.26269C7.67597 8.25437 7.8839 8.17952 8.04358 8.01983Z" fill="#1E6DC0"/>
</svg>
