<svg width="13" height="10" viewBox="0 0 13 10" fill="none" xmlns="http://www.w3.org/2000/svg">
<path d="M11.7141 0.000560578C11.3892 0.0113869 11.0813 0.148538 10.8559 0.382869C8.46462 2.77931 6.63843 4.78082 4.41906 7.04595L2.05499 5.04859C1.92955 4.94252 1.78441 4.86225 1.62789 4.81237C1.47137 4.76249 1.30655 4.74398 1.14287 4.75791C0.979182 4.77184 0.819855 4.81791 0.674012 4.89352C0.528169 4.96912 0.398678 5.07277 0.292957 5.19851C0.187236 5.32424 0.107363 5.4696 0.0579145 5.62626C0.00846603 5.78291 -0.00958595 5.94778 0.00479245 6.11142C0.0191709 6.27507 0.0656971 6.43427 0.141706 6.57991C0.217715 6.72554 0.321711 6.85475 0.447739 6.96013L3.69346 9.7065C3.93226 9.90766 4.23778 10.012 4.54974 9.99903C4.86171 9.98603 5.15748 9.85661 5.37873 9.63628C8.06767 6.94157 9.98182 4.78923 12.6192 2.14617C12.8003 1.97109 12.9243 1.74531 12.9747 1.49849C13.0252 1.25167 12.9998 0.995359 12.9018 0.763241C12.8039 0.531124 12.6381 0.334054 12.4261 0.197932C12.2141 0.0618097 11.9659 -0.00698593 11.7141 0.000560578Z" fill="#1D64B1"/>
</svg>
