<svg width="15" height="12" viewBox="0 0 15 12" fill="none" xmlns="http://www.w3.org/2000/svg">
<path d="M7.25439 1.21503C7.25439 2.0453 7.25439 2.87855 7.25439 3.70881C7.25439 5.03484 7.25439 6.36087 7.25439 7.68989C7.25439 7.99751 7.25439 8.30214 7.25439 8.60975C7.25439 8.89945 7.72104 8.89945 7.72104 8.60975C7.72104 7.77949 7.72104 6.94624 7.72104 6.11598C7.72104 4.78994 7.72104 3.46391 7.72104 2.13489C7.72104 1.82728 7.72104 1.52265 7.72104 1.21503C7.72104 0.928323 7.25439 0.928323 7.25439 1.21503Z" fill="#1E6DC0" stroke="#1E6DC0" stroke-width="0.5"/>
<path d="M4.64709 6.49252C5.42795 7.17047 6.20882 7.85141 6.99279 8.52936C7.10479 8.62493 7.21367 8.7205 7.32567 8.81607C7.42211 8.89969 7.55899 8.89969 7.65543 8.81607C8.4363 8.13812 9.21716 7.45718 10.0011 6.77923C10.1131 6.68366 10.222 6.58809 10.334 6.49252C10.558 6.2984 10.2251 5.98182 10.0042 6.17595C9.22338 6.8539 8.44252 7.53483 7.65855 8.21278C7.54655 8.30835 7.43766 8.40393 7.32567 8.4995C7.43455 8.4995 7.54655 8.4995 7.65543 8.4995C6.87457 7.82154 6.09371 7.14061 5.30974 6.46266C5.19774 6.36709 5.08885 6.27152 4.97686 6.17595C4.75598 5.98182 4.4231 6.2984 4.64709 6.49252Z" fill="#1E6DC0" stroke="#1E6DC0" stroke-width="0.5"/>
<path d="M1.00415 7.86166C1.00415 8.48586 1.00415 9.11304 1.00415 9.73723C1.00415 9.9672 0.994815 10.1972 1.00415 10.4271C1.01659 10.7676 1.29036 10.9886 1.63568 10.9946C2.63742 11.0065 3.63916 10.9946 4.64091 10.9946C6.33951 10.9946 8.03501 10.9946 9.73361 10.9946C10.8816 10.9946 12.0295 10.9946 13.1744 10.9946C13.2646 10.9946 13.3579 11.0006 13.4481 10.9856C13.7344 10.9378 13.921 10.6989 13.9335 10.4271C13.9366 10.3495 13.9335 10.2748 13.9335 10.1972C13.9335 9.48039 13.9335 8.76361 13.9335 8.04683C13.9335 7.9871 13.9335 7.92438 13.9335 7.86465C13.9335 7.57495 13.4668 7.57495 13.4668 7.86465C13.4668 8.46196 13.4668 9.05928 13.4668 9.65659C13.4668 9.90448 13.4948 10.1673 13.4668 10.4152C13.4544 10.5406 13.3704 10.5466 13.2646 10.5466C12.2535 10.5466 11.2393 10.5466 10.2283 10.5466C8.57321 10.5466 6.91816 10.5466 5.26311 10.5466C4.11515 10.5466 2.96719 10.5466 1.82234 10.5466C1.75079 10.5466 1.6699 10.5556 1.59835 10.5466C1.41791 10.5227 1.47391 10.2659 1.47391 10.1404C1.47391 9.43559 1.47391 8.73374 1.47391 8.02891C1.47391 7.97217 1.47391 7.91841 1.47391 7.86166C1.4708 7.57495 1.00415 7.57196 1.00415 7.86166Z" fill="#1E6DC0" stroke="#1E6DC0" stroke-width="0.5"/>
</svg>
