<svg width="24" height="24" viewBox="0 0 24 24" fill="none" xmlns="http://www.w3.org/2000/svg">
<path d="M12 0C9.62663 0 7.30655 0.703788 5.33316 2.02236C3.35977 3.34094 1.8217 5.21509 0.913451 7.4078C0.00519936 9.60051 -0.232441 12.0133 0.230582 14.3411C0.693605 16.6689 1.83649 18.807 3.51472 20.4853C5.19295 22.1635 7.33115 23.3064 9.65892 23.7694C11.9867 24.2324 14.3995 23.9948 16.5922 23.0866C18.7849 22.1783 20.6591 20.6402 21.9776 18.6668C23.2962 16.6934 24 14.3734 24 12C23.9959 8.81865 22.7303 5.76877 20.4808 3.51921C18.2312 1.26966 15.1814 0.00407083 12 0ZM13.2308 16.9231C13.2308 17.2495 13.1011 17.5625 12.8703 17.7934C12.6395 18.0242 12.3264 18.1538 12 18.1538C11.6736 18.1538 11.3605 18.0242 11.1297 17.7934C10.8989 17.5625 10.7692 17.2495 10.7692 16.9231V11.0769C10.7692 10.7505 10.8989 10.4375 11.1297 10.2066C11.3605 9.97582 11.6736 9.84615 12 9.84615C12.3264 9.84615 12.6395 9.97582 12.8703 10.2066C13.1011 10.4375 13.2308 10.7505 13.2308 11.0769V16.9231ZM12 8.30769C11.7566 8.30769 11.5186 8.23551 11.3162 8.10027C11.1138 7.96503 10.9561 7.77281 10.8629 7.54792C10.7698 7.32302 10.7454 7.07556 10.7929 6.83681C10.8404 6.59806 10.9576 6.37876 11.1297 6.20664C11.3018 6.03451 11.5211 5.91729 11.7599 5.8698C11.9986 5.82231 12.2461 5.84669 12.471 5.93984C12.6959 6.03299 12.8881 6.19074 13.0234 6.39314C13.1586 6.59554 13.2308 6.8335 13.2308 7.07692C13.2308 7.40334 13.1011 7.71639 12.8703 7.94721C12.6395 8.17802 12.3264 8.30769 12 8.30769Z" fill="#1C61AA"/>
</svg>
