<svg width="104" height="36" viewBox="0 0 104 36" fill="none" xmlns="http://www.w3.org/2000/svg">
<path d="M63.1123 8.92408H53.8064V22.4956H50.8008V7.43283C50.8008 7.22475 50.8393 7.02822 50.9164 6.84326C50.9934 6.6583 51.0975 6.49646 51.2285 6.35774C51.3672 6.21902 51.5291 6.11112 51.714 6.03406C51.899 5.95699 52.0994 5.91846 52.3152 5.91846H63.1123V8.92408Z" fill="black"/>
<path d="M54.9747 8.92408H64.2805V22.4956H67.2861V7.43283C67.2861 7.22475 67.2476 7.02822 67.1705 6.84326C67.0935 6.6583 66.9894 6.49646 66.8584 6.35774C66.7197 6.21902 66.5578 6.11112 66.3729 6.03406C66.1879 5.95699 65.9876 5.91846 65.7718 5.91846H54.9747V8.92408Z" fill="black"/>
<path d="M53.288 31.2845C52.5626 31.2845 51.9526 31.0655 51.4582 30.6276C50.9731 30.1853 50.7305 29.625 50.7305 28.9466C50.7305 28.2682 50.9731 27.71 51.4582 27.2721C51.9388 26.8298 52.5487 26.6087 53.288 26.6087C53.7824 26.6087 54.2214 26.7096 54.6049 26.9114V27.6263C54.2121 27.3902 53.7755 27.2721 53.2949 27.2721C52.7867 27.2721 52.3616 27.431 52.0196 27.7487C51.6823 28.0621 51.5137 28.4614 51.5137 28.9466C51.5137 29.4318 51.6846 29.8332 52.0266 30.151C52.3685 30.4644 52.8005 30.6211 53.3227 30.6211C53.8771 30.6211 54.3392 30.4837 54.7089 30.2089V30.9238C54.3022 31.1643 53.8286 31.2845 53.288 31.2845Z" fill="#646464"/>
<path d="M55.2675 27.3429V26.6925H59.2389V27.3429H57.6309V31.2008H56.8685V27.3429H55.2675Z" fill="#646464"/>
<path d="M60.8308 31.2008H60.0684V26.6925H62.1546C62.6629 26.6925 63.0579 26.8148 63.3398 27.0596C63.6309 27.2957 63.7764 27.6091 63.7764 27.9999C63.7764 28.3906 63.6309 28.7126 63.3398 28.9659C63.0579 29.215 62.6629 29.3395 62.1546 29.3395H60.8308V31.2008ZM60.8308 27.3429V28.689H62.0922C62.3787 28.689 62.6028 28.631 62.7645 28.5151C62.9262 28.3949 63.0071 28.2274 63.0071 28.0127C63.0071 27.7981 62.9262 27.6328 62.7645 27.5168C62.6074 27.4009 62.3833 27.3429 62.0922 27.3429H60.8308Z" fill="#646464"/>
<path d="M65.7525 30.1445C66.0806 30.4623 66.4826 30.6211 66.9585 30.6211C67.4344 30.6211 67.8364 30.4623 68.1645 30.1445C68.4926 29.8182 68.6566 29.4189 68.6566 28.9466C68.6566 28.47 68.4926 28.0729 68.1645 27.7551C67.8364 27.4331 67.4344 27.2721 66.9585 27.2721C66.4826 27.2721 66.0806 27.4331 65.7525 27.7551C65.4291 28.0686 65.2674 28.4657 65.2674 28.9466C65.2674 29.4275 65.4291 29.8268 65.7525 30.1445ZM68.7328 30.6147C68.2615 31.0612 67.6701 31.2845 66.9585 31.2845C66.2469 31.2845 65.6555 31.0612 65.1842 30.6147C64.7175 30.1596 64.4842 29.6035 64.4842 28.9466C64.4842 28.2854 64.7175 27.7315 65.1842 27.285C65.6555 26.8341 66.2469 26.6087 66.9585 26.6087C67.6701 26.6087 68.2615 26.8341 68.7328 27.285C69.2042 27.7315 69.4398 28.2854 69.4398 28.9466C69.4398 29.6078 69.2042 30.1638 68.7328 30.6147Z" fill="#646464"/>
<path d="M71.1231 31.2008H70.4716V26.6925H71.234V30.0028L73.9024 26.6925H74.5678V31.2008H73.8054V27.8775L71.1231 31.2008ZM72.5162 26.4284C72.1512 26.4284 71.8555 26.3318 71.6291 26.1386C71.4027 25.9454 71.2872 25.6877 71.2825 25.3657H71.9202C71.9202 25.5246 71.9733 25.6534 72.0796 25.7521C72.1859 25.8466 72.3291 25.8938 72.5093 25.8938C72.6895 25.8938 72.8328 25.8445 72.939 25.7457C73.0453 25.647 73.1008 25.5203 73.1054 25.3657H73.743C73.7384 25.6877 73.6206 25.9454 73.3896 26.1386C73.1631 26.3318 72.872 26.4284 72.5162 26.4284Z" fill="#646464"/>
<path d="M76.4229 31.2008H75.7714V26.6925H76.5338V30.0028L79.2022 26.6925H79.8676V31.2008H79.1052V27.8775L76.4229 31.2008Z" fill="#646464"/>
<path d="M81.8336 31.2008H81.0711V26.6925H81.8336V28.47H84.3634V26.6925H85.1258V31.2008H84.3634V29.1205H81.8336V31.2008Z" fill="#646464"/>
<path d="M88.7146 31.2008H86.3303V26.6925H88.5344C88.9733 26.6925 89.3199 26.7912 89.574 26.9887C89.8328 27.1862 89.9621 27.4567 89.9621 27.8002C89.9621 28.0235 89.9021 28.2167 89.7819 28.3798C89.6618 28.543 89.507 28.6589 89.3176 28.7276C89.6225 28.7792 89.8697 28.9123 90.0592 29.1269C90.2533 29.3416 90.3503 29.61 90.3503 29.932C90.3503 30.3141 90.2024 30.6211 89.9067 30.853C89.6156 31.0848 89.2182 31.2008 88.7146 31.2008ZM87.0927 29.1334V30.5503H88.5759C88.8717 30.5503 89.1027 30.488 89.269 30.3635C89.44 30.2347 89.5255 30.0565 89.5255 29.8289C89.5255 29.6057 89.4423 29.4339 89.276 29.3137C89.1096 29.1935 88.8763 29.1334 88.5759 29.1334H87.0927ZM87.0927 27.3429V28.5087H88.4027C88.6568 28.5087 88.8532 28.4593 88.9918 28.3605C89.135 28.2575 89.2067 28.1115 89.2067 27.9226C89.2067 27.7337 89.135 27.5898 88.9918 27.4911C88.8532 27.3923 88.6568 27.3429 88.4027 27.3429H87.0927Z" fill="#646464"/>
<path d="M94.8672 31.2008H91.3255V26.6925H94.7771V27.3429H92.0879V28.47H94.2781V29.1205H92.0879V30.5503H94.8672V31.2008Z" fill="#646464"/>
<path d="M98.0484 31.2845C97.3229 31.2845 96.713 31.0655 96.2186 30.6276C95.7334 30.1853 95.4909 29.625 95.4909 28.9466C95.4909 28.2682 95.7334 27.71 96.2186 27.2721C96.6992 26.8298 97.3091 26.6087 98.0484 26.6087C98.5428 26.6087 98.9818 26.7096 99.3653 26.9114V27.6263C98.9725 27.3902 98.5359 27.2721 98.0553 27.2721C97.547 27.2721 97.1219 27.431 96.78 27.7487C96.4427 28.0621 96.2741 28.4614 96.2741 28.9466C96.2741 29.4318 96.445 29.8332 96.7869 30.151C97.1289 30.4644 97.5609 30.6211 98.083 30.6211C98.6375 30.6211 99.0996 30.4837 99.4692 30.2089V30.9238C99.0626 31.1643 98.589 31.2845 98.0484 31.2845Z" fill="#646464"/>
<path d="M100.028 27.3429V26.6925H103.999V27.3429H102.391V31.2008H101.629V27.3429H100.028Z" fill="#646464"/>
<path d="M103.824 22.4956H99.5585L92.7959 15.7214C91.925 14.8505 92.1716 13.3709 92.7959 12.6927L99.5585 5.91846H103.824L95.3044 14.207L103.824 22.4956Z" fill="black"/>
<path d="M84.6526 22.4956H73.8093C73.5318 22.4956 73.2313 22.4648 72.9076 22.4031C72.5916 22.3338 72.2756 22.2297 71.9597 22.091C71.6514 21.9523 71.3547 21.775 71.0695 21.5592C70.7844 21.3357 70.5301 21.0699 70.3066 20.7616C70.0908 20.4456 69.9174 20.0834 69.7864 19.6749C69.6554 19.2588 69.5898 18.7925 69.5898 18.2762V10.1379C69.5898 9.86044 69.6207 9.56373 69.6823 9.24776C69.7517 8.92408 69.8557 8.6081 69.9944 8.29983C70.1332 7.98386 70.3143 7.6833 70.5378 7.39815C70.7613 7.113 71.0271 6.86253 71.3354 6.64674C71.6514 6.42325 72.0136 6.24599 72.4221 6.11498C72.8305 5.98396 73.2929 5.91846 73.8093 5.91846H84.6526V8.92408H73.8093C73.4162 8.92408 73.1157 9.02812 72.9076 9.2362C72.6995 9.44428 72.5955 9.75255 72.5955 10.161V18.2762C72.5955 18.6615 72.6995 18.9621 72.9076 19.1779C73.1234 19.3859 73.4239 19.49 73.8093 19.49H84.6526V22.4956Z" fill="black"/>
<path d="M90.5251 22.4956H87.5195V5.91846H90.5251V22.4956Z" fill="black"/>
<rect width="35.7211" height="35.7211" rx="3" fill="#2C2C2C"/>
<rect width="35.7211" height="35.7211" rx="3" fill="url(#paint0_linear)"/>
<mask id="mask0" mask-type="alpha" maskUnits="userSpaceOnUse" x="0" y="0" width="36" height="36">
<rect width="35.7211" height="35.7211" rx="3" fill="#2C2C2C"/>
</mask>
<g mask="url(#mask0)">
<path d="M17.7565 17.0166L24.4151 -2.46595L37.2391 -5.17871L38.4721 39.4586H19.976L12.5781 35.7213L17.7565 18.9896V17.0166Z" fill="url(#paint1_linear)"/>
</g>
<path fill-rule="evenodd" clip-rule="evenodd" d="M15.745 20.5765H8.05076C7.04453 20.5765 6.79304 20.1246 6.79297 19.6215C6.79289 19.1184 7.13628 18.8588 7.54835 18.3637L22.4816 0.424901C22.7848 0.0605715 23.2822 -0.0871399 23.7399 0.0512131C24.362 0.239227 24.7111 0.887313 24.5199 1.49874L20.0521 16.0484H27.1697C27.611 16.0484 28.176 16.6028 28.176 17.1059C28.176 17.609 28.078 17.8305 27.6659 18.3256L13.593 35.2964C13.2898 35.6606 12.7924 35.8083 12.3347 35.6699C11.7127 35.4818 11.3636 34.8337 11.5549 34.2223L15.745 20.5765Z" fill="white"/>
<defs>
<linearGradient id="paint0_linear" x1="23.566" y1="1.97658e-08" x2="-1.5849e-06" y2="33.9847" gradientUnits="userSpaceOnUse">
<stop stop-color="#018DD2"/>
<stop offset="1" stop-color="#A2D9F7"/>
</linearGradient>
<linearGradient id="paint1_linear" x1="35.0196" y1="0.246829" x2="10.6047" y2="36.4992" gradientUnits="userSpaceOnUse">
<stop stop-color="#0060B9"/>
<stop offset="1" stop-color="#0072F8"/>
</linearGradient>
</defs>
</svg>
