<svg width="83" height="90" viewBox="0 0 83 90" fill="none" xmlns="http://www.w3.org/2000/svg">
<path d="M81.0001 53.0005C77.4001 65.0005 48.5001 82.3338 34.5001 89.5005L24 68C24 68 21.5 65.0005 18.5 46.5C15.5 27.9995 35.1611 21 52.5001 21C69.8391 21 86.954 33.1544 81.0001 53.0005Z" fill="#181F31" fill-opacity="0.11"/>
<path d="M33.909 0C15.182 0 0 15.181 0 33.909C0 52.636 33.909 90 33.909 90C33.909 90 67.818 52.636 67.818 33.909C67.818 15.181 52.636 0 33.909 0ZM33.909 47.535C26.034 47.535 19.649 41.151 19.649 33.274C19.649 25.398 26.034 19.014 33.909 19.014C41.785 19.014 48.17 25.398 48.17 33.274C48.17 41.151 41.785 47.535 33.909 47.535Z" fill="url(#paint0_linear)"/>
<defs>
<linearGradient id="paint0_linear" x1="60.1611" y1="10.9392" x2="12.8458" y2="88.2149" gradientUnits="userSpaceOnUse">
<stop stop-color="#1A5492"/>
<stop offset="1" stop-color="#1E6DC0"/>
</linearGradient>
</defs>
</svg>
