<?xml version="1.0" standalone="no"?>
<!DOCTYPE svg PUBLIC "-//W3C//DTD SVG 20010904//EN"
 "http://www.w3.org/TR/2001/REC-SVG-20010904/DTD/svg10.dtd">
<svg version="1.0" xmlns="http://www.w3.org/2000/svg"
 width="377.000000pt" height="377.000000pt" viewBox="0 0 377.000000 377.000000"
 preserveAspectRatio="xMidYMid meet">
<metadata>
Created by potrace 1.11, written by Peter Selinger 2001-2013
</metadata>
<g transform="translate(0.000000,377.000000) scale(0.100000,-0.100000)"
fill="#000000" stroke="none">
<path d="M273 3759 c-106 -13 -195 -79 -242 -179 l-26 -55 0 -1646 0 -1645 30
-59 c37 -71 102 -129 178 -155 55 -20 86 -20 1665 -20 1450 0 1614 2 1663 16
107 32 183 111 211 220 19 72 17 3238 -1 3304 -14 47 -54 111 -92 147 -13 12
-51 34 -84 49 l-60 28 -1595 0 c-877 1 -1618 -2 -1647 -5z"/>
</g>
</svg>
