<svg width="360" height="361" viewBox="0 0 360 361" fill="none" xmlns="http://www.w3.org/2000/svg">
<g filter="url(#filter0_b_233_14163)">
<rect x="91.8203" y="40" width="240" height="240" rx="60" transform="rotate(4 91.8203 40)" fill="url(#paint0_linear_233_14163)"/>
</g>
<g filter="url(#filter1_b_233_14163)">
<rect x="29" y="81.6632" width="240" height="240" rx="60" transform="rotate(-4 29 81.6632)" fill="url(#paint1_linear_233_14163)" fill-opacity="0.28"/>
<rect x="29.2135" y="81.8488" width="239.6" height="239.6" rx="59.8" transform="rotate(-4 29.2135 81.8488)" stroke="url(#paint2_linear_233_14163)" stroke-width="0.4"/>
</g>
<path fill-rule="evenodd" clip-rule="evenodd" d="M86.9595 147.105C84.7557 147.259 83.0942 149.171 83.2483 151.375L89.7589 244.481C89.913 246.684 91.8244 248.346 94.0282 248.192L227.037 238.891C229.24 238.737 230.902 236.825 230.748 234.622L224.237 141.516C224.083 139.312 222.172 137.65 219.968 137.805L86.9595 147.105ZM91.8553 159.776L97.4604 239.932L222.488 231.19L216.883 151.033L160.867 209.014C159.41 210.522 157.049 210.688 155.395 209.396L91.8553 159.776ZM210.128 146.512L97.916 154.359L157.553 200.931L210.128 146.512Z" fill="url(#paint3_linear_233_14163)"/>
<path d="M94.0282 248.192L94.0386 248.341L94.0282 248.192ZM227.037 238.891L227.026 238.741L227.037 238.891ZM91.8553 159.776L91.9476 159.658C91.9009 159.621 91.8372 159.616 91.7849 159.644C91.7326 159.672 91.7015 159.728 91.7057 159.787L91.8553 159.776ZM97.4604 239.932L97.3107 239.943C97.3135 239.982 97.3319 240.019 97.3619 240.046C97.392 240.072 97.4311 240.085 97.4708 240.082L97.4604 239.932ZM222.488 231.19L222.499 231.339C222.581 231.333 222.644 231.262 222.638 231.179L222.488 231.19ZM216.883 151.033L217.033 151.023C217.029 150.964 216.99 150.913 216.935 150.892C216.879 150.872 216.817 150.887 216.775 150.929L216.883 151.033ZM160.867 209.014L160.975 209.118L160.867 209.014ZM155.395 209.396L155.303 209.514L155.395 209.396ZM210.128 146.512L210.236 146.616C210.279 146.572 210.29 146.505 210.264 146.449C210.237 146.392 210.179 146.358 210.117 146.363L210.128 146.512ZM97.916 154.359L97.9055 154.209C97.8436 154.213 97.7907 154.256 97.7725 154.315C97.7544 154.374 97.7747 154.439 97.8237 154.477L97.916 154.359ZM157.553 200.931L157.46 201.049C157.521 201.096 157.607 201.09 157.661 201.035L157.553 200.931ZM83.3979 151.364C83.2496 149.243 84.8488 147.403 86.97 147.255L86.949 146.956C84.6626 147.116 82.9387 149.099 83.0986 151.385L83.3979 151.364ZM89.9085 244.47L83.3979 151.364L83.0986 151.385L89.6092 244.491L89.9085 244.47ZM94.0177 248.042C91.8966 248.191 90.0568 246.591 89.9085 244.47L89.6092 244.491C89.7691 246.777 91.7522 248.501 94.0386 248.341L94.0177 248.042ZM227.026 238.741L94.0177 248.042L94.0386 248.341L227.047 239.041L227.026 238.741ZM230.598 234.632C230.747 236.753 229.147 238.593 227.026 238.741L227.047 239.041C229.334 238.881 231.057 236.898 230.898 234.611L230.598 234.632ZM224.088 141.526L230.598 234.632L230.898 234.611L224.387 141.505L224.088 141.526ZM219.978 137.954C222.1 137.806 223.939 139.405 224.088 141.526L224.387 141.505C224.227 139.219 222.244 137.495 219.958 137.655L219.978 137.954ZM86.97 147.255L219.978 137.954L219.958 137.655L86.949 146.956L86.97 147.255ZM91.7057 159.787L97.3107 239.943L97.61 239.922L92.0049 159.766L91.7057 159.787ZM97.4708 240.082L222.499 231.339L222.478 231.04L97.4499 239.783L97.4708 240.082ZM222.638 231.179L217.033 151.023L216.734 151.044L222.339 231.2L222.638 231.179ZM216.775 150.929L160.76 208.909L160.975 209.118L216.991 151.138L216.775 150.929ZM160.76 208.909C159.356 210.363 157.081 210.522 155.488 209.278L155.303 209.514C157.017 210.853 159.465 210.681 160.975 209.118L160.76 208.909ZM155.488 209.278L91.9476 159.658L91.763 159.894L155.303 209.514L155.488 209.278ZM210.117 146.363L97.9055 154.209L97.9265 154.508L210.138 146.662L210.117 146.363ZM97.8237 154.477L157.46 201.049L157.645 200.812L98.0083 154.241L97.8237 154.477ZM157.661 201.035L210.236 146.616L210.02 146.408L157.445 200.826L157.661 201.035Z" fill="url(#paint4_linear_233_14163)"/>
<defs>
<filter id="filter0_b_233_14163" x="66.1157" y="31.0367" width="274.083" height="274.083" filterUnits="userSpaceOnUse" color-interpolation-filters="sRGB">
<feFlood flood-opacity="0" result="BackgroundImageFix"/>
<feGaussianBlur in="BackgroundImageFix" stdDeviation="6.5"/>
<feComposite in2="SourceAlpha" operator="in" result="effect1_backgroundBlur_233_14163"/>
<feBlend mode="normal" in="SourceGraphic" in2="effect1_backgroundBlur_233_14163" result="shape"/>
</filter>
<filter id="filter1_b_233_14163" x="18.0366" y="53.9584" width="278.083" height="278.083" filterUnits="userSpaceOnUse" color-interpolation-filters="sRGB">
<feFlood flood-opacity="0" result="BackgroundImageFix"/>
<feGaussianBlur in="BackgroundImageFix" stdDeviation="7.5"/>
<feComposite in2="SourceAlpha" operator="in" result="effect1_backgroundBlur_233_14163"/>
<feBlend mode="normal" in="SourceGraphic" in2="effect1_backgroundBlur_233_14163" result="shape"/>
</filter>
<linearGradient id="paint0_linear_233_14163" x1="114.445" y1="38.4179" x2="375.621" y2="161.164" gradientUnits="userSpaceOnUse">
<stop offset="0.0193724" stop-color="#FF7F72"/>
<stop offset="1" stop-color="#EA311E"/>
</linearGradient>
<linearGradient id="paint1_linear_233_14163" x1="34.6934" y1="93.4254" x2="248.256" y2="307.845" gradientUnits="userSpaceOnUse">
<stop stop-color="white" stop-opacity="0.33"/>
<stop offset="1" stop-color="white" stop-opacity="0.65"/>
</linearGradient>
<linearGradient id="paint2_linear_233_14163" x1="11.8571" y1="103.481" x2="350.996" y2="278.588" gradientUnits="userSpaceOnUse">
<stop stop-color="white"/>
<stop offset="1" stop-color="white" stop-opacity="0"/>
</linearGradient>
<linearGradient id="paint3_linear_233_14163" x1="70.9999" y1="138" x2="129.35" y2="289.015" gradientUnits="userSpaceOnUse">
<stop stop-color="white" stop-opacity="0.95"/>
<stop offset="1" stop-color="white" stop-opacity="0.2"/>
</linearGradient>
<linearGradient id="paint4_linear_233_14163" x1="236" y1="239.5" x2="73.5837" y2="162.988" gradientUnits="userSpaceOnUse">
<stop stop-color="white"/>
<stop offset="1" stop-color="white" stop-opacity="0"/>
</linearGradient>
</defs>
</svg>
