<svg width="297" height="198" viewBox="0 0 297 198" fill="none" xmlns="http://www.w3.org/2000/svg">
<path d="M235.568 0L191.852 49.4312C192.381 49.4312 192.851 49.4312 193.439 49.4312C202.264 49.3846 210.912 51.9049 218.325 56.6842C225.738 61.4634 231.595 68.2944 235.181 76.3423C238.767 84.3902 239.925 93.3062 238.515 102.001C237.104 110.695 233.186 118.791 227.239 125.299C221.293 131.806 213.575 136.444 205.029 138.645C196.484 140.846 187.481 140.515 179.121 137.692C170.761 134.869 163.406 129.677 157.956 122.75C152.506 115.823 149.196 107.461 148.43 98.6864L104.656 148.235C113.1 162.107 124.694 173.803 138.504 182.378C152.313 190.953 167.949 196.166 184.15 197.597C200.351 199.028 216.662 196.636 231.765 190.615C246.869 184.594 260.341 175.112 271.095 162.935C281.849 150.758 289.582 136.228 293.67 120.518C297.758 104.809 298.086 88.3594 294.628 72.4997C291.17 56.6399 284.022 41.8142 273.762 29.2201C263.503 16.6259 250.419 6.61637 235.568 0Z" fill="#FF6859"/>
<path d="M105.575 148.535C104.988 148.535 104.401 148.535 103.814 148.535C94.9759 148.632 86.3021 146.149 78.8575 141.393C71.413 136.636 65.5218 129.813 61.9074 121.761C58.293 113.708 57.1127 104.778 58.5114 96.0652C59.9101 87.3526 63.827 79.2374 69.781 72.7162C75.7351 66.1949 83.4671 61.5514 92.0277 59.3558C100.588 57.1602 109.605 57.5082 117.97 60.3569C126.335 63.2056 133.685 68.4311 139.117 75.3917C144.549 82.3524 147.827 90.7452 148.548 99.5395L192.343 50.0162C183.938 36.1042 172.368 24.3643 158.571 15.7475C144.775 7.13068 129.139 1.87933 112.931 0.418832C96.7227 -1.04167 80.3979 1.32974 65.2787 7.34097C50.1595 13.3522 36.6712 22.8342 25.9065 35.0189C15.1418 47.2035 7.40332 61.7482 3.31797 77.4747C-0.767375 93.2011 -1.08471 109.667 2.39167 125.539C5.86805 141.411 13.0404 156.242 23.3277 168.831C33.615 181.42 46.7279 191.413 61.6043 198L105.575 148.535Z" fill="#4E2BAA"/>
</svg>
