<svg width="170" height="30" viewBox="0 0 170 30" fill="none" xmlns="http://www.w3.org/2000/svg">
<path d="M67.1834 23V8.42295H57.8166V23H54V5H71V8.42295V23H67.1834Z" fill="#25222D"/>
<path d="M84.5106 22.9908C83.245 23.0247 81.9855 22.8141 80.81 22.3722C79.6346 21.9302 78.5684 21.2663 77.6773 20.4216C76.7972 19.5744 76.107 18.5699 75.6477 17.4676C75.1884 16.3654 74.9694 15.1878 75.0034 14.0046C74.9694 12.8214 75.1884 11.6438 75.6477 10.5415C76.107 9.43926 76.7972 8.43476 77.6773 7.58752C78.5642 6.73672 79.6294 6.06804 80.8056 5.62381C81.9818 5.17958 83.2435 4.96946 84.5106 5.00675C85.8014 4.95764 87.0877 5.17707 88.2776 5.64936C89.4675 6.12164 90.5315 6.83509 91.3934 7.73864L91.9257 8.30827L89.4499 10.7495L88.8186 10.1567C88.2603 9.60738 87.5874 9.17212 86.8419 8.87808C86.0964 8.58405 85.2944 8.43756 84.4859 8.44777C83.7382 8.42754 82.9944 8.55585 82.3032 8.8243C81.6121 9.09275 80.989 9.49528 80.475 10.0055C79.9321 10.5353 79.5086 11.1626 79.23 11.8498C78.9513 12.5369 78.8232 13.2698 78.8534 14.0046C78.8242 14.7375 78.9528 15.4684 79.2314 16.1535C79.5101 16.8386 79.933 17.4639 80.475 17.992C80.989 18.5022 81.6121 18.9048 82.3032 19.1732C82.9944 19.4417 83.7382 19.57 84.4859 19.5497C85.3053 19.5566 86.1176 19.4066 86.8732 19.1088C87.6288 18.811 88.3118 18.3716 88.8805 17.8176L89.5242 17.2131L92 19.7125L91.4677 20.2589C90.5966 21.1705 89.5203 21.8886 88.317 22.3611C87.1137 22.8336 85.8134 23.0487 84.5106 22.9908Z" fill="#25222D"/>
<path d="M108.157 23L101.133 15.3593H99.6867V23H96V5H99.6867V11.8743H101.157L108.06 5H112.988L104.289 13.5629L113 23H108.157Z" fill="#25222D"/>
<path d="M35.0572 0L28.6934 7.48957C28.7704 7.48957 28.8388 7.48957 28.9243 7.48957C30.2091 7.48251 31.468 7.86438 32.5471 8.58851C33.6263 9.31263 34.479 10.3476 35.0009 11.567C35.5229 12.7864 35.6915 14.1373 35.4862 15.4546C35.2809 16.7719 34.7105 17.9986 33.8449 18.9846C32.9792 19.9707 31.8557 20.6734 30.6117 21.0069C29.3677 21.3404 28.0571 21.2902 26.8401 20.8625C25.6231 20.4347 24.5525 19.648 23.759 18.5984C22.9656 17.5489 22.4837 16.2819 22.3724 14.9525L16 22.4598C17.2292 24.5617 18.917 26.3338 20.9273 27.633C22.9375 28.9322 25.2138 29.7221 27.5722 29.9389C29.9306 30.1557 32.305 29.7934 34.5037 28.881C36.7024 27.9687 38.6636 26.5321 40.2291 24.6871C41.7945 22.8422 42.9203 20.6406 43.5153 18.2604C44.1104 15.8801 44.1582 13.3878 43.6548 10.9848C43.1514 8.58181 42.1109 6.33549 40.6174 4.42728C39.1238 2.51908 37.2192 1.00248 35.0572 0V0Z" fill="#FF6859"/>
<path d="M15.3689 22.5054C15.2835 22.5054 15.198 22.5054 15.1126 22.5054C13.826 22.5199 12.5633 22.1438 11.4796 21.4231C10.3958 20.7024 9.53823 19.6686 9.01207 18.4486C8.48591 17.2285 8.31409 15.8754 8.5177 14.5553C8.72132 13.2352 9.29151 12.0057 10.1583 11.0176C11.025 10.0295 12.1506 9.32597 13.3968 8.9933C14.643 8.66064 15.9556 8.71336 17.1733 9.14498C18.3911 9.57661 19.461 10.3683 20.2518 11.423C21.0426 12.4776 21.5197 13.7493 21.6246 15.0817L28 7.57822C26.7764 5.47033 25.0922 3.69156 23.0838 2.38598C21.0754 1.08041 18.7992 0.284747 16.4397 0.0634594C14.0803 -0.157829 11.7038 0.201476 9.50284 1.11227C7.30189 2.02306 5.33836 3.45973 3.7713 5.30589C2.20424 7.15205 1.07773 9.35579 0.483008 11.7386C-0.111709 14.1214 -0.157905 16.6162 0.348164 19.021C0.854233 21.4258 1.89833 23.673 3.39589 25.5804C4.89345 27.4878 6.80234 29.0019 8.96794 30L15.3689 22.5054Z" fill="#4A2D97"/>
<path d="M125.603 4.674V9H125.028V5.21784H123.038V9H122.464V4.674H125.603ZM128.101 4.674C128.501 4.674 128.832 4.8079 129.096 5.0757C129.364 5.33938 129.498 5.66898 129.498 6.0645C129.498 6.4559 129.364 6.7855 129.096 7.0533C128.832 7.3211 128.501 7.455 128.101 7.455H127.106V9H126.531V4.674H128.101ZM128.101 6.91734C128.34 6.91734 128.538 6.837 128.694 6.67632C128.851 6.51152 128.929 6.30758 128.929 6.0645C128.929 5.8173 128.851 5.61336 128.694 5.45268C128.538 5.292 128.34 5.21166 128.101 5.21166H127.106V6.91734H128.101ZM133.743 8.42526C133.31 8.86198 132.781 9.08034 132.155 9.08034C131.529 9.08034 130.999 8.86198 130.566 8.42526C130.134 7.98854 129.918 7.45912 129.918 6.837C129.918 6.21076 130.134 5.68134 130.566 5.24874C130.999 4.81202 131.529 4.59366 132.155 4.59366C132.781 4.59366 133.31 4.81202 133.743 5.24874C134.18 5.68134 134.398 6.21076 134.398 6.837C134.398 7.45912 134.18 7.98854 133.743 8.42526ZM130.962 8.03592C131.283 8.35728 131.681 8.51796 132.155 8.51796C132.629 8.51796 133.024 8.35728 133.341 8.03592C133.663 7.71044 133.823 7.3108 133.823 6.837C133.823 6.35908 133.663 5.95944 133.341 5.63808C133.024 5.3126 132.629 5.14986 132.155 5.14986C131.681 5.14986 131.283 5.3126 130.962 5.63808C130.645 5.95944 130.486 6.35908 130.486 6.837C130.486 7.3108 130.645 7.71044 130.962 8.03592ZM137.777 9V5.77404L135.553 9H135.089V4.674H135.664V7.90614L137.889 4.674H138.352V9H137.777ZM141.361 6.76284C141.583 6.8576 141.756 6.99562 141.88 7.1769C142.003 7.35818 142.065 7.57242 142.065 7.81962C142.065 8.19042 141.925 8.49324 141.645 8.72808C141.369 8.96292 141.002 9.08034 140.545 9.08034C140.129 9.08034 139.793 8.98764 139.537 8.80224C139.286 8.61684 139.109 8.37788 139.006 8.08536L139.494 7.80726C139.622 8.29342 139.972 8.5365 140.545 8.5365C140.846 8.5365 141.078 8.47058 141.243 8.33874C141.408 8.20278 141.49 8.02356 141.49 7.80108C141.49 7.5786 141.412 7.39938 141.255 7.26342C141.103 7.12746 140.889 7.05948 140.613 7.05948H140.106V6.53418H140.471C140.734 6.53418 140.944 6.47032 141.101 6.3426C141.258 6.21076 141.336 6.03978 141.336 5.82966C141.336 5.62366 141.262 5.4568 141.113 5.32908C140.969 5.19724 140.767 5.13132 140.508 5.13132C140.03 5.13132 139.71 5.3435 139.55 5.76786L139.068 5.48976C139.327 4.89236 139.807 4.59366 140.508 4.59366C140.924 4.59366 141.26 4.70902 141.515 4.93974C141.775 5.17046 141.904 5.46298 141.904 5.8173C141.904 6.2293 141.723 6.54448 141.361 6.76284ZM145.22 6.75666C145.417 6.85142 145.574 6.98738 145.689 7.16454C145.809 7.3417 145.869 7.54564 145.869 7.77636C145.869 8.12244 145.747 8.4129 145.504 8.64774C145.261 8.88258 144.964 9 144.614 9H142.748V4.674H144.478C144.816 4.674 145.102 4.7873 145.337 5.0139C145.572 5.2405 145.689 5.52066 145.689 5.85438C145.689 6.23754 145.533 6.5383 145.22 6.75666ZM144.478 5.21166H143.322V6.53418H144.478C144.659 6.53418 144.812 6.47032 144.935 6.3426C145.059 6.21488 145.121 6.05832 145.121 5.87292C145.121 5.69164 145.057 5.53714 144.929 5.40942C144.806 5.27758 144.655 5.21166 144.478 5.21166ZM144.614 8.46234C144.808 8.46234 144.97 8.39436 145.102 8.2584C145.234 8.12244 145.3 7.95558 145.3 7.75782C145.3 7.56418 145.232 7.39938 145.096 7.26342C144.964 7.12746 144.804 7.05948 144.614 7.05948H143.322V8.46234H144.614ZM150.147 8.42526C149.714 8.86198 149.185 9.08034 148.558 9.08034C147.932 9.08034 147.403 8.86198 146.97 8.42526C146.537 7.98854 146.321 7.45912 146.321 6.837C146.321 6.21076 146.537 5.68134 146.97 5.24874C147.403 4.81202 147.932 4.59366 148.558 4.59366C149.185 4.59366 149.714 4.81202 150.147 5.24874C150.583 5.68134 150.802 6.21076 150.802 6.837C150.802 7.45912 150.583 7.98854 150.147 8.42526ZM147.366 8.03592C147.687 8.35728 148.085 8.51796 148.558 8.51796C149.032 8.51796 149.428 8.35728 149.745 8.03592C150.066 7.71044 150.227 7.3108 150.227 6.837C150.227 6.35908 150.066 5.95944 149.745 5.63808C149.428 5.3126 149.032 5.14986 148.558 5.14986C148.085 5.14986 147.687 5.3126 147.366 5.63808C147.048 5.95944 146.89 6.35908 146.89 6.837C146.89 7.3108 147.048 7.71044 147.366 8.03592ZM154.47 8.45616H154.933V9.82812H154.359V9H151.503V9.82812H150.929V8.45616H151.306C151.573 8.12244 151.707 7.61568 151.707 6.93588V4.674H154.47V8.45616ZM151.955 8.45616H153.895V5.21166H152.282V6.94824C152.282 7.60332 152.173 8.10596 151.955 8.45616ZM158.285 9V5.77404L156.06 9H155.597V4.674H156.171V7.90614L158.396 4.674H158.86V9H158.285ZM163.833 4.674V9H163.264V5.61954L161.849 7.97412H161.775L160.36 5.62572V9H159.785V4.674H160.434L161.812 6.9606L163.184 4.674H163.833ZM124.497 16.0803C123.842 16.0803 123.3 15.864 122.871 15.4314C122.447 14.9988 122.235 14.4674 122.235 13.837C122.235 13.2066 122.447 12.6752 122.871 12.2426C123.3 11.81 123.842 11.5937 124.497 11.5937C124.892 11.5937 125.255 11.6884 125.584 11.8779C125.918 12.0675 126.178 12.3229 126.363 12.6443L125.862 12.9347C125.739 12.6958 125.554 12.5062 125.306 12.3662C125.063 12.222 124.793 12.1499 124.497 12.1499C123.998 12.1499 123.59 12.3105 123.273 12.6319C122.96 12.9533 122.803 13.355 122.803 13.837C122.803 14.3149 122.96 14.7146 123.273 15.0359C123.59 15.3573 123.998 15.518 124.497 15.518C124.793 15.518 125.063 15.4479 125.306 15.3078C125.554 15.1636 125.739 14.9741 125.862 14.7393L126.363 15.0236C126.182 15.3449 125.924 15.6024 125.591 15.7961C125.257 15.9856 124.892 16.0803 124.497 16.0803ZM129.702 16V12.774L127.478 16H127.014V11.674H127.589V14.9061L129.814 11.674H130.277V16H129.702ZM134.342 11.674V16H133.767V12.2178H131.777V16H131.202V11.674H134.342ZM135.27 14.3623V13.8432H137.526V14.3623H135.27ZM141.106 16L140.754 15.0297H138.808L138.455 16H137.843L139.456 11.674H140.105L141.718 16H141.106ZM139.005 14.4921H140.556L139.778 12.36L139.005 14.4921ZM143.798 11.674C144.198 11.674 144.53 11.8079 144.793 12.0757C145.061 12.3394 145.195 12.669 145.195 13.0645C145.195 13.4559 145.061 13.7855 144.793 14.0533C144.53 14.3211 144.198 14.455 143.798 14.455H142.803V16H142.229V11.674H143.798ZM143.798 13.9173C144.037 13.9173 144.235 13.837 144.392 13.6763C144.548 13.5115 144.626 13.3076 144.626 13.0645C144.626 12.8173 144.548 12.6134 144.392 12.4527C144.235 12.292 144.037 12.2117 143.798 12.2117H142.803V13.9173H143.798ZM149.922 11.674V16H149.353V12.6195L147.938 14.9741H147.864L146.449 12.6257V16H145.874V11.674H146.523L147.901 13.9606L149.273 11.674H149.922ZM153.696 16L153.344 15.0297H151.397L151.045 16H150.433L152.046 11.674H152.695L154.308 16H153.696ZM151.595 14.4921H153.146L152.367 12.36L151.595 14.4921ZM157.273 11.674V12.2178H155.994V16H155.425V12.2178H154.152V11.674H157.273ZM160.32 11.674H160.901L159.51 14.9741C159.354 15.3449 159.154 15.6148 158.911 15.7837C158.668 15.9485 158.371 16.0206 158.021 16V15.4685C158.26 15.4932 158.453 15.4582 158.602 15.3635C158.75 15.2687 158.874 15.106 158.973 14.8752L159.016 14.7764L157.551 11.674H158.132L159.282 14.146L160.32 11.674ZM162.996 11.674C163.396 11.674 163.727 11.8079 163.991 12.0757C164.259 12.3394 164.393 12.669 164.393 13.0645C164.393 13.4559 164.259 13.7855 163.991 14.0533C163.727 14.3211 163.396 14.455 162.996 14.455H162.001V16H161.426V11.674H162.996ZM162.996 13.9173C163.235 13.9173 163.433 13.837 163.589 13.6763C163.746 13.5115 163.824 13.3076 163.824 13.0645C163.824 12.8173 163.746 12.6134 163.589 12.4527C163.433 12.292 163.235 12.2117 162.996 12.2117H162.001V13.9173H162.996ZM167.357 11.674H167.938L166.547 14.9741C166.391 15.3449 166.191 15.6148 165.948 15.7837C165.705 15.9485 165.408 16.0206 165.058 16V15.4685C165.297 15.4932 165.49 15.4582 165.639 15.3635C165.787 15.2687 165.911 15.106 166.01 14.8752L166.053 14.7764L164.588 11.674H165.169L166.319 14.146L167.357 11.674ZM125.609 23H124.905L123.038 20.9235V23H122.464V18.674H123.038V20.6269L124.843 18.674H125.547L123.638 20.7752L125.609 23ZM129.048 23L128.696 22.0297H126.749L126.397 23H125.785L127.398 18.674H128.047L129.66 23H129.048ZM126.947 21.4921H128.498L127.72 19.36L126.947 21.4921ZM132.236 18.674H132.811V23H132.236V21.2572C131.898 21.4179 131.544 21.4983 131.173 21.4983C130.753 21.4983 130.413 21.3808 130.153 21.146C129.894 20.907 129.764 20.598 129.764 20.219V18.674H130.339V20.1819C130.339 20.4168 130.413 20.6042 130.561 20.7443C130.709 20.8844 130.915 20.9544 131.179 20.9544C131.55 20.9544 131.902 20.8741 132.236 20.7134V18.674ZM134.312 22.4562H136.32V23H133.737V18.674H136.29V19.2178H134.312V20.5465H136.135V21.0842H134.312V22.4562ZM139.017 23.0803C138.362 23.0803 137.82 22.864 137.392 22.4314C136.968 21.9988 136.755 21.4674 136.755 20.837C136.755 20.2066 136.968 19.6752 137.392 19.2426C137.82 18.81 138.362 18.5937 139.017 18.5937C139.413 18.5937 139.775 18.6884 140.105 18.8779C140.439 19.0675 140.698 19.3229 140.884 19.6443L140.383 19.9347C140.259 19.6958 140.074 19.5062 139.827 19.3662C139.584 19.222 139.314 19.1499 139.017 19.1499C138.519 19.1499 138.111 19.3105 137.794 19.6319C137.481 19.9533 137.324 20.355 137.324 20.837C137.324 21.3149 137.481 21.7146 137.794 22.0359C138.111 22.3573 138.519 22.518 139.017 22.518C139.314 22.518 139.584 22.4479 139.827 22.3078C140.074 22.1636 140.259 21.9741 140.383 21.7393L140.884 22.0236C140.702 22.3449 140.445 22.6024 140.111 22.7961C139.777 22.9856 139.413 23.0803 139.017 23.0803ZM144.255 18.674V19.2178H142.976V23H142.407V19.2178H141.134V18.674H144.255ZM147.296 20.7567C147.494 20.8514 147.65 20.9874 147.765 21.1645C147.885 21.3417 147.945 21.5456 147.945 21.7764C147.945 22.1224 147.823 22.4129 147.58 22.6477C147.337 22.8826 147.04 23 146.69 23H144.824V18.674H146.554C146.892 18.674 147.178 18.7873 147.413 19.0139C147.648 19.2405 147.765 19.5207 147.765 19.8544C147.765 20.2375 147.609 20.5383 147.296 20.7567ZM146.554 19.2117H145.398V20.5342H146.554C146.735 20.5342 146.888 20.4703 147.011 20.3426C147.135 20.2149 147.197 20.0583 147.197 19.8729C147.197 19.6916 147.133 19.5371 147.005 19.4094C146.882 19.2776 146.731 19.2117 146.554 19.2117ZM146.69 22.4623C146.884 22.4623 147.046 22.3944 147.178 22.2584C147.31 22.1224 147.376 21.9556 147.376 21.7578C147.376 21.5642 147.308 21.3994 147.172 21.2634C147.04 21.1275 146.88 21.0595 146.69 21.0595H145.398V22.4623H146.69ZM149.201 22.4562H151.209V23H148.626V18.674H151.178V19.2178H149.201V20.5465H151.024V21.0842H149.201V22.4562ZM154.579 18.674H155.147V23H154.579V21.0533H152.478V23H151.903V18.674H152.478V20.5095H154.579V18.674ZM158.749 18.674H159.318V23H158.749V21.0533H156.648V23H156.073V18.674H156.648V20.5095H158.749V18.674ZM163.84 22.4253C163.408 22.862 162.878 23.0803 162.252 23.0803C161.626 23.0803 161.096 22.862 160.664 22.4253C160.231 21.9885 160.015 21.4591 160.015 20.837C160.015 20.2108 160.231 19.6813 160.664 19.2487C161.096 18.812 161.626 18.5937 162.252 18.5937C162.878 18.5937 163.408 18.812 163.84 19.2487C164.277 19.6813 164.495 20.2108 164.495 20.837C164.495 21.4591 164.277 21.9885 163.84 22.4253ZM161.059 22.0359C161.381 22.3573 161.778 22.518 162.252 22.518C162.726 22.518 163.121 22.3573 163.439 22.0359C163.76 21.7104 163.921 21.3108 163.921 20.837C163.921 20.3591 163.76 19.9594 163.439 19.6381C163.121 19.3126 162.726 19.1499 162.252 19.1499C161.778 19.1499 161.381 19.3126 161.059 19.6381C160.742 19.9594 160.583 20.3591 160.583 20.837C160.583 21.3108 160.742 21.7104 161.059 22.0359Z" fill="#25222D"/>
</svg>
