<svg width="80" height="96" viewBox="0 0 80 96" fill="none" xmlns="http://www.w3.org/2000/svg">
<path fill-rule="evenodd" clip-rule="evenodd" d="M0 40.3416C0 18.0135 17.992 0 40.0535 0C62.1151 0 80 18.0135 80 40.3416C80 51.4517 75.6091 61.4831 68.3266 68.818C61.1513 76.1528 40.0535 96 40.0535 96C40.0535 96 19.4913 76.3685 12.2088 69.3573C4.71218 62.0225 0 51.7753 0 40.3416ZM56.1602 39.4305C56.1602 48.2671 48.9967 55.4305 40.1602 55.4305C31.3236 55.4305 24.1602 48.2671 24.1602 39.4305C24.1602 30.594 31.3236 23.4305 40.1602 23.4305C48.9967 23.4305 56.1602 30.594 56.1602 39.4305Z" fill="#FF6859"/>
</svg>
