<svg width="61" height="16" viewBox="0 0 61 16" fill="none" xmlns="http://www.w3.org/2000/svg">
<path d="M5.6 3.776C6.67733 3.776 7.59467 4.18667 8.352 5.008C9.12 5.81867 9.504 6.816 9.504 8C9.504 9.184 9.12 10.1867 8.352 11.008C7.59467 11.8187 6.67733 12.224 5.6 12.224C4.48 12.224 3.616 11.8347 3.008 11.056V15.2H0.944V4H3.008V4.944C3.616 4.16533 4.48 3.776 5.6 3.776ZM3.632 9.632C4.048 10.048 4.576 10.256 5.216 10.256C5.856 10.256 6.384 10.048 6.8 9.632C7.22667 9.20533 7.44 8.66133 7.44 8C7.44 7.33867 7.22667 6.8 6.8 6.384C6.384 5.95733 5.856 5.744 5.216 5.744C4.576 5.744 4.048 5.95733 3.632 6.384C3.216 6.8 3.008 7.33867 3.008 8C3.008 8.66133 3.216 9.20533 3.632 9.632ZM13.0236 5.376C13.2156 4.864 13.5303 4.48 13.9676 4.224C14.4156 3.968 14.9116 3.84 15.4556 3.84V6.144C14.8263 6.06933 14.261 6.19733 13.7596 6.528C13.269 6.85867 13.0236 7.408 13.0236 8.176V12H10.9596V4H13.0236V5.376ZM23.1819 11.008C22.3605 11.8187 21.3579 12.224 20.1739 12.224C18.9899 12.224 17.9872 11.8187 17.1659 11.008C16.3552 10.1867 15.9499 9.184 15.9499 8C15.9499 6.816 16.3552 5.81867 17.1659 5.008C17.9872 4.18667 18.9899 3.776 20.1739 3.776C21.3579 3.776 22.3605 4.18667 23.1819 5.008C24.0032 5.81867 24.4139 6.816 24.4139 8C24.4139 9.184 24.0032 10.1867 23.1819 11.008ZM18.6219 9.584C19.0379 10 19.5552 10.208 20.1739 10.208C20.7925 10.208 21.3099 10 21.7259 9.584C22.1419 9.168 22.3499 8.64 22.3499 8C22.3499 7.36 22.1419 6.832 21.7259 6.416C21.3099 6 20.7925 5.792 20.1739 5.792C19.5552 5.792 19.0379 6 18.6219 6.416C18.2165 6.832 18.0139 7.36 18.0139 8C18.0139 8.64 18.2165 9.168 18.6219 9.584ZM31.1459 4H33.2099V12H31.1459V11.104C30.6445 11.8507 29.8499 12.224 28.7619 12.224C27.8872 12.224 27.1619 11.9307 26.5859 11.344C26.0205 10.7573 25.7379 9.94667 25.7379 8.912V4H27.8019V8.656C27.8019 9.18933 27.9459 9.6 28.2339 9.888C28.5219 10.1653 28.9059 10.304 29.3859 10.304C29.9192 10.304 30.3459 10.1387 30.6659 9.808C30.9859 9.47733 31.1459 8.98133 31.1459 8.32V4ZM41.1643 0.799999H43.2283V12H41.1643V11.056C40.5563 11.8347 39.6923 12.224 38.5723 12.224C37.4949 12.224 36.5723 11.8187 35.8043 11.008C35.0469 10.1867 34.6683 9.184 34.6683 8C34.6683 6.816 35.0469 5.81867 35.8043 5.008C36.5723 4.18667 37.4949 3.776 38.5723 3.776C39.6923 3.776 40.5563 4.16533 41.1643 4.944V0.799999ZM37.3563 9.632C37.7829 10.048 38.3163 10.256 38.9563 10.256C39.5963 10.256 40.1243 10.048 40.5403 9.632C40.9563 9.20533 41.1643 8.66133 41.1643 8C41.1643 7.33867 40.9563 6.8 40.5403 6.384C40.1243 5.95733 39.5963 5.744 38.9563 5.744C38.3163 5.744 37.7829 5.95733 37.3563 6.384C36.9403 6.8 36.7323 7.33867 36.7323 8C36.7323 8.66133 36.9403 9.20533 37.3563 9.632ZM45.1159 12V0.32H47.1799V12H45.1159ZM54.285 4H56.493L53.581 12C53.165 13.152 52.6103 13.984 51.917 14.496C51.2343 15.0187 50.381 15.2533 49.357 15.2V13.28C49.9117 13.2907 50.349 13.1733 50.669 12.928C50.9997 12.6827 51.261 12.288 51.453 11.744L48.173 4H50.429L52.509 9.376L54.285 4Z" fill="#060D2C"/>
<path d="M59.6353 11.808C59.3686 12.0747 59.0486 12.208 58.6753 12.208C58.3019 12.208 57.9819 12.0747 57.7153 11.808C57.4486 11.5413 57.3153 11.2213 57.3153 10.848C57.3153 10.4747 57.4486 10.1547 57.7153 9.888C57.9819 9.62133 58.3019 9.488 58.6753 9.488C59.0486 9.488 59.3686 9.62133 59.6353 9.888C59.9019 10.1547 60.0353 10.4747 60.0353 10.848C60.0353 11.2213 59.9019 11.5413 59.6353 11.808Z" fill="#0676C7"/>
</svg>
