<svg width="44" height="44" viewBox="0 0 44 44" fill="none" xmlns="http://www.w3.org/2000/svg">
<path d="M7.33268 31.1654H4.66602C4.11373 31.1654 3.66602 30.7176 3.66602 30.1654V13.832C3.66602 13.2797 4.11373 12.832 4.66602 12.832H26.4993C27.0516 12.832 27.4993 13.2797 27.4993 13.832V30.1654C27.4993 30.7176 27.0516 31.1654 26.4993 31.1654H14.666" stroke="white" stroke-width="1.5" stroke-linecap="round"/>
<path d="M36.6667 31.1667H39.3333C39.8856 31.1667 40.3333 30.719 40.3333 30.1667V23.2805C40.3333 23.1087 40.2891 22.9399 40.2049 22.7902L36.9534 17.0097C36.7763 16.6949 36.4431 16.5 36.0818 16.5H28.5C27.9477 16.5 27.5 16.9477 27.5 17.5V30.1667C27.5 30.719 27.9477 31.1667 28.5 31.1667H29.3333" stroke="white" stroke-width="1.5" stroke-linecap="round"/>
<ellipse cx="11.0007" cy="31.1667" rx="3.66667" ry="3.66667" stroke="white" stroke-width="1.5"/>
<ellipse cx="33.0007" cy="31.1667" rx="3.66667" ry="3.66667" stroke="white" stroke-width="1.5"/>
</svg>
