<svg width="1280" height="260" viewBox="0 0 1280 260" fill="none" xmlns="http://www.w3.org/2000/svg">
<g filter="url(#filter0_f_717_1938)">
<path d="M241.239 318.059C859.985 316.188 154.241 58.5084 227.502 -67.2914L1485.15 -70.155C1504.56 -67.2914 1527.53 -76.7479 1544.29 -67.2914L1527.59 318.059H241.239C236.73 318.073 232.152 318.073 227.502 318.059H241.239Z" fill="url(#paint0_linear_717_1938)"/>
</g>
<path d="M1371.15 385.304C701.614 382.422 367.993 -14.5279 290.568 -208.32L-16.6047 -216C-27.0448 -202.598 1.10583 -153.765 -16.6047 -139.197L11.858 385.304H1371.15C1376.02 385.325 1380.92 385.325 1385.83 385.304H1371.15Z" fill="url(#paint1_linear_717_1938)"/>
<g opacity="0.6" filter="url(#filter1_f_717_1938)">
<ellipse rx="287.238" ry="107.008" transform="matrix(1 0 0 -1 1246.3 -7.25308)" fill="#803B8D"/>
</g>
<g opacity="0.6" filter="url(#filter2_f_717_1938)">
<ellipse rx="298.156" ry="113.414" transform="matrix(0.94147 0.337095 -0.435226 0.900321 1121.8 211.384)" fill="#61279C"/>
</g>
<g opacity="0.6" filter="url(#filter3_f_717_1938)">
<ellipse rx="164.19" ry="96.04" transform="matrix(0.952226 -0.305394 -0.474935 -0.880021 1361.66 278.941)" fill="white"/>
</g>
<g opacity="0.6" filter="url(#filter4_f_717_1938)">
<ellipse rx="148.023" ry="110.889" transform="matrix(0.935453 0.35345 -0.416476 0.909147 1379.35 -62.8668)" fill="#361787"/>
</g>
<defs>
<filter id="filter0_f_717_1938" x="220.092" y="-73.6095" width="1326.2" height="393.679" filterUnits="userSpaceOnUse" color-interpolation-filters="sRGB">
<feFlood flood-opacity="0" result="BackgroundImageFix"/>
<feBlend mode="normal" in="SourceGraphic" in2="BackgroundImageFix" result="shape"/>
<feGaussianBlur stdDeviation="1" result="effect1_foregroundBlur_717_1938"/>
</filter>
<filter id="filter1_f_717_1938" x="751.059" y="-322.261" width="990.476" height="630.016" filterUnits="userSpaceOnUse" color-interpolation-filters="sRGB">
<feFlood flood-opacity="0" result="BackgroundImageFix"/>
<feBlend mode="normal" in="SourceGraphic" in2="BackgroundImageFix" result="shape"/>
<feGaussianBlur stdDeviation="104" result="effect1_foregroundBlur_717_1938"/>
</filter>
<filter id="filter2_f_717_1938" x="596.741" y="-171.892" width="1050.12" height="766.551" filterUnits="userSpaceOnUse" color-interpolation-filters="sRGB">
<feFlood flood-opacity="0" result="BackgroundImageFix"/>
<feBlend mode="normal" in="SourceGraphic" in2="BackgroundImageFix" result="shape"/>
<feGaussianBlur stdDeviation="120" result="effect1_foregroundBlur_717_1938"/>
</filter>
<filter id="filter3_f_717_1938" x="967.749" y="-50.3464" width="787.812" height="658.575" filterUnits="userSpaceOnUse" color-interpolation-filters="sRGB">
<feFlood flood-opacity="0" result="BackgroundImageFix"/>
<feBlend mode="normal" in="SourceGraphic" in2="BackgroundImageFix" result="shape"/>
<feGaussianBlur stdDeviation="115.5" result="effect1_foregroundBlur_717_1938"/>
</filter>
<filter id="filter4_f_717_1938" x="1113.34" y="-296.472" width="532.014" height="467.21" filterUnits="userSpaceOnUse" color-interpolation-filters="sRGB">
<feFlood flood-opacity="0" result="BackgroundImageFix"/>
<feBlend mode="normal" in="SourceGraphic" in2="BackgroundImageFix" result="shape"/>
<feGaussianBlur stdDeviation="60" result="effect1_foregroundBlur_717_1938"/>
</filter>
<linearGradient id="paint0_linear_717_1938" x1="1362.65" y1="-67.2917" x2="956.479" y2="511.178" gradientUnits="userSpaceOnUse">
<stop offset="0.0321855" stop-color="#8F2F2E"/>
<stop offset="0.232292" stop-color="#EC6261"/>
<stop offset="1" stop-color="#371888"/>
</linearGradient>
<linearGradient id="paint1_linear_717_1938" x1="186.168" y1="-208.32" x2="828.363" y2="394.819" gradientUnits="userSpaceOnUse">
<stop offset="0.0321855" stop-color="#EC6261"/>
<stop offset="0.273958" stop-color="#EC6261"/>
<stop offset="0.813646" stop-color="#371888"/>
</linearGradient>
</defs>
</svg>
