<svg width="24" height="24" viewBox="0 0 24 24" fill="none" xmlns="http://www.w3.org/2000/svg">
<g id="ShoppingCartSimple">
<path id="Vector" d="M7.875 20.25C7.875 20.4571 7.70711 20.625 7.5 20.625C7.29289 20.625 7.125 20.4571 7.125 20.25C7.125 20.0429 7.29289 19.875 7.5 19.875C7.70711 19.875 7.875 20.0429 7.875 20.25Z" fill="white" stroke="white" stroke-width="1.5"/>
<path id="Vector_2" d="M17.625 20.25C17.625 20.4571 17.4571 20.625 17.25 20.625C17.0429 20.625 16.875 20.4571 16.875 20.25C16.875 20.0429 17.0429 19.875 17.25 19.875C17.4571 19.875 17.625 20.0429 17.625 20.25Z" fill="white" stroke="white" stroke-width="1.5"/>
<path id="Vector_3" d="M3.96562 6.75H20.7844L18.3094 15.4125C18.2211 15.7269 18.032 16.0036 17.7711 16.2C17.5103 16.3965 17.1922 16.5019 16.8656 16.5H7.88437C7.55783 16.5019 7.2397 16.3965 6.97886 16.2C6.71803 16.0036 6.52893 15.7269 6.44062 15.4125L3.04688 3.54375C3.00203 3.38696 2.9073 3.24905 2.77704 3.15093C2.64677 3.05282 2.48808 2.99983 2.325 3H0.75" stroke="white" stroke-width="1.5" stroke-linecap="round" stroke-linejoin="round"/>
</g>
</svg>
